<?xml version="1.0" encoding="utf-8"?>
<svg xmlns="http://www.w3.org/2000/svg" xmlns:xlink="http://www.w3.org/1999/xlink" width="600" height="400" viewBox="0 0 2400 1600">
<defs>
  <clipPath id="clip430">
    <rect x="0" y="0" width="2400" height="1600"/>
  </clipPath>
</defs>
<path clip-path="url(#clip430)" d="M0 1600 L2400 1600 L2400 0 L0 0  Z" fill="#ffffff" fill-rule="evenodd" fill-opacity="1"/>
<defs>
  <clipPath id="clip431">
    <rect x="480" y="0" width="1681" height="1600"/>
  </clipPath>
</defs>
<path clip-path="url(#clip430)" d="M249.542 1410.9 L2352.76 1410.9 L2352.76 47.2441 L249.542 47.2441  Z" fill="#ffffff" fill-rule="evenodd" fill-opacity="1"/>
<defs>
  <clipPath id="clip432">
    <rect x="249" y="47" width="2104" height="1365"/>
  </clipPath>
</defs>
<polyline clip-path="url(#clip432)" style="stroke:#000000; stroke-linecap:round; stroke-linejoin:round; stroke-width:2; stroke-opacity:0.1; fill:none" points="249.542,1410.9 249.542,47.2441 "/>
<polyline clip-path="url(#clip432)" style="stroke:#000000; stroke-linecap:round; stroke-linejoin:round; stroke-width:2; stroke-opacity:0.1; fill:none" points="670.185,1410.9 670.185,47.2441 "/>
<polyline clip-path="url(#clip432)" style="stroke:#000000; stroke-linecap:round; stroke-linejoin:round; stroke-width:2; stroke-opacity:0.1; fill:none" points="1090.83,1410.9 1090.83,47.2441 "/>
<polyline clip-path="url(#clip432)" style="stroke:#000000; stroke-linecap:round; stroke-linejoin:round; stroke-width:2; stroke-opacity:0.1; fill:none" points="1511.47,1410.9 1511.47,47.2441 "/>
<polyline clip-path="url(#clip432)" style="stroke:#000000; stroke-linecap:round; stroke-linejoin:round; stroke-width:2; stroke-opacity:0.1; fill:none" points="1932.11,1410.9 1932.11,47.2441 "/>
<polyline clip-path="url(#clip432)" style="stroke:#000000; stroke-linecap:round; stroke-linejoin:round; stroke-width:2; stroke-opacity:0.1; fill:none" points="2352.76,1410.9 2352.76,47.2441 "/>
<polyline clip-path="url(#clip432)" style="stroke:#000000; stroke-linecap:round; stroke-linejoin:round; stroke-width:2; stroke-opacity:0.05; fill:none" points="333.671,1410.9 333.671,47.2441 "/>
<polyline clip-path="url(#clip432)" style="stroke:#000000; stroke-linecap:round; stroke-linejoin:round; stroke-width:2; stroke-opacity:0.05; fill:none" points="417.799,1410.9 417.799,47.2441 "/>
<polyline clip-path="url(#clip432)" style="stroke:#000000; stroke-linecap:round; stroke-linejoin:round; stroke-width:2; stroke-opacity:0.05; fill:none" points="501.928,1410.9 501.928,47.2441 "/>
<polyline clip-path="url(#clip432)" style="stroke:#000000; stroke-linecap:round; stroke-linejoin:round; stroke-width:2; stroke-opacity:0.05; fill:none" points="586.056,1410.9 586.056,47.2441 "/>
<polyline clip-path="url(#clip432)" style="stroke:#000000; stroke-linecap:round; stroke-linejoin:round; stroke-width:2; stroke-opacity:0.05; fill:none" points="754.313,1410.9 754.313,47.2441 "/>
<polyline clip-path="url(#clip432)" style="stroke:#000000; stroke-linecap:round; stroke-linejoin:round; stroke-width:2; stroke-opacity:0.05; fill:none" points="838.442,1410.9 838.442,47.2441 "/>
<polyline clip-path="url(#clip432)" style="stroke:#000000; stroke-linecap:round; stroke-linejoin:round; stroke-width:2; stroke-opacity:0.05; fill:none" points="922.57,1410.9 922.57,47.2441 "/>
<polyline clip-path="url(#clip432)" style="stroke:#000000; stroke-linecap:round; stroke-linejoin:round; stroke-width:2; stroke-opacity:0.05; fill:none" points="1006.7,1410.9 1006.7,47.2441 "/>
<polyline clip-path="url(#clip432)" style="stroke:#000000; stroke-linecap:round; stroke-linejoin:round; stroke-width:2; stroke-opacity:0.05; fill:none" points="1174.96,1410.9 1174.96,47.2441 "/>
<polyline clip-path="url(#clip432)" style="stroke:#000000; stroke-linecap:round; stroke-linejoin:round; stroke-width:2; stroke-opacity:0.05; fill:none" points="1259.08,1410.9 1259.08,47.2441 "/>
<polyline clip-path="url(#clip432)" style="stroke:#000000; stroke-linecap:round; stroke-linejoin:round; stroke-width:2; stroke-opacity:0.05; fill:none" points="1343.21,1410.9 1343.21,47.2441 "/>
<polyline clip-path="url(#clip432)" style="stroke:#000000; stroke-linecap:round; stroke-linejoin:round; stroke-width:2; stroke-opacity:0.05; fill:none" points="1427.34,1410.9 1427.34,47.2441 "/>
<polyline clip-path="url(#clip432)" style="stroke:#000000; stroke-linecap:round; stroke-linejoin:round; stroke-width:2; stroke-opacity:0.05; fill:none" points="1595.6,1410.9 1595.6,47.2441 "/>
<polyline clip-path="url(#clip432)" style="stroke:#000000; stroke-linecap:round; stroke-linejoin:round; stroke-width:2; stroke-opacity:0.05; fill:none" points="1679.73,1410.9 1679.73,47.2441 "/>
<polyline clip-path="url(#clip432)" style="stroke:#000000; stroke-linecap:round; stroke-linejoin:round; stroke-width:2; stroke-opacity:0.05; fill:none" points="1763.86,1410.9 1763.86,47.2441 "/>
<polyline clip-path="url(#clip432)" style="stroke:#000000; stroke-linecap:round; stroke-linejoin:round; stroke-width:2; stroke-opacity:0.05; fill:none" points="1847.98,1410.9 1847.98,47.2441 "/>
<polyline clip-path="url(#clip432)" style="stroke:#000000; stroke-linecap:round; stroke-linejoin:round; stroke-width:2; stroke-opacity:0.05; fill:none" points="2016.24,1410.9 2016.24,47.2441 "/>
<polyline clip-path="url(#clip432)" style="stroke:#000000; stroke-linecap:round; stroke-linejoin:round; stroke-width:2; stroke-opacity:0.05; fill:none" points="2100.37,1410.9 2100.37,47.2441 "/>
<polyline clip-path="url(#clip432)" style="stroke:#000000; stroke-linecap:round; stroke-linejoin:round; stroke-width:2; stroke-opacity:0.05; fill:none" points="2184.5,1410.9 2184.5,47.2441 "/>
<polyline clip-path="url(#clip432)" style="stroke:#000000; stroke-linecap:round; stroke-linejoin:round; stroke-width:2; stroke-opacity:0.05; fill:none" points="2268.63,1410.9 2268.63,47.2441 "/>
<polyline clip-path="url(#clip430)" style="stroke:#000000; stroke-linecap:round; stroke-linejoin:round; stroke-width:4; stroke-opacity:1; fill:none" points="249.542,1410.9 2352.76,1410.9 "/>
<polyline clip-path="url(#clip430)" style="stroke:#000000; stroke-linecap:round; stroke-linejoin:round; stroke-width:4; stroke-opacity:1; fill:none" points="249.542,1410.9 249.542,1392 "/>
<polyline clip-path="url(#clip430)" style="stroke:#000000; stroke-linecap:round; stroke-linejoin:round; stroke-width:4; stroke-opacity:1; fill:none" points="670.185,1410.9 670.185,1392 "/>
<polyline clip-path="url(#clip430)" style="stroke:#000000; stroke-linecap:round; stroke-linejoin:round; stroke-width:4; stroke-opacity:1; fill:none" points="1090.83,1410.9 1090.83,1392 "/>
<polyline clip-path="url(#clip430)" style="stroke:#000000; stroke-linecap:round; stroke-linejoin:round; stroke-width:4; stroke-opacity:1; fill:none" points="1511.47,1410.9 1511.47,1392 "/>
<polyline clip-path="url(#clip430)" style="stroke:#000000; stroke-linecap:round; stroke-linejoin:round; stroke-width:4; stroke-opacity:1; fill:none" points="1932.11,1410.9 1932.11,1392 "/>
<polyline clip-path="url(#clip430)" style="stroke:#000000; stroke-linecap:round; stroke-linejoin:round; stroke-width:4; stroke-opacity:1; fill:none" points="2352.76,1410.9 2352.76,1392 "/>
<polyline clip-path="url(#clip430)" style="stroke:#000000; stroke-linecap:round; stroke-linejoin:round; stroke-width:4; stroke-opacity:1; fill:none" points="333.671,1410.9 333.671,1401.45 "/>
<polyline clip-path="url(#clip430)" style="stroke:#000000; stroke-linecap:round; stroke-linejoin:round; stroke-width:4; stroke-opacity:1; fill:none" points="417.799,1410.9 417.799,1401.45 "/>
<polyline clip-path="url(#clip430)" style="stroke:#000000; stroke-linecap:round; stroke-linejoin:round; stroke-width:4; stroke-opacity:1; fill:none" points="501.928,1410.9 501.928,1401.45 "/>
<polyline clip-path="url(#clip430)" style="stroke:#000000; stroke-linecap:round; stroke-linejoin:round; stroke-width:4; stroke-opacity:1; fill:none" points="586.056,1410.9 586.056,1401.45 "/>
<polyline clip-path="url(#clip430)" style="stroke:#000000; stroke-linecap:round; stroke-linejoin:round; stroke-width:4; stroke-opacity:1; fill:none" points="754.313,1410.9 754.313,1401.45 "/>
<polyline clip-path="url(#clip430)" style="stroke:#000000; stroke-linecap:round; stroke-linejoin:round; stroke-width:4; stroke-opacity:1; fill:none" points="838.442,1410.9 838.442,1401.45 "/>
<polyline clip-path="url(#clip430)" style="stroke:#000000; stroke-linecap:round; stroke-linejoin:round; stroke-width:4; stroke-opacity:1; fill:none" points="922.57,1410.9 922.57,1401.45 "/>
<polyline clip-path="url(#clip430)" style="stroke:#000000; stroke-linecap:round; stroke-linejoin:round; stroke-width:4; stroke-opacity:1; fill:none" points="1006.7,1410.9 1006.7,1401.45 "/>
<polyline clip-path="url(#clip430)" style="stroke:#000000; stroke-linecap:round; stroke-linejoin:round; stroke-width:4; stroke-opacity:1; fill:none" points="1174.96,1410.9 1174.96,1401.45 "/>
<polyline clip-path="url(#clip430)" style="stroke:#000000; stroke-linecap:round; stroke-linejoin:round; stroke-width:4; stroke-opacity:1; fill:none" points="1259.08,1410.9 1259.08,1401.45 "/>
<polyline clip-path="url(#clip430)" style="stroke:#000000; stroke-linecap:round; stroke-linejoin:round; stroke-width:4; stroke-opacity:1; fill:none" points="1343.21,1410.9 1343.21,1401.45 "/>
<polyline clip-path="url(#clip430)" style="stroke:#000000; stroke-linecap:round; stroke-linejoin:round; stroke-width:4; stroke-opacity:1; fill:none" points="1427.34,1410.9 1427.34,1401.45 "/>
<polyline clip-path="url(#clip430)" style="stroke:#000000; stroke-linecap:round; stroke-linejoin:round; stroke-width:4; stroke-opacity:1; fill:none" points="1595.6,1410.9 1595.6,1401.45 "/>
<polyline clip-path="url(#clip430)" style="stroke:#000000; stroke-linecap:round; stroke-linejoin:round; stroke-width:4; stroke-opacity:1; fill:none" points="1679.73,1410.9 1679.73,1401.45 "/>
<polyline clip-path="url(#clip430)" style="stroke:#000000; stroke-linecap:round; stroke-linejoin:round; stroke-width:4; stroke-opacity:1; fill:none" points="1763.86,1410.9 1763.86,1401.45 "/>
<polyline clip-path="url(#clip430)" style="stroke:#000000; stroke-linecap:round; stroke-linejoin:round; stroke-width:4; stroke-opacity:1; fill:none" points="1847.98,1410.9 1847.98,1401.45 "/>
<polyline clip-path="url(#clip430)" style="stroke:#000000; stroke-linecap:round; stroke-linejoin:round; stroke-width:4; stroke-opacity:1; fill:none" points="2016.24,1410.9 2016.24,1401.45 "/>
<polyline clip-path="url(#clip430)" style="stroke:#000000; stroke-linecap:round; stroke-linejoin:round; stroke-width:4; stroke-opacity:1; fill:none" points="2100.37,1410.9 2100.37,1401.45 "/>
<polyline clip-path="url(#clip430)" style="stroke:#000000; stroke-linecap:round; stroke-linejoin:round; stroke-width:4; stroke-opacity:1; fill:none" points="2184.5,1410.9 2184.5,1401.45 "/>
<polyline clip-path="url(#clip430)" style="stroke:#000000; stroke-linecap:round; stroke-linejoin:round; stroke-width:4; stroke-opacity:1; fill:none" points="2268.63,1410.9 2268.63,1401.45 "/>
<path clip-path="url(#clip430)" d="M249.542 1441.82 Q245.931 1441.82 244.102 1445.38 Q242.297 1448.92 242.297 1456.05 Q242.297 1463.16 244.102 1466.72 Q245.931 1470.26 249.542 1470.26 Q253.176 1470.26 254.982 1466.72 Q256.811 1463.16 256.811 1456.05 Q256.811 1448.92 254.982 1445.38 Q253.176 1441.82 249.542 1441.82 M249.542 1438.11 Q255.352 1438.11 258.408 1442.72 Q261.486 1447.3 261.486 1456.05 Q261.486 1464.78 258.408 1469.38 Q255.352 1473.97 249.542 1473.97 Q243.732 1473.97 240.653 1469.38 Q237.598 1464.78 237.598 1456.05 Q237.598 1447.3 240.653 1442.72 Q243.732 1438.11 249.542 1438.11 Z" fill="#000000" fill-rule="nonzero" fill-opacity="1" /><path clip-path="url(#clip430)" d="M582.316 1485.02 L598.636 1485.02 L598.636 1488.96 L576.691 1488.96 L576.691 1485.02 Q579.353 1482.27 583.937 1477.64 Q588.543 1472.98 589.724 1471.64 Q591.969 1469.12 592.849 1467.38 Q593.751 1465.62 593.751 1463.93 Q593.751 1461.18 591.807 1459.44 Q589.886 1457.71 586.784 1457.71 Q584.585 1457.71 582.131 1458.47 Q579.701 1459.23 576.923 1460.79 L576.923 1456.06 Q579.747 1454.93 582.201 1454.35 Q584.654 1453.77 586.691 1453.77 Q592.062 1453.77 595.256 1456.46 Q598.451 1459.14 598.451 1463.63 Q598.451 1465.76 597.64 1467.68 Q596.853 1469.58 594.747 1472.17 Q594.168 1472.85 591.066 1476.06 Q587.964 1479.26 582.316 1485.02 Z" fill="#000000" fill-rule="nonzero" fill-opacity="1" /><path clip-path="url(#clip430)" d="M608.45 1483.08 L613.335 1483.08 L613.335 1488.96 L608.45 1488.96 L608.45 1483.08 Z" fill="#000000" fill-rule="nonzero" fill-opacity="1" /><path clip-path="url(#clip430)" d="M633.52 1457.48 Q629.909 1457.48 628.08 1461.04 Q626.274 1464.58 626.274 1471.71 Q626.274 1478.82 628.08 1482.38 Q629.909 1485.92 633.52 1485.92 Q637.154 1485.92 638.96 1482.38 Q640.788 1478.82 640.788 1471.71 Q640.788 1464.58 638.96 1461.04 Q637.154 1457.48 633.52 1457.48 M633.52 1453.77 Q639.33 1453.77 642.385 1458.38 Q645.464 1462.96 645.464 1471.71 Q645.464 1480.44 642.385 1485.04 Q639.33 1489.63 633.52 1489.63 Q627.71 1489.63 624.631 1485.04 Q621.575 1480.44 621.575 1471.71 Q621.575 1462.96 624.631 1458.38 Q627.71 1453.77 633.52 1453.77 Z" fill="#000000" fill-rule="nonzero" fill-opacity="1" /><path clip-path="url(#clip430)" d="M681.853 1463.49 L671.274 1474.12 L681.853 1484.7 L679.098 1487.5 L668.473 1476.87 L657.848 1487.5 L655.117 1484.7 L665.672 1474.12 L655.117 1463.49 L657.848 1460.69 L668.473 1471.32 L679.098 1460.69 L681.853 1463.49 Z" fill="#000000" fill-rule="nonzero" fill-opacity="1" /><path clip-path="url(#clip430)" d="M694.214 1485.02 L701.853 1485.02 L701.853 1458.66 L693.543 1460.32 L693.543 1456.06 L701.806 1454.4 L706.482 1454.4 L706.482 1485.02 L714.121 1485.02 L714.121 1488.96 L694.214 1488.96 L694.214 1485.02 Z" fill="#000000" fill-rule="nonzero" fill-opacity="1" /><path clip-path="url(#clip430)" d="M733.566 1457.48 Q729.954 1457.48 728.126 1461.04 Q726.32 1464.58 726.32 1471.71 Q726.32 1478.82 728.126 1482.38 Q729.954 1485.92 733.566 1485.92 Q737.2 1485.92 739.005 1482.38 Q740.834 1478.82 740.834 1471.71 Q740.834 1464.58 739.005 1461.04 Q737.2 1457.48 733.566 1457.48 M733.566 1453.77 Q739.376 1453.77 742.431 1458.38 Q745.51 1462.96 745.51 1471.71 Q745.51 1480.44 742.431 1485.04 Q739.376 1489.63 733.566 1489.63 Q727.755 1489.63 724.677 1485.04 Q721.621 1480.44 721.621 1471.71 Q721.621 1462.96 724.677 1458.38 Q727.755 1453.77 733.566 1453.77 Z" fill="#000000" fill-rule="nonzero" fill-opacity="1" /><path clip-path="url(#clip430)" d="M746.695 1433.47 L761.609 1433.47 L761.609 1436.66 L750.174 1436.66 L750.174 1443.55 Q751.002 1443.27 751.829 1443.13 Q752.657 1442.98 753.484 1442.98 Q758.186 1442.98 760.932 1445.56 Q763.678 1448.14 763.678 1452.54 Q763.678 1457.07 760.857 1459.59 Q758.036 1462.09 752.901 1462.09 Q751.133 1462.09 749.29 1461.79 Q747.466 1461.49 745.51 1460.89 L745.51 1457.07 Q747.203 1457.99 749.008 1458.44 Q750.814 1458.89 752.826 1458.89 Q756.08 1458.89 757.979 1457.18 Q759.879 1455.47 759.879 1452.54 Q759.879 1449.6 757.979 1447.89 Q756.08 1446.18 752.826 1446.18 Q751.303 1446.18 749.779 1446.52 Q748.275 1446.86 746.695 1447.57 L746.695 1433.47 Z" fill="#000000" fill-rule="nonzero" fill-opacity="1" /><path clip-path="url(#clip430)" d="M1012.36 1458.47 L1000.55 1476.92 L1012.36 1476.92 L1012.36 1458.47 M1011.13 1454.4 L1017.01 1454.4 L1017.01 1476.92 L1021.94 1476.92 L1021.94 1480.81 L1017.01 1480.81 L1017.01 1488.96 L1012.36 1488.96 L1012.36 1480.81 L996.755 1480.81 L996.755 1476.29 L1011.13 1454.4 Z" fill="#000000" fill-rule="nonzero" fill-opacity="1" /><path clip-path="url(#clip430)" d="M1029.67 1483.08 L1034.56 1483.08 L1034.56 1488.96 L1029.67 1488.96 L1029.67 1483.08 Z" fill="#000000" fill-rule="nonzero" fill-opacity="1" /><path clip-path="url(#clip430)" d="M1054.74 1457.48 Q1051.13 1457.48 1049.3 1461.04 Q1047.5 1464.58 1047.5 1471.71 Q1047.5 1478.82 1049.3 1482.38 Q1051.13 1485.92 1054.74 1485.92 Q1058.38 1485.92 1060.18 1482.38 Q1062.01 1478.82 1062.01 1471.71 Q1062.01 1464.58 1060.18 1461.04 Q1058.38 1457.48 1054.74 1457.48 M1054.74 1453.77 Q1060.55 1453.77 1063.61 1458.38 Q1066.69 1462.96 1066.69 1471.71 Q1066.69 1480.44 1063.61 1485.04 Q1060.55 1489.63 1054.74 1489.63 Q1048.93 1489.63 1045.85 1485.04 Q1042.8 1480.44 1042.8 1471.71 Q1042.8 1462.96 1045.85 1458.38 Q1048.93 1453.77 1054.74 1453.77 Z" fill="#000000" fill-rule="nonzero" fill-opacity="1" /><path clip-path="url(#clip430)" d="M1103.07 1463.49 L1092.5 1474.12 L1103.07 1484.7 L1100.32 1487.5 L1089.69 1476.87 L1079.07 1487.5 L1076.34 1484.7 L1086.89 1474.12 L1076.34 1463.49 L1079.07 1460.69 L1089.69 1471.32 L1100.32 1460.69 L1103.07 1463.49 Z" fill="#000000" fill-rule="nonzero" fill-opacity="1" /><path clip-path="url(#clip430)" d="M1115.44 1485.02 L1123.07 1485.02 L1123.07 1458.66 L1114.76 1460.32 L1114.76 1456.06 L1123.03 1454.4 L1127.7 1454.4 L1127.7 1485.02 L1135.34 1485.02 L1135.34 1488.96 L1115.44 1488.96 L1115.44 1485.02 Z" fill="#000000" fill-rule="nonzero" fill-opacity="1" /><path clip-path="url(#clip430)" d="M1154.79 1457.48 Q1151.18 1457.48 1149.35 1461.04 Q1147.54 1464.58 1147.54 1471.71 Q1147.54 1478.82 1149.35 1482.38 Q1151.18 1485.92 1154.79 1485.92 Q1158.42 1485.92 1160.23 1482.38 Q1162.06 1478.82 1162.06 1471.71 Q1162.06 1464.58 1160.23 1461.04 Q1158.42 1457.48 1154.79 1457.48 M1154.79 1453.77 Q1160.6 1453.77 1163.65 1458.38 Q1166.73 1462.96 1166.73 1471.71 Q1166.73 1480.44 1163.65 1485.04 Q1160.6 1489.63 1154.79 1489.63 Q1148.98 1489.63 1145.9 1485.04 Q1142.84 1480.44 1142.84 1471.71 Q1142.84 1462.96 1145.9 1458.38 Q1148.98 1453.77 1154.79 1453.77 Z" fill="#000000" fill-rule="nonzero" fill-opacity="1" /><path clip-path="url(#clip430)" d="M1167.92 1433.47 L1182.83 1433.47 L1182.83 1436.66 L1171.4 1436.66 L1171.4 1443.55 Q1172.22 1443.27 1173.05 1443.13 Q1173.88 1442.98 1174.71 1442.98 Q1179.41 1442.98 1182.15 1445.56 Q1184.9 1448.14 1184.9 1452.54 Q1184.9 1457.07 1182.08 1459.59 Q1179.26 1462.09 1174.12 1462.09 Q1172.35 1462.09 1170.51 1461.79 Q1168.69 1461.49 1166.73 1460.89 L1166.73 1457.07 Q1168.42 1457.99 1170.23 1458.44 Q1172.04 1458.89 1174.05 1458.89 Q1177.3 1458.89 1179.2 1457.18 Q1181.1 1455.47 1181.1 1452.54 Q1181.1 1449.6 1179.2 1447.89 Q1177.3 1446.18 1174.05 1446.18 Q1172.52 1446.18 1171 1446.52 Q1169.5 1446.86 1167.92 1447.57 L1167.92 1433.47 Z" fill="#000000" fill-rule="nonzero" fill-opacity="1" /><path clip-path="url(#clip430)" d="M1430.23 1469.81 Q1427.09 1469.81 1425.23 1471.97 Q1423.41 1474.12 1423.41 1477.87 Q1423.41 1481.6 1425.23 1483.77 Q1427.09 1485.92 1430.23 1485.92 Q1433.38 1485.92 1435.21 1483.77 Q1437.06 1481.6 1437.06 1477.87 Q1437.06 1474.12 1435.21 1471.97 Q1433.38 1469.81 1430.23 1469.81 M1439.52 1455.16 L1439.52 1459.42 Q1437.76 1458.59 1435.95 1458.15 Q1434.17 1457.71 1432.41 1457.71 Q1427.78 1457.71 1425.33 1460.83 Q1422.9 1463.96 1422.55 1470.28 Q1423.91 1468.26 1425.97 1467.2 Q1428.03 1466.11 1430.51 1466.11 Q1435.72 1466.11 1438.73 1469.28 Q1441.76 1472.43 1441.76 1477.87 Q1441.76 1483.19 1438.61 1486.41 Q1435.47 1489.63 1430.23 1489.63 Q1424.24 1489.63 1421.07 1485.04 Q1417.9 1480.44 1417.9 1471.71 Q1417.9 1463.52 1421.78 1458.66 Q1425.67 1453.77 1432.22 1453.77 Q1433.98 1453.77 1435.77 1454.12 Q1437.57 1454.47 1439.52 1455.16 Z" fill="#000000" fill-rule="nonzero" fill-opacity="1" /><path clip-path="url(#clip430)" d="M1449.82 1483.08 L1454.7 1483.08 L1454.7 1488.96 L1449.82 1488.96 L1449.82 1483.08 Z" fill="#000000" fill-rule="nonzero" fill-opacity="1" /><path clip-path="url(#clip430)" d="M1474.89 1457.48 Q1471.28 1457.48 1469.45 1461.04 Q1467.64 1464.58 1467.64 1471.71 Q1467.64 1478.82 1469.45 1482.38 Q1471.28 1485.92 1474.89 1485.92 Q1478.52 1485.92 1480.33 1482.38 Q1482.15 1478.82 1482.15 1471.71 Q1482.15 1464.58 1480.33 1461.04 Q1478.52 1457.48 1474.89 1457.48 M1474.89 1453.77 Q1480.7 1453.77 1483.75 1458.38 Q1486.83 1462.96 1486.83 1471.71 Q1486.83 1480.44 1483.75 1485.04 Q1480.7 1489.63 1474.89 1489.63 Q1469.08 1489.63 1466 1485.04 Q1462.94 1480.44 1462.94 1471.71 Q1462.94 1462.96 1466 1458.38 Q1469.08 1453.77 1474.89 1453.77 Z" fill="#000000" fill-rule="nonzero" fill-opacity="1" /><path clip-path="url(#clip430)" d="M1523.22 1463.49 L1512.64 1474.12 L1523.22 1484.7 L1520.46 1487.5 L1509.84 1476.87 L1499.21 1487.5 L1496.48 1484.7 L1507.04 1474.12 L1496.48 1463.49 L1499.21 1460.69 L1509.84 1471.32 L1520.46 1460.69 L1523.22 1463.49 Z" fill="#000000" fill-rule="nonzero" fill-opacity="1" /><path clip-path="url(#clip430)" d="M1535.58 1485.02 L1543.22 1485.02 L1543.22 1458.66 L1534.91 1460.32 L1534.91 1456.06 L1543.17 1454.4 L1547.85 1454.4 L1547.85 1485.02 L1555.49 1485.02 L1555.49 1488.96 L1535.58 1488.96 L1535.58 1485.02 Z" fill="#000000" fill-rule="nonzero" fill-opacity="1" /><path clip-path="url(#clip430)" d="M1574.93 1457.48 Q1571.32 1457.48 1569.49 1461.04 Q1567.69 1464.58 1567.69 1471.71 Q1567.69 1478.82 1569.49 1482.38 Q1571.32 1485.92 1574.93 1485.92 Q1578.57 1485.92 1580.37 1482.38 Q1582.2 1478.82 1582.2 1471.71 Q1582.2 1464.58 1580.37 1461.04 Q1578.57 1457.48 1574.93 1457.48 M1574.93 1453.77 Q1580.74 1453.77 1583.8 1458.38 Q1586.88 1462.96 1586.88 1471.71 Q1586.88 1480.44 1583.8 1485.04 Q1580.74 1489.63 1574.93 1489.63 Q1569.12 1489.63 1566.04 1485.04 Q1562.99 1480.44 1562.99 1471.71 Q1562.99 1462.96 1566.04 1458.38 Q1569.12 1453.77 1574.93 1453.77 Z" fill="#000000" fill-rule="nonzero" fill-opacity="1" /><path clip-path="url(#clip430)" d="M1588.06 1433.47 L1602.98 1433.47 L1602.98 1436.66 L1591.54 1436.66 L1591.54 1443.55 Q1592.37 1443.27 1593.2 1443.13 Q1594.02 1442.98 1594.85 1442.98 Q1599.55 1442.98 1602.3 1445.56 Q1605.04 1448.14 1605.04 1452.54 Q1605.04 1457.07 1602.22 1459.59 Q1599.4 1462.09 1594.27 1462.09 Q1592.5 1462.09 1590.66 1461.79 Q1588.83 1461.49 1586.88 1460.89 L1586.88 1457.07 Q1588.57 1457.99 1590.37 1458.44 Q1592.18 1458.89 1594.19 1458.89 Q1597.45 1458.89 1599.35 1457.18 Q1601.25 1455.47 1601.25 1452.54 Q1601.25 1449.6 1599.35 1447.89 Q1597.45 1446.18 1594.19 1446.18 Q1592.67 1446.18 1591.15 1446.52 Q1589.64 1446.86 1588.06 1447.57 L1588.06 1433.47 Z" fill="#000000" fill-rule="nonzero" fill-opacity="1" /><path clip-path="url(#clip430)" d="M1850.34 1472.54 Q1847.01 1472.54 1845.09 1474.33 Q1843.19 1476.11 1843.19 1479.23 Q1843.19 1482.36 1845.09 1484.14 Q1847.01 1485.92 1850.34 1485.92 Q1853.68 1485.92 1855.6 1484.14 Q1857.52 1482.34 1857.52 1479.23 Q1857.52 1476.11 1855.6 1474.33 Q1853.7 1472.54 1850.34 1472.54 M1845.67 1470.55 Q1842.66 1469.81 1840.97 1467.75 Q1839.3 1465.69 1839.3 1462.73 Q1839.3 1458.59 1842.24 1456.18 Q1845.21 1453.77 1850.34 1453.77 Q1855.51 1453.77 1858.45 1456.18 Q1861.39 1458.59 1861.39 1462.73 Q1861.39 1465.69 1859.7 1467.75 Q1858.03 1469.81 1855.04 1470.55 Q1858.42 1471.34 1860.3 1473.63 Q1862.2 1475.92 1862.2 1479.23 Q1862.2 1484.26 1859.12 1486.94 Q1856.06 1489.63 1850.34 1489.63 Q1844.63 1489.63 1841.55 1486.94 Q1838.49 1484.26 1838.49 1479.23 Q1838.49 1475.92 1840.39 1473.63 Q1842.29 1471.34 1845.67 1470.55 M1843.96 1463.17 Q1843.96 1465.85 1845.62 1467.36 Q1847.31 1468.86 1850.34 1468.86 Q1853.35 1468.86 1855.04 1467.36 Q1856.76 1465.85 1856.76 1463.17 Q1856.76 1460.48 1855.04 1458.98 Q1853.35 1457.48 1850.34 1457.48 Q1847.31 1457.48 1845.62 1458.98 Q1843.96 1460.48 1843.96 1463.17 Z" fill="#000000" fill-rule="nonzero" fill-opacity="1" /><path clip-path="url(#clip430)" d="M1870.51 1483.08 L1875.39 1483.08 L1875.39 1488.96 L1870.51 1488.96 L1870.51 1483.08 Z" fill="#000000" fill-rule="nonzero" fill-opacity="1" /><path clip-path="url(#clip430)" d="M1895.58 1457.48 Q1891.96 1457.48 1890.14 1461.04 Q1888.33 1464.58 1888.33 1471.71 Q1888.33 1478.82 1890.14 1482.38 Q1891.96 1485.92 1895.58 1485.92 Q1899.21 1485.92 1901.02 1482.38 Q1902.84 1478.82 1902.84 1471.71 Q1902.84 1464.58 1901.02 1461.04 Q1899.21 1457.48 1895.58 1457.48 M1895.58 1453.77 Q1901.39 1453.77 1904.44 1458.38 Q1907.52 1462.96 1907.52 1471.71 Q1907.52 1480.44 1904.44 1485.04 Q1901.39 1489.63 1895.58 1489.63 Q1889.77 1489.63 1886.69 1485.04 Q1883.63 1480.44 1883.63 1471.71 Q1883.63 1462.96 1886.69 1458.38 Q1889.77 1453.77 1895.58 1453.77 Z" fill="#000000" fill-rule="nonzero" fill-opacity="1" /><path clip-path="url(#clip430)" d="M1943.91 1463.49 L1933.33 1474.12 L1943.91 1484.7 L1941.15 1487.5 L1930.53 1476.87 L1919.9 1487.5 L1917.17 1484.7 L1927.73 1474.12 L1917.17 1463.49 L1919.9 1460.69 L1930.53 1471.32 L1941.15 1460.69 L1943.91 1463.49 Z" fill="#000000" fill-rule="nonzero" fill-opacity="1" /><path clip-path="url(#clip430)" d="M1956.27 1485.02 L1963.91 1485.02 L1963.91 1458.66 L1955.6 1460.32 L1955.6 1456.06 L1963.86 1454.4 L1968.54 1454.4 L1968.54 1485.02 L1976.18 1485.02 L1976.18 1488.96 L1956.27 1488.96 L1956.27 1485.02 Z" fill="#000000" fill-rule="nonzero" fill-opacity="1" /><path clip-path="url(#clip430)" d="M1995.62 1457.48 Q1992.01 1457.48 1990.18 1461.04 Q1988.38 1464.58 1988.38 1471.71 Q1988.38 1478.82 1990.18 1482.38 Q1992.01 1485.92 1995.62 1485.92 Q1999.26 1485.92 2001.06 1482.38 Q2002.89 1478.82 2002.89 1471.71 Q2002.89 1464.58 2001.06 1461.04 Q1999.26 1457.48 1995.62 1457.48 M1995.62 1453.77 Q2001.43 1453.77 2004.49 1458.38 Q2007.57 1462.96 2007.57 1471.71 Q2007.57 1480.44 2004.49 1485.04 Q2001.43 1489.63 1995.62 1489.63 Q1989.81 1489.63 1986.73 1485.04 Q1983.68 1480.44 1983.68 1471.71 Q1983.68 1462.96 1986.73 1458.38 Q1989.81 1453.77 1995.62 1453.77 Z" fill="#000000" fill-rule="nonzero" fill-opacity="1" /><path clip-path="url(#clip430)" d="M2008.75 1433.47 L2023.67 1433.47 L2023.67 1436.66 L2012.23 1436.66 L2012.23 1443.55 Q2013.06 1443.27 2013.88 1443.13 Q2014.71 1442.98 2015.54 1442.98 Q2020.24 1442.98 2022.99 1445.56 Q2025.73 1448.14 2025.73 1452.54 Q2025.73 1457.07 2022.91 1459.59 Q2020.09 1462.09 2014.96 1462.09 Q2013.19 1462.09 2011.35 1461.79 Q2009.52 1461.49 2007.57 1460.89 L2007.57 1457.07 Q2009.26 1457.99 2011.06 1458.44 Q2012.87 1458.89 2014.88 1458.89 Q2018.14 1458.89 2020.04 1457.18 Q2021.93 1455.47 2021.93 1452.54 Q2021.93 1449.6 2020.04 1447.89 Q2018.14 1446.18 2014.88 1446.18 Q2013.36 1446.18 2011.83 1446.52 Q2010.33 1446.86 2008.75 1447.57 L2008.75 1433.47 Z" fill="#000000" fill-rule="nonzero" fill-opacity="1" /><path clip-path="url(#clip430)" d="M2260.19 1485.02 L2267.83 1485.02 L2267.83 1458.66 L2259.52 1460.32 L2259.52 1456.06 L2267.78 1454.4 L2272.46 1454.4 L2272.46 1485.02 L2280.1 1485.02 L2280.1 1488.96 L2260.19 1488.96 L2260.19 1485.02 Z" fill="#000000" fill-rule="nonzero" fill-opacity="1" /><path clip-path="url(#clip430)" d="M2289.54 1483.08 L2294.43 1483.08 L2294.43 1488.96 L2289.54 1488.96 L2289.54 1483.08 Z" fill="#000000" fill-rule="nonzero" fill-opacity="1" /><path clip-path="url(#clip430)" d="M2314.61 1457.48 Q2311 1457.48 2309.17 1461.04 Q2307.37 1464.58 2307.37 1471.71 Q2307.37 1478.82 2309.17 1482.38 Q2311 1485.92 2314.61 1485.92 Q2318.25 1485.92 2320.05 1482.38 Q2321.88 1478.82 2321.88 1471.71 Q2321.88 1464.58 2320.05 1461.04 Q2318.25 1457.48 2314.61 1457.48 M2314.61 1453.77 Q2320.42 1453.77 2323.48 1458.38 Q2326.56 1462.96 2326.56 1471.71 Q2326.56 1480.44 2323.48 1485.04 Q2320.42 1489.63 2314.61 1489.63 Q2308.8 1489.63 2305.72 1485.04 Q2302.67 1480.44 2302.67 1471.71 Q2302.67 1462.96 2305.72 1458.38 Q2308.8 1453.77 2314.61 1453.77 Z" fill="#000000" fill-rule="nonzero" fill-opacity="1" /><path clip-path="url(#clip430)" d="M2362.94 1463.49 L2352.37 1474.12 L2362.94 1484.7 L2360.19 1487.5 L2349.57 1476.87 L2338.94 1487.5 L2336.21 1484.7 L2346.76 1474.12 L2336.21 1463.49 L2338.94 1460.69 L2349.57 1471.32 L2360.19 1460.69 L2362.94 1463.49 Z" fill="#000000" fill-rule="nonzero" fill-opacity="1" /><path clip-path="url(#clip430)" d="M2375.31 1485.02 L2382.94 1485.02 L2382.94 1458.66 L2374.63 1460.32 L2374.63 1456.06 L2382.9 1454.4 L2387.57 1454.4 L2387.57 1485.02 L2395.21 1485.02 L2395.21 1488.96 L2375.31 1488.96 L2375.31 1485.02 Z" fill="#000000" fill-rule="nonzero" fill-opacity="1" /><path clip-path="url(#clip430)" d="M2414.66 1457.48 Q2411.05 1457.48 2409.22 1461.04 Q2407.41 1464.58 2407.41 1471.71 Q2407.41 1478.82 2409.22 1482.38 Q2411.05 1485.92 2414.66 1485.92 Q2418.29 1485.92 2420.1 1482.38 Q2421.93 1478.82 2421.93 1471.71 Q2421.93 1464.58 2420.1 1461.04 Q2418.29 1457.48 2414.66 1457.48 M2414.66 1453.77 Q2420.47 1453.77 2423.52 1458.38 Q2426.6 1462.96 2426.6 1471.71 Q2426.6 1480.44 2423.52 1485.04 Q2420.47 1489.63 2414.66 1489.63 Q2408.85 1489.63 2405.77 1485.04 Q2402.71 1480.44 2402.71 1471.71 Q2402.71 1462.96 2405.77 1458.38 Q2408.85 1453.77 2414.66 1453.77 Z" fill="#000000" fill-rule="nonzero" fill-opacity="1" /><path clip-path="url(#clip430)" d="M2436.63 1445.99 Q2434.07 1445.99 2432.56 1447.74 Q2431.08 1449.49 2431.08 1452.54 Q2431.08 1455.57 2432.56 1457.33 Q2434.07 1459.08 2436.63 1459.08 Q2439.18 1459.08 2440.67 1457.33 Q2442.17 1455.57 2442.17 1452.54 Q2442.17 1449.49 2440.67 1447.74 Q2439.18 1445.99 2436.63 1445.99 M2444.17 1434.09 L2444.17 1437.55 Q2442.74 1436.87 2441.27 1436.51 Q2439.82 1436.16 2438.39 1436.16 Q2434.63 1436.16 2432.64 1438.69 Q2430.66 1441.23 2430.38 1446.37 Q2431.49 1444.73 2433.17 1443.87 Q2434.84 1442.98 2436.85 1442.98 Q2441.08 1442.98 2443.53 1445.56 Q2445.99 1448.12 2445.99 1452.54 Q2445.99 1456.86 2443.43 1459.48 Q2440.88 1462.09 2436.63 1462.09 Q2431.76 1462.09 2429.18 1458.37 Q2426.6 1454.62 2426.6 1447.53 Q2426.6 1440.88 2429.76 1436.93 Q2432.92 1432.96 2438.24 1432.96 Q2439.67 1432.96 2441.12 1433.24 Q2442.59 1433.52 2444.17 1434.09 Z" fill="#000000" fill-rule="nonzero" fill-opacity="1" /><path clip-path="url(#clip430)" d="M1330.45 1523.67 Q1330.45 1524.99 1329.32 1524.99 Q1325.68 1525.12 1324.2 1526.34 Q1322.75 1527.54 1322.21 1529.85 L1313 1566.6 Q1312.67 1567.76 1312.48 1567.89 Q1312.29 1567.99 1311.93 1567.99 Q1311.48 1567.99 1311.22 1567.76 Q1311 1567.54 1310.68 1566.73 L1294.25 1527.89 Q1294.12 1527.63 1293.96 1527.28 Q1293.8 1526.92 1293.67 1526.7 L1284.94 1561.51 Q1284.69 1562.51 1284.69 1563.03 Q1284.69 1564.28 1285.56 1565.09 Q1286.46 1565.86 1289.03 1565.96 Q1290.36 1565.96 1290.36 1566.67 Q1290.36 1567.99 1289.16 1567.99 Q1288.07 1567.99 1285.78 1567.89 Q1283.5 1567.79 1282.37 1567.79 Q1281.27 1567.79 1279.05 1567.89 Q1276.83 1567.99 1275.77 1567.99 Q1274.93 1567.99 1274.93 1567.25 Q1274.93 1566.67 1275.15 1566.38 Q1275.38 1566.05 1275.57 1566.02 Q1275.77 1565.96 1276.06 1565.96 Q1277.99 1565.89 1279.31 1565.51 Q1280.63 1565.12 1281.37 1564.38 Q1282.14 1563.64 1282.5 1562.9 Q1282.88 1562.12 1283.17 1561 L1292 1525.57 Q1292 1524.99 1287.52 1524.99 Q1286.75 1524.99 1286.43 1524.96 Q1286.14 1524.93 1285.91 1524.77 Q1285.69 1524.6 1285.69 1524.25 Q1285.69 1523.35 1286.07 1523.16 Q1286.46 1522.93 1287.59 1522.93 L1296.44 1522.93 Q1297.57 1522.93 1297.86 1523.12 Q1298.15 1523.28 1298.54 1524.19 L1313.12 1558.61 L1320.5 1529.27 Q1320.69 1528.69 1320.69 1527.89 Q1320.69 1526.6 1319.73 1525.83 Q1318.79 1525.02 1316.22 1524.99 Q1315.02 1524.99 1315.02 1524.25 Q1315.02 1523.64 1315.25 1523.35 Q1315.51 1523.03 1315.7 1522.99 Q1315.93 1522.93 1316.22 1522.93 Q1317.31 1522.93 1319.57 1523.03 Q1321.82 1523.12 1322.95 1523.12 Q1324.04 1523.12 1326.26 1523.03 Q1328.52 1522.93 1329.61 1522.93 Q1330 1522.93 1330.19 1523.12 Q1330.42 1523.28 1330.45 1523.48 L1330.45 1523.67 Z" fill="#000000" fill-rule="nonzero" fill-opacity="1" /><polyline clip-path="url(#clip432)" style="stroke:#000000; stroke-linecap:round; stroke-linejoin:round; stroke-width:2; stroke-opacity:0.1; fill:none" points="249.542,1410.9 2352.76,1410.9 "/>
<polyline clip-path="url(#clip432)" style="stroke:#000000; stroke-linecap:round; stroke-linejoin:round; stroke-width:2; stroke-opacity:0.1; fill:none" points="249.542,1138.17 2352.76,1138.17 "/>
<polyline clip-path="url(#clip432)" style="stroke:#000000; stroke-linecap:round; stroke-linejoin:round; stroke-width:2; stroke-opacity:0.1; fill:none" points="249.542,865.436 2352.76,865.436 "/>
<polyline clip-path="url(#clip432)" style="stroke:#000000; stroke-linecap:round; stroke-linejoin:round; stroke-width:2; stroke-opacity:0.1; fill:none" points="249.542,592.705 2352.76,592.705 "/>
<polyline clip-path="url(#clip432)" style="stroke:#000000; stroke-linecap:round; stroke-linejoin:round; stroke-width:2; stroke-opacity:0.1; fill:none" points="249.542,319.975 2352.76,319.975 "/>
<polyline clip-path="url(#clip432)" style="stroke:#000000; stroke-linecap:round; stroke-linejoin:round; stroke-width:2; stroke-opacity:0.05; fill:none" points="249.542,1356.35 2352.76,1356.35 "/>
<polyline clip-path="url(#clip432)" style="stroke:#000000; stroke-linecap:round; stroke-linejoin:round; stroke-width:2; stroke-opacity:0.05; fill:none" points="249.542,1301.8 2352.76,1301.8 "/>
<polyline clip-path="url(#clip432)" style="stroke:#000000; stroke-linecap:round; stroke-linejoin:round; stroke-width:2; stroke-opacity:0.05; fill:none" points="249.542,1247.26 2352.76,1247.26 "/>
<polyline clip-path="url(#clip432)" style="stroke:#000000; stroke-linecap:round; stroke-linejoin:round; stroke-width:2; stroke-opacity:0.05; fill:none" points="249.542,1192.71 2352.76,1192.71 "/>
<polyline clip-path="url(#clip432)" style="stroke:#000000; stroke-linecap:round; stroke-linejoin:round; stroke-width:2; stroke-opacity:0.05; fill:none" points="249.542,1083.62 2352.76,1083.62 "/>
<polyline clip-path="url(#clip432)" style="stroke:#000000; stroke-linecap:round; stroke-linejoin:round; stroke-width:2; stroke-opacity:0.05; fill:none" points="249.542,1029.07 2352.76,1029.07 "/>
<polyline clip-path="url(#clip432)" style="stroke:#000000; stroke-linecap:round; stroke-linejoin:round; stroke-width:2; stroke-opacity:0.05; fill:none" points="249.542,974.528 2352.76,974.528 "/>
<polyline clip-path="url(#clip432)" style="stroke:#000000; stroke-linecap:round; stroke-linejoin:round; stroke-width:2; stroke-opacity:0.05; fill:none" points="249.542,919.982 2352.76,919.982 "/>
<polyline clip-path="url(#clip432)" style="stroke:#000000; stroke-linecap:round; stroke-linejoin:round; stroke-width:2; stroke-opacity:0.05; fill:none" points="249.542,810.89 2352.76,810.89 "/>
<polyline clip-path="url(#clip432)" style="stroke:#000000; stroke-linecap:round; stroke-linejoin:round; stroke-width:2; stroke-opacity:0.05; fill:none" points="249.542,756.343 2352.76,756.343 "/>
<polyline clip-path="url(#clip432)" style="stroke:#000000; stroke-linecap:round; stroke-linejoin:round; stroke-width:2; stroke-opacity:0.05; fill:none" points="249.542,701.797 2352.76,701.797 "/>
<polyline clip-path="url(#clip432)" style="stroke:#000000; stroke-linecap:round; stroke-linejoin:round; stroke-width:2; stroke-opacity:0.05; fill:none" points="249.542,647.251 2352.76,647.251 "/>
<polyline clip-path="url(#clip432)" style="stroke:#000000; stroke-linecap:round; stroke-linejoin:round; stroke-width:2; stroke-opacity:0.05; fill:none" points="249.542,538.159 2352.76,538.159 "/>
<polyline clip-path="url(#clip432)" style="stroke:#000000; stroke-linecap:round; stroke-linejoin:round; stroke-width:2; stroke-opacity:0.05; fill:none" points="249.542,483.613 2352.76,483.613 "/>
<polyline clip-path="url(#clip432)" style="stroke:#000000; stroke-linecap:round; stroke-linejoin:round; stroke-width:2; stroke-opacity:0.05; fill:none" points="249.542,429.067 2352.76,429.067 "/>
<polyline clip-path="url(#clip432)" style="stroke:#000000; stroke-linecap:round; stroke-linejoin:round; stroke-width:2; stroke-opacity:0.05; fill:none" points="249.542,374.521 2352.76,374.521 "/>
<polyline clip-path="url(#clip432)" style="stroke:#000000; stroke-linecap:round; stroke-linejoin:round; stroke-width:2; stroke-opacity:0.05; fill:none" points="249.542,265.429 2352.76,265.429 "/>
<polyline clip-path="url(#clip432)" style="stroke:#000000; stroke-linecap:round; stroke-linejoin:round; stroke-width:2; stroke-opacity:0.05; fill:none" points="249.542,210.882 2352.76,210.882 "/>
<polyline clip-path="url(#clip432)" style="stroke:#000000; stroke-linecap:round; stroke-linejoin:round; stroke-width:2; stroke-opacity:0.05; fill:none" points="249.542,156.336 2352.76,156.336 "/>
<polyline clip-path="url(#clip432)" style="stroke:#000000; stroke-linecap:round; stroke-linejoin:round; stroke-width:2; stroke-opacity:0.05; fill:none" points="249.542,101.79 2352.76,101.79 "/>
<polyline clip-path="url(#clip430)" style="stroke:#000000; stroke-linecap:round; stroke-linejoin:round; stroke-width:4; stroke-opacity:1; fill:none" points="249.542,1410.9 249.542,47.2441 "/>
<polyline clip-path="url(#clip430)" style="stroke:#000000; stroke-linecap:round; stroke-linejoin:round; stroke-width:4; stroke-opacity:1; fill:none" points="249.542,1410.9 268.44,1410.9 "/>
<polyline clip-path="url(#clip430)" style="stroke:#000000; stroke-linecap:round; stroke-linejoin:round; stroke-width:4; stroke-opacity:1; fill:none" points="249.542,1138.17 268.44,1138.17 "/>
<polyline clip-path="url(#clip430)" style="stroke:#000000; stroke-linecap:round; stroke-linejoin:round; stroke-width:4; stroke-opacity:1; fill:none" points="249.542,865.436 268.44,865.436 "/>
<polyline clip-path="url(#clip430)" style="stroke:#000000; stroke-linecap:round; stroke-linejoin:round; stroke-width:4; stroke-opacity:1; fill:none" points="249.542,592.705 268.44,592.705 "/>
<polyline clip-path="url(#clip430)" style="stroke:#000000; stroke-linecap:round; stroke-linejoin:round; stroke-width:4; stroke-opacity:1; fill:none" points="249.542,319.975 268.44,319.975 "/>
<polyline clip-path="url(#clip430)" style="stroke:#000000; stroke-linecap:round; stroke-linejoin:round; stroke-width:4; stroke-opacity:1; fill:none" points="249.542,1356.35 258.991,1356.35 "/>
<polyline clip-path="url(#clip430)" style="stroke:#000000; stroke-linecap:round; stroke-linejoin:round; stroke-width:4; stroke-opacity:1; fill:none" points="249.542,1301.8 258.991,1301.8 "/>
<polyline clip-path="url(#clip430)" style="stroke:#000000; stroke-linecap:round; stroke-linejoin:round; stroke-width:4; stroke-opacity:1; fill:none" points="249.542,1247.26 258.991,1247.26 "/>
<polyline clip-path="url(#clip430)" style="stroke:#000000; stroke-linecap:round; stroke-linejoin:round; stroke-width:4; stroke-opacity:1; fill:none" points="249.542,1192.71 258.991,1192.71 "/>
<polyline clip-path="url(#clip430)" style="stroke:#000000; stroke-linecap:round; stroke-linejoin:round; stroke-width:4; stroke-opacity:1; fill:none" points="249.542,1083.62 258.991,1083.62 "/>
<polyline clip-path="url(#clip430)" style="stroke:#000000; stroke-linecap:round; stroke-linejoin:round; stroke-width:4; stroke-opacity:1; fill:none" points="249.542,1029.07 258.991,1029.07 "/>
<polyline clip-path="url(#clip430)" style="stroke:#000000; stroke-linecap:round; stroke-linejoin:round; stroke-width:4; stroke-opacity:1; fill:none" points="249.542,974.528 258.991,974.528 "/>
<polyline clip-path="url(#clip430)" style="stroke:#000000; stroke-linecap:round; stroke-linejoin:round; stroke-width:4; stroke-opacity:1; fill:none" points="249.542,919.982 258.991,919.982 "/>
<polyline clip-path="url(#clip430)" style="stroke:#000000; stroke-linecap:round; stroke-linejoin:round; stroke-width:4; stroke-opacity:1; fill:none" points="249.542,810.89 258.991,810.89 "/>
<polyline clip-path="url(#clip430)" style="stroke:#000000; stroke-linecap:round; stroke-linejoin:round; stroke-width:4; stroke-opacity:1; fill:none" points="249.542,756.343 258.991,756.343 "/>
<polyline clip-path="url(#clip430)" style="stroke:#000000; stroke-linecap:round; stroke-linejoin:round; stroke-width:4; stroke-opacity:1; fill:none" points="249.542,701.797 258.991,701.797 "/>
<polyline clip-path="url(#clip430)" style="stroke:#000000; stroke-linecap:round; stroke-linejoin:round; stroke-width:4; stroke-opacity:1; fill:none" points="249.542,647.251 258.991,647.251 "/>
<polyline clip-path="url(#clip430)" style="stroke:#000000; stroke-linecap:round; stroke-linejoin:round; stroke-width:4; stroke-opacity:1; fill:none" points="249.542,538.159 258.991,538.159 "/>
<polyline clip-path="url(#clip430)" style="stroke:#000000; stroke-linecap:round; stroke-linejoin:round; stroke-width:4; stroke-opacity:1; fill:none" points="249.542,483.613 258.991,483.613 "/>
<polyline clip-path="url(#clip430)" style="stroke:#000000; stroke-linecap:round; stroke-linejoin:round; stroke-width:4; stroke-opacity:1; fill:none" points="249.542,429.067 258.991,429.067 "/>
<polyline clip-path="url(#clip430)" style="stroke:#000000; stroke-linecap:round; stroke-linejoin:round; stroke-width:4; stroke-opacity:1; fill:none" points="249.542,374.521 258.991,374.521 "/>
<polyline clip-path="url(#clip430)" style="stroke:#000000; stroke-linecap:round; stroke-linejoin:round; stroke-width:4; stroke-opacity:1; fill:none" points="249.542,265.429 258.991,265.429 "/>
<polyline clip-path="url(#clip430)" style="stroke:#000000; stroke-linecap:round; stroke-linejoin:round; stroke-width:4; stroke-opacity:1; fill:none" points="249.542,210.882 258.991,210.882 "/>
<polyline clip-path="url(#clip430)" style="stroke:#000000; stroke-linecap:round; stroke-linejoin:round; stroke-width:4; stroke-opacity:1; fill:none" points="249.542,156.336 258.991,156.336 "/>
<polyline clip-path="url(#clip430)" style="stroke:#000000; stroke-linecap:round; stroke-linejoin:round; stroke-width:4; stroke-opacity:1; fill:none" points="249.542,101.79 258.991,101.79 "/>
<path clip-path="url(#clip430)" d="M130.371 1409.54 Q133.728 1410.26 135.603 1412.53 Q137.501 1414.8 137.501 1418.13 Q137.501 1423.25 133.982 1426.05 Q130.464 1428.85 123.982 1428.85 Q121.806 1428.85 119.492 1428.41 Q117.2 1427.99 114.746 1427.13 L114.746 1422.62 Q116.691 1423.76 119.006 1424.33 Q121.32 1424.91 123.843 1424.91 Q128.242 1424.91 130.533 1423.18 Q132.848 1421.44 132.848 1418.13 Q132.848 1415.07 130.695 1413.36 Q128.566 1411.63 124.746 1411.63 L120.718 1411.63 L120.718 1407.78 L124.931 1407.78 Q128.38 1407.78 130.209 1406.42 Q132.038 1405.03 132.038 1402.44 Q132.038 1399.77 130.14 1398.36 Q128.265 1396.93 124.746 1396.93 Q122.825 1396.93 120.626 1397.34 Q118.427 1397.76 115.788 1398.64 L115.788 1394.47 Q118.45 1393.73 120.765 1393.36 Q123.103 1392.99 125.163 1392.99 Q130.487 1392.99 133.589 1395.42 Q136.691 1397.83 136.691 1401.95 Q136.691 1404.82 135.047 1406.81 Q133.404 1408.78 130.371 1409.54 Z" fill="#000000" fill-rule="nonzero" fill-opacity="1" /><path clip-path="url(#clip430)" d="M146.366 1422.3 L151.251 1422.3 L151.251 1428.18 L146.366 1428.18 L146.366 1422.3 Z" fill="#000000" fill-rule="nonzero" fill-opacity="1" /><path clip-path="url(#clip430)" d="M162.246 1424.24 L169.885 1424.24 L169.885 1397.88 L161.575 1399.54 L161.575 1395.28 L169.839 1393.62 L174.514 1393.62 L174.514 1424.24 L182.153 1424.24 L182.153 1428.18 L162.246 1428.18 L162.246 1424.24 Z" fill="#000000" fill-rule="nonzero" fill-opacity="1" /><path clip-path="url(#clip430)" d="M201.598 1396.7 Q197.987 1396.7 196.158 1400.26 Q194.352 1403.8 194.352 1410.93 Q194.352 1418.04 196.158 1421.6 Q197.987 1425.14 201.598 1425.14 Q205.232 1425.14 207.037 1421.6 Q208.866 1418.04 208.866 1410.93 Q208.866 1403.8 207.037 1400.26 Q205.232 1396.7 201.598 1396.7 M201.598 1392.99 Q207.408 1392.99 210.463 1397.6 Q213.542 1402.18 213.542 1410.93 Q213.542 1419.66 210.463 1424.26 Q207.408 1428.85 201.598 1428.85 Q195.787 1428.85 192.709 1424.26 Q189.653 1419.66 189.653 1410.93 Q189.653 1402.18 192.709 1397.6 Q195.787 1392.99 201.598 1392.99 Z" fill="#000000" fill-rule="nonzero" fill-opacity="1" /><path clip-path="url(#clip430)" d="M131.968 1136.81 Q135.325 1137.53 137.2 1139.8 Q139.098 1142.07 139.098 1145.4 Q139.098 1150.52 135.579 1153.32 Q132.061 1156.12 125.58 1156.12 Q123.404 1156.12 121.089 1155.68 Q118.797 1155.26 116.343 1154.4 L116.343 1149.89 Q118.288 1151.02 120.603 1151.6 Q122.918 1152.18 125.441 1152.18 Q129.839 1152.18 132.13 1150.45 Q134.445 1148.71 134.445 1145.4 Q134.445 1142.34 132.292 1140.63 Q130.163 1138.9 126.343 1138.9 L122.316 1138.9 L122.316 1135.05 L126.529 1135.05 Q129.978 1135.05 131.806 1133.69 Q133.635 1132.3 133.635 1129.71 Q133.635 1127.04 131.737 1125.63 Q129.862 1124.2 126.343 1124.2 Q124.422 1124.2 122.223 1124.61 Q120.024 1125.03 117.385 1125.91 L117.385 1121.74 Q120.047 1121 122.362 1120.63 Q124.7 1120.26 126.76 1120.26 Q132.084 1120.26 135.186 1122.69 Q138.288 1125.1 138.288 1129.22 Q138.288 1132.09 136.644 1134.08 Q135.001 1136.05 131.968 1136.81 Z" fill="#000000" fill-rule="nonzero" fill-opacity="1" /><path clip-path="url(#clip430)" d="M147.964 1149.57 L152.848 1149.57 L152.848 1155.45 L147.964 1155.45 L147.964 1149.57 Z" fill="#000000" fill-rule="nonzero" fill-opacity="1" /><path clip-path="url(#clip430)" d="M163.843 1151.51 L171.482 1151.51 L171.482 1125.15 L163.172 1126.81 L163.172 1122.55 L171.436 1120.89 L176.112 1120.89 L176.112 1151.51 L183.751 1151.51 L183.751 1155.45 L163.843 1155.45 L163.843 1151.51 Z" fill="#000000" fill-rule="nonzero" fill-opacity="1" /><path clip-path="url(#clip430)" d="M197.223 1151.51 L213.542 1151.51 L213.542 1155.45 L191.598 1155.45 L191.598 1151.51 Q194.26 1148.76 198.843 1144.13 Q203.449 1139.47 204.63 1138.13 Q206.875 1135.61 207.755 1133.87 Q208.658 1132.11 208.658 1130.42 Q208.658 1127.67 206.713 1125.93 Q204.792 1124.2 201.69 1124.2 Q199.491 1124.2 197.037 1124.96 Q194.607 1125.72 191.829 1127.27 L191.829 1122.55 Q194.653 1121.42 197.107 1120.84 Q199.561 1120.26 201.598 1120.26 Q206.968 1120.26 210.162 1122.95 Q213.357 1125.63 213.357 1130.12 Q213.357 1132.25 212.547 1134.17 Q211.76 1136.07 209.653 1138.66 Q209.074 1139.34 205.973 1142.55 Q202.871 1145.75 197.223 1151.51 Z" fill="#000000" fill-rule="nonzero" fill-opacity="1" /><path clip-path="url(#clip430)" d="M129.885 864.081 Q133.242 864.799 135.117 867.068 Q137.015 869.336 137.015 872.669 Q137.015 877.785 133.496 880.586 Q129.978 883.387 123.496 883.387 Q121.32 883.387 119.006 882.947 Q116.714 882.53 114.26 881.674 L114.26 877.16 Q116.205 878.294 118.519 878.873 Q120.834 879.452 123.357 879.452 Q127.755 879.452 130.047 877.716 Q132.362 875.98 132.362 872.669 Q132.362 869.614 130.209 867.901 Q128.08 866.165 124.26 866.165 L120.232 866.165 L120.232 862.322 L124.445 862.322 Q127.894 862.322 129.723 860.956 Q131.552 859.568 131.552 856.975 Q131.552 854.313 129.654 852.901 Q127.779 851.466 124.26 851.466 Q122.339 851.466 120.14 851.882 Q117.941 852.299 115.302 853.179 L115.302 849.012 Q117.964 848.271 120.279 847.901 Q122.617 847.531 124.677 847.531 Q130.001 847.531 133.103 849.961 Q136.204 852.369 136.204 856.489 Q136.204 859.359 134.561 861.35 Q132.917 863.318 129.885 864.081 Z" fill="#000000" fill-rule="nonzero" fill-opacity="1" /><path clip-path="url(#clip430)" d="M145.88 876.836 L150.765 876.836 L150.765 882.716 L145.88 882.716 L145.88 876.836 Z" fill="#000000" fill-rule="nonzero" fill-opacity="1" /><path clip-path="url(#clip430)" d="M161.76 878.78 L169.399 878.78 L169.399 852.415 L161.089 854.082 L161.089 849.822 L169.352 848.156 L174.028 848.156 L174.028 878.78 L181.667 878.78 L181.667 882.716 L161.76 882.716 L161.76 878.78 Z" fill="#000000" fill-rule="nonzero" fill-opacity="1" /><path clip-path="url(#clip430)" d="M203.959 852.23 L192.153 870.679 L203.959 870.679 L203.959 852.23 M202.732 848.156 L208.612 848.156 L208.612 870.679 L213.542 870.679 L213.542 874.568 L208.612 874.568 L208.612 882.716 L203.959 882.716 L203.959 874.568 L188.357 874.568 L188.357 870.054 L202.732 848.156 Z" fill="#000000" fill-rule="nonzero" fill-opacity="1" /><path clip-path="url(#clip430)" d="M130.209 591.351 Q133.566 592.069 135.441 594.337 Q137.339 596.606 137.339 599.939 Q137.339 605.055 133.82 607.855 Q130.302 610.656 123.82 610.656 Q121.644 610.656 119.33 610.217 Q117.038 609.8 114.584 608.943 L114.584 604.43 Q116.529 605.564 118.843 606.143 Q121.158 606.721 123.681 606.721 Q128.08 606.721 130.371 604.985 Q132.686 603.249 132.686 599.939 Q132.686 596.883 130.533 595.17 Q128.404 593.434 124.584 593.434 L120.556 593.434 L120.556 589.592 L124.769 589.592 Q128.218 589.592 130.047 588.226 Q131.876 586.837 131.876 584.245 Q131.876 581.582 129.978 580.17 Q128.103 578.735 124.584 578.735 Q122.663 578.735 120.464 579.152 Q118.265 579.569 115.626 580.448 L115.626 576.282 Q118.288 575.541 120.603 575.17 Q122.941 574.8 125.001 574.8 Q130.325 574.8 133.427 577.231 Q136.529 579.638 136.529 583.758 Q136.529 586.629 134.885 588.619 Q133.242 590.587 130.209 591.351 Z" fill="#000000" fill-rule="nonzero" fill-opacity="1" /><path clip-path="url(#clip430)" d="M146.204 604.106 L151.089 604.106 L151.089 609.985 L146.204 609.985 L146.204 604.106 Z" fill="#000000" fill-rule="nonzero" fill-opacity="1" /><path clip-path="url(#clip430)" d="M162.084 606.05 L169.723 606.05 L169.723 579.684 L161.413 581.351 L161.413 577.092 L169.677 575.425 L174.352 575.425 L174.352 606.05 L181.991 606.05 L181.991 609.985 L162.084 609.985 L162.084 606.05 Z" fill="#000000" fill-rule="nonzero" fill-opacity="1" /><path clip-path="url(#clip430)" d="M202.014 590.842 Q198.866 590.842 197.014 592.994 Q195.186 595.147 195.186 598.897 Q195.186 602.624 197.014 604.8 Q198.866 606.953 202.014 606.953 Q205.162 606.953 206.991 604.8 Q208.843 602.624 208.843 598.897 Q208.843 595.147 206.991 592.994 Q205.162 590.842 202.014 590.842 M211.297 576.189 L211.297 580.448 Q209.537 579.615 207.732 579.175 Q205.949 578.735 204.19 578.735 Q199.561 578.735 197.107 581.86 Q194.676 584.985 194.329 591.305 Q195.695 589.291 197.755 588.226 Q199.815 587.138 202.292 587.138 Q207.5 587.138 210.51 590.309 Q213.542 593.457 213.542 598.897 Q213.542 604.221 210.394 607.439 Q207.246 610.656 202.014 610.656 Q196.019 610.656 192.848 606.073 Q189.676 601.467 189.676 592.74 Q189.676 584.545 193.565 579.684 Q197.454 574.8 204.005 574.8 Q205.764 574.8 207.547 575.147 Q209.352 575.495 211.297 576.189 Z" fill="#000000" fill-rule="nonzero" fill-opacity="1" /><path clip-path="url(#clip430)" d="M130.464 318.62 Q133.82 319.338 135.695 321.607 Q137.593 323.875 137.593 327.208 Q137.593 332.324 134.075 335.125 Q130.556 337.926 124.075 337.926 Q121.899 337.926 119.584 337.486 Q117.293 337.069 114.839 336.213 L114.839 331.699 Q116.783 332.833 119.098 333.412 Q121.413 333.991 123.936 333.991 Q128.334 333.991 130.626 332.255 Q132.941 330.519 132.941 327.208 Q132.941 324.153 130.788 322.44 Q128.658 320.704 124.839 320.704 L120.811 320.704 L120.811 316.861 L125.024 316.861 Q128.473 316.861 130.302 315.495 Q132.13 314.107 132.13 311.514 Q132.13 308.852 130.232 307.44 Q128.357 306.005 124.839 306.005 Q122.918 306.005 120.718 306.421 Q118.519 306.838 115.881 307.718 L115.881 303.551 Q118.543 302.81 120.857 302.44 Q123.195 302.07 125.255 302.07 Q130.58 302.07 133.681 304.5 Q136.783 306.908 136.783 311.028 Q136.783 313.898 135.14 315.889 Q133.496 317.857 130.464 318.62 Z" fill="#000000" fill-rule="nonzero" fill-opacity="1" /><path clip-path="url(#clip430)" d="M146.459 331.375 L151.343 331.375 L151.343 337.255 L146.459 337.255 L146.459 331.375 Z" fill="#000000" fill-rule="nonzero" fill-opacity="1" /><path clip-path="url(#clip430)" d="M162.339 333.319 L169.977 333.319 L169.977 306.954 L161.667 308.62 L161.667 304.361 L169.931 302.695 L174.607 302.695 L174.607 333.319 L182.246 333.319 L182.246 337.255 L162.339 337.255 L162.339 333.319 Z" fill="#000000" fill-rule="nonzero" fill-opacity="1" /><path clip-path="url(#clip430)" d="M201.69 320.843 Q198.357 320.843 196.436 322.625 Q194.538 324.407 194.538 327.532 Q194.538 330.657 196.436 332.44 Q198.357 334.222 201.69 334.222 Q205.024 334.222 206.945 332.44 Q208.866 330.634 208.866 327.532 Q208.866 324.407 206.945 322.625 Q205.047 320.843 201.69 320.843 M197.014 318.852 Q194.005 318.111 192.315 316.051 Q190.649 313.991 190.649 311.028 Q190.649 306.884 193.588 304.477 Q196.551 302.07 201.69 302.07 Q206.852 302.07 209.792 304.477 Q212.732 306.884 212.732 311.028 Q212.732 313.991 211.042 316.051 Q209.375 318.111 206.389 318.852 Q209.769 319.639 211.644 321.931 Q213.542 324.222 213.542 327.532 Q213.542 332.556 210.463 335.241 Q207.408 337.926 201.69 337.926 Q195.973 337.926 192.894 335.241 Q189.838 332.556 189.838 327.532 Q189.838 324.222 191.737 321.931 Q193.635 319.639 197.014 318.852 M195.301 311.468 Q195.301 314.153 196.968 315.657 Q198.658 317.162 201.69 317.162 Q204.699 317.162 206.389 315.657 Q208.102 314.153 208.102 311.468 Q208.102 308.783 206.389 307.278 Q204.699 305.773 201.69 305.773 Q198.658 305.773 196.968 307.278 Q195.301 308.783 195.301 311.468 Z" fill="#000000" fill-rule="nonzero" fill-opacity="1" /><path clip-path="url(#clip430)" d="M65.4824 905.041 Q66.0943 905.041 66.4164 905.299 Q66.7062 905.524 66.7706 905.75 Q66.8028 905.943 66.8028 906.233 Q66.8028 907.07 66.7062 909.969 Q66.6096 912.867 66.6096 913.705 Q66.6096 915.057 66.7062 917.827 Q66.8028 920.597 66.8028 921.949 Q66.8028 922.851 66.0621 922.851 Q65.579 922.851 65.3214 922.755 Q65.0315 922.658 64.9349 922.4 Q64.8061 922.11 64.8061 921.949 Q64.7739 921.756 64.7739 921.273 Q64.7739 920.629 64.7095 919.953 Q64.6128 919.276 64.4196 918.439 Q64.2264 917.602 63.7433 917.086 Q63.2602 916.539 62.5839 916.539 Q62.294 916.539 59.9108 916.764 Q57.5276 916.99 54.7579 917.28 Q51.9559 917.569 51.5695 917.602 L51.5695 934.155 Q54.1781 935.669 55.9817 936.732 Q57.7852 937.795 58.3971 938.181 Q59.009 938.568 59.3955 938.793 Q59.782 939.019 60.0074 939.147 Q61.7143 940.081 62.4551 940.081 Q64.5162 940.081 64.7739 936.99 Q64.7739 935.927 65.5468 935.927 Q66.1265 935.927 66.4486 936.184 Q66.7384 936.442 66.7706 936.668 Q66.8028 936.861 66.8028 937.183 Q66.8028 938.246 66.7062 940.468 Q66.6096 942.69 66.6096 943.785 Q66.6096 944.719 66.7062 946.651 Q66.8028 948.584 66.8028 949.453 Q66.8028 949.84 66.5774 950.065 Q66.352 950.291 66.0621 950.291 Q65.6112 950.291 65.3536 950.226 Q65.0959 950.13 64.9671 949.872 Q64.8383 949.614 64.8383 949.485 Q64.8061 949.357 64.7739 948.906 Q64.6128 946.458 63.4534 944.558 Q62.2618 942.626 59.2023 940.79 L20.6841 917.859 Q20.2976 917.634 20.1043 917.473 Q19.9111 917.312 19.7501 916.99 Q19.5891 916.635 19.5891 916.12 Q19.5891 915.315 19.8467 915.154 Q20.0721 914.993 21.1671 914.896 L62.3906 910.871 Q63.2602 910.774 63.6145 910.71 Q63.9365 910.613 64.2908 910.194 Q64.6128 909.743 64.7095 908.938 Q64.7739 908.101 64.7739 906.555 Q64.7739 905.975 64.8061 905.75 Q64.8061 905.524 64.9671 905.299 Q65.1281 905.041 65.4824 905.041 M49.5083 917.795 L27.7693 919.888 L49.5083 932.899 L49.5083 917.795 Z" fill="#000000" fill-rule="nonzero" fill-opacity="1" /><path clip-path="url(#clip430)" d="M48.1879 871.586 Q52.8899 871.586 57.4309 873.969 Q61.972 876.32 64.7739 880.024 Q67.5436 883.728 67.5436 887.496 Q67.5436 889.75 66.3198 891.264 Q65.0637 892.745 63.2924 893.551 Q65.4824 894.163 70.732 895.483 Q75.9815 896.803 76.4968 896.803 Q76.7867 896.803 76.9155 896.739 Q77.0443 896.675 77.2053 896.385 Q77.3986 896.095 77.463 895.386 Q77.5596 894.678 77.5596 893.486 Q77.5596 892.874 77.5596 892.649 Q77.5918 892.391 77.7528 892.166 Q77.9139 891.908 78.2681 891.908 Q79.5886 891.908 79.5886 893.1 Q79.5886 894.163 79.492 896.353 Q79.3953 898.543 79.3953 899.638 Q79.3953 900.571 79.492 902.439 Q79.5886 904.307 79.5886 905.177 Q79.5886 906.046 78.8156 906.046 Q78.3647 906.046 78.0749 905.918 Q77.8172 905.821 77.6884 905.563 Q77.5918 905.306 77.5596 905.08 Q77.5596 904.887 77.5596 904.501 Q77.5596 903.019 77.302 902.375 Q77.0765 901.731 76.5934 901.505 Q76.1425 901.248 74.8543 900.958 L45.4826 893.551 Q43.518 893.1 42.1332 893.1 Q40.394 893.1 39.7499 893.647 Q39.1058 894.195 39.1058 895.161 Q39.1058 896.836 41.1026 897.931 Q43.0993 899.026 46.964 899.96 Q48.0268 900.249 48.2523 900.443 Q48.4777 900.604 48.4777 901.087 Q48.4455 901.892 47.8014 901.892 Q47.6404 901.892 46.6098 901.634 Q45.547 901.377 44.0011 900.894 Q42.423 900.378 41.4246 899.831 Q40.7483 899.509 40.2974 899.219 Q39.8465 898.929 39.138 898.349 Q38.4295 897.737 38.043 896.868 Q37.6565 895.998 37.6565 894.935 Q37.6565 892.874 38.8804 891.167 Q40.1042 889.46 42.584 889.01 Q40.4262 887.174 39.0414 884.919 Q37.6565 882.665 37.6565 880.378 Q37.6565 876.578 40.6195 874.098 Q43.5502 871.586 48.1879 871.586 M45.2893 876.353 Q42.3586 876.353 40.7483 877.48 Q39.1058 878.575 39.1058 880.572 Q39.1058 883.052 41.6179 885.918 Q44.0011 888.752 46.2233 889.332 L59.1378 892.584 L60.2006 892.778 Q60.3939 892.778 60.9736 892.681 Q61.5211 892.552 62.4228 892.198 Q63.3246 891.811 64.1298 891.296 Q64.9027 890.749 65.4824 889.783 Q66.0621 888.784 66.0621 887.56 Q66.0621 885.596 64.323 883.47 Q62.5839 881.312 59.2989 879.702 Q57.1733 878.704 52.6001 877.544 Q47.9946 876.353 45.2893 876.353 Z" fill="#000000" fill-rule="nonzero" fill-opacity="1" /><path clip-path="url(#clip430)" d="M48.1879 838.467 Q52.8899 838.467 57.4309 840.85 Q61.972 843.201 64.7739 846.905 Q67.5436 850.608 67.5436 854.376 Q67.5436 856.631 66.3198 858.145 Q65.0637 859.626 63.2924 860.431 Q65.4824 861.043 70.732 862.364 Q75.9815 863.684 76.4968 863.684 Q76.7867 863.684 76.9155 863.62 Q77.0443 863.555 77.2053 863.265 Q77.3986 862.975 77.463 862.267 Q77.5596 861.558 77.5596 860.367 Q77.5596 859.755 77.5596 859.529 Q77.5918 859.272 77.7528 859.046 Q77.9139 858.789 78.2681 858.789 Q79.5886 858.789 79.5886 859.98 Q79.5886 861.043 79.492 863.233 Q79.3953 865.423 79.3953 866.518 Q79.3953 867.452 79.492 869.32 Q79.5886 871.188 79.5886 872.057 Q79.5886 872.927 78.8156 872.927 Q78.3647 872.927 78.0749 872.798 Q77.8172 872.702 77.6884 872.444 Q77.5918 872.186 77.5596 871.961 Q77.5596 871.768 77.5596 871.381 Q77.5596 869.9 77.302 869.256 Q77.0765 868.611 76.5934 868.386 Q76.1425 868.128 74.8543 867.839 L45.4826 860.431 Q43.518 859.98 42.1332 859.98 Q40.394 859.98 39.7499 860.528 Q39.1058 861.075 39.1058 862.041 Q39.1058 863.716 41.1026 864.811 Q43.0993 865.906 46.964 866.84 Q48.0268 867.13 48.2523 867.323 Q48.4777 867.484 48.4777 867.967 Q48.4455 868.772 47.8014 868.772 Q47.6404 868.772 46.6098 868.515 Q45.547 868.257 44.0011 867.774 Q42.423 867.259 41.4246 866.711 Q40.7483 866.389 40.2974 866.099 Q39.8465 865.81 39.138 865.23 Q38.4295 864.618 38.043 863.748 Q37.6565 862.879 37.6565 861.816 Q37.6565 859.755 38.8804 858.048 Q40.1042 856.341 42.584 855.89 Q40.4262 854.054 39.0414 851.8 Q37.6565 849.546 37.6565 847.259 Q37.6565 843.459 40.6195 840.979 Q43.5502 838.467 48.1879 838.467 M45.2893 843.233 Q42.3586 843.233 40.7483 844.36 Q39.1058 845.455 39.1058 847.452 Q39.1058 849.932 41.6179 852.798 Q44.0011 855.632 46.2233 856.212 L59.1378 859.465 L60.2006 859.658 Q60.3939 859.658 60.9736 859.562 Q61.5211 859.433 62.4228 859.079 Q63.3246 858.692 64.1298 858.177 Q64.9027 857.629 65.4824 856.663 Q66.0621 855.665 66.0621 854.441 Q66.0621 852.476 64.323 850.351 Q62.5839 848.193 59.2989 846.583 Q57.1733 845.584 52.6001 844.425 Q47.9946 843.233 45.2893 843.233 Z" fill="#000000" fill-rule="nonzero" fill-opacity="1" /><path clip-path="url(#clip430)" d="M41.9399 809.252 Q43.6468 809.252 44.7418 810.379 Q45.8368 811.474 45.8368 812.891 Q45.8368 814.115 45.1283 814.759 Q44.4198 815.403 43.518 815.403 Q42.2298 815.403 41.167 814.405 Q40.1042 813.406 39.8787 811.957 Q39.1058 813.02 39.1058 814.727 Q39.1058 817.529 41.2636 820.009 Q42.262 821.104 44.0977 822.295 Q45.9012 823.487 46.6742 823.712 L55.2731 825.806 Q56.2393 825.999 60.877 827.191 Q65.4824 828.35 65.6756 828.447 Q66.5774 828.769 67.0605 829.477 Q67.5436 830.186 67.5436 830.894 Q67.5436 831.699 67.0605 832.247 Q66.5774 832.794 65.7401 832.794 Q65.6112 832.794 65.1281 832.698 Q64.6451 832.601 63.9687 832.44 Q63.2924 832.279 62.9059 832.215 L47.6726 828.382 Q44.9029 827.674 44.0333 827.513 Q43.1315 827.319 42.1332 827.319 Q40.394 827.319 39.7499 827.867 Q39.1058 828.414 39.1058 829.381 Q39.1058 831.055 41.1026 832.15 Q43.0993 833.245 46.964 834.179 Q48.0268 834.469 48.2523 834.662 Q48.4777 834.823 48.4777 835.306 Q48.4455 836.112 47.8014 836.112 Q47.6404 836.112 46.6098 835.854 Q45.547 835.596 44.0011 835.113 Q42.423 834.598 41.4246 834.05 Q40.7483 833.728 40.2974 833.438 Q39.8465 833.149 39.138 832.569 Q38.4295 831.989 38.043 831.12 Q37.6565 830.25 37.6565 829.187 Q37.6565 826.869 39.0736 825.226 Q40.4907 823.551 42.7129 823.165 Q41.5534 822.36 40.5551 821.361 Q39.5245 820.363 38.5905 818.527 Q37.6565 816.691 37.6565 814.727 Q37.6565 812.279 38.9126 810.766 Q40.1364 809.252 41.9399 809.252 Z" fill="#000000" fill-rule="nonzero" fill-opacity="1" /><path clip-path="url(#clip430)" d="M48.7998 776.118 Q52.3102 776.118 55.7884 777.664 Q59.2345 779.209 61.8109 781.689 Q64.3552 784.137 65.9655 787.358 Q67.5436 790.578 67.5436 793.799 Q67.5436 798.404 64.4196 801.399 Q61.2634 804.362 56.3681 804.362 Q51.7949 804.362 47.4471 801.818 Q43.0671 799.242 40.3618 795.119 Q37.6565 790.997 37.6565 786.681 Q37.6565 782.14 40.7161 779.145 Q43.7757 776.118 48.7998 776.118 M46.2233 780.949 Q43.0993 780.949 41.1026 782.462 Q39.1058 783.976 39.1058 786.746 Q39.1058 787.551 39.3635 788.485 Q39.5889 789.419 40.2008 790.643 Q40.8127 791.834 42.1009 793.187 Q43.357 794.507 45.1605 795.667 Q47.5437 797.18 51.9237 798.34 Q56.2715 799.467 58.8802 799.467 Q62.4873 799.467 64.2908 797.792 Q66.0621 796.118 66.0621 793.734 Q66.0621 791.416 64.4518 788.968 Q62.8093 786.488 60.0074 784.781 Q57.1089 783.074 52.8577 782.011 Q48.5743 780.949 46.2233 780.949 Z" fill="#000000" fill-rule="nonzero" fill-opacity="1" /><path clip-path="url(#clip430)" d="M42.0043 742.657 Q43.8079 742.657 44.8384 743.784 Q45.8368 744.912 45.8368 746.2 Q45.8368 747.424 45.1283 748.068 Q44.4198 748.712 43.518 748.712 Q42.2942 748.712 41.2314 747.81 Q40.1686 746.908 39.9432 745.556 Q39.1058 746.876 39.1058 748.841 Q39.1058 750.129 39.7821 751.256 Q40.4585 752.351 41.328 753.027 Q42.1976 753.672 43.4536 754.251 Q44.6774 754.799 45.4182 755.024 Q46.1267 755.217 46.8996 755.378 L55.9173 757.633 Q60.2006 758.728 61.7143 758.728 Q63.5823 758.728 64.8383 757.826 Q66.0621 756.924 66.0621 755.121 Q66.0621 754.412 65.8689 753.607 Q65.6434 752.802 65.0637 751.771 Q64.4518 750.709 63.5501 749.775 Q62.6161 748.808 61.038 747.874 Q59.4599 746.94 57.4309 746.329 Q56.7224 746.135 56.7224 745.491 Q56.7224 744.686 57.3665 744.686 Q57.914 744.686 59.0734 745.137 Q60.2006 745.556 61.6821 746.49 Q63.1314 747.391 64.4518 748.583 Q65.7401 749.775 66.6418 751.546 Q67.5436 753.317 67.5436 755.25 Q67.5436 758.019 66.0621 759.855 Q64.5806 761.691 62.5195 762.367 Q62.8093 762.528 63.1958 762.754 Q63.5823 762.979 64.4518 763.655 Q65.2892 764.299 65.9333 765.04 Q66.5452 765.781 67.0283 766.94 Q67.5436 768.068 67.5436 769.291 Q67.5436 770.837 67.0927 772.222 Q66.6418 773.575 65.6112 774.541 Q64.5806 775.507 63.1636 775.507 Q61.5855 775.507 60.4905 774.444 Q59.3633 773.349 59.3633 771.868 Q59.3633 770.934 59.9108 770.193 Q60.4583 769.42 61.6499 769.42 Q62.9703 769.42 63.9687 770.322 Q64.9671 771.224 65.2248 772.512 Q66.0621 771.191 66.0621 769.227 Q66.0621 767.101 64.1942 765.427 Q62.3262 763.752 59.2023 762.947 Q51.6983 760.95 48.3489 760.177 Q44.9673 759.404 43.518 759.404 Q42.1654 759.404 41.2314 759.758 Q40.2974 760.113 39.8787 760.725 Q39.4279 761.304 39.2668 761.852 Q39.1058 762.367 39.1058 762.947 Q39.1058 763.913 39.4923 765.008 Q39.8787 766.071 40.7805 767.359 Q41.6501 768.615 43.4536 769.807 Q45.2571 770.998 47.737 771.803 Q48.4777 771.964 48.4777 772.673 Q48.4455 773.446 47.8014 773.446 Q47.2539 773.446 46.1267 773.027 Q44.9673 772.576 43.518 771.675 Q42.0687 770.741 40.7805 769.549 Q39.4601 768.325 38.5583 766.554 Q37.6565 764.75 37.6565 762.818 Q37.6565 761.948 37.8498 761.111 Q38.0108 760.241 38.4939 759.211 Q38.977 758.148 40.0398 757.214 Q41.1026 756.28 42.6484 755.7 Q41.9077 755.314 41.1992 754.799 Q40.4907 754.251 39.6211 753.414 Q38.7193 752.544 38.204 751.353 Q37.6565 750.129 37.6565 748.776 Q37.6565 747.456 38.0108 746.168 Q38.3329 744.879 39.3957 743.784 Q40.4262 742.657 42.0043 742.657 Z" fill="#000000" fill-rule="nonzero" fill-opacity="1" /><path clip-path="url(#clip430)" d="M25.5793 722.102 Q26.9964 722.102 28.0592 723.262 Q29.0898 724.389 29.0898 725.613 Q29.0898 726.74 28.4135 727.448 Q27.7049 728.125 26.7065 728.125 Q25.3861 728.125 24.2911 726.998 Q23.1961 725.87 23.1961 724.55 Q23.1961 723.455 23.8724 722.779 Q24.5488 722.102 25.5793 722.102 M57.3665 721.523 Q57.6242 721.523 58.6548 721.812 Q59.6531 722.102 61.199 722.811 Q62.7127 723.487 64.1298 724.421 Q65.5468 725.355 66.5452 726.901 Q67.5436 728.415 67.5436 730.154 Q67.5436 732.505 65.9977 734.051 Q64.4518 735.564 62.133 735.564 Q60.877 735.564 56.8512 734.051 Q45.1283 729.671 44.6452 729.51 Q42.8095 728.769 41.1992 728.769 Q40.4585 728.769 40.0076 728.93 Q39.5245 729.091 39.3635 729.413 Q39.1702 729.735 39.138 729.928 Q39.1058 730.089 39.1058 730.411 Q39.1058 732.312 41.0382 734.083 Q42.9705 735.854 47.2861 737.078 Q48.0912 737.336 48.2845 737.497 Q48.4777 737.658 48.4777 738.141 Q48.4455 738.946 47.8014 738.946 Q47.6082 738.946 46.8674 738.72 Q46.0945 738.495 44.9351 738.076 Q43.7434 737.658 42.5196 736.917 Q41.2636 736.176 40.1686 735.274 Q39.0736 734.341 38.3651 733.02 Q37.6565 731.7 37.6565 730.218 Q37.6565 727.803 39.2346 726.321 Q40.7805 724.808 43.0671 724.808 Q44.3232 724.808 46.5454 725.677 Q49.4439 726.74 50.3779 727.126 L57.3021 729.703 Q59.8142 730.637 60.5871 730.927 Q61.3278 731.184 62.2296 731.41 Q63.0992 731.603 63.9043 731.603 Q65.0315 731.603 65.5468 731.249 Q66.0621 730.862 66.0621 730.025 Q66.0621 727.706 63.7755 725.999 Q61.4567 724.292 57.914 723.294 Q57.8174 723.262 57.6564 723.229 Q56.8512 722.972 56.7546 722.714 Q56.7224 722.585 56.7224 722.328 Q56.7224 721.523 57.3665 721.523 Z" fill="#000000" fill-rule="nonzero" fill-opacity="1" /><path clip-path="url(#clip430)" d="M57.3665 661.856 Q57.6242 661.856 58.6226 662.146 Q59.6209 662.436 61.1668 663.144 Q62.7127 663.821 64.1298 664.787 Q65.5146 665.721 66.5452 667.267 Q67.5436 668.78 67.5436 670.52 Q67.5436 672.838 65.9977 674.384 Q64.4518 675.93 62.133 675.93 Q60.877 675.93 58.4937 675.061 Q47.6082 670.97 43.7112 670.97 Q39.1058 670.97 39.1058 674.545 Q39.1058 676.574 39.9432 678.41 Q40.7805 680.246 41.9399 681.437 Q43.0993 682.629 44.4198 683.563 Q45.7402 684.497 46.6098 684.916 Q47.4793 685.302 47.8658 685.399 L63.7755 689.36 Q65.1281 689.682 65.7723 689.907 Q66.4164 690.133 66.9639 690.745 Q67.5436 691.357 67.5436 692.323 Q67.5436 693.128 67.0605 693.708 Q66.5774 694.255 65.7401 694.255 Q65.6112 694.255 64.9349 694.094 Q64.2586 693.933 63.3246 693.708 Q62.3906 693.482 61.8431 693.386 Q57.4631 692.226 56.8512 692.065 L49.1862 690.23 Q45.3859 689.231 43.7112 689.231 Q39.1058 689.231 39.1058 692.806 Q39.1058 694.577 39.7821 696.252 Q40.4262 697.895 41.328 699.022 Q42.2298 700.149 43.4858 701.18 Q44.7096 702.178 45.547 702.693 Q46.3521 703.176 47.1573 703.563 L50.4423 704.4 Q51.344 704.593 54.8545 705.527 L60.8126 706.977 Q65.257 708.007 65.6756 708.233 Q66.5774 708.555 67.0605 709.263 Q67.5436 709.972 67.5436 710.68 Q67.5436 711.485 67.0605 712.033 Q66.5774 712.58 65.7401 712.58 Q65.6112 712.58 65.1281 712.484 Q64.6451 712.387 63.9687 712.226 Q63.2924 712.065 62.9059 712.001 L47.6726 708.168 Q44.9029 707.46 44.0333 707.299 Q43.1315 707.105 42.1332 707.105 Q39.1058 707.105 39.1058 709.167 Q39.1058 710.841 41.1026 711.936 Q43.0993 713.031 46.964 713.965 Q48.0268 714.255 48.2523 714.448 Q48.4777 714.609 48.4777 715.092 Q48.4455 715.898 47.8014 715.898 Q47.6404 715.898 46.6098 715.64 Q45.5792 715.382 44.0333 714.899 Q42.4552 714.384 41.4246 713.836 Q40.7483 713.514 40.2974 713.225 Q39.8465 712.935 39.138 712.355 Q38.4295 711.775 38.043 710.906 Q37.6565 710.036 37.6565 708.973 Q37.6565 706.622 39.1702 704.883 Q40.6839 703.112 43.3892 702.886 Q37.6565 698.603 37.6565 692.613 Q37.6565 689.231 39.3635 687.202 Q41.006 685.302 44.0333 685.077 Q37.6565 680.632 37.6565 674.32 Q37.6565 670.681 39.5567 668.716 Q41.4246 666.751 44.7096 666.751 Q46.4165 666.751 49.6693 667.621 Q52.8899 668.491 54.5002 669.07 Q56.1105 669.65 59.2023 670.777 Q62.1652 671.969 63.9043 671.969 Q65.0315 671.969 65.5468 671.582 Q66.0621 671.196 66.0621 670.359 Q66.0621 669.07 65.3214 667.943 Q64.5484 666.816 63.2924 666.011 Q62.0042 665.173 60.7159 664.626 Q59.3955 664.078 57.914 663.66 Q57.1089 663.402 56.9156 663.273 Q56.7224 663.112 56.7224 662.661 Q56.7224 661.856 57.3665 661.856 Z" fill="#000000" fill-rule="nonzero" fill-opacity="1" /><path clip-path="url(#clip430)" d="M57.3665 627.543 Q61.5211 628.413 63.9043 629.54 Q67.5436 631.343 67.5436 634.403 Q67.5436 636.722 66.1265 638.364 Q64.7095 640.007 62.5839 640.393 Q67.5436 644.612 67.5436 648.992 Q67.5436 652.857 64.6128 655.304 Q61.6499 657.752 56.9801 657.752 Q52.278 657.752 47.7692 655.433 Q43.2604 653.082 40.4585 649.379 Q37.6565 645.675 37.6565 641.875 Q37.6565 637.849 41.8755 635.788 Q40.7161 635.627 39.8465 634.886 Q38.977 634.145 38.977 633.018 Q38.977 632.148 39.4601 631.633 Q39.911 631.118 40.7483 631.118 Q41.167 631.118 43.0027 631.569 L52.2136 633.952 L58.1717 635.401 Q60.3617 635.949 61.1668 636.11 Q61.972 636.239 63.0348 636.239 Q66.0621 636.239 66.0621 634.274 Q66.0621 633.308 65.4502 632.535 Q64.8383 631.762 63.5501 631.15 Q62.2618 630.538 61.0702 630.152 Q59.8464 629.765 57.914 629.25 Q57.1411 629.089 56.9479 628.96 Q56.7224 628.799 56.7224 628.348 Q56.7224 627.543 57.3665 627.543 M44.9029 636.593 Q44.613 636.593 43.8079 636.818 Q43.0027 637.044 41.8755 637.559 Q40.7483 638.074 39.9432 639.202 Q39.1058 640.297 39.1058 641.778 Q39.1058 643.775 40.8127 645.868 Q42.5196 647.929 45.4182 649.443 Q47.737 650.602 52.6001 651.858 Q57.4631 653.082 59.8786 653.082 Q61.3601 653.082 62.6805 652.76 Q63.9687 652.406 65.0315 651.408 Q66.0621 650.409 66.0621 648.863 Q66.0621 645.095 61.3923 641.392 Q60.5871 640.683 60.2651 640.522 Q59.9108 640.329 58.9446 640.071 L46.0301 636.786 Q45.0639 636.593 44.9029 636.593 Z" fill="#000000" fill-rule="nonzero" fill-opacity="1" /><path clip-path="url(#clip430)" d="M39.1058 604.269 Q40.0076 604.269 40.233 604.687 Q40.4262 605.106 40.4262 606.265 L40.4262 612.449 L59.8786 617.344 Q61.5855 617.731 63.0348 617.731 Q64.6451 617.731 65.3536 617.248 Q66.0621 616.732 66.0621 615.669 Q66.0621 613.576 64.162 611.322 Q62.2618 609.035 57.6242 607.103 Q57.0123 606.845 56.8834 606.716 Q56.7224 606.555 56.7224 606.136 Q56.7224 605.331 57.3665 605.331 Q57.592 605.331 58.6226 605.782 Q59.6531 606.201 61.1668 607.135 Q62.6805 608.037 64.0976 609.228 Q65.5146 610.388 66.5452 612.159 Q67.5436 613.93 67.5436 615.83 Q67.5436 618.504 65.8367 620.21 Q64.1298 621.885 61.4567 621.885 Q60.5871 621.885 57.8174 621.209 Q55.0155 620.533 40.4262 616.861 L40.4262 622.69 Q40.4262 623.495 40.394 623.818 Q40.3618 624.107 40.2008 624.333 Q40.0076 624.526 39.6211 624.526 Q39.0092 624.526 38.7515 624.268 Q38.4617 624.011 38.4295 623.689 Q38.3651 623.334 38.3651 622.529 L38.3651 616.346 L27.8982 613.769 Q26.8676 613.512 26.2879 612.868 Q25.676 612.191 25.6115 611.805 Q25.5149 611.418 25.5149 611.128 Q25.5149 610.259 25.998 609.744 Q26.4489 609.228 27.2863 609.228 Q27.7371 609.228 38.3651 611.934 L38.3651 606.136 Q38.3651 605.396 38.3973 605.106 Q38.4295 604.784 38.5905 604.526 Q38.7515 604.269 39.1058 604.269 Z" fill="#000000" fill-rule="nonzero" fill-opacity="1" /><path clip-path="url(#clip430)" d="M25.5793 584.901 Q26.9964 584.901 28.0592 586.061 Q29.0898 587.188 29.0898 588.412 Q29.0898 589.539 28.4135 590.248 Q27.7049 590.924 26.7065 590.924 Q25.3861 590.924 24.2911 589.797 Q23.1961 588.669 23.1961 587.349 Q23.1961 586.254 23.8724 585.578 Q24.5488 584.901 25.5793 584.901 M57.3665 584.322 Q57.6242 584.322 58.6548 584.612 Q59.6531 584.901 61.199 585.61 Q62.7127 586.286 64.1298 587.22 Q65.5468 588.154 66.5452 589.7 Q67.5436 591.214 67.5436 592.953 Q67.5436 595.304 65.9977 596.85 Q64.4518 598.363 62.133 598.363 Q60.877 598.363 56.8512 596.85 Q45.1283 592.47 44.6452 592.309 Q42.8095 591.568 41.1992 591.568 Q40.4585 591.568 40.0076 591.729 Q39.5245 591.89 39.3635 592.212 Q39.1702 592.534 39.138 592.727 Q39.1058 592.888 39.1058 593.21 Q39.1058 595.111 41.0382 596.882 Q42.9705 598.653 47.2861 599.877 Q48.0912 600.135 48.2845 600.296 Q48.4777 600.457 48.4777 600.94 Q48.4455 601.745 47.8014 601.745 Q47.6082 601.745 46.8674 601.52 Q46.0945 601.294 44.9351 600.875 Q43.7434 600.457 42.5196 599.716 Q41.2636 598.975 40.1686 598.074 Q39.0736 597.14 38.3651 595.819 Q37.6565 594.499 37.6565 593.017 Q37.6565 590.602 39.2346 589.12 Q40.7805 587.607 43.0671 587.607 Q44.3232 587.607 46.5454 588.476 Q49.4439 589.539 50.3779 589.926 L57.3021 592.502 Q59.8142 593.436 60.5871 593.726 Q61.3278 593.983 62.2296 594.209 Q63.0992 594.402 63.9043 594.402 Q65.0315 594.402 65.5468 594.048 Q66.0621 593.661 66.0621 592.824 Q66.0621 590.505 63.7755 588.798 Q61.4567 587.091 57.914 586.093 Q57.8174 586.061 57.6564 586.029 Q56.8512 585.771 56.7546 585.513 Q56.7224 585.384 56.7224 585.127 Q56.7224 584.322 57.3665 584.322 Z" fill="#000000" fill-rule="nonzero" fill-opacity="1" /><path clip-path="url(#clip430)" d="M48.7998 549.132 Q52.3102 549.132 55.7884 550.678 Q59.2345 552.224 61.8109 554.704 Q64.3552 557.151 65.9655 560.372 Q67.5436 563.593 67.5436 566.813 Q67.5436 571.419 64.4196 574.414 Q61.2634 577.377 56.3681 577.377 Q51.7949 577.377 47.4471 574.832 Q43.0671 572.256 40.3618 568.134 Q37.6565 564.011 37.6565 559.696 Q37.6565 555.155 40.7161 552.16 Q43.7757 549.132 48.7998 549.132 M46.2233 553.963 Q43.0993 553.963 41.1026 555.477 Q39.1058 556.99 39.1058 559.76 Q39.1058 560.565 39.3635 561.499 Q39.5889 562.433 40.2008 563.657 Q40.8127 564.849 42.1009 566.201 Q43.357 567.522 45.1605 568.681 Q47.5437 570.195 51.9237 571.354 Q56.2715 572.481 58.8802 572.481 Q62.4873 572.481 64.2908 570.807 Q66.0621 569.132 66.0621 566.749 Q66.0621 564.43 64.4518 561.982 Q62.8093 559.502 60.0074 557.796 Q57.1089 556.089 52.8577 555.026 Q48.5743 553.963 46.2233 553.963 Z" fill="#000000" fill-rule="nonzero" fill-opacity="1" /><path clip-path="url(#clip430)" d="M57.3665 511.273 Q57.6242 511.273 58.6226 511.563 Q59.6209 511.853 61.1668 512.561 Q62.7127 513.238 64.1298 514.172 Q65.5146 515.106 66.5452 516.651 Q67.5436 518.165 67.5436 519.904 Q67.5436 522.223 65.9977 523.769 Q64.4518 525.315 62.133 525.315 Q60.8448 525.315 59.0734 524.638 Q47.6404 520.355 43.7112 520.355 Q39.1058 520.355 39.1058 523.93 Q39.1058 525.701 39.7821 527.376 Q40.4262 529.018 41.328 530.146 Q42.2298 531.273 43.4858 532.303 Q44.7096 533.302 45.547 533.817 Q46.3521 534.3 47.1573 534.687 L50.4423 535.524 Q51.344 535.717 54.8545 536.651 L60.8126 538.1 Q65.257 539.131 65.6756 539.357 Q66.5774 539.679 67.0605 540.387 Q67.5436 541.096 67.5436 541.804 Q67.5436 542.609 67.0605 543.157 Q66.5774 543.704 65.7401 543.704 Q65.6112 543.704 65.1281 543.608 Q64.6451 543.511 63.9687 543.35 Q63.2924 543.189 62.9059 543.125 L47.6726 539.292 Q44.9029 538.584 44.0333 538.423 Q43.1315 538.229 42.1332 538.229 Q39.1058 538.229 39.1058 540.29 Q39.1058 541.965 41.1026 543.06 Q43.0993 544.155 46.964 545.089 Q48.0268 545.379 48.2523 545.572 Q48.4777 545.733 48.4777 546.216 Q48.4455 547.022 47.8014 547.022 Q47.6404 547.022 46.5776 546.764 Q45.5148 546.506 44.0011 546.023 Q42.4552 545.508 41.4246 545.025 Q40.6517 544.606 40.2974 544.381 Q39.911 544.123 39.1702 543.511 Q38.3973 542.867 38.043 542.03 Q37.6565 541.16 37.6565 540.097 Q37.6565 537.714 39.2024 535.975 Q40.7161 534.236 43.3892 534.01 Q37.6565 529.727 37.6565 523.737 Q37.6565 520.194 39.5245 518.165 Q41.3924 516.136 44.7096 516.136 Q45.4826 516.136 46.4809 516.297 Q47.4471 516.426 48.6709 516.748 Q49.8948 517.038 50.8287 517.295 Q51.7627 517.553 53.2764 518.068 Q54.7579 518.584 55.402 518.809 Q56.0461 519.035 57.5598 519.582 Q59.0412 520.097 59.2023 520.162 Q62.1974 521.353 63.9043 521.353 Q65.0315 521.353 65.5468 520.999 Q66.0621 520.613 66.0621 519.775 Q66.0621 517.521 63.8399 515.846 Q61.5855 514.139 57.914 513.044 Q57.1089 512.787 56.9156 512.658 Q56.7224 512.497 56.7224 512.046 Q56.7224 511.273 57.3665 511.273 Z" fill="#000000" fill-rule="nonzero" fill-opacity="1" /><polyline clip-path="url(#clip432)" style="stroke:#009af9; stroke-linecap:round; stroke-linejoin:round; stroke-width:4; stroke-opacity:1; fill:none" points="251.645,1410.9 253.748,865.436 255.852,919.982 257.955,797.253 260.058,952.709 262.161,1074.53 264.265,725.174 266.368,619.978 268.471,823.011 270.574,870.89 272.677,1014.2 274.781,1292.71 276.884,857.044 278.987,779.72 281.09,632.706 283.193,565.432 285.297,1067.58 287.4,871.496 289.503,917.111 291.606,1086.35 293.71,870.63 295.813,944.775 297.916,972.156 300.019,1069.98 302.122,813.071 304.226,1035.37 306.329,873.517 308.432,764.136 310.535,741.296 312.638,929.073 314.742,807.37 316.845,824.526 318.948,749.732 321.051,894.313 323.155,817.123 325.258,962.406 327.361,940.621 329.464,799.406 331.567,894.807 333.671,795.889 335.774,647.251 337.877,917.384 339.98,772.834 342.083,860.477 344.187,835.132 346.29,904.567 348.393,880.523 350.496,873.39 352.6,805.324 354.703,1179.62 356.806,860.088 358.909,895.856 361.012,805.744 363.116,887.658 365.219,889.238 367.322,929.722 369.425,654.907 371.528,765.748 373.632,932.925 375.735,669.07 377.838,875.272 379.941,1124.97 382.045,864.57 384.148,821.969 386.251,593.544 388.354,832.377 390.457,762.042 392.561,798.055 394.664,831.443 396.767,921.54 398.87,862.363 400.973,836.647 403.077,821.35 405.18,954.626 407.283,743.98 409.386,820.937 411.49,919.982 413.593,735.364 415.696,926.886 417.799,770.662 419.902,815.603 422.006,878.074 424.109,829.291 426.212,898.553 428.315,817.307 430.418,781.079 432.522,700.543 434.625,810.89 436.728,894.854 438.831,834.526 440.934,881.02 443.038,968.006 445.141,857.811 447.244,916.5 449.347,981.418 451.451,850.663 453.554,963.281 455.657,863.209 457.76,825.766 459.863,771.616 461.967,823.311 464.07,793.777 466.173,834.191 468.276,814.561 470.379,928.813 472.483,874.698 474.586,752.775 476.689,920.487 478.792,877.446 480.896,785.6 482.999,891.48 485.102,785.078 487.205,688.764 489.308,916.154 491.412,755.869 493.515,888.477 495.618,864.969 497.721,783.154 499.824,901.647 501.928,752.707 504.031,826.217 506.134,881.978 508.237,971.867 510.341,877.313 512.444,774.671 514.547,924.744 516.65,858.564 518.753,858.617 520.857,796.936 522.96,808.792 525.063,821.299 527.166,788.988 529.269,631.256 531.373,840.605 533.476,801.596 535.579,837.36 537.682,920.778 539.786,827.886 541.889,758.698 543.992,781.668 546.095,851.509 548.198,1034.84 550.302,787.24 552.405,778.692 554.508,887.254 556.611,837.042 558.714,769.331 560.818,850.325 562.921,894.356 565.024,957.437 567.127,790.661 569.231,909.934 571.334,816.237 573.437,847.726 575.54,682.09 577.643,792.707 579.747,807.763 581.85,739.772 583.953,827.699 586.056,900.209 588.159,863.064 590.263,811.563 592.366,876.479 594.469,814.216 596.572,931.552 598.676,859.521 600.779,815.789 602.882,926.8 604.985,879.314 607.088,825.007 609.192,814.717 611.295,839.431 613.398,878.678 615.501,865.436 617.604,858.267 619.708,926.18 621.811,868.825 623.914,851.033 626.017,888.595 628.121,905.133 630.224,922.694 632.327,751.548 634.43,835.331 636.533,828.38 638.637,841.848 640.74,769.54 642.843,775.303 644.946,816.692 647.049,805.406 649.153,866.01 651.256,813.46 653.359,791.003 655.462,807.215 657.566,861.78 659.669,865.995 661.772,863.488 663.875,786.524 665.978,745.049 668.082,869.547 670.185,832.981 672.288,854.852 674.391,813.86 676.494,758.762 678.598,877.468 680.701,805.568 682.804,836.044 684.907,880.719 687.011,801.449 689.114,858.911 691.217,819.201 693.32,799.773 695.423,874.955 697.527,810.121 699.63,911.061 701.733,831.186 703.836,866.193 705.939,800.332 708.043,808.638 710.146,812.384 712.249,812.625 714.352,866.423 716.456,855.607 718.559,759.523 720.662,881.994 722.765,895.254 724.868,915.155 726.972,890.426 729.075,808.497 731.178,958.093 733.281,854.526 735.384,819.39 737.488,877.426 739.591,812.06 741.694,873.594 743.797,776.769 745.901,803.956 748.004,819.175 750.107,838.621 752.21,865.892 754.313,888.845 756.417,831.259 758.52,920.883 760.623,869.027 762.726,823.632 764.829,896.382 766.933,875.414 769.036,796.977 771.139,842.342 773.242,766.42 775.346,863.472 777.449,765.688 779.552,818.898 781.655,759.793 783.758,873.167 785.862,735.167 787.965,790.009 790.068,824.049 792.171,781.502 794.274,900.817 796.378,745.224 798.481,781.004 800.584,789.862 802.687,910.856 804.79,832.584 806.894,933.773 808.997,886.352 811.1,897.714 813.203,871.745 815.307,775.201 817.41,817.96 819.513,837.659 821.616,874.861 823.719,859.042 825.823,912.616 827.926,800.972 830.029,862.274 832.132,816.6 834.235,874.265 836.339,821.447 838.442,741.928 840.545,863.689 842.648,776.46 844.752,845.969 846.855,798.982 848.958,842.277 851.061,853.992 853.164,799.106 855.268,847.822 857.371,910.545 859.474,874.464 861.577,825.135 863.68,749.992 865.784,777.38 867.887,846.883 869.99,835.666 872.093,822.13 874.197,827.786 876.3,846.949 878.403,886.05 880.506,823.981 882.609,875.221 884.713,885.303 886.816,832.132 888.919,858.079 891.022,840.398 893.125,893.6 895.229,847.313 897.332,906.345 899.435,886.619 901.538,837.987 903.642,850.352 905.745,813.162 907.848,881.643 909.951,808.284 912.054,792.707 914.158,753.927 916.261,880.062 918.364,839.878 920.467,946.827 922.57,854.697 924.674,830.431 926.777,825.119 928.88,810.383 930.983,845.065 933.087,863.925 935.19,839.836 937.293,829.238 939.396,861.444 941.499,842.059 943.603,852.708 945.706,869.226 947.809,827.319 949.912,844.305 952.015,806.97 954.119,830.917 956.222,800.987 958.325,858.638 960.428,853.494 962.532,877.342 964.635,803.67 966.738,814.729 968.841,912.645 970.944,810.253 973.048,849.579 975.151,828.597 977.254,870.638 979.357,905.206 981.46,790.513 983.564,824.643 985.667,850.63 987.77,824.72 989.873,872.874 991.977,788.484 994.08,822.6 996.183,886.332 998.286,848.428 1000.39,871.089 1002.49,959.901 1004.6,946.267 1006.7,924.83 1008.8,800.615 1010.91,893.613 1013.01,848.305 1015.11,814.036 1017.22,824.638 1019.32,899.862 1021.42,864.544 1023.52,820.376 1025.63,858.045 1027.73,744.255 1029.83,813.242 1031.94,844.468 1034.04,773.014 1036.14,803.014 1038.25,799.108 1040.35,852.815 1042.45,810.455 1044.56,825.175 1046.66,892.637 1048.76,842.756 1050.87,799.007 1052.97,879.429 1055.07,872.699 1057.18,831.486 1059.28,831.575 1061.38,816.966 1063.49,824.138 1065.59,866.701 1067.69,840.476 1069.8,833.267 1071.9,747.136 1074,870.723 1076.11,839.759 1078.21,823.488 1080.31,862.398 1082.41,780.035 1084.52,850.322 1086.62,835.147 1088.72,864.342 1090.83,858.617 1092.93,794.294 1095.03,779.953 1097.14,868.819 1099.24,806.434 1101.34,900.049 1103.45,842.999 1105.55,828.982 1107.65,893.645 1109.76,851.432 1111.86,810.89 1113.96,860.923 1116.07,877.748 1118.17,835.455 1120.27,850.943 1122.38,903.158 1124.48,904.772 1126.58,831.818 1128.69,888.272 1130.79,850.725 1132.89,829.201 1135,788.475 1137.1,831.958 1139.2,873.302 1141.3,875.985 1143.41,876.088 1145.51,805 1147.61,865.18 1149.72,834.084 1151.82,881.456 1153.92,936.219 1156.03,865.309 1158.13,826.294 1160.23,770.2 1162.34,858.272 1164.44,844.62 1166.54,832.157 1168.65,816.132 1170.75,808.025 1172.85,820.084 1174.96,880.808 1177.06,818.558 1179.16,857.414 1181.27,838.224 1183.37,843.445 1185.47,893.751 1187.58,837.184 1189.68,849.45 1191.78,895.144 1193.89,858.511 1195.99,854.648 1198.09,821.895 1200.19,895.122 1202.3,879.524 1204.4,845.491 1206.5,828.632 1208.61,854.67 1210.71,880.952 1212.81,860.672 1214.92,846.659 1217.02,835.317 1219.12,807.34 1221.23,804.396 1223.33,854.715 1225.43,836.869 1227.54,861.799 1229.64,807.612 1231.74,837.287 1233.85,893.175 1235.95,897.652 1238.05,813.559 1240.16,866.825 1242.26,860.582 1244.36,834.184 1246.47,887.76 1248.57,898.048 1250.67,860.05 1252.78,839.935 1254.88,878.33 1256.98,818.861 1259.08,821.799 1261.19,842.415 1263.29,824.922 1265.39,813.6 1267.5,873.325 1269.6,849.128 1271.7,862.854 1273.81,833.738 1275.91,804.965 1278.01,834.537 1280.12,830.148 1282.22,845.328 1284.32,809.781 1286.43,799.051 1288.53,850.529 1290.63,906.318 1292.74,791.974 1294.84,859.29 1296.94,841.777 1299.05,836.905 1301.15,868.599 1303.25,873.383 1305.36,865.001 1307.46,793.647 1309.56,778.746 1311.67,868.784 1313.77,820.915 1315.87,865.113 1317.97,775.778 1320.08,827.5 1322.18,797.52 1324.28,862.02 1326.39,845.833 1328.49,845.34 1330.59,854.081 1332.7,851.349 1334.8,847.782 1336.9,832.94 1339.01,831.529 1341.11,881.516 1343.21,853.163 1345.32,814.554 1347.42,878.497 1349.52,939.276 1351.63,866.372 1353.73,870.111 1355.83,865.125 1357.94,883.549 1360.04,851.386 1362.14,835.327 1364.25,765.091 1366.35,819.21 1368.45,815.503 1370.56,871.269 1372.66,766.558 1374.76,914.884 1376.86,905.226 1378.97,752.077 1381.07,854.182 1383.17,870.698 1385.28,843.011 1387.38,841.843 1389.48,901.867 1391.59,804.36 1393.69,846.184 1395.79,820.998 1397.9,848.053 1400,814.28 1402.1,839.656 1404.21,801.848 1406.31,840.939 1408.41,894.144 1410.52,877.392 1412.62,851.232 1414.72,872.426 1416.83,842.143 1418.93,771.648 1421.03,833.609 1423.14,857.42 1425.24,809.036 1427.34,859.591 1429.45,855.421 1431.55,840.395 1433.65,829.976 1435.75,895.707 1437.86,885.227 1439.96,827.273 1442.06,830.226 1444.17,845.461 1446.27,824.502 1448.37,909.455 1450.48,842.796 1452.58,836.923 1454.68,870.195 1456.79,860.209 1458.89,848.36 1460.99,852.841 1463.1,874.605 1465.2,859.585 1467.3,802.693 1469.41,860.451 1471.51,862.995 1473.61,827.759 1475.72,858.325 1477.82,805.659 1479.92,879.702 1482.03,797.858 1484.13,899.539 1486.23,868.59 1488.34,856.916 1490.44,834.095 1492.54,793.446 1494.64,886.167 1496.75,874.726 1498.85,804.094 1500.95,818.59 1503.06,842.006 1505.16,825.782 1507.26,823.66 1509.37,805.153 1511.47,832.89 1513.57,855.089 1515.68,855.378 1517.78,808.719 1519.88,814.502 1521.99,847.043 1524.09,818.63 1526.19,889.878 1528.3,880.059 1530.4,837.849 1532.5,867.939 1534.61,835.886 1536.71,812.137 1538.81,848.529 1540.92,835.586 1543.02,856.921 1545.12,819.125 1547.22,831.134 1549.33,874.35 1551.43,871.78 1553.53,871.506 1555.64,872.99 1557.74,806.68 1559.84,823.585 1561.95,853.11 1564.05,839.864 1566.15,826.225 1568.26,820.546 1570.36,887.063 1572.46,807.247 1574.57,863.271 1576.67,848.579 1578.77,846.275 1580.88,847.943 1582.98,852.961 1585.08,862 1587.19,824.183 1589.29,918.355 1591.39,820.209 1593.5,806.707 1595.6,813.787 1597.7,858.968 1599.81,853.796 1601.91,847.112 1604.01,824.103 1606.11,864.759 1608.22,830.394 1610.32,854.476 1612.42,820.486 1614.53,859.636 1616.63,841.268 1618.73,838.456 1620.84,842.429 1622.94,839.624 1625.04,833.909 1627.15,839.037 1629.25,815.296 1631.35,841.525 1633.46,814.205 1635.56,817.18 1637.66,828.328 1639.77,866.838 1641.87,823.167 1643.97,810.231 1646.08,868.722 1648.18,875.935 1650.28,826.533 1652.39,835.75 1654.49,802.969 1656.59,844.481 1658.7,851.27 1660.8,845.194 1662.9,828.666 1665,875.891 1667.11,855.4 1669.21,836.748 1671.31,833.563 1673.42,794.534 1675.52,843.472 1677.62,830.973 1679.73,861.345 1681.83,854.623 1683.93,898.147 1686.04,852.338 1688.14,817.588 1690.24,787.877 1692.35,854.94 1694.45,817.4 1696.55,857.111 1698.66,877.944 1700.76,840.771 1702.86,844.517 1704.97,823.344 1707.07,839.461 1709.17,849.716 1711.28,808.77 1713.38,833.617 1715.48,869.27 1717.59,813.546 1719.69,829.696 1721.79,821.253 1723.89,803.264 1726,819.359 1728.1,829.434 1730.2,851.722 1732.31,857.776 1734.41,848.516 1736.51,811.43 1738.62,846.329 1740.72,843.971 1742.82,846.767 1744.93,844.722 1747.03,834.102 1749.13,885.02 1751.24,829.606 1753.34,874.132 1755.44,838.467 1757.55,831.05 1759.65,843.48 1761.75,820.145 1763.86,834.829 1765.96,885.106 1768.06,823.884 1770.17,874.187 1772.27,854.135 1774.37,842.564 1776.48,808.26 1778.58,850.73 1780.68,841.909 1782.78,855.26 1784.89,853.854 1786.99,854.317 1789.09,836.821 1791.2,841.697 1793.3,817.578 1795.4,769.998 1797.51,830.826 1799.61,877.351 1801.71,869.87 1803.82,828.456 1805.92,848.851 1808.02,857.265 1810.13,799.936 1812.23,889.148 1814.33,848.647 1816.44,847.424 1818.54,886.567 1820.64,893.11 1822.75,821.682 1824.85,854.949 1826.95,796.78 1829.06,823.092 1831.16,829.096 1833.26,857.25 1835.37,803.366 1837.47,825.05 1839.57,833.617 1841.67,853.835 1843.78,854.785 1845.88,886.061 1847.98,800.052 1850.09,893.605 1852.19,844.605 1854.29,853.783 1856.4,833.165 1858.5,809.677 1860.6,827.908 1862.71,840.047 1864.81,826.87 1866.91,869.975 1869.02,853.18 1871.12,806.079 1873.22,843.744 1875.33,810.396 1877.43,867.902 1879.53,820.813 1881.64,849.972 1883.74,819.243 1885.84,854.148 1887.95,847.51 1890.05,861.1 1892.15,840.083 1894.26,856.786 1896.36,868.292 1898.46,866.897 1900.56,845.424 1902.67,829.627 1904.77,809.781 1906.87,846.261 1908.98,857.762 1911.08,863.917 1913.18,863.16 1915.29,851.11 1917.39,833.313 1919.49,844.551 1921.6,828.591 1923.7,823.704 1925.8,810.684 1927.91,861.471 1930.01,818.672 1932.11,929.118 1934.22,829.14 1936.32,786.405 1938.42,852.937 1940.53,818.556 1942.63,822.544 1944.73,848.246 1946.84,769.591 1948.94,877.992 1951.04,809.339 1953.15,861.665 1955.25,891.868 1957.35,891.5 1959.45,856.11 1961.56,847.544 1963.66,829.763 1965.76,873.724 1967.87,800.541 1969.97,827.36 1972.07,846.188 1974.18,868.296 1976.28,811.62 1978.38,845.13 1980.49,855.163 1982.59,805.395 1984.69,828.344 1986.8,840.342 1988.9,829.555 1991,862.405 1993.11,870.041 1995.21,848.283 1997.31,840.361 1999.42,817.118 2001.52,870.74 2003.62,849.281 2005.73,827.743 2007.83,866.219 2009.93,843.669 2012.04,874.483 2014.14,845.737 2016.24,863.747 2018.34,903.962 2020.45,866.666 2022.55,823.83 2024.65,863.109 2026.76,837.291 2028.86,834.294 2030.96,854.166 2033.07,863.635 2035.17,846.675 2037.27,820.579 2039.38,847.553 2041.48,839.955 2043.58,873.621 2045.69,828.773 2047.79,819.566 2049.89,803.753 2052,838.131 2054.1,845.728 2056.2,850.323 2058.31,905.774 2060.41,843.643 2062.51,873.472 2064.62,843.883 2066.72,859.249 2068.82,819.655 2070.93,824.558 2073.03,838.257 2075.13,832.13 2077.23,840.642 2079.34,914.903 2081.44,840.01 2083.54,805.447 2085.65,801.767 2087.75,837.476 2089.85,834.204 2091.96,787.041 2094.06,870.411 2096.16,863.945 2098.27,769.871 2100.37,889.485 2102.47,802.469 2104.58,872.177 2106.68,862.903 2108.78,874.753 2110.89,861.984 2112.99,873.624 2115.09,887.758 2117.2,833.064 2119.3,843.531 2121.4,833.137 2123.51,843.519 2125.61,815.048 2127.71,854.502 2129.82,837.674 2131.92,805.465 2134.02,837.676 2136.12,827.491 2138.23,883.415 2140.33,806.521 2142.43,821.374 2144.54,846.366 2146.64,858.602 2148.74,819.105 2150.85,829.474 2152.95,890.69 2155.05,850.083 2157.16,840.718 2159.26,846.272 2161.36,860.755 2163.47,860.221 2165.57,845.737 2167.67,799.346 2169.78,847.512 2171.88,837.029 2173.98,815.539 2176.09,850.191 2178.19,828.08 2180.29,830.795 2182.4,880.155 2184.5,847.53 2186.6,839.554 2188.71,831.951 2190.81,847.411 2192.91,805.695 2195.01,869.269 2197.12,842.463 2199.22,862.552 2201.32,820.588 2203.43,879.762 2205.53,809.071 2207.63,829.345 2209.74,816.567 2211.84,900.514 2213.94,844.879 2216.05,839.709 2218.15,812.288 2220.25,875.216 2222.36,892.883 2224.46,820.649 2226.56,862.418 2228.67,847.93 2230.77,804.404 2232.87,814.476 2234.98,850.586 2237.08,825.897 2239.18,852.059 2241.29,869.007 2243.39,809.278 2245.49,858.136 2247.6,918.087 2249.7,833.947 2251.8,875.749 2253.9,850.898 2256.01,870.639 2258.11,826.654 2260.21,819.163 2262.32,839.673 2264.42,843.856 2266.52,873.683 2268.63,849.583 2270.73,873.723 2272.83,830.054 2274.94,853.144 2277.04,881.279 2279.14,884.032 2281.25,790.11 2283.35,873.728 2285.45,852.982 2287.56,833.462 2289.66,825.96 2291.76,871.615 2293.87,887.77 2295.97,872.051 2298.07,865.044 2300.18,835.505 2302.28,861.691 2304.38,861.751 2306.49,872.463 2308.59,854.348 2310.69,847.625 2312.79,845.808 2314.9,838.385 2317,815.107 2319.1,864.77 2321.21,835.145 2323.31,880.04 2325.41,822.385 2327.52,845.45 2329.62,818.225 2331.72,838.383 2333.83,807.312 2335.93,848.72 2338.03,836.048 2340.14,813.743 2342.24,827.226 2344.34,848.787 2346.45,797.267 2348.55,843.901 2350.65,870.404 2352.76,840.835 "/>
<polyline clip-path="url(#clip432)" style="stroke:#ff0000; stroke-linecap:round; stroke-linejoin:round; stroke-width:4; stroke-opacity:1; fill:none" stroke-dasharray="16, 10" points="249.542,843.717 2352.76,843.717 "/>
</svg>
