<?xml version="1.0" encoding="utf-8"?>
<svg xmlns="http://www.w3.org/2000/svg" xmlns:xlink="http://www.w3.org/1999/xlink" width="600" height="400" viewBox="0 0 2400 1600">
<defs>
  <clipPath id="clip520">
    <rect x="0" y="0" width="2400" height="1600"/>
  </clipPath>
</defs>
<path clip-path="url(#clip520)" d="M0 1600 L2400 1600 L2400 0 L0 0  Z" fill="#ffffff" fill-rule="evenodd" fill-opacity="1"/>
<defs>
  <clipPath id="clip521">
    <rect x="480" y="0" width="1681" height="1600"/>
  </clipPath>
</defs>
<path clip-path="url(#clip520)" d="M249.542 1410.9 L2352.76 1410.9 L2352.76 47.2441 L249.542 47.2441  Z" fill="#ffffff" fill-rule="evenodd" fill-opacity="1"/>
<defs>
  <clipPath id="clip522">
    <rect x="249" y="47" width="2104" height="1365"/>
  </clipPath>
</defs>
<polyline clip-path="url(#clip522)" style="stroke:#000000; stroke-linecap:round; stroke-linejoin:round; stroke-width:2; stroke-opacity:0.1; fill:none" points="249.542,1410.9 249.542,47.2441 "/>
<polyline clip-path="url(#clip522)" style="stroke:#000000; stroke-linecap:round; stroke-linejoin:round; stroke-width:2; stroke-opacity:0.1; fill:none" points="670.185,1410.9 670.185,47.2441 "/>
<polyline clip-path="url(#clip522)" style="stroke:#000000; stroke-linecap:round; stroke-linejoin:round; stroke-width:2; stroke-opacity:0.1; fill:none" points="1090.83,1410.9 1090.83,47.2441 "/>
<polyline clip-path="url(#clip522)" style="stroke:#000000; stroke-linecap:round; stroke-linejoin:round; stroke-width:2; stroke-opacity:0.1; fill:none" points="1511.47,1410.9 1511.47,47.2441 "/>
<polyline clip-path="url(#clip522)" style="stroke:#000000; stroke-linecap:round; stroke-linejoin:round; stroke-width:2; stroke-opacity:0.1; fill:none" points="1932.11,1410.9 1932.11,47.2441 "/>
<polyline clip-path="url(#clip522)" style="stroke:#000000; stroke-linecap:round; stroke-linejoin:round; stroke-width:2; stroke-opacity:0.1; fill:none" points="2352.76,1410.9 2352.76,47.2441 "/>
<polyline clip-path="url(#clip522)" style="stroke:#000000; stroke-linecap:round; stroke-linejoin:round; stroke-width:2; stroke-opacity:0.05; fill:none" points="333.671,1410.9 333.671,47.2441 "/>
<polyline clip-path="url(#clip522)" style="stroke:#000000; stroke-linecap:round; stroke-linejoin:round; stroke-width:2; stroke-opacity:0.05; fill:none" points="417.799,1410.9 417.799,47.2441 "/>
<polyline clip-path="url(#clip522)" style="stroke:#000000; stroke-linecap:round; stroke-linejoin:round; stroke-width:2; stroke-opacity:0.05; fill:none" points="501.928,1410.9 501.928,47.2441 "/>
<polyline clip-path="url(#clip522)" style="stroke:#000000; stroke-linecap:round; stroke-linejoin:round; stroke-width:2; stroke-opacity:0.05; fill:none" points="586.056,1410.9 586.056,47.2441 "/>
<polyline clip-path="url(#clip522)" style="stroke:#000000; stroke-linecap:round; stroke-linejoin:round; stroke-width:2; stroke-opacity:0.05; fill:none" points="754.313,1410.9 754.313,47.2441 "/>
<polyline clip-path="url(#clip522)" style="stroke:#000000; stroke-linecap:round; stroke-linejoin:round; stroke-width:2; stroke-opacity:0.05; fill:none" points="838.442,1410.9 838.442,47.2441 "/>
<polyline clip-path="url(#clip522)" style="stroke:#000000; stroke-linecap:round; stroke-linejoin:round; stroke-width:2; stroke-opacity:0.05; fill:none" points="922.57,1410.9 922.57,47.2441 "/>
<polyline clip-path="url(#clip522)" style="stroke:#000000; stroke-linecap:round; stroke-linejoin:round; stroke-width:2; stroke-opacity:0.05; fill:none" points="1006.7,1410.9 1006.7,47.2441 "/>
<polyline clip-path="url(#clip522)" style="stroke:#000000; stroke-linecap:round; stroke-linejoin:round; stroke-width:2; stroke-opacity:0.05; fill:none" points="1174.96,1410.9 1174.96,47.2441 "/>
<polyline clip-path="url(#clip522)" style="stroke:#000000; stroke-linecap:round; stroke-linejoin:round; stroke-width:2; stroke-opacity:0.05; fill:none" points="1259.08,1410.9 1259.08,47.2441 "/>
<polyline clip-path="url(#clip522)" style="stroke:#000000; stroke-linecap:round; stroke-linejoin:round; stroke-width:2; stroke-opacity:0.05; fill:none" points="1343.21,1410.9 1343.21,47.2441 "/>
<polyline clip-path="url(#clip522)" style="stroke:#000000; stroke-linecap:round; stroke-linejoin:round; stroke-width:2; stroke-opacity:0.05; fill:none" points="1427.34,1410.9 1427.34,47.2441 "/>
<polyline clip-path="url(#clip522)" style="stroke:#000000; stroke-linecap:round; stroke-linejoin:round; stroke-width:2; stroke-opacity:0.05; fill:none" points="1595.6,1410.9 1595.6,47.2441 "/>
<polyline clip-path="url(#clip522)" style="stroke:#000000; stroke-linecap:round; stroke-linejoin:round; stroke-width:2; stroke-opacity:0.05; fill:none" points="1679.73,1410.9 1679.73,47.2441 "/>
<polyline clip-path="url(#clip522)" style="stroke:#000000; stroke-linecap:round; stroke-linejoin:round; stroke-width:2; stroke-opacity:0.05; fill:none" points="1763.86,1410.9 1763.86,47.2441 "/>
<polyline clip-path="url(#clip522)" style="stroke:#000000; stroke-linecap:round; stroke-linejoin:round; stroke-width:2; stroke-opacity:0.05; fill:none" points="1847.98,1410.9 1847.98,47.2441 "/>
<polyline clip-path="url(#clip522)" style="stroke:#000000; stroke-linecap:round; stroke-linejoin:round; stroke-width:2; stroke-opacity:0.05; fill:none" points="2016.24,1410.9 2016.24,47.2441 "/>
<polyline clip-path="url(#clip522)" style="stroke:#000000; stroke-linecap:round; stroke-linejoin:round; stroke-width:2; stroke-opacity:0.05; fill:none" points="2100.37,1410.9 2100.37,47.2441 "/>
<polyline clip-path="url(#clip522)" style="stroke:#000000; stroke-linecap:round; stroke-linejoin:round; stroke-width:2; stroke-opacity:0.05; fill:none" points="2184.5,1410.9 2184.5,47.2441 "/>
<polyline clip-path="url(#clip522)" style="stroke:#000000; stroke-linecap:round; stroke-linejoin:round; stroke-width:2; stroke-opacity:0.05; fill:none" points="2268.63,1410.9 2268.63,47.2441 "/>
<polyline clip-path="url(#clip520)" style="stroke:#000000; stroke-linecap:round; stroke-linejoin:round; stroke-width:4; stroke-opacity:1; fill:none" points="249.542,1410.9 2352.76,1410.9 "/>
<polyline clip-path="url(#clip520)" style="stroke:#000000; stroke-linecap:round; stroke-linejoin:round; stroke-width:4; stroke-opacity:1; fill:none" points="249.542,1410.9 249.542,1392 "/>
<polyline clip-path="url(#clip520)" style="stroke:#000000; stroke-linecap:round; stroke-linejoin:round; stroke-width:4; stroke-opacity:1; fill:none" points="670.185,1410.9 670.185,1392 "/>
<polyline clip-path="url(#clip520)" style="stroke:#000000; stroke-linecap:round; stroke-linejoin:round; stroke-width:4; stroke-opacity:1; fill:none" points="1090.83,1410.9 1090.83,1392 "/>
<polyline clip-path="url(#clip520)" style="stroke:#000000; stroke-linecap:round; stroke-linejoin:round; stroke-width:4; stroke-opacity:1; fill:none" points="1511.47,1410.9 1511.47,1392 "/>
<polyline clip-path="url(#clip520)" style="stroke:#000000; stroke-linecap:round; stroke-linejoin:round; stroke-width:4; stroke-opacity:1; fill:none" points="1932.11,1410.9 1932.11,1392 "/>
<polyline clip-path="url(#clip520)" style="stroke:#000000; stroke-linecap:round; stroke-linejoin:round; stroke-width:4; stroke-opacity:1; fill:none" points="2352.76,1410.9 2352.76,1392 "/>
<polyline clip-path="url(#clip520)" style="stroke:#000000; stroke-linecap:round; stroke-linejoin:round; stroke-width:4; stroke-opacity:1; fill:none" points="333.671,1410.9 333.671,1401.45 "/>
<polyline clip-path="url(#clip520)" style="stroke:#000000; stroke-linecap:round; stroke-linejoin:round; stroke-width:4; stroke-opacity:1; fill:none" points="417.799,1410.9 417.799,1401.45 "/>
<polyline clip-path="url(#clip520)" style="stroke:#000000; stroke-linecap:round; stroke-linejoin:round; stroke-width:4; stroke-opacity:1; fill:none" points="501.928,1410.9 501.928,1401.45 "/>
<polyline clip-path="url(#clip520)" style="stroke:#000000; stroke-linecap:round; stroke-linejoin:round; stroke-width:4; stroke-opacity:1; fill:none" points="586.056,1410.9 586.056,1401.45 "/>
<polyline clip-path="url(#clip520)" style="stroke:#000000; stroke-linecap:round; stroke-linejoin:round; stroke-width:4; stroke-opacity:1; fill:none" points="754.313,1410.9 754.313,1401.45 "/>
<polyline clip-path="url(#clip520)" style="stroke:#000000; stroke-linecap:round; stroke-linejoin:round; stroke-width:4; stroke-opacity:1; fill:none" points="838.442,1410.9 838.442,1401.45 "/>
<polyline clip-path="url(#clip520)" style="stroke:#000000; stroke-linecap:round; stroke-linejoin:round; stroke-width:4; stroke-opacity:1; fill:none" points="922.57,1410.9 922.57,1401.45 "/>
<polyline clip-path="url(#clip520)" style="stroke:#000000; stroke-linecap:round; stroke-linejoin:round; stroke-width:4; stroke-opacity:1; fill:none" points="1006.7,1410.9 1006.7,1401.45 "/>
<polyline clip-path="url(#clip520)" style="stroke:#000000; stroke-linecap:round; stroke-linejoin:round; stroke-width:4; stroke-opacity:1; fill:none" points="1174.96,1410.9 1174.96,1401.45 "/>
<polyline clip-path="url(#clip520)" style="stroke:#000000; stroke-linecap:round; stroke-linejoin:round; stroke-width:4; stroke-opacity:1; fill:none" points="1259.08,1410.9 1259.08,1401.45 "/>
<polyline clip-path="url(#clip520)" style="stroke:#000000; stroke-linecap:round; stroke-linejoin:round; stroke-width:4; stroke-opacity:1; fill:none" points="1343.21,1410.9 1343.21,1401.45 "/>
<polyline clip-path="url(#clip520)" style="stroke:#000000; stroke-linecap:round; stroke-linejoin:round; stroke-width:4; stroke-opacity:1; fill:none" points="1427.34,1410.9 1427.34,1401.45 "/>
<polyline clip-path="url(#clip520)" style="stroke:#000000; stroke-linecap:round; stroke-linejoin:round; stroke-width:4; stroke-opacity:1; fill:none" points="1595.6,1410.9 1595.6,1401.45 "/>
<polyline clip-path="url(#clip520)" style="stroke:#000000; stroke-linecap:round; stroke-linejoin:round; stroke-width:4; stroke-opacity:1; fill:none" points="1679.73,1410.9 1679.73,1401.45 "/>
<polyline clip-path="url(#clip520)" style="stroke:#000000; stroke-linecap:round; stroke-linejoin:round; stroke-width:4; stroke-opacity:1; fill:none" points="1763.86,1410.9 1763.86,1401.45 "/>
<polyline clip-path="url(#clip520)" style="stroke:#000000; stroke-linecap:round; stroke-linejoin:round; stroke-width:4; stroke-opacity:1; fill:none" points="1847.98,1410.9 1847.98,1401.45 "/>
<polyline clip-path="url(#clip520)" style="stroke:#000000; stroke-linecap:round; stroke-linejoin:round; stroke-width:4; stroke-opacity:1; fill:none" points="2016.24,1410.9 2016.24,1401.45 "/>
<polyline clip-path="url(#clip520)" style="stroke:#000000; stroke-linecap:round; stroke-linejoin:round; stroke-width:4; stroke-opacity:1; fill:none" points="2100.37,1410.9 2100.37,1401.45 "/>
<polyline clip-path="url(#clip520)" style="stroke:#000000; stroke-linecap:round; stroke-linejoin:round; stroke-width:4; stroke-opacity:1; fill:none" points="2184.5,1410.9 2184.5,1401.45 "/>
<polyline clip-path="url(#clip520)" style="stroke:#000000; stroke-linecap:round; stroke-linejoin:round; stroke-width:4; stroke-opacity:1; fill:none" points="2268.63,1410.9 2268.63,1401.45 "/>
<path clip-path="url(#clip520)" d="M249.542 1441.82 Q245.931 1441.82 244.102 1445.38 Q242.297 1448.92 242.297 1456.05 Q242.297 1463.16 244.102 1466.72 Q245.931 1470.26 249.542 1470.26 Q253.176 1470.26 254.982 1466.72 Q256.811 1463.16 256.811 1456.05 Q256.811 1448.92 254.982 1445.38 Q253.176 1441.82 249.542 1441.82 M249.542 1438.11 Q255.352 1438.11 258.408 1442.72 Q261.486 1447.3 261.486 1456.05 Q261.486 1464.78 258.408 1469.38 Q255.352 1473.97 249.542 1473.97 Q243.732 1473.97 240.653 1469.38 Q237.598 1464.78 237.598 1456.05 Q237.598 1447.3 240.653 1442.72 Q243.732 1438.11 249.542 1438.11 Z" fill="#000000" fill-rule="nonzero" fill-opacity="1" /><path clip-path="url(#clip520)" d="M582.316 1485.02 L598.636 1485.02 L598.636 1488.96 L576.691 1488.96 L576.691 1485.02 Q579.353 1482.27 583.937 1477.64 Q588.543 1472.98 589.724 1471.64 Q591.969 1469.12 592.849 1467.38 Q593.751 1465.62 593.751 1463.93 Q593.751 1461.18 591.807 1459.44 Q589.886 1457.71 586.784 1457.71 Q584.585 1457.71 582.131 1458.47 Q579.701 1459.23 576.923 1460.79 L576.923 1456.06 Q579.747 1454.93 582.201 1454.35 Q584.654 1453.77 586.691 1453.77 Q592.062 1453.77 595.256 1456.46 Q598.451 1459.14 598.451 1463.63 Q598.451 1465.76 597.64 1467.68 Q596.853 1469.58 594.747 1472.17 Q594.168 1472.85 591.066 1476.06 Q587.964 1479.26 582.316 1485.02 Z" fill="#000000" fill-rule="nonzero" fill-opacity="1" /><path clip-path="url(#clip520)" d="M608.45 1483.08 L613.335 1483.08 L613.335 1488.96 L608.45 1488.96 L608.45 1483.08 Z" fill="#000000" fill-rule="nonzero" fill-opacity="1" /><path clip-path="url(#clip520)" d="M633.52 1457.48 Q629.909 1457.48 628.08 1461.04 Q626.274 1464.58 626.274 1471.71 Q626.274 1478.82 628.08 1482.38 Q629.909 1485.92 633.52 1485.92 Q637.154 1485.92 638.96 1482.38 Q640.788 1478.82 640.788 1471.71 Q640.788 1464.58 638.96 1461.04 Q637.154 1457.48 633.52 1457.48 M633.52 1453.77 Q639.33 1453.77 642.385 1458.38 Q645.464 1462.96 645.464 1471.71 Q645.464 1480.44 642.385 1485.04 Q639.33 1489.63 633.52 1489.63 Q627.71 1489.63 624.631 1485.04 Q621.575 1480.44 621.575 1471.71 Q621.575 1462.96 624.631 1458.38 Q627.71 1453.77 633.52 1453.77 Z" fill="#000000" fill-rule="nonzero" fill-opacity="1" /><path clip-path="url(#clip520)" d="M681.853 1463.49 L671.274 1474.12 L681.853 1484.7 L679.098 1487.5 L668.473 1476.87 L657.848 1487.5 L655.117 1484.7 L665.672 1474.12 L655.117 1463.49 L657.848 1460.69 L668.473 1471.32 L679.098 1460.69 L681.853 1463.49 Z" fill="#000000" fill-rule="nonzero" fill-opacity="1" /><path clip-path="url(#clip520)" d="M694.214 1485.02 L701.853 1485.02 L701.853 1458.66 L693.543 1460.32 L693.543 1456.06 L701.806 1454.4 L706.482 1454.4 L706.482 1485.02 L714.121 1485.02 L714.121 1488.96 L694.214 1488.96 L694.214 1485.02 Z" fill="#000000" fill-rule="nonzero" fill-opacity="1" /><path clip-path="url(#clip520)" d="M733.566 1457.48 Q729.954 1457.48 728.126 1461.04 Q726.32 1464.58 726.32 1471.71 Q726.32 1478.82 728.126 1482.38 Q729.954 1485.92 733.566 1485.92 Q737.2 1485.92 739.005 1482.38 Q740.834 1478.82 740.834 1471.71 Q740.834 1464.58 739.005 1461.04 Q737.2 1457.48 733.566 1457.48 M733.566 1453.77 Q739.376 1453.77 742.431 1458.38 Q745.51 1462.96 745.51 1471.71 Q745.51 1480.44 742.431 1485.04 Q739.376 1489.63 733.566 1489.63 Q727.755 1489.63 724.677 1485.04 Q721.621 1480.44 721.621 1471.71 Q721.621 1462.96 724.677 1458.38 Q727.755 1453.77 733.566 1453.77 Z" fill="#000000" fill-rule="nonzero" fill-opacity="1" /><path clip-path="url(#clip520)" d="M746.695 1433.47 L761.609 1433.47 L761.609 1436.66 L750.174 1436.66 L750.174 1443.55 Q751.002 1443.27 751.829 1443.13 Q752.657 1442.98 753.484 1442.98 Q758.186 1442.98 760.932 1445.56 Q763.678 1448.14 763.678 1452.54 Q763.678 1457.07 760.857 1459.59 Q758.036 1462.09 752.901 1462.09 Q751.133 1462.09 749.29 1461.79 Q747.466 1461.49 745.51 1460.89 L745.51 1457.07 Q747.203 1457.99 749.008 1458.44 Q750.814 1458.89 752.826 1458.89 Q756.08 1458.89 757.979 1457.18 Q759.879 1455.47 759.879 1452.54 Q759.879 1449.6 757.979 1447.89 Q756.08 1446.18 752.826 1446.18 Q751.303 1446.18 749.779 1446.52 Q748.275 1446.86 746.695 1447.57 L746.695 1433.47 Z" fill="#000000" fill-rule="nonzero" fill-opacity="1" /><path clip-path="url(#clip520)" d="M1012.36 1458.47 L1000.55 1476.92 L1012.36 1476.92 L1012.36 1458.47 M1011.13 1454.4 L1017.01 1454.4 L1017.01 1476.92 L1021.94 1476.92 L1021.94 1480.81 L1017.01 1480.81 L1017.01 1488.96 L1012.36 1488.96 L1012.36 1480.81 L996.755 1480.81 L996.755 1476.29 L1011.13 1454.4 Z" fill="#000000" fill-rule="nonzero" fill-opacity="1" /><path clip-path="url(#clip520)" d="M1029.67 1483.08 L1034.56 1483.08 L1034.56 1488.96 L1029.67 1488.96 L1029.67 1483.08 Z" fill="#000000" fill-rule="nonzero" fill-opacity="1" /><path clip-path="url(#clip520)" d="M1054.74 1457.48 Q1051.13 1457.48 1049.3 1461.04 Q1047.5 1464.58 1047.5 1471.71 Q1047.5 1478.82 1049.3 1482.38 Q1051.13 1485.92 1054.74 1485.92 Q1058.38 1485.92 1060.18 1482.38 Q1062.01 1478.82 1062.01 1471.71 Q1062.01 1464.58 1060.18 1461.04 Q1058.38 1457.48 1054.74 1457.48 M1054.74 1453.77 Q1060.55 1453.77 1063.61 1458.38 Q1066.69 1462.96 1066.69 1471.71 Q1066.69 1480.44 1063.61 1485.04 Q1060.55 1489.63 1054.74 1489.63 Q1048.93 1489.63 1045.85 1485.04 Q1042.8 1480.44 1042.8 1471.71 Q1042.8 1462.96 1045.85 1458.38 Q1048.93 1453.77 1054.74 1453.77 Z" fill="#000000" fill-rule="nonzero" fill-opacity="1" /><path clip-path="url(#clip520)" d="M1103.07 1463.49 L1092.5 1474.12 L1103.07 1484.7 L1100.32 1487.5 L1089.69 1476.87 L1079.07 1487.5 L1076.34 1484.7 L1086.89 1474.12 L1076.34 1463.49 L1079.07 1460.69 L1089.69 1471.32 L1100.32 1460.69 L1103.07 1463.49 Z" fill="#000000" fill-rule="nonzero" fill-opacity="1" /><path clip-path="url(#clip520)" d="M1115.44 1485.02 L1123.07 1485.02 L1123.07 1458.66 L1114.76 1460.32 L1114.76 1456.06 L1123.03 1454.4 L1127.7 1454.4 L1127.7 1485.02 L1135.34 1485.02 L1135.34 1488.96 L1115.44 1488.96 L1115.44 1485.02 Z" fill="#000000" fill-rule="nonzero" fill-opacity="1" /><path clip-path="url(#clip520)" d="M1154.79 1457.48 Q1151.18 1457.48 1149.35 1461.04 Q1147.54 1464.58 1147.54 1471.71 Q1147.54 1478.82 1149.35 1482.38 Q1151.18 1485.92 1154.79 1485.92 Q1158.42 1485.92 1160.23 1482.38 Q1162.06 1478.82 1162.06 1471.71 Q1162.06 1464.58 1160.23 1461.04 Q1158.42 1457.48 1154.79 1457.48 M1154.79 1453.77 Q1160.6 1453.77 1163.65 1458.38 Q1166.73 1462.96 1166.73 1471.71 Q1166.73 1480.44 1163.65 1485.04 Q1160.6 1489.63 1154.79 1489.63 Q1148.98 1489.63 1145.9 1485.04 Q1142.84 1480.44 1142.84 1471.71 Q1142.84 1462.96 1145.9 1458.38 Q1148.98 1453.77 1154.79 1453.77 Z" fill="#000000" fill-rule="nonzero" fill-opacity="1" /><path clip-path="url(#clip520)" d="M1167.92 1433.47 L1182.83 1433.47 L1182.83 1436.66 L1171.4 1436.66 L1171.4 1443.55 Q1172.22 1443.27 1173.05 1443.13 Q1173.88 1442.98 1174.71 1442.98 Q1179.41 1442.98 1182.15 1445.56 Q1184.9 1448.14 1184.9 1452.54 Q1184.9 1457.07 1182.08 1459.59 Q1179.26 1462.09 1174.12 1462.09 Q1172.35 1462.09 1170.51 1461.79 Q1168.69 1461.49 1166.73 1460.89 L1166.73 1457.07 Q1168.42 1457.99 1170.23 1458.44 Q1172.04 1458.89 1174.05 1458.89 Q1177.3 1458.89 1179.2 1457.18 Q1181.1 1455.47 1181.1 1452.54 Q1181.1 1449.6 1179.2 1447.89 Q1177.3 1446.18 1174.05 1446.18 Q1172.52 1446.18 1171 1446.52 Q1169.5 1446.86 1167.92 1447.57 L1167.92 1433.47 Z" fill="#000000" fill-rule="nonzero" fill-opacity="1" /><path clip-path="url(#clip520)" d="M1430.23 1469.81 Q1427.09 1469.81 1425.23 1471.97 Q1423.41 1474.12 1423.41 1477.87 Q1423.41 1481.6 1425.23 1483.77 Q1427.09 1485.92 1430.23 1485.92 Q1433.38 1485.92 1435.21 1483.77 Q1437.06 1481.6 1437.06 1477.87 Q1437.06 1474.12 1435.21 1471.97 Q1433.38 1469.81 1430.23 1469.81 M1439.52 1455.16 L1439.52 1459.42 Q1437.76 1458.59 1435.95 1458.15 Q1434.17 1457.71 1432.41 1457.71 Q1427.78 1457.71 1425.33 1460.83 Q1422.9 1463.96 1422.55 1470.28 Q1423.91 1468.26 1425.97 1467.2 Q1428.03 1466.11 1430.51 1466.11 Q1435.72 1466.11 1438.73 1469.28 Q1441.76 1472.43 1441.76 1477.87 Q1441.76 1483.19 1438.61 1486.41 Q1435.47 1489.63 1430.23 1489.63 Q1424.24 1489.63 1421.07 1485.04 Q1417.9 1480.44 1417.9 1471.71 Q1417.9 1463.52 1421.78 1458.66 Q1425.67 1453.77 1432.22 1453.77 Q1433.98 1453.77 1435.77 1454.12 Q1437.57 1454.47 1439.52 1455.16 Z" fill="#000000" fill-rule="nonzero" fill-opacity="1" /><path clip-path="url(#clip520)" d="M1449.82 1483.08 L1454.7 1483.08 L1454.7 1488.96 L1449.82 1488.96 L1449.82 1483.08 Z" fill="#000000" fill-rule="nonzero" fill-opacity="1" /><path clip-path="url(#clip520)" d="M1474.89 1457.48 Q1471.28 1457.48 1469.45 1461.04 Q1467.64 1464.58 1467.64 1471.71 Q1467.64 1478.82 1469.45 1482.38 Q1471.28 1485.92 1474.89 1485.92 Q1478.52 1485.92 1480.33 1482.38 Q1482.15 1478.82 1482.15 1471.71 Q1482.15 1464.58 1480.33 1461.04 Q1478.52 1457.48 1474.89 1457.48 M1474.89 1453.77 Q1480.7 1453.77 1483.75 1458.38 Q1486.83 1462.96 1486.83 1471.71 Q1486.83 1480.44 1483.75 1485.04 Q1480.7 1489.63 1474.89 1489.63 Q1469.08 1489.63 1466 1485.04 Q1462.94 1480.44 1462.94 1471.71 Q1462.94 1462.96 1466 1458.38 Q1469.08 1453.77 1474.89 1453.77 Z" fill="#000000" fill-rule="nonzero" fill-opacity="1" /><path clip-path="url(#clip520)" d="M1523.22 1463.49 L1512.64 1474.12 L1523.22 1484.7 L1520.46 1487.5 L1509.84 1476.87 L1499.21 1487.5 L1496.48 1484.7 L1507.04 1474.12 L1496.48 1463.49 L1499.21 1460.69 L1509.84 1471.32 L1520.46 1460.69 L1523.22 1463.49 Z" fill="#000000" fill-rule="nonzero" fill-opacity="1" /><path clip-path="url(#clip520)" d="M1535.58 1485.02 L1543.22 1485.02 L1543.22 1458.66 L1534.91 1460.32 L1534.91 1456.06 L1543.17 1454.4 L1547.85 1454.4 L1547.85 1485.02 L1555.49 1485.02 L1555.49 1488.96 L1535.58 1488.96 L1535.58 1485.02 Z" fill="#000000" fill-rule="nonzero" fill-opacity="1" /><path clip-path="url(#clip520)" d="M1574.93 1457.48 Q1571.32 1457.48 1569.49 1461.04 Q1567.69 1464.58 1567.69 1471.71 Q1567.69 1478.82 1569.49 1482.38 Q1571.32 1485.92 1574.93 1485.92 Q1578.57 1485.92 1580.37 1482.38 Q1582.2 1478.82 1582.2 1471.71 Q1582.2 1464.58 1580.37 1461.04 Q1578.57 1457.48 1574.93 1457.48 M1574.93 1453.77 Q1580.74 1453.77 1583.8 1458.38 Q1586.88 1462.96 1586.88 1471.71 Q1586.88 1480.44 1583.8 1485.04 Q1580.74 1489.63 1574.93 1489.63 Q1569.12 1489.63 1566.04 1485.04 Q1562.99 1480.44 1562.99 1471.71 Q1562.99 1462.96 1566.04 1458.38 Q1569.12 1453.77 1574.93 1453.77 Z" fill="#000000" fill-rule="nonzero" fill-opacity="1" /><path clip-path="url(#clip520)" d="M1588.06 1433.47 L1602.98 1433.47 L1602.98 1436.66 L1591.54 1436.66 L1591.54 1443.55 Q1592.37 1443.27 1593.2 1443.13 Q1594.02 1442.98 1594.85 1442.98 Q1599.55 1442.98 1602.3 1445.56 Q1605.04 1448.14 1605.04 1452.54 Q1605.04 1457.07 1602.22 1459.59 Q1599.4 1462.09 1594.27 1462.09 Q1592.5 1462.09 1590.66 1461.79 Q1588.83 1461.49 1586.88 1460.89 L1586.88 1457.07 Q1588.57 1457.99 1590.37 1458.44 Q1592.18 1458.89 1594.19 1458.89 Q1597.45 1458.89 1599.35 1457.18 Q1601.25 1455.47 1601.25 1452.54 Q1601.25 1449.6 1599.35 1447.89 Q1597.45 1446.18 1594.19 1446.18 Q1592.67 1446.18 1591.15 1446.52 Q1589.64 1446.86 1588.06 1447.57 L1588.06 1433.47 Z" fill="#000000" fill-rule="nonzero" fill-opacity="1" /><path clip-path="url(#clip520)" d="M1850.34 1472.54 Q1847.01 1472.54 1845.09 1474.33 Q1843.19 1476.11 1843.19 1479.23 Q1843.19 1482.36 1845.09 1484.14 Q1847.01 1485.92 1850.34 1485.92 Q1853.68 1485.92 1855.6 1484.14 Q1857.52 1482.34 1857.52 1479.23 Q1857.52 1476.11 1855.6 1474.33 Q1853.7 1472.54 1850.34 1472.54 M1845.67 1470.55 Q1842.66 1469.81 1840.97 1467.75 Q1839.3 1465.69 1839.3 1462.73 Q1839.3 1458.59 1842.24 1456.18 Q1845.21 1453.77 1850.34 1453.77 Q1855.51 1453.77 1858.45 1456.18 Q1861.39 1458.59 1861.39 1462.73 Q1861.39 1465.69 1859.7 1467.75 Q1858.03 1469.81 1855.04 1470.55 Q1858.42 1471.34 1860.3 1473.63 Q1862.2 1475.92 1862.2 1479.23 Q1862.2 1484.26 1859.12 1486.94 Q1856.06 1489.63 1850.34 1489.63 Q1844.63 1489.63 1841.55 1486.94 Q1838.49 1484.26 1838.49 1479.23 Q1838.49 1475.92 1840.39 1473.63 Q1842.29 1471.34 1845.67 1470.55 M1843.96 1463.17 Q1843.96 1465.85 1845.62 1467.36 Q1847.31 1468.86 1850.34 1468.86 Q1853.35 1468.86 1855.04 1467.36 Q1856.76 1465.85 1856.76 1463.17 Q1856.76 1460.48 1855.04 1458.98 Q1853.35 1457.48 1850.34 1457.48 Q1847.31 1457.48 1845.62 1458.98 Q1843.96 1460.48 1843.96 1463.17 Z" fill="#000000" fill-rule="nonzero" fill-opacity="1" /><path clip-path="url(#clip520)" d="M1870.51 1483.08 L1875.39 1483.08 L1875.39 1488.96 L1870.51 1488.96 L1870.51 1483.08 Z" fill="#000000" fill-rule="nonzero" fill-opacity="1" /><path clip-path="url(#clip520)" d="M1895.58 1457.48 Q1891.96 1457.48 1890.14 1461.04 Q1888.33 1464.58 1888.33 1471.71 Q1888.33 1478.82 1890.14 1482.38 Q1891.96 1485.92 1895.58 1485.92 Q1899.21 1485.92 1901.02 1482.38 Q1902.84 1478.82 1902.84 1471.71 Q1902.84 1464.58 1901.02 1461.04 Q1899.21 1457.48 1895.58 1457.48 M1895.58 1453.77 Q1901.39 1453.77 1904.44 1458.38 Q1907.52 1462.96 1907.52 1471.71 Q1907.52 1480.44 1904.44 1485.04 Q1901.39 1489.63 1895.58 1489.63 Q1889.77 1489.63 1886.69 1485.04 Q1883.63 1480.44 1883.63 1471.71 Q1883.63 1462.96 1886.69 1458.38 Q1889.77 1453.77 1895.58 1453.77 Z" fill="#000000" fill-rule="nonzero" fill-opacity="1" /><path clip-path="url(#clip520)" d="M1943.91 1463.49 L1933.33 1474.12 L1943.91 1484.7 L1941.15 1487.5 L1930.53 1476.87 L1919.9 1487.5 L1917.17 1484.7 L1927.73 1474.12 L1917.17 1463.49 L1919.9 1460.69 L1930.53 1471.32 L1941.15 1460.69 L1943.91 1463.49 Z" fill="#000000" fill-rule="nonzero" fill-opacity="1" /><path clip-path="url(#clip520)" d="M1956.27 1485.02 L1963.91 1485.02 L1963.91 1458.66 L1955.6 1460.32 L1955.6 1456.06 L1963.86 1454.4 L1968.54 1454.4 L1968.54 1485.02 L1976.18 1485.02 L1976.18 1488.96 L1956.27 1488.96 L1956.27 1485.02 Z" fill="#000000" fill-rule="nonzero" fill-opacity="1" /><path clip-path="url(#clip520)" d="M1995.62 1457.48 Q1992.01 1457.48 1990.18 1461.04 Q1988.38 1464.58 1988.38 1471.71 Q1988.38 1478.82 1990.18 1482.38 Q1992.01 1485.92 1995.62 1485.92 Q1999.26 1485.92 2001.06 1482.38 Q2002.89 1478.82 2002.89 1471.71 Q2002.89 1464.58 2001.06 1461.04 Q1999.26 1457.48 1995.62 1457.48 M1995.62 1453.77 Q2001.43 1453.77 2004.49 1458.38 Q2007.57 1462.96 2007.57 1471.71 Q2007.57 1480.44 2004.49 1485.04 Q2001.43 1489.63 1995.62 1489.63 Q1989.81 1489.63 1986.73 1485.04 Q1983.68 1480.44 1983.68 1471.71 Q1983.68 1462.96 1986.73 1458.38 Q1989.81 1453.77 1995.62 1453.77 Z" fill="#000000" fill-rule="nonzero" fill-opacity="1" /><path clip-path="url(#clip520)" d="M2008.75 1433.47 L2023.67 1433.47 L2023.67 1436.66 L2012.23 1436.66 L2012.23 1443.55 Q2013.06 1443.27 2013.88 1443.13 Q2014.71 1442.98 2015.54 1442.98 Q2020.24 1442.98 2022.99 1445.56 Q2025.73 1448.14 2025.73 1452.54 Q2025.73 1457.07 2022.91 1459.59 Q2020.09 1462.09 2014.96 1462.09 Q2013.19 1462.09 2011.35 1461.79 Q2009.52 1461.49 2007.57 1460.89 L2007.57 1457.07 Q2009.26 1457.99 2011.06 1458.44 Q2012.87 1458.89 2014.88 1458.89 Q2018.14 1458.89 2020.04 1457.18 Q2021.93 1455.47 2021.93 1452.54 Q2021.93 1449.6 2020.04 1447.89 Q2018.14 1446.18 2014.88 1446.18 Q2013.36 1446.18 2011.83 1446.52 Q2010.33 1446.86 2008.75 1447.57 L2008.75 1433.47 Z" fill="#000000" fill-rule="nonzero" fill-opacity="1" /><path clip-path="url(#clip520)" d="M2260.19 1485.02 L2267.83 1485.02 L2267.83 1458.66 L2259.52 1460.32 L2259.52 1456.06 L2267.78 1454.4 L2272.46 1454.4 L2272.46 1485.02 L2280.1 1485.02 L2280.1 1488.96 L2260.19 1488.96 L2260.19 1485.02 Z" fill="#000000" fill-rule="nonzero" fill-opacity="1" /><path clip-path="url(#clip520)" d="M2289.54 1483.08 L2294.43 1483.08 L2294.43 1488.96 L2289.54 1488.96 L2289.54 1483.08 Z" fill="#000000" fill-rule="nonzero" fill-opacity="1" /><path clip-path="url(#clip520)" d="M2314.61 1457.48 Q2311 1457.48 2309.17 1461.04 Q2307.37 1464.58 2307.37 1471.71 Q2307.37 1478.82 2309.17 1482.38 Q2311 1485.92 2314.61 1485.92 Q2318.25 1485.92 2320.05 1482.38 Q2321.88 1478.82 2321.88 1471.71 Q2321.88 1464.58 2320.05 1461.04 Q2318.25 1457.48 2314.61 1457.48 M2314.61 1453.77 Q2320.42 1453.77 2323.48 1458.38 Q2326.56 1462.96 2326.56 1471.71 Q2326.56 1480.44 2323.48 1485.04 Q2320.42 1489.63 2314.61 1489.63 Q2308.8 1489.63 2305.72 1485.04 Q2302.67 1480.44 2302.67 1471.71 Q2302.67 1462.96 2305.72 1458.38 Q2308.8 1453.77 2314.61 1453.77 Z" fill="#000000" fill-rule="nonzero" fill-opacity="1" /><path clip-path="url(#clip520)" d="M2362.94 1463.49 L2352.37 1474.12 L2362.94 1484.7 L2360.19 1487.5 L2349.57 1476.87 L2338.94 1487.5 L2336.21 1484.7 L2346.76 1474.12 L2336.21 1463.49 L2338.94 1460.69 L2349.57 1471.32 L2360.19 1460.69 L2362.94 1463.49 Z" fill="#000000" fill-rule="nonzero" fill-opacity="1" /><path clip-path="url(#clip520)" d="M2375.31 1485.02 L2382.94 1485.02 L2382.94 1458.66 L2374.63 1460.32 L2374.63 1456.06 L2382.9 1454.4 L2387.57 1454.4 L2387.57 1485.02 L2395.21 1485.02 L2395.21 1488.96 L2375.31 1488.96 L2375.31 1485.02 Z" fill="#000000" fill-rule="nonzero" fill-opacity="1" /><path clip-path="url(#clip520)" d="M2414.66 1457.48 Q2411.05 1457.48 2409.22 1461.04 Q2407.41 1464.58 2407.41 1471.71 Q2407.41 1478.82 2409.22 1482.38 Q2411.05 1485.92 2414.66 1485.92 Q2418.29 1485.92 2420.1 1482.38 Q2421.93 1478.82 2421.93 1471.71 Q2421.93 1464.58 2420.1 1461.04 Q2418.29 1457.48 2414.66 1457.48 M2414.66 1453.77 Q2420.47 1453.77 2423.52 1458.38 Q2426.6 1462.96 2426.6 1471.71 Q2426.6 1480.44 2423.52 1485.04 Q2420.47 1489.63 2414.66 1489.63 Q2408.85 1489.63 2405.77 1485.04 Q2402.71 1480.44 2402.71 1471.71 Q2402.71 1462.96 2405.77 1458.38 Q2408.85 1453.77 2414.66 1453.77 Z" fill="#000000" fill-rule="nonzero" fill-opacity="1" /><path clip-path="url(#clip520)" d="M2436.63 1445.99 Q2434.07 1445.99 2432.56 1447.74 Q2431.08 1449.49 2431.08 1452.54 Q2431.08 1455.57 2432.56 1457.33 Q2434.07 1459.08 2436.63 1459.08 Q2439.18 1459.08 2440.67 1457.33 Q2442.17 1455.57 2442.17 1452.54 Q2442.17 1449.49 2440.67 1447.74 Q2439.18 1445.99 2436.63 1445.99 M2444.17 1434.09 L2444.17 1437.55 Q2442.74 1436.87 2441.27 1436.51 Q2439.82 1436.16 2438.39 1436.16 Q2434.63 1436.16 2432.64 1438.69 Q2430.66 1441.23 2430.38 1446.37 Q2431.49 1444.73 2433.17 1443.87 Q2434.84 1442.98 2436.85 1442.98 Q2441.08 1442.98 2443.53 1445.56 Q2445.99 1448.12 2445.99 1452.54 Q2445.99 1456.86 2443.43 1459.48 Q2440.88 1462.09 2436.63 1462.09 Q2431.76 1462.09 2429.18 1458.37 Q2426.6 1454.62 2426.6 1447.53 Q2426.6 1440.88 2429.76 1436.93 Q2432.92 1432.96 2438.24 1432.96 Q2439.67 1432.96 2441.12 1433.24 Q2442.59 1433.52 2444.17 1434.09 Z" fill="#000000" fill-rule="nonzero" fill-opacity="1" /><path clip-path="url(#clip520)" d="M1330.45 1523.67 Q1330.45 1524.99 1329.32 1524.99 Q1325.68 1525.12 1324.2 1526.34 Q1322.75 1527.54 1322.21 1529.85 L1313 1566.6 Q1312.67 1567.76 1312.48 1567.89 Q1312.29 1567.99 1311.93 1567.99 Q1311.48 1567.99 1311.22 1567.76 Q1311 1567.54 1310.68 1566.73 L1294.25 1527.89 Q1294.12 1527.63 1293.96 1527.28 Q1293.8 1526.92 1293.67 1526.7 L1284.94 1561.51 Q1284.69 1562.51 1284.69 1563.03 Q1284.69 1564.28 1285.56 1565.09 Q1286.46 1565.86 1289.03 1565.96 Q1290.36 1565.96 1290.36 1566.67 Q1290.36 1567.99 1289.16 1567.99 Q1288.07 1567.99 1285.78 1567.89 Q1283.5 1567.79 1282.37 1567.79 Q1281.27 1567.79 1279.05 1567.89 Q1276.83 1567.99 1275.77 1567.99 Q1274.93 1567.99 1274.93 1567.25 Q1274.93 1566.67 1275.15 1566.38 Q1275.38 1566.05 1275.57 1566.02 Q1275.77 1565.96 1276.06 1565.96 Q1277.99 1565.89 1279.31 1565.51 Q1280.63 1565.12 1281.37 1564.38 Q1282.14 1563.64 1282.5 1562.9 Q1282.88 1562.12 1283.17 1561 L1292 1525.57 Q1292 1524.99 1287.52 1524.99 Q1286.75 1524.99 1286.43 1524.96 Q1286.14 1524.93 1285.91 1524.77 Q1285.69 1524.6 1285.69 1524.25 Q1285.69 1523.35 1286.07 1523.16 Q1286.46 1522.93 1287.59 1522.93 L1296.44 1522.93 Q1297.57 1522.93 1297.86 1523.12 Q1298.15 1523.28 1298.54 1524.19 L1313.12 1558.61 L1320.5 1529.27 Q1320.69 1528.69 1320.69 1527.89 Q1320.69 1526.6 1319.73 1525.83 Q1318.79 1525.02 1316.22 1524.99 Q1315.02 1524.99 1315.02 1524.25 Q1315.02 1523.64 1315.25 1523.35 Q1315.51 1523.03 1315.7 1522.99 Q1315.93 1522.93 1316.22 1522.93 Q1317.31 1522.93 1319.57 1523.03 Q1321.82 1523.12 1322.95 1523.12 Q1324.04 1523.12 1326.26 1523.03 Q1328.52 1522.93 1329.61 1522.93 Q1330 1522.93 1330.19 1523.12 Q1330.42 1523.28 1330.45 1523.48 L1330.45 1523.67 Z" fill="#000000" fill-rule="nonzero" fill-opacity="1" /><polyline clip-path="url(#clip522)" style="stroke:#000000; stroke-linecap:round; stroke-linejoin:round; stroke-width:2; stroke-opacity:0.1; fill:none" points="249.542,1410.9 2352.76,1410.9 "/>
<polyline clip-path="url(#clip522)" style="stroke:#000000; stroke-linecap:round; stroke-linejoin:round; stroke-width:2; stroke-opacity:0.1; fill:none" points="249.542,1138.17 2352.76,1138.17 "/>
<polyline clip-path="url(#clip522)" style="stroke:#000000; stroke-linecap:round; stroke-linejoin:round; stroke-width:2; stroke-opacity:0.1; fill:none" points="249.542,865.436 2352.76,865.436 "/>
<polyline clip-path="url(#clip522)" style="stroke:#000000; stroke-linecap:round; stroke-linejoin:round; stroke-width:2; stroke-opacity:0.1; fill:none" points="249.542,592.705 2352.76,592.705 "/>
<polyline clip-path="url(#clip522)" style="stroke:#000000; stroke-linecap:round; stroke-linejoin:round; stroke-width:2; stroke-opacity:0.1; fill:none" points="249.542,319.975 2352.76,319.975 "/>
<polyline clip-path="url(#clip522)" style="stroke:#000000; stroke-linecap:round; stroke-linejoin:round; stroke-width:2; stroke-opacity:0.05; fill:none" points="249.542,1356.35 2352.76,1356.35 "/>
<polyline clip-path="url(#clip522)" style="stroke:#000000; stroke-linecap:round; stroke-linejoin:round; stroke-width:2; stroke-opacity:0.05; fill:none" points="249.542,1301.8 2352.76,1301.8 "/>
<polyline clip-path="url(#clip522)" style="stroke:#000000; stroke-linecap:round; stroke-linejoin:round; stroke-width:2; stroke-opacity:0.05; fill:none" points="249.542,1247.26 2352.76,1247.26 "/>
<polyline clip-path="url(#clip522)" style="stroke:#000000; stroke-linecap:round; stroke-linejoin:round; stroke-width:2; stroke-opacity:0.05; fill:none" points="249.542,1192.71 2352.76,1192.71 "/>
<polyline clip-path="url(#clip522)" style="stroke:#000000; stroke-linecap:round; stroke-linejoin:round; stroke-width:2; stroke-opacity:0.05; fill:none" points="249.542,1083.62 2352.76,1083.62 "/>
<polyline clip-path="url(#clip522)" style="stroke:#000000; stroke-linecap:round; stroke-linejoin:round; stroke-width:2; stroke-opacity:0.05; fill:none" points="249.542,1029.07 2352.76,1029.07 "/>
<polyline clip-path="url(#clip522)" style="stroke:#000000; stroke-linecap:round; stroke-linejoin:round; stroke-width:2; stroke-opacity:0.05; fill:none" points="249.542,974.528 2352.76,974.528 "/>
<polyline clip-path="url(#clip522)" style="stroke:#000000; stroke-linecap:round; stroke-linejoin:round; stroke-width:2; stroke-opacity:0.05; fill:none" points="249.542,919.982 2352.76,919.982 "/>
<polyline clip-path="url(#clip522)" style="stroke:#000000; stroke-linecap:round; stroke-linejoin:round; stroke-width:2; stroke-opacity:0.05; fill:none" points="249.542,810.89 2352.76,810.89 "/>
<polyline clip-path="url(#clip522)" style="stroke:#000000; stroke-linecap:round; stroke-linejoin:round; stroke-width:2; stroke-opacity:0.05; fill:none" points="249.542,756.343 2352.76,756.343 "/>
<polyline clip-path="url(#clip522)" style="stroke:#000000; stroke-linecap:round; stroke-linejoin:round; stroke-width:2; stroke-opacity:0.05; fill:none" points="249.542,701.797 2352.76,701.797 "/>
<polyline clip-path="url(#clip522)" style="stroke:#000000; stroke-linecap:round; stroke-linejoin:round; stroke-width:2; stroke-opacity:0.05; fill:none" points="249.542,647.251 2352.76,647.251 "/>
<polyline clip-path="url(#clip522)" style="stroke:#000000; stroke-linecap:round; stroke-linejoin:round; stroke-width:2; stroke-opacity:0.05; fill:none" points="249.542,538.159 2352.76,538.159 "/>
<polyline clip-path="url(#clip522)" style="stroke:#000000; stroke-linecap:round; stroke-linejoin:round; stroke-width:2; stroke-opacity:0.05; fill:none" points="249.542,483.613 2352.76,483.613 "/>
<polyline clip-path="url(#clip522)" style="stroke:#000000; stroke-linecap:round; stroke-linejoin:round; stroke-width:2; stroke-opacity:0.05; fill:none" points="249.542,429.067 2352.76,429.067 "/>
<polyline clip-path="url(#clip522)" style="stroke:#000000; stroke-linecap:round; stroke-linejoin:round; stroke-width:2; stroke-opacity:0.05; fill:none" points="249.542,374.521 2352.76,374.521 "/>
<polyline clip-path="url(#clip522)" style="stroke:#000000; stroke-linecap:round; stroke-linejoin:round; stroke-width:2; stroke-opacity:0.05; fill:none" points="249.542,265.429 2352.76,265.429 "/>
<polyline clip-path="url(#clip522)" style="stroke:#000000; stroke-linecap:round; stroke-linejoin:round; stroke-width:2; stroke-opacity:0.05; fill:none" points="249.542,210.882 2352.76,210.882 "/>
<polyline clip-path="url(#clip522)" style="stroke:#000000; stroke-linecap:round; stroke-linejoin:round; stroke-width:2; stroke-opacity:0.05; fill:none" points="249.542,156.336 2352.76,156.336 "/>
<polyline clip-path="url(#clip522)" style="stroke:#000000; stroke-linecap:round; stroke-linejoin:round; stroke-width:2; stroke-opacity:0.05; fill:none" points="249.542,101.79 2352.76,101.79 "/>
<polyline clip-path="url(#clip520)" style="stroke:#000000; stroke-linecap:round; stroke-linejoin:round; stroke-width:4; stroke-opacity:1; fill:none" points="249.542,1410.9 249.542,47.2441 "/>
<polyline clip-path="url(#clip520)" style="stroke:#000000; stroke-linecap:round; stroke-linejoin:round; stroke-width:4; stroke-opacity:1; fill:none" points="249.542,1410.9 268.44,1410.9 "/>
<polyline clip-path="url(#clip520)" style="stroke:#000000; stroke-linecap:round; stroke-linejoin:round; stroke-width:4; stroke-opacity:1; fill:none" points="249.542,1138.17 268.44,1138.17 "/>
<polyline clip-path="url(#clip520)" style="stroke:#000000; stroke-linecap:round; stroke-linejoin:round; stroke-width:4; stroke-opacity:1; fill:none" points="249.542,865.436 268.44,865.436 "/>
<polyline clip-path="url(#clip520)" style="stroke:#000000; stroke-linecap:round; stroke-linejoin:round; stroke-width:4; stroke-opacity:1; fill:none" points="249.542,592.705 268.44,592.705 "/>
<polyline clip-path="url(#clip520)" style="stroke:#000000; stroke-linecap:round; stroke-linejoin:round; stroke-width:4; stroke-opacity:1; fill:none" points="249.542,319.975 268.44,319.975 "/>
<polyline clip-path="url(#clip520)" style="stroke:#000000; stroke-linecap:round; stroke-linejoin:round; stroke-width:4; stroke-opacity:1; fill:none" points="249.542,1356.35 258.991,1356.35 "/>
<polyline clip-path="url(#clip520)" style="stroke:#000000; stroke-linecap:round; stroke-linejoin:round; stroke-width:4; stroke-opacity:1; fill:none" points="249.542,1301.8 258.991,1301.8 "/>
<polyline clip-path="url(#clip520)" style="stroke:#000000; stroke-linecap:round; stroke-linejoin:round; stroke-width:4; stroke-opacity:1; fill:none" points="249.542,1247.26 258.991,1247.26 "/>
<polyline clip-path="url(#clip520)" style="stroke:#000000; stroke-linecap:round; stroke-linejoin:round; stroke-width:4; stroke-opacity:1; fill:none" points="249.542,1192.71 258.991,1192.71 "/>
<polyline clip-path="url(#clip520)" style="stroke:#000000; stroke-linecap:round; stroke-linejoin:round; stroke-width:4; stroke-opacity:1; fill:none" points="249.542,1083.62 258.991,1083.62 "/>
<polyline clip-path="url(#clip520)" style="stroke:#000000; stroke-linecap:round; stroke-linejoin:round; stroke-width:4; stroke-opacity:1; fill:none" points="249.542,1029.07 258.991,1029.07 "/>
<polyline clip-path="url(#clip520)" style="stroke:#000000; stroke-linecap:round; stroke-linejoin:round; stroke-width:4; stroke-opacity:1; fill:none" points="249.542,974.528 258.991,974.528 "/>
<polyline clip-path="url(#clip520)" style="stroke:#000000; stroke-linecap:round; stroke-linejoin:round; stroke-width:4; stroke-opacity:1; fill:none" points="249.542,919.982 258.991,919.982 "/>
<polyline clip-path="url(#clip520)" style="stroke:#000000; stroke-linecap:round; stroke-linejoin:round; stroke-width:4; stroke-opacity:1; fill:none" points="249.542,810.89 258.991,810.89 "/>
<polyline clip-path="url(#clip520)" style="stroke:#000000; stroke-linecap:round; stroke-linejoin:round; stroke-width:4; stroke-opacity:1; fill:none" points="249.542,756.343 258.991,756.343 "/>
<polyline clip-path="url(#clip520)" style="stroke:#000000; stroke-linecap:round; stroke-linejoin:round; stroke-width:4; stroke-opacity:1; fill:none" points="249.542,701.797 258.991,701.797 "/>
<polyline clip-path="url(#clip520)" style="stroke:#000000; stroke-linecap:round; stroke-linejoin:round; stroke-width:4; stroke-opacity:1; fill:none" points="249.542,647.251 258.991,647.251 "/>
<polyline clip-path="url(#clip520)" style="stroke:#000000; stroke-linecap:round; stroke-linejoin:round; stroke-width:4; stroke-opacity:1; fill:none" points="249.542,538.159 258.991,538.159 "/>
<polyline clip-path="url(#clip520)" style="stroke:#000000; stroke-linecap:round; stroke-linejoin:round; stroke-width:4; stroke-opacity:1; fill:none" points="249.542,483.613 258.991,483.613 "/>
<polyline clip-path="url(#clip520)" style="stroke:#000000; stroke-linecap:round; stroke-linejoin:round; stroke-width:4; stroke-opacity:1; fill:none" points="249.542,429.067 258.991,429.067 "/>
<polyline clip-path="url(#clip520)" style="stroke:#000000; stroke-linecap:round; stroke-linejoin:round; stroke-width:4; stroke-opacity:1; fill:none" points="249.542,374.521 258.991,374.521 "/>
<polyline clip-path="url(#clip520)" style="stroke:#000000; stroke-linecap:round; stroke-linejoin:round; stroke-width:4; stroke-opacity:1; fill:none" points="249.542,265.429 258.991,265.429 "/>
<polyline clip-path="url(#clip520)" style="stroke:#000000; stroke-linecap:round; stroke-linejoin:round; stroke-width:4; stroke-opacity:1; fill:none" points="249.542,210.882 258.991,210.882 "/>
<polyline clip-path="url(#clip520)" style="stroke:#000000; stroke-linecap:round; stroke-linejoin:round; stroke-width:4; stroke-opacity:1; fill:none" points="249.542,156.336 258.991,156.336 "/>
<polyline clip-path="url(#clip520)" style="stroke:#000000; stroke-linecap:round; stroke-linejoin:round; stroke-width:4; stroke-opacity:1; fill:none" points="249.542,101.79 258.991,101.79 "/>
<path clip-path="url(#clip520)" d="M130.371 1409.54 Q133.728 1410.26 135.603 1412.53 Q137.501 1414.8 137.501 1418.13 Q137.501 1423.25 133.982 1426.05 Q130.464 1428.85 123.982 1428.85 Q121.806 1428.85 119.492 1428.41 Q117.2 1427.99 114.746 1427.13 L114.746 1422.62 Q116.691 1423.76 119.006 1424.33 Q121.32 1424.91 123.843 1424.91 Q128.242 1424.91 130.533 1423.18 Q132.848 1421.44 132.848 1418.13 Q132.848 1415.07 130.695 1413.36 Q128.566 1411.63 124.746 1411.63 L120.718 1411.63 L120.718 1407.78 L124.931 1407.78 Q128.38 1407.78 130.209 1406.42 Q132.038 1405.03 132.038 1402.44 Q132.038 1399.77 130.14 1398.36 Q128.265 1396.93 124.746 1396.93 Q122.825 1396.93 120.626 1397.34 Q118.427 1397.76 115.788 1398.64 L115.788 1394.47 Q118.45 1393.73 120.765 1393.36 Q123.103 1392.99 125.163 1392.99 Q130.487 1392.99 133.589 1395.42 Q136.691 1397.83 136.691 1401.95 Q136.691 1404.82 135.047 1406.81 Q133.404 1408.78 130.371 1409.54 Z" fill="#000000" fill-rule="nonzero" fill-opacity="1" /><path clip-path="url(#clip520)" d="M146.366 1422.3 L151.251 1422.3 L151.251 1428.18 L146.366 1428.18 L146.366 1422.3 Z" fill="#000000" fill-rule="nonzero" fill-opacity="1" /><path clip-path="url(#clip520)" d="M162.246 1424.24 L169.885 1424.24 L169.885 1397.88 L161.575 1399.54 L161.575 1395.28 L169.839 1393.62 L174.514 1393.62 L174.514 1424.24 L182.153 1424.24 L182.153 1428.18 L162.246 1428.18 L162.246 1424.24 Z" fill="#000000" fill-rule="nonzero" fill-opacity="1" /><path clip-path="url(#clip520)" d="M201.598 1396.7 Q197.987 1396.7 196.158 1400.26 Q194.352 1403.8 194.352 1410.93 Q194.352 1418.04 196.158 1421.6 Q197.987 1425.14 201.598 1425.14 Q205.232 1425.14 207.037 1421.6 Q208.866 1418.04 208.866 1410.93 Q208.866 1403.8 207.037 1400.26 Q205.232 1396.7 201.598 1396.7 M201.598 1392.99 Q207.408 1392.99 210.463 1397.6 Q213.542 1402.18 213.542 1410.93 Q213.542 1419.66 210.463 1424.26 Q207.408 1428.85 201.598 1428.85 Q195.787 1428.85 192.709 1424.26 Q189.653 1419.66 189.653 1410.93 Q189.653 1402.18 192.709 1397.6 Q195.787 1392.99 201.598 1392.99 Z" fill="#000000" fill-rule="nonzero" fill-opacity="1" /><path clip-path="url(#clip520)" d="M131.968 1136.81 Q135.325 1137.53 137.2 1139.8 Q139.098 1142.07 139.098 1145.4 Q139.098 1150.52 135.579 1153.32 Q132.061 1156.12 125.58 1156.12 Q123.404 1156.12 121.089 1155.68 Q118.797 1155.26 116.343 1154.4 L116.343 1149.89 Q118.288 1151.02 120.603 1151.6 Q122.918 1152.18 125.441 1152.18 Q129.839 1152.18 132.13 1150.45 Q134.445 1148.71 134.445 1145.4 Q134.445 1142.34 132.292 1140.63 Q130.163 1138.9 126.343 1138.9 L122.316 1138.9 L122.316 1135.05 L126.529 1135.05 Q129.978 1135.05 131.806 1133.69 Q133.635 1132.3 133.635 1129.71 Q133.635 1127.04 131.737 1125.63 Q129.862 1124.2 126.343 1124.2 Q124.422 1124.2 122.223 1124.61 Q120.024 1125.03 117.385 1125.91 L117.385 1121.74 Q120.047 1121 122.362 1120.63 Q124.7 1120.26 126.76 1120.26 Q132.084 1120.26 135.186 1122.69 Q138.288 1125.1 138.288 1129.22 Q138.288 1132.09 136.644 1134.08 Q135.001 1136.05 131.968 1136.81 Z" fill="#000000" fill-rule="nonzero" fill-opacity="1" /><path clip-path="url(#clip520)" d="M147.964 1149.57 L152.848 1149.57 L152.848 1155.45 L147.964 1155.45 L147.964 1149.57 Z" fill="#000000" fill-rule="nonzero" fill-opacity="1" /><path clip-path="url(#clip520)" d="M163.843 1151.51 L171.482 1151.51 L171.482 1125.15 L163.172 1126.81 L163.172 1122.55 L171.436 1120.89 L176.112 1120.89 L176.112 1151.51 L183.751 1151.51 L183.751 1155.45 L163.843 1155.45 L163.843 1151.51 Z" fill="#000000" fill-rule="nonzero" fill-opacity="1" /><path clip-path="url(#clip520)" d="M197.223 1151.51 L213.542 1151.51 L213.542 1155.45 L191.598 1155.45 L191.598 1151.51 Q194.26 1148.76 198.843 1144.13 Q203.449 1139.47 204.63 1138.13 Q206.875 1135.61 207.755 1133.87 Q208.658 1132.11 208.658 1130.42 Q208.658 1127.67 206.713 1125.93 Q204.792 1124.2 201.69 1124.2 Q199.491 1124.2 197.037 1124.96 Q194.607 1125.72 191.829 1127.27 L191.829 1122.55 Q194.653 1121.42 197.107 1120.84 Q199.561 1120.26 201.598 1120.26 Q206.968 1120.26 210.162 1122.95 Q213.357 1125.63 213.357 1130.12 Q213.357 1132.25 212.547 1134.17 Q211.76 1136.07 209.653 1138.66 Q209.074 1139.34 205.973 1142.55 Q202.871 1145.75 197.223 1151.51 Z" fill="#000000" fill-rule="nonzero" fill-opacity="1" /><path clip-path="url(#clip520)" d="M129.885 864.081 Q133.242 864.799 135.117 867.068 Q137.015 869.336 137.015 872.669 Q137.015 877.785 133.496 880.586 Q129.978 883.387 123.496 883.387 Q121.32 883.387 119.006 882.947 Q116.714 882.53 114.26 881.674 L114.26 877.16 Q116.205 878.294 118.519 878.873 Q120.834 879.452 123.357 879.452 Q127.755 879.452 130.047 877.716 Q132.362 875.98 132.362 872.669 Q132.362 869.614 130.209 867.901 Q128.08 866.165 124.26 866.165 L120.232 866.165 L120.232 862.322 L124.445 862.322 Q127.894 862.322 129.723 860.956 Q131.552 859.568 131.552 856.975 Q131.552 854.313 129.654 852.901 Q127.779 851.466 124.26 851.466 Q122.339 851.466 120.14 851.882 Q117.941 852.299 115.302 853.179 L115.302 849.012 Q117.964 848.271 120.279 847.901 Q122.617 847.531 124.677 847.531 Q130.001 847.531 133.103 849.961 Q136.204 852.369 136.204 856.489 Q136.204 859.359 134.561 861.35 Q132.917 863.318 129.885 864.081 Z" fill="#000000" fill-rule="nonzero" fill-opacity="1" /><path clip-path="url(#clip520)" d="M145.88 876.836 L150.765 876.836 L150.765 882.716 L145.88 882.716 L145.88 876.836 Z" fill="#000000" fill-rule="nonzero" fill-opacity="1" /><path clip-path="url(#clip520)" d="M161.76 878.78 L169.399 878.78 L169.399 852.415 L161.089 854.082 L161.089 849.822 L169.352 848.156 L174.028 848.156 L174.028 878.78 L181.667 878.78 L181.667 882.716 L161.76 882.716 L161.76 878.78 Z" fill="#000000" fill-rule="nonzero" fill-opacity="1" /><path clip-path="url(#clip520)" d="M203.959 852.23 L192.153 870.679 L203.959 870.679 L203.959 852.23 M202.732 848.156 L208.612 848.156 L208.612 870.679 L213.542 870.679 L213.542 874.568 L208.612 874.568 L208.612 882.716 L203.959 882.716 L203.959 874.568 L188.357 874.568 L188.357 870.054 L202.732 848.156 Z" fill="#000000" fill-rule="nonzero" fill-opacity="1" /><path clip-path="url(#clip520)" d="M130.209 591.351 Q133.566 592.069 135.441 594.337 Q137.339 596.606 137.339 599.939 Q137.339 605.055 133.82 607.855 Q130.302 610.656 123.82 610.656 Q121.644 610.656 119.33 610.217 Q117.038 609.8 114.584 608.943 L114.584 604.43 Q116.529 605.564 118.843 606.143 Q121.158 606.721 123.681 606.721 Q128.08 606.721 130.371 604.985 Q132.686 603.249 132.686 599.939 Q132.686 596.883 130.533 595.17 Q128.404 593.434 124.584 593.434 L120.556 593.434 L120.556 589.592 L124.769 589.592 Q128.218 589.592 130.047 588.226 Q131.876 586.837 131.876 584.245 Q131.876 581.582 129.978 580.17 Q128.103 578.735 124.584 578.735 Q122.663 578.735 120.464 579.152 Q118.265 579.569 115.626 580.448 L115.626 576.282 Q118.288 575.541 120.603 575.17 Q122.941 574.8 125.001 574.8 Q130.325 574.8 133.427 577.231 Q136.529 579.638 136.529 583.758 Q136.529 586.629 134.885 588.619 Q133.242 590.587 130.209 591.351 Z" fill="#000000" fill-rule="nonzero" fill-opacity="1" /><path clip-path="url(#clip520)" d="M146.204 604.106 L151.089 604.106 L151.089 609.985 L146.204 609.985 L146.204 604.106 Z" fill="#000000" fill-rule="nonzero" fill-opacity="1" /><path clip-path="url(#clip520)" d="M162.084 606.05 L169.723 606.05 L169.723 579.684 L161.413 581.351 L161.413 577.092 L169.677 575.425 L174.352 575.425 L174.352 606.05 L181.991 606.05 L181.991 609.985 L162.084 609.985 L162.084 606.05 Z" fill="#000000" fill-rule="nonzero" fill-opacity="1" /><path clip-path="url(#clip520)" d="M202.014 590.842 Q198.866 590.842 197.014 592.994 Q195.186 595.147 195.186 598.897 Q195.186 602.624 197.014 604.8 Q198.866 606.953 202.014 606.953 Q205.162 606.953 206.991 604.8 Q208.843 602.624 208.843 598.897 Q208.843 595.147 206.991 592.994 Q205.162 590.842 202.014 590.842 M211.297 576.189 L211.297 580.448 Q209.537 579.615 207.732 579.175 Q205.949 578.735 204.19 578.735 Q199.561 578.735 197.107 581.86 Q194.676 584.985 194.329 591.305 Q195.695 589.291 197.755 588.226 Q199.815 587.138 202.292 587.138 Q207.5 587.138 210.51 590.309 Q213.542 593.457 213.542 598.897 Q213.542 604.221 210.394 607.439 Q207.246 610.656 202.014 610.656 Q196.019 610.656 192.848 606.073 Q189.676 601.467 189.676 592.74 Q189.676 584.545 193.565 579.684 Q197.454 574.8 204.005 574.8 Q205.764 574.8 207.547 575.147 Q209.352 575.495 211.297 576.189 Z" fill="#000000" fill-rule="nonzero" fill-opacity="1" /><path clip-path="url(#clip520)" d="M130.464 318.62 Q133.82 319.338 135.695 321.607 Q137.593 323.875 137.593 327.208 Q137.593 332.324 134.075 335.125 Q130.556 337.926 124.075 337.926 Q121.899 337.926 119.584 337.486 Q117.293 337.069 114.839 336.213 L114.839 331.699 Q116.783 332.833 119.098 333.412 Q121.413 333.991 123.936 333.991 Q128.334 333.991 130.626 332.255 Q132.941 330.519 132.941 327.208 Q132.941 324.153 130.788 322.44 Q128.658 320.704 124.839 320.704 L120.811 320.704 L120.811 316.861 L125.024 316.861 Q128.473 316.861 130.302 315.495 Q132.13 314.107 132.13 311.514 Q132.13 308.852 130.232 307.44 Q128.357 306.005 124.839 306.005 Q122.918 306.005 120.718 306.421 Q118.519 306.838 115.881 307.718 L115.881 303.551 Q118.543 302.81 120.857 302.44 Q123.195 302.07 125.255 302.07 Q130.58 302.07 133.681 304.5 Q136.783 306.908 136.783 311.028 Q136.783 313.898 135.14 315.889 Q133.496 317.857 130.464 318.62 Z" fill="#000000" fill-rule="nonzero" fill-opacity="1" /><path clip-path="url(#clip520)" d="M146.459 331.375 L151.343 331.375 L151.343 337.255 L146.459 337.255 L146.459 331.375 Z" fill="#000000" fill-rule="nonzero" fill-opacity="1" /><path clip-path="url(#clip520)" d="M162.339 333.319 L169.977 333.319 L169.977 306.954 L161.667 308.62 L161.667 304.361 L169.931 302.695 L174.607 302.695 L174.607 333.319 L182.246 333.319 L182.246 337.255 L162.339 337.255 L162.339 333.319 Z" fill="#000000" fill-rule="nonzero" fill-opacity="1" /><path clip-path="url(#clip520)" d="M201.69 320.843 Q198.357 320.843 196.436 322.625 Q194.538 324.407 194.538 327.532 Q194.538 330.657 196.436 332.44 Q198.357 334.222 201.69 334.222 Q205.024 334.222 206.945 332.44 Q208.866 330.634 208.866 327.532 Q208.866 324.407 206.945 322.625 Q205.047 320.843 201.69 320.843 M197.014 318.852 Q194.005 318.111 192.315 316.051 Q190.649 313.991 190.649 311.028 Q190.649 306.884 193.588 304.477 Q196.551 302.07 201.69 302.07 Q206.852 302.07 209.792 304.477 Q212.732 306.884 212.732 311.028 Q212.732 313.991 211.042 316.051 Q209.375 318.111 206.389 318.852 Q209.769 319.639 211.644 321.931 Q213.542 324.222 213.542 327.532 Q213.542 332.556 210.463 335.241 Q207.408 337.926 201.69 337.926 Q195.973 337.926 192.894 335.241 Q189.838 332.556 189.838 327.532 Q189.838 324.222 191.737 321.931 Q193.635 319.639 197.014 318.852 M195.301 311.468 Q195.301 314.153 196.968 315.657 Q198.658 317.162 201.69 317.162 Q204.699 317.162 206.389 315.657 Q208.102 314.153 208.102 311.468 Q208.102 308.783 206.389 307.278 Q204.699 305.773 201.69 305.773 Q198.658 305.773 196.968 307.278 Q195.301 308.783 195.301 311.468 Z" fill="#000000" fill-rule="nonzero" fill-opacity="1" /><path clip-path="url(#clip520)" d="M65.4824 905.041 Q66.0943 905.041 66.4164 905.299 Q66.7062 905.524 66.7706 905.75 Q66.8028 905.943 66.8028 906.233 Q66.8028 907.07 66.7062 909.969 Q66.6096 912.867 66.6096 913.705 Q66.6096 915.057 66.7062 917.827 Q66.8028 920.597 66.8028 921.949 Q66.8028 922.851 66.0621 922.851 Q65.579 922.851 65.3214 922.755 Q65.0315 922.658 64.9349 922.4 Q64.8061 922.11 64.8061 921.949 Q64.7739 921.756 64.7739 921.273 Q64.7739 920.629 64.7095 919.953 Q64.6128 919.276 64.4196 918.439 Q64.2264 917.602 63.7433 917.086 Q63.2602 916.539 62.5839 916.539 Q62.294 916.539 59.9108 916.764 Q57.5276 916.99 54.7579 917.28 Q51.9559 917.569 51.5695 917.602 L51.5695 934.155 Q54.1781 935.669 55.9817 936.732 Q57.7852 937.795 58.3971 938.181 Q59.009 938.568 59.3955 938.793 Q59.782 939.019 60.0074 939.147 Q61.7143 940.081 62.4551 940.081 Q64.5162 940.081 64.7739 936.99 Q64.7739 935.927 65.5468 935.927 Q66.1265 935.927 66.4486 936.184 Q66.7384 936.442 66.7706 936.668 Q66.8028 936.861 66.8028 937.183 Q66.8028 938.246 66.7062 940.468 Q66.6096 942.69 66.6096 943.785 Q66.6096 944.719 66.7062 946.651 Q66.8028 948.584 66.8028 949.453 Q66.8028 949.84 66.5774 950.065 Q66.352 950.291 66.0621 950.291 Q65.6112 950.291 65.3536 950.226 Q65.0959 950.13 64.9671 949.872 Q64.8383 949.614 64.8383 949.485 Q64.8061 949.357 64.7739 948.906 Q64.6128 946.458 63.4534 944.558 Q62.2618 942.626 59.2023 940.79 L20.6841 917.859 Q20.2976 917.634 20.1043 917.473 Q19.9111 917.312 19.7501 916.99 Q19.5891 916.635 19.5891 916.12 Q19.5891 915.315 19.8467 915.154 Q20.0721 914.993 21.1671 914.896 L62.3906 910.871 Q63.2602 910.774 63.6145 910.71 Q63.9365 910.613 64.2908 910.194 Q64.6128 909.743 64.7095 908.938 Q64.7739 908.101 64.7739 906.555 Q64.7739 905.975 64.8061 905.75 Q64.8061 905.524 64.9671 905.299 Q65.1281 905.041 65.4824 905.041 M49.5083 917.795 L27.7693 919.888 L49.5083 932.899 L49.5083 917.795 Z" fill="#000000" fill-rule="nonzero" fill-opacity="1" /><path clip-path="url(#clip520)" d="M48.1879 871.586 Q52.8899 871.586 57.4309 873.969 Q61.972 876.32 64.7739 880.024 Q67.5436 883.728 67.5436 887.496 Q67.5436 889.75 66.3198 891.264 Q65.0637 892.745 63.2924 893.551 Q65.4824 894.163 70.732 895.483 Q75.9815 896.803 76.4968 896.803 Q76.7867 896.803 76.9155 896.739 Q77.0443 896.675 77.2053 896.385 Q77.3986 896.095 77.463 895.386 Q77.5596 894.678 77.5596 893.486 Q77.5596 892.874 77.5596 892.649 Q77.5918 892.391 77.7528 892.166 Q77.9139 891.908 78.2681 891.908 Q79.5886 891.908 79.5886 893.1 Q79.5886 894.163 79.492 896.353 Q79.3953 898.543 79.3953 899.638 Q79.3953 900.571 79.492 902.439 Q79.5886 904.307 79.5886 905.177 Q79.5886 906.046 78.8156 906.046 Q78.3647 906.046 78.0749 905.918 Q77.8172 905.821 77.6884 905.563 Q77.5918 905.306 77.5596 905.08 Q77.5596 904.887 77.5596 904.501 Q77.5596 903.019 77.302 902.375 Q77.0765 901.731 76.5934 901.505 Q76.1425 901.248 74.8543 900.958 L45.4826 893.551 Q43.518 893.1 42.1332 893.1 Q40.394 893.1 39.7499 893.647 Q39.1058 894.195 39.1058 895.161 Q39.1058 896.836 41.1026 897.931 Q43.0993 899.026 46.964 899.96 Q48.0268 900.249 48.2523 900.443 Q48.4777 900.604 48.4777 901.087 Q48.4455 901.892 47.8014 901.892 Q47.6404 901.892 46.6098 901.634 Q45.547 901.377 44.0011 900.894 Q42.423 900.378 41.4246 899.831 Q40.7483 899.509 40.2974 899.219 Q39.8465 898.929 39.138 898.349 Q38.4295 897.737 38.043 896.868 Q37.6565 895.998 37.6565 894.935 Q37.6565 892.874 38.8804 891.167 Q40.1042 889.46 42.584 889.01 Q40.4262 887.174 39.0414 884.919 Q37.6565 882.665 37.6565 880.378 Q37.6565 876.578 40.6195 874.098 Q43.5502 871.586 48.1879 871.586 M45.2893 876.353 Q42.3586 876.353 40.7483 877.48 Q39.1058 878.575 39.1058 880.572 Q39.1058 883.052 41.6179 885.918 Q44.0011 888.752 46.2233 889.332 L59.1378 892.584 L60.2006 892.778 Q60.3939 892.778 60.9736 892.681 Q61.5211 892.552 62.4228 892.198 Q63.3246 891.811 64.1298 891.296 Q64.9027 890.749 65.4824 889.783 Q66.0621 888.784 66.0621 887.56 Q66.0621 885.596 64.323 883.47 Q62.5839 881.312 59.2989 879.702 Q57.1733 878.704 52.6001 877.544 Q47.9946 876.353 45.2893 876.353 Z" fill="#000000" fill-rule="nonzero" fill-opacity="1" /><path clip-path="url(#clip520)" d="M48.1879 838.467 Q52.8899 838.467 57.4309 840.85 Q61.972 843.201 64.7739 846.905 Q67.5436 850.608 67.5436 854.376 Q67.5436 856.631 66.3198 858.145 Q65.0637 859.626 63.2924 860.431 Q65.4824 861.043 70.732 862.364 Q75.9815 863.684 76.4968 863.684 Q76.7867 863.684 76.9155 863.62 Q77.0443 863.555 77.2053 863.265 Q77.3986 862.975 77.463 862.267 Q77.5596 861.558 77.5596 860.367 Q77.5596 859.755 77.5596 859.529 Q77.5918 859.272 77.7528 859.046 Q77.9139 858.789 78.2681 858.789 Q79.5886 858.789 79.5886 859.98 Q79.5886 861.043 79.492 863.233 Q79.3953 865.423 79.3953 866.518 Q79.3953 867.452 79.492 869.32 Q79.5886 871.188 79.5886 872.057 Q79.5886 872.927 78.8156 872.927 Q78.3647 872.927 78.0749 872.798 Q77.8172 872.702 77.6884 872.444 Q77.5918 872.186 77.5596 871.961 Q77.5596 871.768 77.5596 871.381 Q77.5596 869.9 77.302 869.256 Q77.0765 868.611 76.5934 868.386 Q76.1425 868.128 74.8543 867.839 L45.4826 860.431 Q43.518 859.98 42.1332 859.98 Q40.394 859.98 39.7499 860.528 Q39.1058 861.075 39.1058 862.041 Q39.1058 863.716 41.1026 864.811 Q43.0993 865.906 46.964 866.84 Q48.0268 867.13 48.2523 867.323 Q48.4777 867.484 48.4777 867.967 Q48.4455 868.772 47.8014 868.772 Q47.6404 868.772 46.6098 868.515 Q45.547 868.257 44.0011 867.774 Q42.423 867.259 41.4246 866.711 Q40.7483 866.389 40.2974 866.099 Q39.8465 865.81 39.138 865.23 Q38.4295 864.618 38.043 863.748 Q37.6565 862.879 37.6565 861.816 Q37.6565 859.755 38.8804 858.048 Q40.1042 856.341 42.584 855.89 Q40.4262 854.054 39.0414 851.8 Q37.6565 849.546 37.6565 847.259 Q37.6565 843.459 40.6195 840.979 Q43.5502 838.467 48.1879 838.467 M45.2893 843.233 Q42.3586 843.233 40.7483 844.36 Q39.1058 845.455 39.1058 847.452 Q39.1058 849.932 41.6179 852.798 Q44.0011 855.632 46.2233 856.212 L59.1378 859.465 L60.2006 859.658 Q60.3939 859.658 60.9736 859.562 Q61.5211 859.433 62.4228 859.079 Q63.3246 858.692 64.1298 858.177 Q64.9027 857.629 65.4824 856.663 Q66.0621 855.665 66.0621 854.441 Q66.0621 852.476 64.323 850.351 Q62.5839 848.193 59.2989 846.583 Q57.1733 845.584 52.6001 844.425 Q47.9946 843.233 45.2893 843.233 Z" fill="#000000" fill-rule="nonzero" fill-opacity="1" /><path clip-path="url(#clip520)" d="M41.9399 809.252 Q43.6468 809.252 44.7418 810.379 Q45.8368 811.474 45.8368 812.891 Q45.8368 814.115 45.1283 814.759 Q44.4198 815.403 43.518 815.403 Q42.2298 815.403 41.167 814.405 Q40.1042 813.406 39.8787 811.957 Q39.1058 813.02 39.1058 814.727 Q39.1058 817.529 41.2636 820.009 Q42.262 821.104 44.0977 822.295 Q45.9012 823.487 46.6742 823.712 L55.2731 825.806 Q56.2393 825.999 60.877 827.191 Q65.4824 828.35 65.6756 828.447 Q66.5774 828.769 67.0605 829.477 Q67.5436 830.186 67.5436 830.894 Q67.5436 831.699 67.0605 832.247 Q66.5774 832.794 65.7401 832.794 Q65.6112 832.794 65.1281 832.698 Q64.6451 832.601 63.9687 832.44 Q63.2924 832.279 62.9059 832.215 L47.6726 828.382 Q44.9029 827.674 44.0333 827.513 Q43.1315 827.319 42.1332 827.319 Q40.394 827.319 39.7499 827.867 Q39.1058 828.414 39.1058 829.381 Q39.1058 831.055 41.1026 832.15 Q43.0993 833.245 46.964 834.179 Q48.0268 834.469 48.2523 834.662 Q48.4777 834.823 48.4777 835.306 Q48.4455 836.112 47.8014 836.112 Q47.6404 836.112 46.6098 835.854 Q45.547 835.596 44.0011 835.113 Q42.423 834.598 41.4246 834.05 Q40.7483 833.728 40.2974 833.438 Q39.8465 833.149 39.138 832.569 Q38.4295 831.989 38.043 831.12 Q37.6565 830.25 37.6565 829.187 Q37.6565 826.869 39.0736 825.226 Q40.4907 823.551 42.7129 823.165 Q41.5534 822.36 40.5551 821.361 Q39.5245 820.363 38.5905 818.527 Q37.6565 816.691 37.6565 814.727 Q37.6565 812.279 38.9126 810.766 Q40.1364 809.252 41.9399 809.252 Z" fill="#000000" fill-rule="nonzero" fill-opacity="1" /><path clip-path="url(#clip520)" d="M48.7998 776.118 Q52.3102 776.118 55.7884 777.664 Q59.2345 779.209 61.8109 781.689 Q64.3552 784.137 65.9655 787.358 Q67.5436 790.578 67.5436 793.799 Q67.5436 798.404 64.4196 801.399 Q61.2634 804.362 56.3681 804.362 Q51.7949 804.362 47.4471 801.818 Q43.0671 799.242 40.3618 795.119 Q37.6565 790.997 37.6565 786.681 Q37.6565 782.14 40.7161 779.145 Q43.7757 776.118 48.7998 776.118 M46.2233 780.949 Q43.0993 780.949 41.1026 782.462 Q39.1058 783.976 39.1058 786.746 Q39.1058 787.551 39.3635 788.485 Q39.5889 789.419 40.2008 790.643 Q40.8127 791.834 42.1009 793.187 Q43.357 794.507 45.1605 795.667 Q47.5437 797.18 51.9237 798.34 Q56.2715 799.467 58.8802 799.467 Q62.4873 799.467 64.2908 797.792 Q66.0621 796.118 66.0621 793.734 Q66.0621 791.416 64.4518 788.968 Q62.8093 786.488 60.0074 784.781 Q57.1089 783.074 52.8577 782.011 Q48.5743 780.949 46.2233 780.949 Z" fill="#000000" fill-rule="nonzero" fill-opacity="1" /><path clip-path="url(#clip520)" d="M42.0043 742.657 Q43.8079 742.657 44.8384 743.784 Q45.8368 744.912 45.8368 746.2 Q45.8368 747.424 45.1283 748.068 Q44.4198 748.712 43.518 748.712 Q42.2942 748.712 41.2314 747.81 Q40.1686 746.908 39.9432 745.556 Q39.1058 746.876 39.1058 748.841 Q39.1058 750.129 39.7821 751.256 Q40.4585 752.351 41.328 753.027 Q42.1976 753.672 43.4536 754.251 Q44.6774 754.799 45.4182 755.024 Q46.1267 755.217 46.8996 755.378 L55.9173 757.633 Q60.2006 758.728 61.7143 758.728 Q63.5823 758.728 64.8383 757.826 Q66.0621 756.924 66.0621 755.121 Q66.0621 754.412 65.8689 753.607 Q65.6434 752.802 65.0637 751.771 Q64.4518 750.709 63.5501 749.775 Q62.6161 748.808 61.038 747.874 Q59.4599 746.94 57.4309 746.329 Q56.7224 746.135 56.7224 745.491 Q56.7224 744.686 57.3665 744.686 Q57.914 744.686 59.0734 745.137 Q60.2006 745.556 61.6821 746.49 Q63.1314 747.391 64.4518 748.583 Q65.7401 749.775 66.6418 751.546 Q67.5436 753.317 67.5436 755.25 Q67.5436 758.019 66.0621 759.855 Q64.5806 761.691 62.5195 762.367 Q62.8093 762.528 63.1958 762.754 Q63.5823 762.979 64.4518 763.655 Q65.2892 764.299 65.9333 765.04 Q66.5452 765.781 67.0283 766.94 Q67.5436 768.068 67.5436 769.291 Q67.5436 770.837 67.0927 772.222 Q66.6418 773.575 65.6112 774.541 Q64.5806 775.507 63.1636 775.507 Q61.5855 775.507 60.4905 774.444 Q59.3633 773.349 59.3633 771.868 Q59.3633 770.934 59.9108 770.193 Q60.4583 769.42 61.6499 769.42 Q62.9703 769.42 63.9687 770.322 Q64.9671 771.224 65.2248 772.512 Q66.0621 771.191 66.0621 769.227 Q66.0621 767.101 64.1942 765.427 Q62.3262 763.752 59.2023 762.947 Q51.6983 760.95 48.3489 760.177 Q44.9673 759.404 43.518 759.404 Q42.1654 759.404 41.2314 759.758 Q40.2974 760.113 39.8787 760.725 Q39.4279 761.304 39.2668 761.852 Q39.1058 762.367 39.1058 762.947 Q39.1058 763.913 39.4923 765.008 Q39.8787 766.071 40.7805 767.359 Q41.6501 768.615 43.4536 769.807 Q45.2571 770.998 47.737 771.803 Q48.4777 771.964 48.4777 772.673 Q48.4455 773.446 47.8014 773.446 Q47.2539 773.446 46.1267 773.027 Q44.9673 772.576 43.518 771.675 Q42.0687 770.741 40.7805 769.549 Q39.4601 768.325 38.5583 766.554 Q37.6565 764.75 37.6565 762.818 Q37.6565 761.948 37.8498 761.111 Q38.0108 760.241 38.4939 759.211 Q38.977 758.148 40.0398 757.214 Q41.1026 756.28 42.6484 755.7 Q41.9077 755.314 41.1992 754.799 Q40.4907 754.251 39.6211 753.414 Q38.7193 752.544 38.204 751.353 Q37.6565 750.129 37.6565 748.776 Q37.6565 747.456 38.0108 746.168 Q38.3329 744.879 39.3957 743.784 Q40.4262 742.657 42.0043 742.657 Z" fill="#000000" fill-rule="nonzero" fill-opacity="1" /><path clip-path="url(#clip520)" d="M25.5793 722.102 Q26.9964 722.102 28.0592 723.262 Q29.0898 724.389 29.0898 725.613 Q29.0898 726.74 28.4135 727.448 Q27.7049 728.125 26.7065 728.125 Q25.3861 728.125 24.2911 726.998 Q23.1961 725.87 23.1961 724.55 Q23.1961 723.455 23.8724 722.779 Q24.5488 722.102 25.5793 722.102 M57.3665 721.523 Q57.6242 721.523 58.6548 721.812 Q59.6531 722.102 61.199 722.811 Q62.7127 723.487 64.1298 724.421 Q65.5468 725.355 66.5452 726.901 Q67.5436 728.415 67.5436 730.154 Q67.5436 732.505 65.9977 734.051 Q64.4518 735.564 62.133 735.564 Q60.877 735.564 56.8512 734.051 Q45.1283 729.671 44.6452 729.51 Q42.8095 728.769 41.1992 728.769 Q40.4585 728.769 40.0076 728.93 Q39.5245 729.091 39.3635 729.413 Q39.1702 729.735 39.138 729.928 Q39.1058 730.089 39.1058 730.411 Q39.1058 732.312 41.0382 734.083 Q42.9705 735.854 47.2861 737.078 Q48.0912 737.336 48.2845 737.497 Q48.4777 737.658 48.4777 738.141 Q48.4455 738.946 47.8014 738.946 Q47.6082 738.946 46.8674 738.72 Q46.0945 738.495 44.9351 738.076 Q43.7434 737.658 42.5196 736.917 Q41.2636 736.176 40.1686 735.274 Q39.0736 734.341 38.3651 733.02 Q37.6565 731.7 37.6565 730.218 Q37.6565 727.803 39.2346 726.321 Q40.7805 724.808 43.0671 724.808 Q44.3232 724.808 46.5454 725.677 Q49.4439 726.74 50.3779 727.126 L57.3021 729.703 Q59.8142 730.637 60.5871 730.927 Q61.3278 731.184 62.2296 731.41 Q63.0992 731.603 63.9043 731.603 Q65.0315 731.603 65.5468 731.249 Q66.0621 730.862 66.0621 730.025 Q66.0621 727.706 63.7755 725.999 Q61.4567 724.292 57.914 723.294 Q57.8174 723.262 57.6564 723.229 Q56.8512 722.972 56.7546 722.714 Q56.7224 722.585 56.7224 722.328 Q56.7224 721.523 57.3665 721.523 Z" fill="#000000" fill-rule="nonzero" fill-opacity="1" /><path clip-path="url(#clip520)" d="M57.3665 661.856 Q57.6242 661.856 58.6226 662.146 Q59.6209 662.436 61.1668 663.144 Q62.7127 663.821 64.1298 664.787 Q65.5146 665.721 66.5452 667.267 Q67.5436 668.78 67.5436 670.52 Q67.5436 672.838 65.9977 674.384 Q64.4518 675.93 62.133 675.93 Q60.877 675.93 58.4937 675.061 Q47.6082 670.97 43.7112 670.97 Q39.1058 670.97 39.1058 674.545 Q39.1058 676.574 39.9432 678.41 Q40.7805 680.246 41.9399 681.437 Q43.0993 682.629 44.4198 683.563 Q45.7402 684.497 46.6098 684.916 Q47.4793 685.302 47.8658 685.399 L63.7755 689.36 Q65.1281 689.682 65.7723 689.907 Q66.4164 690.133 66.9639 690.745 Q67.5436 691.357 67.5436 692.323 Q67.5436 693.128 67.0605 693.708 Q66.5774 694.255 65.7401 694.255 Q65.6112 694.255 64.9349 694.094 Q64.2586 693.933 63.3246 693.708 Q62.3906 693.482 61.8431 693.386 Q57.4631 692.226 56.8512 692.065 L49.1862 690.23 Q45.3859 689.231 43.7112 689.231 Q39.1058 689.231 39.1058 692.806 Q39.1058 694.577 39.7821 696.252 Q40.4262 697.895 41.328 699.022 Q42.2298 700.149 43.4858 701.18 Q44.7096 702.178 45.547 702.693 Q46.3521 703.176 47.1573 703.563 L50.4423 704.4 Q51.344 704.593 54.8545 705.527 L60.8126 706.977 Q65.257 708.007 65.6756 708.233 Q66.5774 708.555 67.0605 709.263 Q67.5436 709.972 67.5436 710.68 Q67.5436 711.485 67.0605 712.033 Q66.5774 712.58 65.7401 712.58 Q65.6112 712.58 65.1281 712.484 Q64.6451 712.387 63.9687 712.226 Q63.2924 712.065 62.9059 712.001 L47.6726 708.168 Q44.9029 707.46 44.0333 707.299 Q43.1315 707.105 42.1332 707.105 Q39.1058 707.105 39.1058 709.167 Q39.1058 710.841 41.1026 711.936 Q43.0993 713.031 46.964 713.965 Q48.0268 714.255 48.2523 714.448 Q48.4777 714.609 48.4777 715.092 Q48.4455 715.898 47.8014 715.898 Q47.6404 715.898 46.6098 715.64 Q45.5792 715.382 44.0333 714.899 Q42.4552 714.384 41.4246 713.836 Q40.7483 713.514 40.2974 713.225 Q39.8465 712.935 39.138 712.355 Q38.4295 711.775 38.043 710.906 Q37.6565 710.036 37.6565 708.973 Q37.6565 706.622 39.1702 704.883 Q40.6839 703.112 43.3892 702.886 Q37.6565 698.603 37.6565 692.613 Q37.6565 689.231 39.3635 687.202 Q41.006 685.302 44.0333 685.077 Q37.6565 680.632 37.6565 674.32 Q37.6565 670.681 39.5567 668.716 Q41.4246 666.751 44.7096 666.751 Q46.4165 666.751 49.6693 667.621 Q52.8899 668.491 54.5002 669.07 Q56.1105 669.65 59.2023 670.777 Q62.1652 671.969 63.9043 671.969 Q65.0315 671.969 65.5468 671.582 Q66.0621 671.196 66.0621 670.359 Q66.0621 669.07 65.3214 667.943 Q64.5484 666.816 63.2924 666.011 Q62.0042 665.173 60.7159 664.626 Q59.3955 664.078 57.914 663.66 Q57.1089 663.402 56.9156 663.273 Q56.7224 663.112 56.7224 662.661 Q56.7224 661.856 57.3665 661.856 Z" fill="#000000" fill-rule="nonzero" fill-opacity="1" /><path clip-path="url(#clip520)" d="M57.3665 627.543 Q61.5211 628.413 63.9043 629.54 Q67.5436 631.343 67.5436 634.403 Q67.5436 636.722 66.1265 638.364 Q64.7095 640.007 62.5839 640.393 Q67.5436 644.612 67.5436 648.992 Q67.5436 652.857 64.6128 655.304 Q61.6499 657.752 56.9801 657.752 Q52.278 657.752 47.7692 655.433 Q43.2604 653.082 40.4585 649.379 Q37.6565 645.675 37.6565 641.875 Q37.6565 637.849 41.8755 635.788 Q40.7161 635.627 39.8465 634.886 Q38.977 634.145 38.977 633.018 Q38.977 632.148 39.4601 631.633 Q39.911 631.118 40.7483 631.118 Q41.167 631.118 43.0027 631.569 L52.2136 633.952 L58.1717 635.401 Q60.3617 635.949 61.1668 636.11 Q61.972 636.239 63.0348 636.239 Q66.0621 636.239 66.0621 634.274 Q66.0621 633.308 65.4502 632.535 Q64.8383 631.762 63.5501 631.15 Q62.2618 630.538 61.0702 630.152 Q59.8464 629.765 57.914 629.25 Q57.1411 629.089 56.9479 628.96 Q56.7224 628.799 56.7224 628.348 Q56.7224 627.543 57.3665 627.543 M44.9029 636.593 Q44.613 636.593 43.8079 636.818 Q43.0027 637.044 41.8755 637.559 Q40.7483 638.074 39.9432 639.202 Q39.1058 640.297 39.1058 641.778 Q39.1058 643.775 40.8127 645.868 Q42.5196 647.929 45.4182 649.443 Q47.737 650.602 52.6001 651.858 Q57.4631 653.082 59.8786 653.082 Q61.3601 653.082 62.6805 652.76 Q63.9687 652.406 65.0315 651.408 Q66.0621 650.409 66.0621 648.863 Q66.0621 645.095 61.3923 641.392 Q60.5871 640.683 60.2651 640.522 Q59.9108 640.329 58.9446 640.071 L46.0301 636.786 Q45.0639 636.593 44.9029 636.593 Z" fill="#000000" fill-rule="nonzero" fill-opacity="1" /><path clip-path="url(#clip520)" d="M39.1058 604.269 Q40.0076 604.269 40.233 604.687 Q40.4262 605.106 40.4262 606.265 L40.4262 612.449 L59.8786 617.344 Q61.5855 617.731 63.0348 617.731 Q64.6451 617.731 65.3536 617.248 Q66.0621 616.732 66.0621 615.669 Q66.0621 613.576 64.162 611.322 Q62.2618 609.035 57.6242 607.103 Q57.0123 606.845 56.8834 606.716 Q56.7224 606.555 56.7224 606.136 Q56.7224 605.331 57.3665 605.331 Q57.592 605.331 58.6226 605.782 Q59.6531 606.201 61.1668 607.135 Q62.6805 608.037 64.0976 609.228 Q65.5146 610.388 66.5452 612.159 Q67.5436 613.93 67.5436 615.83 Q67.5436 618.504 65.8367 620.21 Q64.1298 621.885 61.4567 621.885 Q60.5871 621.885 57.8174 621.209 Q55.0155 620.533 40.4262 616.861 L40.4262 622.69 Q40.4262 623.495 40.394 623.818 Q40.3618 624.107 40.2008 624.333 Q40.0076 624.526 39.6211 624.526 Q39.0092 624.526 38.7515 624.268 Q38.4617 624.011 38.4295 623.689 Q38.3651 623.334 38.3651 622.529 L38.3651 616.346 L27.8982 613.769 Q26.8676 613.512 26.2879 612.868 Q25.676 612.191 25.6115 611.805 Q25.5149 611.418 25.5149 611.128 Q25.5149 610.259 25.998 609.744 Q26.4489 609.228 27.2863 609.228 Q27.7371 609.228 38.3651 611.934 L38.3651 606.136 Q38.3651 605.396 38.3973 605.106 Q38.4295 604.784 38.5905 604.526 Q38.7515 604.269 39.1058 604.269 Z" fill="#000000" fill-rule="nonzero" fill-opacity="1" /><path clip-path="url(#clip520)" d="M25.5793 584.901 Q26.9964 584.901 28.0592 586.061 Q29.0898 587.188 29.0898 588.412 Q29.0898 589.539 28.4135 590.248 Q27.7049 590.924 26.7065 590.924 Q25.3861 590.924 24.2911 589.797 Q23.1961 588.669 23.1961 587.349 Q23.1961 586.254 23.8724 585.578 Q24.5488 584.901 25.5793 584.901 M57.3665 584.322 Q57.6242 584.322 58.6548 584.612 Q59.6531 584.901 61.199 585.61 Q62.7127 586.286 64.1298 587.22 Q65.5468 588.154 66.5452 589.7 Q67.5436 591.214 67.5436 592.953 Q67.5436 595.304 65.9977 596.85 Q64.4518 598.363 62.133 598.363 Q60.877 598.363 56.8512 596.85 Q45.1283 592.47 44.6452 592.309 Q42.8095 591.568 41.1992 591.568 Q40.4585 591.568 40.0076 591.729 Q39.5245 591.89 39.3635 592.212 Q39.1702 592.534 39.138 592.727 Q39.1058 592.888 39.1058 593.21 Q39.1058 595.111 41.0382 596.882 Q42.9705 598.653 47.2861 599.877 Q48.0912 600.135 48.2845 600.296 Q48.4777 600.457 48.4777 600.94 Q48.4455 601.745 47.8014 601.745 Q47.6082 601.745 46.8674 601.52 Q46.0945 601.294 44.9351 600.875 Q43.7434 600.457 42.5196 599.716 Q41.2636 598.975 40.1686 598.074 Q39.0736 597.14 38.3651 595.819 Q37.6565 594.499 37.6565 593.017 Q37.6565 590.602 39.2346 589.12 Q40.7805 587.607 43.0671 587.607 Q44.3232 587.607 46.5454 588.476 Q49.4439 589.539 50.3779 589.926 L57.3021 592.502 Q59.8142 593.436 60.5871 593.726 Q61.3278 593.983 62.2296 594.209 Q63.0992 594.402 63.9043 594.402 Q65.0315 594.402 65.5468 594.048 Q66.0621 593.661 66.0621 592.824 Q66.0621 590.505 63.7755 588.798 Q61.4567 587.091 57.914 586.093 Q57.8174 586.061 57.6564 586.029 Q56.8512 585.771 56.7546 585.513 Q56.7224 585.384 56.7224 585.127 Q56.7224 584.322 57.3665 584.322 Z" fill="#000000" fill-rule="nonzero" fill-opacity="1" /><path clip-path="url(#clip520)" d="M48.7998 549.132 Q52.3102 549.132 55.7884 550.678 Q59.2345 552.224 61.8109 554.704 Q64.3552 557.151 65.9655 560.372 Q67.5436 563.593 67.5436 566.813 Q67.5436 571.419 64.4196 574.414 Q61.2634 577.377 56.3681 577.377 Q51.7949 577.377 47.4471 574.832 Q43.0671 572.256 40.3618 568.134 Q37.6565 564.011 37.6565 559.696 Q37.6565 555.155 40.7161 552.16 Q43.7757 549.132 48.7998 549.132 M46.2233 553.963 Q43.0993 553.963 41.1026 555.477 Q39.1058 556.99 39.1058 559.76 Q39.1058 560.565 39.3635 561.499 Q39.5889 562.433 40.2008 563.657 Q40.8127 564.849 42.1009 566.201 Q43.357 567.522 45.1605 568.681 Q47.5437 570.195 51.9237 571.354 Q56.2715 572.481 58.8802 572.481 Q62.4873 572.481 64.2908 570.807 Q66.0621 569.132 66.0621 566.749 Q66.0621 564.43 64.4518 561.982 Q62.8093 559.502 60.0074 557.796 Q57.1089 556.089 52.8577 555.026 Q48.5743 553.963 46.2233 553.963 Z" fill="#000000" fill-rule="nonzero" fill-opacity="1" /><path clip-path="url(#clip520)" d="M57.3665 511.273 Q57.6242 511.273 58.6226 511.563 Q59.6209 511.853 61.1668 512.561 Q62.7127 513.238 64.1298 514.172 Q65.5146 515.106 66.5452 516.651 Q67.5436 518.165 67.5436 519.904 Q67.5436 522.223 65.9977 523.769 Q64.4518 525.315 62.133 525.315 Q60.8448 525.315 59.0734 524.638 Q47.6404 520.355 43.7112 520.355 Q39.1058 520.355 39.1058 523.93 Q39.1058 525.701 39.7821 527.376 Q40.4262 529.018 41.328 530.146 Q42.2298 531.273 43.4858 532.303 Q44.7096 533.302 45.547 533.817 Q46.3521 534.3 47.1573 534.687 L50.4423 535.524 Q51.344 535.717 54.8545 536.651 L60.8126 538.1 Q65.257 539.131 65.6756 539.357 Q66.5774 539.679 67.0605 540.387 Q67.5436 541.096 67.5436 541.804 Q67.5436 542.609 67.0605 543.157 Q66.5774 543.704 65.7401 543.704 Q65.6112 543.704 65.1281 543.608 Q64.6451 543.511 63.9687 543.35 Q63.2924 543.189 62.9059 543.125 L47.6726 539.292 Q44.9029 538.584 44.0333 538.423 Q43.1315 538.229 42.1332 538.229 Q39.1058 538.229 39.1058 540.29 Q39.1058 541.965 41.1026 543.06 Q43.0993 544.155 46.964 545.089 Q48.0268 545.379 48.2523 545.572 Q48.4777 545.733 48.4777 546.216 Q48.4455 547.022 47.8014 547.022 Q47.6404 547.022 46.5776 546.764 Q45.5148 546.506 44.0011 546.023 Q42.4552 545.508 41.4246 545.025 Q40.6517 544.606 40.2974 544.381 Q39.911 544.123 39.1702 543.511 Q38.3973 542.867 38.043 542.03 Q37.6565 541.16 37.6565 540.097 Q37.6565 537.714 39.2024 535.975 Q40.7161 534.236 43.3892 534.01 Q37.6565 529.727 37.6565 523.737 Q37.6565 520.194 39.5245 518.165 Q41.3924 516.136 44.7096 516.136 Q45.4826 516.136 46.4809 516.297 Q47.4471 516.426 48.6709 516.748 Q49.8948 517.038 50.8287 517.295 Q51.7627 517.553 53.2764 518.068 Q54.7579 518.584 55.402 518.809 Q56.0461 519.035 57.5598 519.582 Q59.0412 520.097 59.2023 520.162 Q62.1974 521.353 63.9043 521.353 Q65.0315 521.353 65.5468 520.999 Q66.0621 520.613 66.0621 519.775 Q66.0621 517.521 63.8399 515.846 Q61.5855 514.139 57.914 513.044 Q57.1089 512.787 56.9156 512.658 Q56.7224 512.497 56.7224 512.046 Q56.7224 511.273 57.3665 511.273 Z" fill="#000000" fill-rule="nonzero" fill-opacity="1" /><polyline clip-path="url(#clip522)" style="stroke:#009af9; stroke-linecap:round; stroke-linejoin:round; stroke-width:4; stroke-opacity:1; fill:none" points="249.542,43684.1 251.645,2235.72 253.748,530.564 255.852,301.754 257.955,1822.19 260.058,448.471 262.161,530.564 264.265,1108 266.368,445.044 268.471,55.0004 270.574,421.037 272.677,406.059 274.781,496.396 276.884,750.042 278.987,1334.67 281.09,264.919 283.193,116.952 285.297,1488.83 287.4,1646.54 289.503,978.673 291.606,1036.67 293.71,705.432 295.813,936.397 297.916,1075.77 300.019,914.051 302.122,-304.666 304.226,812.341 306.329,1344.41 308.432,811.6 310.535,1352.8 312.638,842.387 314.742,936.397 316.845,780.889 318.948,658.469 321.051,1128.65 323.155,836.618 325.258,1014.42 327.361,725.297 329.464,197.388 331.567,333.58 333.671,710.753 335.774,1141.32 337.877,984.202 339.98,1113.3 342.083,752.878 344.187,723.915 346.29,959.689 348.393,672.469 350.496,1312.74 352.6,513.836 354.703,979.236 356.806,1012.46 358.909,969.872 361.012,643.639 363.116,864.31 365.219,580.166 367.322,690.914 369.425,730.879 371.528,753.09 373.632,913.672 375.735,491.837 377.838,434.084 379.941,1029.13 382.045,445.86 384.148,818.82 386.251,562.055 388.354,761.068 390.457,1083.89 392.561,1095.43 394.664,566.159 396.767,666.695 398.87,628.435 400.973,380.203 403.077,1166.45 405.18,787.387 407.283,913.157 409.386,1103.25 411.49,539.43 413.593,984.447 415.696,788.31 417.799,591.929 419.902,959.546 422.006,1136.46 424.109,1437.42 426.212,460.544 428.315,1048.04 430.418,710.832 432.522,685.404 434.625,953.141 436.728,785.297 438.831,1055.18 440.934,914.297 443.038,797.572 445.141,692.944 447.244,750.263 449.347,563.601 451.451,990.767 453.554,718.395 455.657,959.63 457.76,829.195 459.863,752.018 461.967,969.541 464.07,788.745 466.173,695.66 468.276,781.214 470.379,921.076 472.483,1066.21 474.586,878.709 476.689,651.612 478.792,704.012 480.896,692.586 482.999,769.144 485.102,789.927 487.205,744.612 489.308,992.746 491.412,683.209 493.515,772.888 495.618,780.06 497.721,833.944 499.824,1022.93 501.928,674.61 504.031,848.726 506.134,745.524 508.237,519.459 510.341,581.165 512.444,850.461 514.547,666.695 516.65,1238.14 518.753,976.143 520.857,807.196 522.96,925.055 525.063,891.34 527.166,944.517 529.269,747.149 531.373,701.099 533.476,1012.69 535.579,969.872 537.682,585.319 539.786,713.844 541.889,565.904 543.992,554.936 546.095,893.586 548.198,985.413 550.302,1086.74 552.405,828.175 554.508,421.037 556.611,784.414 558.714,811.142 560.818,870.197 562.921,1095.89 565.024,816.349 567.127,867.063 569.231,944.33 571.334,830.155 573.437,850.95 575.54,948.497 577.643,981.876 579.747,675.337 581.85,1025.27 583.953,875.629 586.056,710.753 588.159,1084.87 590.263,700.176 592.366,802.797 594.469,842.223 596.572,802.787 598.676,827.949 600.779,793.086 602.882,649.726 604.985,891.152 607.088,862.171 609.192,864.179 611.295,1168.86 613.398,996.73 615.501,728.219 617.604,916.478 619.708,974.433 621.811,785.965 623.914,702.497 626.017,939.391 628.121,913.306 630.224,885.993 632.327,860.424 634.43,980.288 636.533,753.545 638.637,905.227 640.74,870.012 642.843,700.775 644.946,814.877 647.049,674.592 649.153,1076.99 651.256,742.582 653.359,658.212 655.462,880.082 657.566,816.562 659.669,777.06 661.772,668.08 663.875,794.439 665.978,798.564 668.082,848 670.185,798.599 672.288,779.819 674.391,643.17 676.494,1015.47 678.598,861.38 680.701,996.451 682.804,984.481 684.907,672.594 687.011,607.898 689.114,800.034 691.217,1049.05 693.32,793.021 695.423,928.81 697.527,841.186 699.63,766.022 701.733,858.97 703.836,695.575 705.939,805.698 708.043,1073.65 710.146,978.576 712.249,893.716 714.352,910.307 716.456,564.985 718.559,762.022 720.662,1064.04 722.765,1008.93 724.868,797.196 726.972,656.53 729.075,837.427 731.178,747.136 733.281,767.35 735.384,1037.68 737.488,925.997 739.591,810.65 741.694,661.475 743.797,853.552 745.901,761.362 748.004,892.248 750.107,908.79 752.21,946.487 754.313,788.481 756.417,809.243 758.52,909.246 760.623,888.366 762.726,847.24 764.829,968.097 766.933,705.275 769.036,919.572 771.139,828.054 773.242,1204.86 775.346,701.949 777.449,713.68 779.552,822.295 781.655,910.427 783.758,729.645 785.862,786.1 787.965,690.006 790.068,996.796 792.171,713.981 794.274,742.011 796.378,832.031 798.481,917.905 800.584,870.828 802.687,833.224 804.79,959.734 806.894,602.589 808.997,751.215 811.1,865.009 813.203,694.021 815.307,956.314 817.41,804.966 819.513,735.188 821.616,993.961 823.719,702.455 825.823,751.218 827.926,920.798 830.029,634.22 832.132,916.553 834.235,1030.19 836.339,811.151 838.442,761.959 840.545,929.719 842.648,720.523 844.752,739.458 846.855,814.786 848.958,979.611 851.061,1035.5 853.164,960.663 855.268,942.91 857.371,857.89 859.474,961.797 861.577,783.426 863.68,858.698 865.784,910.312 867.887,965.093 869.99,849.458 872.093,906.043 874.197,840.982 876.3,881.465 878.403,866.816 880.506,1037.55 882.609,820.778 884.713,970.537 886.816,914.272 888.919,629.166 891.022,747.519 893.125,762.713 895.229,970.853 897.332,864.487 899.435,783.196 901.538,996.399 903.642,909.665 905.745,809.316 907.848,764.887 909.951,813.991 912.054,896.797 914.158,978.762 916.261,732.092 918.364,696.12 920.467,899.819 922.57,873.489 924.674,780.114 926.777,608.881 928.88,740.93 930.983,755.305 933.087,871.977 935.19,1046.28 937.293,785.056 939.396,820.463 941.499,624.169 943.603,1002.89 945.706,744.041 947.809,756.023 949.912,818.971 952.015,933.989 954.119,684.106 956.222,593.875 958.325,792.765 960.428,590.68 962.532,966.418 964.635,865.335 966.738,716.779 968.841,737.603 970.944,716.882 973.048,782.753 975.151,813.302 977.254,841.298 979.357,842.348 981.46,800.42 983.564,901.427 985.667,732.506 987.77,888.621 989.873,1007.85 991.977,948.162 994.08,994.991 996.183,1003.48 998.286,744.696 1000.39,988.883 1002.49,856.143 1004.6,797.838 1006.7,642.557 1008.8,862.026 1010.91,972.644 1013.01,716.731 1015.11,849.337 1017.22,887.512 1019.32,755.496 1021.42,878.993 1023.52,881.34 1025.63,1000.22 1027.73,781.186 1029.83,858.235 1031.94,789.642 1034.04,926.335 1036.14,840.875 1038.25,593.836 1040.35,876.796 1042.45,913.636 1044.56,678.539 1046.66,728.192 1048.76,837.427 1050.87,972.593 1052.97,781.486 1055.07,955.981 1057.18,1034.58 1059.28,945.793 1061.38,905.477 1063.49,785.238 1065.59,842.248 1067.69,814.446 1069.8,683.39 1071.9,873.586 1074,706.123 1076.11,962.977 1078.21,904.061 1080.31,947.928 1082.41,911.002 1084.52,919.175 1086.62,853.409 1088.72,816.498 1090.83,878.025 1092.93,774.714 1095.03,810.019 1097.14,614.439 1099.24,731.76 1101.34,946.982 1103.45,993.422 1105.55,684.359 1107.65,748.029 1109.76,937.38 1111.86,780.252 1113.96,772.092 1116.07,826.831 1118.17,972.059 1120.27,892.979 1122.38,685.326 1124.48,788.027 1126.58,649.115 1128.69,834.206 1130.79,897.984 1132.89,857.764 1135,870.726 1137.1,971.933 1139.2,883.426 1141.3,927.229 1143.41,877.037 1145.51,987.296 1147.61,910.961 1149.72,882.79 1151.82,833.38 1153.92,729.09 1156.03,817.295 1158.13,766.668 1160.23,725.221 1162.34,737.556 1164.44,867.898 1166.54,696.864 1168.65,728.712 1170.75,693.323 1172.85,682.145 1174.96,797.372 1177.06,968.279 1179.16,769.606 1181.27,766.935 1183.37,842.023 1185.47,786.51 1187.58,722.303 1189.68,945.988 1191.78,1028.33 1193.89,888.292 1195.99,923.29 1198.09,913.803 1200.19,951.512 1202.3,882.194 1204.4,824.829 1206.5,937.869 1208.61,861.033 1210.71,734.291 1212.81,782.529 1214.92,990.631 1217.02,873.38 1219.12,923.603 1221.23,801.678 1223.33,723.772 1225.43,718.107 1227.54,876.659 1229.64,805.442 1231.74,921.47 1233.85,860.095 1235.95,838.742 1238.05,893.586 1240.16,990.954 1242.26,705.186 1244.36,762.591 1246.47,718.166 1248.57,769.582 1250.67,711.407 1252.78,805.928 1254.88,783.625 1256.98,837.975 1259.08,823.591 1261.19,891.216 1263.29,795.814 1265.39,856.343 1267.5,729.128 1269.6,935.292 1271.7,951.557 1273.81,893.428 1275.91,769.338 1278.01,780.173 1280.12,813.25 1282.22,687.69 1284.32,879.942 1286.43,989.878 1288.53,886.154 1290.63,791.07 1292.74,709.879 1294.84,852.919 1296.94,889.255 1299.05,934.786 1301.15,876.278 1303.25,725.662 1305.36,839.813 1307.46,725.159 1309.56,956.594 1311.67,939.316 1313.77,784.64 1315.87,782.545 1317.97,665.627 1320.08,813.359 1322.18,931.404 1324.28,934.823 1326.39,823.556 1328.49,756.446 1330.59,664.055 1332.7,1078 1334.8,1014.42 1336.9,815.529 1339.01,709.877 1341.11,759.837 1343.21,787.702 1345.32,960.561 1347.42,922.787 1349.52,883.806 1351.63,958.123 1353.73,896.541 1355.83,915.241 1357.94,909.426 1360.04,886.849 1362.14,799.931 1364.25,726.525 1366.35,821.262 1368.45,863.729 1370.56,1046.73 1372.66,832 1374.76,911.585 1376.86,828.119 1378.97,718.941 1381.07,825.017 1383.17,981.598 1385.28,781.733 1387.38,906.404 1389.48,805.204 1391.59,916.892 1393.69,765.748 1395.79,942.051 1397.9,858.453 1400,809.118 1402.1,817.221 1404.21,877.001 1406.31,865.867 1408.41,828.63 1410.52,853.454 1412.62,777.083 1414.72,795.64 1416.83,792.978 1418.93,1044.34 1421.03,856.856 1423.14,855.071 1425.24,901.609 1427.34,798.839 1429.45,824.553 1431.55,954.034 1433.65,770.09 1435.75,892.396 1437.86,879.874 1439.96,790.769 1442.06,973.942 1444.17,703.456 1446.27,732.418 1448.37,861.977 1450.48,747.347 1452.58,765.87 1454.68,791.613 1456.79,871.397 1458.89,860.286 1460.99,816.246 1463.1,893.156 1465.2,963.968 1467.3,800.573 1469.41,916.518 1471.51,912.165 1473.61,704.202 1475.72,879.086 1477.82,1015.64 1479.92,840.431 1482.03,857.127 1484.13,664.846 1486.23,825.808 1488.34,822.565 1490.44,965.223 1492.54,817.936 1494.64,812.218 1496.75,878.241 1498.85,883.768 1500.95,770.217 1503.06,731.261 1505.16,970.712 1507.26,897.819 1509.37,831.666 1511.47,710.753 1513.57,827.309 1515.68,810.257 1517.78,848.212 1519.88,908.646 1521.99,838.048 1524.09,813.316 1526.19,768.621 1528.3,927.579 1530.4,878.447 1532.5,819.648 1534.61,805.28 1536.71,887.512 1538.81,857.773 1540.92,865.786 1543.02,894.083 1545.12,767.573 1547.22,800.659 1549.33,773.803 1551.43,803.713 1553.53,872.758 1555.64,793.282 1557.74,739.006 1559.84,755.382 1561.95,867.565 1564.05,804.343 1566.15,860.483 1568.26,677.081 1570.36,947.49 1572.46,953.859 1574.57,978.896 1576.67,923.863 1578.77,907.116 1580.88,839.431 1582.98,697.922 1585.08,853.936 1587.19,866.541 1589.29,850.393 1591.39,867.603 1593.5,792.471 1595.6,901.821 1597.7,704.979 1599.81,758.867 1601.91,920.344 1604.01,655.103 1606.11,871.686 1608.22,775.025 1610.32,879.779 1612.42,704.984 1614.53,831.247 1616.63,826.644 1618.73,732.881 1620.84,975.412 1622.94,680.199 1625.04,907.486 1627.15,840.846 1629.25,994.129 1631.35,694.973 1633.46,745.127 1635.56,795.83 1637.66,968.25 1639.77,969.214 1641.87,892.02 1643.97,899.377 1646.08,855.315 1648.18,957.545 1650.28,893.899 1652.39,758.256 1654.49,782.784 1656.59,915.354 1658.7,753.41 1660.8,823.864 1662.9,811.801 1665,934.007 1667.11,984.061 1669.21,678.151 1671.31,835.457 1673.42,839.782 1675.52,927.501 1677.62,824.599 1679.73,837.24 1681.83,783.745 1683.93,790.894 1686.04,857.378 1688.14,845.299 1690.24,933.267 1692.35,767.345 1694.45,891.877 1696.55,891.356 1698.66,790.224 1700.76,825.995 1702.86,655.105 1704.97,817.749 1707.07,935.623 1709.17,840.602 1711.28,800.418 1713.38,757.555 1715.48,898.103 1717.59,826.299 1719.69,986.183 1721.79,915.52 1723.89,750.739 1726,778.714 1728.1,893.655 1730.2,880.361 1732.31,897.586 1734.41,857.29 1736.51,955.911 1738.62,864.162 1740.72,824.402 1742.82,758.242 1744.93,806.711 1747.03,964.234 1749.13,848.823 1751.24,698.411 1753.34,789.141 1755.44,979.026 1757.55,769.408 1759.65,890.809 1761.75,918.311 1763.86,820.504 1765.96,908.872 1768.06,892.178 1770.17,837.751 1772.27,828.402 1774.37,686.9 1776.48,863.178 1778.58,1005.96 1780.68,850.077 1782.78,782.168 1784.89,762.402 1786.99,881.147 1789.09,857.9 1791.2,844.058 1793.3,891.804 1795.4,798.667 1797.51,930.023 1799.61,775.972 1801.71,796.67 1803.82,991.994 1805.92,804.521 1808.02,804.7 1810.13,848.989 1812.23,822.106 1814.33,881.211 1816.44,768.095 1818.54,847.835 1820.64,879.094 1822.75,740.406 1824.85,814.389 1826.95,711.701 1829.06,1072.11 1831.16,826.702 1833.26,848.481 1835.37,908.298 1837.47,923.436 1839.57,924.163 1841.67,874.882 1843.78,846.399 1845.88,794.329 1847.98,817.756 1850.09,796.122 1852.19,860.29 1854.29,879.945 1856.4,747.715 1858.5,843.706 1860.6,763.382 1862.71,846.23 1864.81,843.543 1866.91,687.508 1869.02,879.761 1871.12,868.33 1873.22,793.06 1875.33,842.578 1877.43,661.785 1879.53,991.657 1881.64,741.237 1883.74,886.323 1885.84,793.822 1887.95,1015.04 1890.05,779.137 1892.15,865.76 1894.26,748.792 1896.36,844.123 1898.46,881.117 1900.56,778.423 1902.67,967.914 1904.77,860.832 1906.87,833.947 1908.98,788.464 1911.08,834.037 1913.18,792.08 1915.29,858.254 1917.39,869.713 1919.49,901.601 1921.6,935.554 1923.7,757.369 1925.8,881.345 1927.91,807.208 1930.01,863.652 1932.11,774.983 1934.22,796.919 1936.32,883.029 1938.42,855.976 1940.53,726.361 1942.63,803.143 1944.73,881.294 1946.84,786.591 1948.94,779.762 1951.04,756.583 1953.15,873.106 1955.25,875.172 1957.35,707.1 1959.45,821.865 1961.56,906.579 1963.66,835.202 1965.76,830.375 1967.87,681.307 1969.97,910.005 1972.07,985.427 1974.18,757.852 1976.28,897.351 1978.38,858.166 1980.49,868.717 1982.59,726.558 1984.69,827.127 1986.8,779.102 1988.9,923.106 1991,830.452 1993.11,831.555 1995.21,821.133 1997.31,863.869 1999.42,858.461 2001.52,749.455 2003.62,848.809 2005.73,967.669 2007.83,842.419 2009.93,930.472 2012.04,878.431 2014.14,819.964 2016.24,876.649 2018.34,783.202 2020.45,825.98 2022.55,817.321 2024.65,705.57 2026.76,800.374 2028.86,894.221 2030.96,868.099 2033.07,831.686 2035.17,907.019 2037.27,847.77 2039.38,641.645 2041.48,807.192 2043.58,924.926 2045.69,738.557 2047.79,845.456 2049.89,713.885 2052,799.452 2054.1,787.663 2056.2,898.455 2058.31,825.321 2060.41,780.973 2062.51,897.03 2064.62,772.887 2066.72,832.851 2068.82,794.798 2070.93,938.873 2073.03,813.787 2075.13,907.971 2077.23,871.841 2079.34,869.598 2081.44,780.904 2083.54,758.471 2085.65,905.982 2087.75,759.962 2089.85,913.106 2091.96,799.507 2094.06,685.564 2096.16,773.384 2098.27,816.846 2100.37,820.81 2102.47,792.478 2104.58,905.532 2106.68,773.699 2108.78,830.629 2110.89,904.424 2112.99,914.606 2115.09,783.414 2117.2,920.244 2119.3,809.856 2121.4,930.072 2123.51,796.218 2125.61,803.331 2127.71,779.76 2129.82,789.145 2131.92,820.494 2134.02,885.186 2136.12,805.427 2138.23,967.115 2140.33,988.207 2142.43,780.833 2144.54,843.089 2146.64,798.083 2148.74,758.469 2150.85,786.152 2152.95,801.225 2155.05,805.393 2157.16,860.765 2159.26,1001.38 2161.36,868.623 2163.47,875.788 2165.57,891.19 2167.67,899.19 2169.78,769.599 2171.88,850.013 2173.98,856.724 2176.09,811.095 2178.19,850.003 2180.29,899.579 2182.4,761.727 2184.5,787.601 2186.6,816.021 2188.71,873.517 2190.81,765.121 2192.91,755.364 2195.01,812.61 2197.12,819.001 2199.22,867.621 2201.32,765.029 2203.43,854.597 2205.53,914.051 2207.63,923.295 2209.74,827.131 2211.84,724.65 2213.94,691.671 2216.05,867.348 2218.15,912.331 2220.25,934.824 2222.36,861.119 2224.46,904.263 2226.56,849.259 2228.67,736.955 2230.77,805.119 2232.87,868.077 2234.98,859.319 2237.08,892.25 2239.18,972.064 2241.29,833.274 2243.39,852.124 2245.49,785.623 2247.6,801.828 2249.7,705.615 2251.8,923.302 2253.9,758.769 2256.01,843.628 2258.11,761.689 2260.21,825.795 2262.32,722.916 2264.42,844.297 2266.52,878.048 2268.63,819.381 2270.73,825.111 2272.83,880.744 2274.94,922.477 2277.04,705.091 2279.14,830.039 2281.25,757.952 2283.35,848.496 2285.45,793.331 2287.56,822.834 2289.66,822.952 2291.76,900.761 2293.87,816.255 2295.97,861.896 2298.07,707.896 2300.18,853.083 2302.28,784.831 2304.38,864.542 2306.49,817.958 2308.59,884.731 2310.69,822.875 2312.79,838.504 2314.9,761.147 2317,927.398 2319.1,954.366 2321.21,803.202 2323.31,829.579 2325.41,788.303 2327.52,825.297 2329.62,712.886 2331.72,843.338 2333.83,790.945 2335.93,903.546 2338.03,864.076 2340.14,885.376 2342.24,809.694 2344.34,763.756 2346.45,820.087 2348.55,872.656 2350.65,789.008 2352.76,798.464 "/>
<polyline clip-path="url(#clip522)" style="stroke:#ff0000; stroke-linecap:round; stroke-linejoin:round; stroke-width:4; stroke-opacity:1; fill:none" stroke-dasharray="16, 10" points="249.542,843.717 2352.76,843.717 "/>
</svg>
