<?xml version="1.0" encoding="utf-8"?>
<svg xmlns="http://www.w3.org/2000/svg" xmlns:xlink="http://www.w3.org/1999/xlink" width="350" height="350" viewBox="0 0 1400 1400">
<defs>
  <clipPath id="clip490">
    <rect x="0" y="0" width="1400" height="1400"/>
  </clipPath>
</defs>
<path clip-path="url(#clip490)" d="M0 1400 L1400 1400 L1400 0 L0 0  Z" fill="#ffffff" fill-rule="evenodd" fill-opacity="1"/>
<defs>
  <clipPath id="clip491">
    <rect x="280" y="140" width="981" height="981"/>
  </clipPath>
</defs>
<path clip-path="url(#clip490)" d="M146.598 1191.75 L1352.76 1191.75 L1352.76 200.017 L146.598 200.017  Z" fill="#ffffff" fill-rule="evenodd" fill-opacity="1"/>
<defs>
  <clipPath id="clip492">
    <rect x="146" y="200" width="1207" height="993"/>
  </clipPath>
</defs>
<polyline clip-path="url(#clip490)" style="stroke:#000000; stroke-linecap:round; stroke-linejoin:round; stroke-width:4; stroke-opacity:1; fill:none" points="146.598,1191.75 1352.76,1191.75 "/>
<polyline clip-path="url(#clip490)" style="stroke:#000000; stroke-linecap:round; stroke-linejoin:round; stroke-width:4; stroke-opacity:1; fill:none" points="414.633,1191.75 414.633,1174.46 "/>
<polyline clip-path="url(#clip490)" style="stroke:#000000; stroke-linecap:round; stroke-linejoin:round; stroke-width:4; stroke-opacity:1; fill:none" points="749.677,1191.75 749.677,1174.46 "/>
<polyline clip-path="url(#clip490)" style="stroke:#000000; stroke-linecap:round; stroke-linejoin:round; stroke-width:4; stroke-opacity:1; fill:none" points="1084.72,1191.75 1084.72,1174.46 "/>
<path clip-path="url(#clip490)" d="M402.757 1228.82 Q402.757 1221.77 404.537 1217.93 Q407.02 1212.21 412.875 1212.21 Q414.117 1212.21 415.405 1212.56 Q416.717 1212.89 418.356 1214.18 Q420.019 1215.47 421.026 1217.58 Q422.947 1221.65 422.947 1228.82 Q422.947 1235.82 421.167 1239.64 Q418.567 1245.22 412.829 1245.22 Q410.674 1245.22 408.472 1244.11 Q406.294 1243.01 404.912 1240.37 Q402.757 1236.41 402.757 1228.82 M406.739 1228.23 Q406.739 1235.47 407.254 1238.35 Q407.84 1241.47 409.432 1242.83 Q411.049 1244.16 412.829 1244.16 Q414.749 1244.16 416.342 1242.73 Q417.958 1241.28 418.45 1238.17 Q418.989 1235.1 418.965 1228.23 Q418.965 1221.56 418.497 1218.89 Q417.864 1215.77 416.178 1214.53 Q414.515 1213.27 412.829 1213.27 Q412.196 1213.27 411.517 1213.45 Q410.861 1213.64 409.901 1214.18 Q408.94 1214.72 408.191 1216.05 Q407.465 1217.39 407.114 1219.4 Q406.739 1222 406.739 1228.23 Z" fill="#000000" fill-rule="nonzero" fill-opacity="1" /><path clip-path="url(#clip490)" d="M757.259 1212.54 Q757.259 1213.2 756.955 1213.36 Q756.65 1213.51 755.807 1213.51 L751.31 1213.51 L747.75 1227.65 Q747.469 1228.89 747.469 1229.95 Q747.469 1231.12 747.82 1231.63 Q748.195 1232.15 748.968 1232.15 Q750.49 1232.15 752.13 1230.77 Q753.793 1229.39 755.198 1226.01 Q755.386 1225.57 755.479 1225.47 Q755.596 1225.36 755.901 1225.36 Q756.486 1225.36 756.486 1225.83 Q756.486 1225.99 756.159 1226.74 Q755.854 1227.49 755.175 1228.59 Q754.519 1229.69 753.652 1230.72 Q752.809 1231.75 751.521 1232.5 Q750.233 1233.23 748.851 1233.23 Q746.907 1233.23 745.665 1231.99 Q744.447 1230.74 744.447 1228.8 Q744.447 1228.17 744.939 1226.15 Q745.431 1224.12 748.101 1213.51 L743.862 1213.51 Q743.276 1213.51 743.042 1213.48 Q742.831 1213.46 742.667 1213.34 Q742.527 1213.2 742.527 1212.92 Q742.527 1212.47 742.714 1212.29 Q742.901 1212.08 743.136 1212.05 Q743.393 1212.01 743.979 1212.01 L748.476 1212.01 L750.35 1204.39 Q750.537 1203.64 751.006 1203.22 Q751.497 1202.78 751.779 1202.73 Q752.06 1202.66 752.27 1202.66 Q752.903 1202.66 753.278 1203.01 Q753.652 1203.34 753.652 1203.95 Q753.652 1204.28 751.685 1212.01 L755.901 1212.01 Q756.44 1212.01 756.65 1212.03 Q756.885 1212.05 757.072 1212.17 Q757.259 1212.29 757.259 1212.54 Z" fill="#000000" fill-rule="nonzero" fill-opacity="1" /><path clip-path="url(#clip490)" d="M740.193 1246.03 L764.281 1246.03 L764.281 1243.47 L740.193 1243.47  Z" fill="#000000" fill-rule="evenodd" fill-opacity="1"/>
<path clip-path="url(#clip490)" d="M740.193 1287.9 Q740.193 1287.04 740.264 1286.78 Q740.357 1286.52 740.732 1286.12 L749.937 1275.86 Q754.973 1270.2 754.973 1265.25 Q754.973 1262.04 753.286 1259.75 Q751.623 1257.45 748.555 1257.45 Q746.447 1257.45 744.667 1258.74 Q742.887 1260.03 742.067 1262.33 Q742.208 1262.28 742.7 1262.28 Q743.894 1262.28 744.55 1263.03 Q745.229 1263.78 745.229 1264.78 Q745.229 1266.07 744.386 1266.71 Q743.566 1267.31 742.746 1267.31 Q742.418 1267.31 741.973 1267.24 Q741.552 1267.17 740.873 1266.52 Q740.193 1265.84 740.193 1264.64 Q740.193 1261.29 742.723 1258.62 Q745.276 1255.95 749.164 1255.95 Q753.568 1255.95 756.449 1258.58 Q759.353 1261.18 759.353 1265.25 Q759.353 1266.68 758.908 1267.99 Q758.486 1269.28 757.901 1270.29 Q757.339 1271.3 755.793 1272.91 Q754.247 1274.53 753.005 1275.68 Q751.764 1276.82 748.977 1279.26 L743.894 1284.2 L752.537 1284.2 Q756.753 1284.2 757.081 1283.83 Q757.549 1283.15 758.135 1279.56 L759.353 1279.56 L757.994 1287.9 L740.193 1287.9 Z" fill="#000000" fill-rule="nonzero" fill-opacity="1" /><path clip-path="url(#clip490)" d="M1090.88 1223.33 Q1090.88 1223.98 1090.58 1224.15 Q1090.27 1224.29 1089.43 1224.29 L1084.93 1224.29 L1081.37 1238.43 Q1081.09 1239.67 1081.09 1240.73 Q1081.09 1241.9 1081.44 1242.41 Q1081.82 1242.93 1082.59 1242.93 Q1084.11 1242.93 1085.75 1241.55 Q1087.42 1240.17 1088.82 1236.79 Q1089.01 1236.35 1089.1 1236.25 Q1089.22 1236.14 1089.52 1236.14 Q1090.11 1236.14 1090.11 1236.61 Q1090.11 1236.77 1089.78 1237.52 Q1089.48 1238.27 1088.8 1239.37 Q1088.14 1240.47 1087.28 1241.5 Q1086.43 1242.53 1085.14 1243.28 Q1083.86 1244.01 1082.47 1244.01 Q1080.53 1244.01 1079.29 1242.77 Q1078.07 1241.52 1078.07 1239.58 Q1078.07 1238.95 1078.56 1236.93 Q1079.05 1234.9 1081.72 1224.29 L1077.49 1224.29 Q1076.9 1224.29 1076.67 1224.26 Q1076.45 1224.24 1076.29 1224.12 Q1076.15 1223.98 1076.15 1223.7 Q1076.15 1223.26 1076.34 1223.07 Q1076.52 1222.86 1076.76 1222.83 Q1077.02 1222.79 1077.6 1222.79 L1082.1 1222.79 L1083.97 1215.17 Q1084.16 1214.42 1084.63 1214 Q1085.12 1213.56 1085.4 1213.51 Q1085.68 1213.44 1085.89 1213.44 Q1086.53 1213.44 1086.9 1213.79 Q1087.28 1214.12 1087.28 1214.73 Q1087.28 1215.06 1085.31 1222.79 L1089.52 1222.79 Q1090.06 1222.79 1090.27 1222.81 Q1090.51 1222.83 1090.7 1222.95 Q1090.88 1223.07 1090.88 1223.33 Z" fill="#000000" fill-rule="nonzero" fill-opacity="1" /><path clip-path="url(#clip490)" d="M252.955 12.096 L263.974 12.096 L290.791 62.6918 L290.791 12.096 L298.73 12.096 L298.73 72.576 L287.712 72.576 L260.895 21.9802 L260.895 72.576 L252.955 72.576 L252.955 12.096 Z" fill="#000000" fill-rule="nonzero" fill-opacity="1" /><path clip-path="url(#clip490)" d="M342.035 34.9026 L393.967 34.9026 L393.967 41.7081 L342.035 41.7081 L342.035 34.9026 M342.035 51.4303 L393.967 51.4303 L393.967 58.3168 L342.035 58.3168 L342.035 51.4303 Z" fill="#000000" fill-rule="nonzero" fill-opacity="1" /><path clip-path="url(#clip490)" d="M439.418 65.6895 L452.786 65.6895 L452.786 19.5497 L438.244 22.4663 L438.244 15.0127 L452.705 12.096 L460.888 12.096 L460.888 65.6895 L474.256 65.6895 L474.256 72.576 L439.418 72.576 L439.418 65.6895 Z" fill="#000000" fill-rule="nonzero" fill-opacity="1" /><path clip-path="url(#clip490)" d="M508.284 17.4837 Q501.964 17.4837 498.764 23.7221 Q495.604 29.92 495.604 42.3968 Q495.604 54.833 498.764 61.0714 Q501.964 67.2693 508.284 67.2693 Q514.644 67.2693 517.803 61.0714 Q521.004 54.833 521.004 42.3968 Q521.004 29.92 517.803 23.7221 Q514.644 17.4837 508.284 17.4837 M508.284 11.0023 Q518.451 11.0023 523.799 19.0636 Q529.186 27.0843 529.186 42.3968 Q529.186 57.6687 523.799 65.73 Q518.451 73.7508 508.284 73.7508 Q498.116 73.7508 492.728 65.73 Q487.381 57.6687 487.381 42.3968 Q487.381 27.0843 492.728 19.0636 Q498.116 11.0023 508.284 11.0023 Z" fill="#000000" fill-rule="nonzero" fill-opacity="1" /><path clip-path="url(#clip490)" d="M561.067 17.4837 Q554.748 17.4837 551.547 23.7221 Q548.388 29.92 548.388 42.3968 Q548.388 54.833 551.547 61.0714 Q554.748 67.2693 561.067 67.2693 Q567.427 67.2693 570.587 61.0714 Q573.787 54.833 573.787 42.3968 Q573.787 29.92 570.587 23.7221 Q567.427 17.4837 561.067 17.4837 M561.067 11.0023 Q571.235 11.0023 576.582 19.0636 Q581.97 27.0843 581.97 42.3968 Q581.97 57.6687 576.582 65.73 Q571.235 73.7508 561.067 73.7508 Q550.899 73.7508 545.511 65.73 Q540.164 57.6687 540.164 42.3968 Q540.164 27.0843 545.511 19.0636 Q550.899 11.0023 561.067 11.0023 Z" fill="#000000" fill-rule="nonzero" fill-opacity="1" /><path clip-path="url(#clip490)" d="M659.382 45.1919 L659.382 72.576 L651.929 72.576 L651.929 45.4349 Q651.929 38.994 649.417 35.7938 Q646.906 32.5936 641.883 32.5936 Q635.847 32.5936 632.363 36.4419 Q628.879 40.2903 628.879 46.9338 L628.879 72.576 L621.385 72.576 L621.385 27.2059 L628.879 27.2059 L628.879 34.2544 Q631.553 30.163 635.158 28.1376 Q638.804 26.1121 643.543 26.1121 Q651.362 26.1121 655.372 30.9732 Q659.382 35.7938 659.382 45.1919 Z" fill="#000000" fill-rule="nonzero" fill-opacity="1" /><path clip-path="url(#clip490)" d="M713.057 48.0275 L713.057 51.6733 L678.786 51.6733 Q679.272 59.3701 683.404 63.421 Q687.577 67.4314 694.99 67.4314 Q699.284 67.4314 703.294 66.3781 Q707.345 65.3249 711.315 63.2184 L711.315 70.267 Q707.305 71.9684 703.092 72.8596 Q698.879 73.7508 694.544 73.7508 Q683.688 73.7508 677.328 67.4314 Q671.009 61.1119 671.009 50.3365 Q671.009 39.1965 677.004 32.6746 Q683.04 26.1121 693.248 26.1121 Q702.403 26.1121 707.71 32.0264 Q713.057 37.9003 713.057 48.0275 M705.603 45.84 Q705.522 39.7232 702.16 36.0774 Q698.838 32.4315 693.329 32.4315 Q687.091 32.4315 683.323 35.9558 Q679.596 39.4801 679.029 45.8805 L705.603 45.84 Z" fill="#000000" fill-rule="nonzero" fill-opacity="1" /><path clip-path="url(#clip490)" d="M764.098 48.0275 L764.098 51.6733 L729.828 51.6733 Q730.314 59.3701 734.446 63.421 Q738.618 67.4314 746.031 67.4314 Q750.325 67.4314 754.336 66.3781 Q758.387 65.3249 762.356 63.2184 L762.356 70.267 Q758.346 71.9684 754.133 72.8596 Q749.92 73.7508 745.586 73.7508 Q734.729 73.7508 728.369 67.4314 Q722.05 61.1119 722.05 50.3365 Q722.05 39.1965 728.045 32.6746 Q734.081 26.1121 744.289 26.1121 Q753.444 26.1121 758.751 32.0264 Q764.098 37.9003 764.098 48.0275 M756.645 45.84 Q756.564 39.7232 753.201 36.0774 Q749.88 32.4315 744.37 32.4315 Q738.132 32.4315 734.365 35.9558 Q730.638 39.4801 730.071 45.8805 L756.645 45.84 Z" fill="#000000" fill-rule="nonzero" fill-opacity="1" /><path clip-path="url(#clip490)" d="M806.187 34.0924 L806.187 9.54393 L813.641 9.54393 L813.641 72.576 L806.187 72.576 L806.187 65.7705 Q803.838 69.8214 800.232 71.8063 Q796.668 73.7508 791.644 73.7508 Q783.421 73.7508 778.236 67.1883 Q773.091 60.6258 773.091 49.9314 Q773.091 39.2371 778.236 32.6746 Q783.421 26.1121 791.644 26.1121 Q796.668 26.1121 800.232 28.0971 Q803.838 30.0415 806.187 34.0924 M780.788 49.9314 Q780.788 58.1548 784.15 62.8538 Q787.553 67.5124 793.467 67.5124 Q799.382 67.5124 802.784 62.8538 Q806.187 58.1548 806.187 49.9314 Q806.187 41.7081 802.784 37.0496 Q799.382 32.3505 793.467 32.3505 Q787.553 32.3505 784.15 37.0496 Q780.788 41.7081 780.788 49.9314 Z" fill="#000000" fill-rule="nonzero" fill-opacity="1" /><path clip-path="url(#clip490)" d="M828.994 9.54393 L836.447 9.54393 L836.447 72.576 L828.994 72.576 L828.994 9.54393 Z" fill="#000000" fill-rule="nonzero" fill-opacity="1" /><path clip-path="url(#clip490)" d="M890.851 48.0275 L890.851 51.6733 L856.58 51.6733 Q857.067 59.3701 861.198 63.421 Q865.371 67.4314 872.784 67.4314 Q877.078 67.4314 881.088 66.3781 Q885.139 65.3249 889.109 63.2184 L889.109 70.267 Q885.099 71.9684 880.886 72.8596 Q876.673 73.7508 872.338 73.7508 Q861.482 73.7508 855.122 67.4314 Q848.803 61.1119 848.803 50.3365 Q848.803 39.1965 854.798 32.6746 Q860.834 26.1121 871.042 26.1121 Q880.197 26.1121 885.504 32.0264 Q890.851 37.9003 890.851 48.0275 M883.397 45.84 Q883.316 39.7232 879.954 36.0774 Q876.632 32.4315 871.123 32.4315 Q864.885 32.4315 861.117 35.9558 Q857.391 39.4801 856.823 45.8805 L883.397 45.84 Z" fill="#000000" fill-rule="nonzero" fill-opacity="1" /><path clip-path="url(#clip490)" d="M932.008 28.5427 L932.008 35.5912 Q928.849 33.9709 925.446 33.1607 Q922.043 32.3505 918.397 32.3505 Q912.847 32.3505 910.052 34.0519 Q907.298 35.7533 907.298 39.156 Q907.298 41.7486 909.283 43.2475 Q911.268 44.7058 917.263 46.0426 L919.815 46.6097 Q927.755 48.3111 931.077 51.4303 Q934.439 54.509 934.439 60.0587 Q934.439 66.3781 929.416 70.0644 Q924.433 73.7508 915.683 73.7508 Q912.037 73.7508 908.067 73.0216 Q904.138 72.3329 899.763 70.9151 L899.763 63.2184 Q903.895 65.3654 907.905 66.4591 Q911.916 67.5124 915.845 67.5124 Q921.111 67.5124 923.947 65.73 Q926.783 63.9071 926.783 60.6258 Q926.783 57.5877 924.717 55.9673 Q922.691 54.3469 915.764 52.8481 L913.172 52.2405 Q906.245 50.7821 903.166 47.7845 Q900.087 44.7463 900.087 39.4801 Q900.087 33.0797 904.624 29.5959 Q909.161 26.1121 917.506 26.1121 Q921.638 26.1121 925.284 26.7198 Q928.93 27.3274 932.008 28.5427 Z" fill="#000000" fill-rule="nonzero" fill-opacity="1" /><path clip-path="url(#clip490)" d="M980.052 14.324 L980.052 27.2059 L995.405 27.2059 L995.405 32.9987 L980.052 32.9987 L980.052 57.6282 Q980.052 63.1779 981.551 64.7578 Q983.09 66.3376 987.749 66.3376 L995.405 66.3376 L995.405 72.576 L987.749 72.576 Q979.12 72.576 975.839 69.3758 Q972.558 66.1351 972.558 57.6282 L972.558 32.9987 L967.089 32.9987 L967.089 27.2059 L972.558 27.2059 L972.558 14.324 L980.052 14.324 Z" fill="#000000" fill-rule="nonzero" fill-opacity="1" /><path clip-path="url(#clip490)" d="M1042.92 45.1919 L1042.92 72.576 L1035.47 72.576 L1035.47 45.4349 Q1035.47 38.994 1032.96 35.7938 Q1030.45 32.5936 1025.42 32.5936 Q1019.39 32.5936 1015.9 36.4419 Q1012.42 40.2903 1012.42 46.9338 L1012.42 72.576 L1004.92 72.576 L1004.92 9.54393 L1012.42 9.54393 L1012.42 34.2544 Q1015.09 30.163 1018.7 28.1376 Q1022.34 26.1121 1027.08 26.1121 Q1034.9 26.1121 1038.91 30.9732 Q1042.92 35.7938 1042.92 45.1919 Z" fill="#000000" fill-rule="nonzero" fill-opacity="1" /><path clip-path="url(#clip490)" d="M1084.08 34.1734 Q1082.82 33.4443 1081.32 33.1202 Q1079.87 32.7556 1078.08 32.7556 Q1071.76 32.7556 1068.36 36.8875 Q1065 40.9789 1065 48.6757 L1065 72.576 L1057.51 72.576 L1057.51 27.2059 L1065 27.2059 L1065 34.2544 Q1067.35 30.1225 1071.12 28.1376 Q1074.88 26.1121 1080.27 26.1121 Q1081.04 26.1121 1081.97 26.2337 Q1082.9 26.3147 1084.04 26.5172 L1084.08 34.1734 Z" fill="#000000" fill-rule="nonzero" fill-opacity="1" /><path clip-path="url(#clip490)" d="M1107.66 32.4315 Q1101.66 32.4315 1098.18 37.1306 Q1094.69 41.7891 1094.69 49.9314 Q1094.69 58.0738 1098.14 62.7728 Q1101.62 67.4314 1107.66 67.4314 Q1113.61 67.4314 1117.09 62.7323 Q1120.58 58.0333 1120.58 49.9314 Q1120.58 41.8701 1117.09 37.1711 Q1113.61 32.4315 1107.66 32.4315 M1107.66 26.1121 Q1117.38 26.1121 1122.93 32.4315 Q1128.48 38.7509 1128.48 49.9314 Q1128.48 61.0714 1122.93 67.4314 Q1117.38 73.7508 1107.66 73.7508 Q1097.89 73.7508 1092.34 67.4314 Q1086.83 61.0714 1086.83 49.9314 Q1086.83 38.7509 1092.34 32.4315 Q1097.89 26.1121 1107.66 26.1121 Z" fill="#000000" fill-rule="nonzero" fill-opacity="1" /><path clip-path="url(#clip490)" d="M1136.5 27.2059 L1143.95 27.2059 L1153.27 62.6108 L1162.55 27.2059 L1171.34 27.2059 L1180.65 62.6108 L1189.93 27.2059 L1197.38 27.2059 L1185.51 72.576 L1176.72 72.576 L1166.96 35.3887 L1157.16 72.576 L1148.37 72.576 L1136.5 27.2059 Z" fill="#000000" fill-rule="nonzero" fill-opacity="1" /><path clip-path="url(#clip490)" d="M1246.4 45.1919 L1246.4 72.576 L1238.95 72.576 L1238.95 45.4349 Q1238.95 38.994 1236.43 35.7938 Q1233.92 32.5936 1228.9 32.5936 Q1222.86 32.5936 1219.38 36.4419 Q1215.9 40.2903 1215.9 46.9338 L1215.9 72.576 L1208.4 72.576 L1208.4 27.2059 L1215.9 27.2059 L1215.9 34.2544 Q1218.57 30.163 1222.17 28.1376 Q1225.82 26.1121 1230.56 26.1121 Q1238.38 26.1121 1242.39 30.9732 Q1246.4 35.7938 1246.4 45.1919 Z" fill="#000000" fill-rule="nonzero" fill-opacity="1" /><path clip-path="url(#clip492)" d="M414.633 1191.75 L414.633 186.616 L1084.72 186.616 L1084.72 1191.75 L414.633 1191.75  Z" fill="#c0c0c0" fill-rule="evenodd" fill-opacity="1"/>
<polyline clip-path="url(#clip492)" style="stroke:#000000; stroke-linecap:round; stroke-linejoin:round; stroke-width:4; stroke-opacity:1; fill:none" points="414.633,1191.75 414.633,186.616 1084.72,186.616 1084.72,1191.75 414.633,1191.75 "/>
<polyline clip-path="url(#clip492)" style="stroke:#000000; stroke-linecap:round; stroke-linejoin:round; stroke-width:4; stroke-opacity:1; fill:none" points="414.633,1191.75 414.633,186.616 "/>
<polyline clip-path="url(#clip492)" style="stroke:#000000; stroke-linecap:round; stroke-linejoin:round; stroke-width:4; stroke-opacity:1; fill:none" stroke-dasharray="16, 10" points="749.677,1191.75 749.677,186.616 "/>
<polyline clip-path="url(#clip492)" style="stroke:#00ff7f; stroke-linecap:round; stroke-linejoin:round; stroke-width:4; stroke-opacity:1; fill:none" points="220.375,337.167 833.498,66.8013 "/>
<polyline clip-path="url(#clip492)" style="stroke:#ff4500; stroke-linecap:round; stroke-linejoin:round; stroke-width:4; stroke-opacity:1; fill:none" points="509.617,1007.54 782.637,395.598 "/>
<polyline clip-path="url(#clip492)" style="stroke:#00ff7f; stroke-linecap:round; stroke-linejoin:round; stroke-width:4; stroke-opacity:1; fill:none" points="221.434,728.728 842.13,476.234 "/>
<polyline clip-path="url(#clip492)" style="stroke:#00ff7f; stroke-linecap:round; stroke-linejoin:round; stroke-width:4; stroke-opacity:1; fill:none" points="153.236,648.07 815.176,543.892 "/>
<polyline clip-path="url(#clip492)" style="stroke:#00ff7f; stroke-linecap:round; stroke-linejoin:round; stroke-width:4; stroke-opacity:1; fill:none" points="390.408,705.214 707.491,114.895 "/>
<polyline clip-path="url(#clip492)" style="stroke:#00ff7f; stroke-linecap:round; stroke-linejoin:round; stroke-width:4; stroke-opacity:1; fill:none" points="304.888,465.811 846.959,71.8872 "/>
<polyline clip-path="url(#clip492)" style="stroke:#ff4500; stroke-linecap:round; stroke-linejoin:round; stroke-width:4; stroke-opacity:1; fill:none" points="616.856,558.446 837.382,-74.3138 "/>
<polyline clip-path="url(#clip492)" style="stroke:#ff4500; stroke-linecap:round; stroke-linejoin:round; stroke-width:4; stroke-opacity:1; fill:none" points="430.106,719.452 712.034,111.559 "/>
<polyline clip-path="url(#clip492)" style="stroke:#00ff7f; stroke-linecap:round; stroke-linejoin:round; stroke-width:4; stroke-opacity:1; fill:none" points="345.292,956.022 886.225,560.535 "/>
<polyline clip-path="url(#clip492)" style="stroke:#00ff7f; stroke-linecap:round; stroke-linejoin:round; stroke-width:4; stroke-opacity:1; fill:none" points="340.701,462.292 844.749,20.7577 "/>
<polyline clip-path="url(#clip492)" style="stroke:#00ff7f; stroke-linecap:round; stroke-linejoin:round; stroke-width:4; stroke-opacity:1; fill:none" points="169.221,1026.06 835.739,956.989 "/>
<polyline clip-path="url(#clip492)" style="stroke:#00ff7f; stroke-linecap:round; stroke-linejoin:round; stroke-width:4; stroke-opacity:1; fill:none" points="259.869,709.619 744.263,246.608 "/>
<polyline clip-path="url(#clip492)" style="stroke:#00ff7f; stroke-linecap:round; stroke-linejoin:round; stroke-width:4; stroke-opacity:1; fill:none" points="346.963,1132.39 941.219,822.748 "/>
<polyline clip-path="url(#clip492)" style="stroke:#00ff7f; stroke-linecap:round; stroke-linejoin:round; stroke-width:4; stroke-opacity:1; fill:none" points="333.241,687.062 728.061,145.643 "/>
<polyline clip-path="url(#clip492)" style="stroke:#00ff7f; stroke-linecap:round; stroke-linejoin:round; stroke-width:4; stroke-opacity:1; fill:none" points="282.076,348.16 925.746,161.862 "/>
<polyline clip-path="url(#clip492)" style="stroke:#00ff7f; stroke-linecap:round; stroke-linejoin:round; stroke-width:4; stroke-opacity:1; fill:none" points="409.214,1142.96 935.946,728.753 "/>
<polyline clip-path="url(#clip492)" style="stroke:#00ff7f; stroke-linecap:round; stroke-linejoin:round; stroke-width:4; stroke-opacity:1; fill:none" points="383.728,662.561 1043.29,544.244 "/>
<polyline clip-path="url(#clip492)" style="stroke:#00ff7f; stroke-linecap:round; stroke-linejoin:round; stroke-width:4; stroke-opacity:1; fill:none" points="407.046,787.321 1015.03,505.581 "/>
<polyline clip-path="url(#clip492)" style="stroke:#ff4500; stroke-linecap:round; stroke-linejoin:round; stroke-width:4; stroke-opacity:1; fill:none" points="478.89,1320.59 963.06,857.347 "/>
<polyline clip-path="url(#clip492)" style="stroke:#00ff7f; stroke-linecap:round; stroke-linejoin:round; stroke-width:4; stroke-opacity:1; fill:none" points="380.045,1136.73 957.763,797.232 "/>
<polyline clip-path="url(#clip492)" style="stroke:#00ff7f; stroke-linecap:round; stroke-linejoin:round; stroke-width:4; stroke-opacity:1; fill:none" points="347.06,520.475 1012.2,439.189 "/>
<polyline clip-path="url(#clip492)" style="stroke:#00ff7f; stroke-linecap:round; stroke-linejoin:round; stroke-width:4; stroke-opacity:1; fill:none" points="222.619,1340.56 641.345,817.411 "/>
<polyline clip-path="url(#clip492)" style="stroke:#00ff7f; stroke-linecap:round; stroke-linejoin:round; stroke-width:4; stroke-opacity:1; fill:none" points="181.876,845.114 662.097,377.775 "/>
<polyline clip-path="url(#clip492)" style="stroke:#00ff7f; stroke-linecap:round; stroke-linejoin:round; stroke-width:4; stroke-opacity:1; fill:none" points="198.156,1224.06 761.708,861.529 "/>
<polyline clip-path="url(#clip492)" style="stroke:#00ff7f; stroke-linecap:round; stroke-linejoin:round; stroke-width:4; stroke-opacity:1; fill:none" points="295.867,869.114 954.949,748.162 "/>
<polyline clip-path="url(#clip492)" style="stroke:#00ff7f; stroke-linecap:round; stroke-linejoin:round; stroke-width:4; stroke-opacity:1; fill:none" points="134.557,1316.25 723.032,995.759 "/>
<polyline clip-path="url(#clip492)" style="stroke:#00ff7f; stroke-linecap:round; stroke-linejoin:round; stroke-width:4; stroke-opacity:1; fill:none" points="271.573,1040.33 932.391,929.259 "/>
<polyline clip-path="url(#clip492)" style="stroke:#00ff7f; stroke-linecap:round; stroke-linejoin:round; stroke-width:4; stroke-opacity:1; fill:none" points="300.964,1234.34 708.331,702.297 "/>
<polyline clip-path="url(#clip492)" style="stroke:#00ff7f; stroke-linecap:round; stroke-linejoin:round; stroke-width:4; stroke-opacity:1; fill:none" points="197.683,1245.63 720.727,826.774 "/>
<polyline clip-path="url(#clip492)" style="stroke:#00ff7f; stroke-linecap:round; stroke-linejoin:round; stroke-width:4; stroke-opacity:1; fill:none" points="352.336,1084.49 1016.09,992.608 "/>
<polyline clip-path="url(#clip492)" style="stroke:#ff4500; stroke-linecap:round; stroke-linejoin:round; stroke-width:4; stroke-opacity:1; fill:none" points="460.482,539.238 812.339,-31.0369 "/>
<polyline clip-path="url(#clip492)" style="stroke:#00ff7f; stroke-linecap:round; stroke-linejoin:round; stroke-width:4; stroke-opacity:1; fill:none" points="320.651,760.954 937.145,498.366 "/>
<polyline clip-path="url(#clip492)" style="stroke:#00ff7f; stroke-linecap:round; stroke-linejoin:round; stroke-width:4; stroke-opacity:1; fill:none" points="301.209,1062.76 967.582,992.296 "/>
<polyline clip-path="url(#clip492)" style="stroke:#00ff7f; stroke-linecap:round; stroke-linejoin:round; stroke-width:4; stroke-opacity:1; fill:none" points="411.272,863.085 908.759,414.171 "/>
<polyline clip-path="url(#clip492)" style="stroke:#00ff7f; stroke-linecap:round; stroke-linejoin:round; stroke-width:4; stroke-opacity:1; fill:none" points="275.605,1340.34 873.228,1037.25 "/>
<polyline clip-path="url(#clip492)" style="stroke:#ff4500; stroke-linecap:round; stroke-linejoin:round; stroke-width:4; stroke-opacity:1; fill:none" points="597.035,1258.58 623.781,589.025 "/>
<polyline clip-path="url(#clip492)" style="stroke:#00ff7f; stroke-linecap:round; stroke-linejoin:round; stroke-width:4; stroke-opacity:1; fill:none" points="332.568,933.382 939.065,648.463 "/>
<polyline clip-path="url(#clip492)" style="stroke:#00ff7f; stroke-linecap:round; stroke-linejoin:round; stroke-width:4; stroke-opacity:1; fill:none" points="223.836,901.164 652.491,386.119 "/>
<polyline clip-path="url(#clip492)" style="stroke:#ff4500; stroke-linecap:round; stroke-linejoin:round; stroke-width:4; stroke-opacity:1; fill:none" points="544.395,719.971 597.105,51.96 "/>
<polyline clip-path="url(#clip492)" style="stroke:#00ff7f; stroke-linecap:round; stroke-linejoin:round; stroke-width:4; stroke-opacity:1; fill:none" points="411.754,1126.42 814.166,590.618 "/>
<polyline clip-path="url(#clip492)" style="stroke:#00ff7f; stroke-linecap:round; stroke-linejoin:round; stroke-width:4; stroke-opacity:1; fill:none" points="281.834,413.631 882.258,116.127 "/>
<polyline clip-path="url(#clip492)" style="stroke:#ff4500; stroke-linecap:round; stroke-linejoin:round; stroke-width:4; stroke-opacity:1; fill:none" points="589.376,834.416 607.207,164.566 "/>
<polyline clip-path="url(#clip492)" style="stroke:#00ff7f; stroke-linecap:round; stroke-linejoin:round; stroke-width:4; stroke-opacity:1; fill:none" points="235.979,1073.52 856.645,820.953 "/>
<polyline clip-path="url(#clip492)" style="stroke:#00ff7f; stroke-linecap:round; stroke-linejoin:round; stroke-width:4; stroke-opacity:1; fill:none" points="307.997,548.313 965.802,420.602 "/>
<polyline clip-path="url(#clip492)" style="stroke:#00ff7f; stroke-linecap:round; stroke-linejoin:round; stroke-width:4; stroke-opacity:1; fill:none" points="407.933,1328.67 432.293,659.028 "/>
<polyline clip-path="url(#clip492)" style="stroke:#00ff7f; stroke-linecap:round; stroke-linejoin:round; stroke-width:4; stroke-opacity:1; fill:none" points="345.883,887.157 797.536,392.155 "/>
<polyline clip-path="url(#clip492)" style="stroke:#00ff7f; stroke-linecap:round; stroke-linejoin:round; stroke-width:4; stroke-opacity:1; fill:none" points="190.953,1291.54 799.235,1010.45 "/>
<polyline clip-path="url(#clip492)" style="stroke:#00ff7f; stroke-linecap:round; stroke-linejoin:round; stroke-width:4; stroke-opacity:1; fill:none" points="330.634,812.587 986.343,674.519 "/>
<polyline clip-path="url(#clip492)" style="stroke:#ff4500; stroke-linecap:round; stroke-linejoin:round; stroke-width:4; stroke-opacity:1; fill:none" points="691.979,673.403 790.111,10.5397 "/>
<polyline clip-path="url(#clip492)" style="stroke:#00ff7f; stroke-linecap:round; stroke-linejoin:round; stroke-width:4; stroke-opacity:1; fill:none" points="375.638,786.188 932.848,413.986 "/>
<polyline clip-path="url(#clip492)" style="stroke:#00ff7f; stroke-linecap:round; stroke-linejoin:round; stroke-width:4; stroke-opacity:1; fill:none" points="362.688,1100.59 799.844,592.744 "/>
<polyline clip-path="url(#clip492)" style="stroke:#00ff7f; stroke-linecap:round; stroke-linejoin:round; stroke-width:4; stroke-opacity:1; fill:none" points="272.563,785.433 940.676,734.034 "/>
<polyline clip-path="url(#clip492)" style="stroke:#00ff7f; stroke-linecap:round; stroke-linejoin:round; stroke-width:4; stroke-opacity:1; fill:none" points="137.561,599.928 733.931,294.379 "/>
<polyline clip-path="url(#clip492)" style="stroke:#00ff7f; stroke-linecap:round; stroke-linejoin:round; stroke-width:4; stroke-opacity:1; fill:none" points="218.037,815.388 643.86,297.999 "/>
<polyline clip-path="url(#clip492)" style="stroke:#00ff7f; stroke-linecap:round; stroke-linejoin:round; stroke-width:4; stroke-opacity:1; fill:none" points="271.538,1059.9 855.569,731.383 "/>
<polyline clip-path="url(#clip492)" style="stroke:#00ff7f; stroke-linecap:round; stroke-linejoin:round; stroke-width:4; stroke-opacity:1; fill:none" points="409.693,845.826 700.736,242.244 "/>
<polyline clip-path="url(#clip492)" style="stroke:#ff4500; stroke-linecap:round; stroke-linejoin:round; stroke-width:4; stroke-opacity:1; fill:none" points="520.185,483.772 906.437,-63.7922 "/>
<polyline clip-path="url(#clip492)" style="stroke:#00ff7f; stroke-linecap:round; stroke-linejoin:round; stroke-width:4; stroke-opacity:1; fill:none" points="377.313,1249.94 829.36,755.299 "/>
<polyline clip-path="url(#clip492)" style="stroke:#00ff7f; stroke-linecap:round; stroke-linejoin:round; stroke-width:4; stroke-opacity:1; fill:none" points="350.63,1268.89 775.736,750.911 "/>
<polyline clip-path="url(#clip492)" style="stroke:#ff4500; stroke-linecap:round; stroke-linejoin:round; stroke-width:4; stroke-opacity:1; fill:none" points="531.888,1422.7 791.595,804.991 "/>
<polyline clip-path="url(#clip492)" style="stroke:#00ff7f; stroke-linecap:round; stroke-linejoin:round; stroke-width:4; stroke-opacity:1; fill:none" points="356.687,383.758 989.23,162.61 "/>
<polyline clip-path="url(#clip492)" style="stroke:#00ff7f; stroke-linecap:round; stroke-linejoin:round; stroke-width:4; stroke-opacity:1; fill:none" points="257.882,596.023 773.117,167.596 "/>
<polyline clip-path="url(#clip492)" style="stroke:#ff4500; stroke-linecap:round; stroke-linejoin:round; stroke-width:4; stroke-opacity:1; fill:none" points="709.472,1076.23 709.823,406.145 "/>
<polyline clip-path="url(#clip492)" style="stroke:#00ff7f; stroke-linecap:round; stroke-linejoin:round; stroke-width:4; stroke-opacity:1; fill:none" points="255.211,1077.05 894.523,876.305 "/>
<polyline clip-path="url(#clip492)" style="stroke:#ff4500; stroke-linecap:round; stroke-linejoin:round; stroke-width:4; stroke-opacity:1; fill:none" points="638.927,1314.48 689.425,646.296 "/>
<polyline clip-path="url(#clip492)" style="stroke:#00ff7f; stroke-linecap:round; stroke-linejoin:round; stroke-width:4; stroke-opacity:1; fill:none" points="327.347,736.947 971.15,551.108 "/>
<polyline clip-path="url(#clip492)" style="stroke:#00ff7f; stroke-linecap:round; stroke-linejoin:round; stroke-width:4; stroke-opacity:1; fill:none" points="331.447,1378.73 570.04,752.561 "/>
<polyline clip-path="url(#clip492)" style="stroke:#00ff7f; stroke-linecap:round; stroke-linejoin:round; stroke-width:4; stroke-opacity:1; fill:none" points="256.339,729.937 732.978,258.946 "/>
<polyline clip-path="url(#clip492)" style="stroke:#00ff7f; stroke-linecap:round; stroke-linejoin:round; stroke-width:4; stroke-opacity:1; fill:none" points="375.689,883.448 1040.02,795.786 "/>
<polyline clip-path="url(#clip492)" style="stroke:#ff4500; stroke-linecap:round; stroke-linejoin:round; stroke-width:4; stroke-opacity:1; fill:none" points="642.399,1470.67 673.525,801.306 "/>
<polyline clip-path="url(#clip492)" style="stroke:#00ff7f; stroke-linecap:round; stroke-linejoin:round; stroke-width:4; stroke-opacity:1; fill:none" points="313.303,1067.37 838.483,651.194 "/>
<polyline clip-path="url(#clip492)" style="stroke:#ff4500; stroke-linecap:round; stroke-linejoin:round; stroke-width:4; stroke-opacity:1; fill:none" points="576.99,1140.53 738.992,490.323 "/>
<polyline clip-path="url(#clip492)" style="stroke:#00ff7f; stroke-linecap:round; stroke-linejoin:round; stroke-width:4; stroke-opacity:1; fill:none" points="204.942,1151.93 710.011,711.561 "/>
<polyline clip-path="url(#clip492)" style="stroke:#00ff7f; stroke-linecap:round; stroke-linejoin:round; stroke-width:4; stroke-opacity:1; fill:none" points="92.2012,1102.58 743.833,946.394 "/>
<polyline clip-path="url(#clip492)" style="stroke:#ff4500; stroke-linecap:round; stroke-linejoin:round; stroke-width:4; stroke-opacity:1; fill:none" points="575.437,1419.37 659.038,754.52 "/>
<polyline clip-path="url(#clip492)" style="stroke:#00ff7f; stroke-linecap:round; stroke-linejoin:round; stroke-width:4; stroke-opacity:1; fill:none" points="372.702,1049.43 868.724,598.898 "/>
<polyline clip-path="url(#clip492)" style="stroke:#ff4500; stroke-linecap:round; stroke-linejoin:round; stroke-width:4; stroke-opacity:1; fill:none" points="660.232,1060.26 670.451,390.253 "/>
<polyline clip-path="url(#clip492)" style="stroke:#ff4500; stroke-linecap:round; stroke-linejoin:round; stroke-width:4; stroke-opacity:1; fill:none" points="470.392,1297.2 979.931,862.016 "/>
<polyline clip-path="url(#clip492)" style="stroke:#00ff7f; stroke-linecap:round; stroke-linejoin:round; stroke-width:4; stroke-opacity:1; fill:none" points="305.558,775.283 958.734,625.686 "/>
<polyline clip-path="url(#clip492)" style="stroke:#00ff7f; stroke-linecap:round; stroke-linejoin:round; stroke-width:4; stroke-opacity:1; fill:none" points="200.809,952.454 642.159,448.244 "/>
<polyline clip-path="url(#clip492)" style="stroke:#ff4500; stroke-linecap:round; stroke-linejoin:round; stroke-width:4; stroke-opacity:1; fill:none" points="588.803,666.552 594.553,-3.51066 "/>
<polyline clip-path="url(#clip492)" style="stroke:#ff4500; stroke-linecap:round; stroke-linejoin:round; stroke-width:4; stroke-opacity:1; fill:none" points="519.667,1257.56 637.709,597.948 "/>
<polyline clip-path="url(#clip492)" style="stroke:#00ff7f; stroke-linecap:round; stroke-linejoin:round; stroke-width:4; stroke-opacity:1; fill:none" points="178.093,661.798 846.418,613.222 "/>
<polyline clip-path="url(#clip492)" style="stroke:#ff4500; stroke-linecap:round; stroke-linejoin:round; stroke-width:4; stroke-opacity:1; fill:none" points="570.617,1026.71 705.749,370.394 "/>
<polyline clip-path="url(#clip492)" style="stroke:#ff4500; stroke-linecap:round; stroke-linejoin:round; stroke-width:4; stroke-opacity:1; fill:none" points="460.051,794.303 725.432,179.006 "/>
<polyline clip-path="url(#clip492)" style="stroke:#00ff7f; stroke-linecap:round; stroke-linejoin:round; stroke-width:4; stroke-opacity:1; fill:none" points="384.484,518.622 690.384,-77.5677 "/>
<polyline clip-path="url(#clip492)" style="stroke:#00ff7f; stroke-linecap:round; stroke-linejoin:round; stroke-width:4; stroke-opacity:1; fill:none" points="337.764,1085.44 855.71,660.295 "/>
<polyline clip-path="url(#clip492)" style="stroke:#00ff7f; stroke-linecap:round; stroke-linejoin:round; stroke-width:4; stroke-opacity:1; fill:none" points="272.509,753.254 931.018,629.229 "/>
<polyline clip-path="url(#clip492)" style="stroke:#00ff7f; stroke-linecap:round; stroke-linejoin:round; stroke-width:4; stroke-opacity:1; fill:none" points="405.688,708.567 1070.94,628.177 "/>
<polyline clip-path="url(#clip492)" style="stroke:#00ff7f; stroke-linecap:round; stroke-linejoin:round; stroke-width:4; stroke-opacity:1; fill:none" points="375.911,1122.94 763.279,576.164 "/>
<polyline clip-path="url(#clip492)" style="stroke:#ff4500; stroke-linecap:round; stroke-linejoin:round; stroke-width:4; stroke-opacity:1; fill:none" points="582.697,1228.93 711.207,571.281 "/>
<polyline clip-path="url(#clip492)" style="stroke:#00ff7f; stroke-linecap:round; stroke-linejoin:round; stroke-width:4; stroke-opacity:1; fill:none" points="169.712,1015.01 836.628,949.892 "/>
<polyline clip-path="url(#clip492)" style="stroke:#00ff7f; stroke-linecap:round; stroke-linejoin:round; stroke-width:4; stroke-opacity:1; fill:none" points="324.912,583.699 975.665,423.891 "/>
<polyline clip-path="url(#clip492)" style="stroke:#ff4500; stroke-linecap:round; stroke-linejoin:round; stroke-width:4; stroke-opacity:1; fill:none" points="451.895,1011.25 1014.73,647.608 "/>
<polyline clip-path="url(#clip492)" style="stroke:#00ff7f; stroke-linecap:round; stroke-linejoin:round; stroke-width:4; stroke-opacity:1; fill:none" points="355.377,867.185 781.61,350.133 "/>
<polyline clip-path="url(#clip492)" style="stroke:#ff4500; stroke-linecap:round; stroke-linejoin:round; stroke-width:4; stroke-opacity:1; fill:none" points="451.104,965.13 861.693,435.569 "/>
<polyline clip-path="url(#clip492)" style="stroke:#00ff7f; stroke-linecap:round; stroke-linejoin:round; stroke-width:4; stroke-opacity:1; fill:none" points="160.082,1297.02 773.77,1027.94 "/>
<polyline clip-path="url(#clip492)" style="stroke:#00ff7f; stroke-linecap:round; stroke-linejoin:round; stroke-width:4; stroke-opacity:1; fill:none" points="170.786,1154.69 689.011,729.883 "/>
<polyline clip-path="url(#clip492)" style="stroke:#00ff7f; stroke-linecap:round; stroke-linejoin:round; stroke-width:4; stroke-opacity:1; fill:none" points="307.423,799.713 859.841,420.435 "/>
<polyline clip-path="url(#clip492)" style="stroke:#ff4500; stroke-linecap:round; stroke-linejoin:round; stroke-width:4; stroke-opacity:1; fill:none" points="519.344,1347.23 655.768,691.172 "/>
</svg>
