<svg xmlns="http://www.w3.org/2000/svg" xmlns:xlink="http://www.w3.org/1999/xlink" width="600" height="400" viewBox="0 0 2400 1600">
<defs>
  <clipPath id="clip800">
    <rect x="0" y="0" width="2400" height="1600"></rect>
  </clipPath>
</defs>
<path clip-path="url(#clip800)" d="M0 1600 L2400 1600 L2400 0 L0 0  Z" fill="#ffffff" fill-rule="evenodd" fill-opacity="1"></path>
<defs>
  <clipPath id="clip801">
    <rect x="480" y="0" width="1681" height="1600"></rect>
  </clipPath>
</defs>
<path clip-path="url(#clip800)" d="M156.922 1474.16 L2352.76 1474.16 L2352.76 47.2441 L156.922 47.2441  Z" fill="#ffffff" fill-rule="evenodd" fill-opacity="1"></path>
<defs>
  <clipPath id="clip802">
    <rect x="156" y="47" width="2197" height="1428"></rect>
  </clipPath>
</defs>
<polyline clip-path="url(#clip802)" style="stroke:#000000; stroke-linecap:round; stroke-linejoin:round; stroke-width:2; stroke-opacity:0.1; fill:none" points="156.922,1474.16 156.922,47.2441 "></polyline>
<polyline clip-path="url(#clip802)" style="stroke:#000000; stroke-linecap:round; stroke-linejoin:round; stroke-width:2; stroke-opacity:0.1; fill:none" points="2352.76,1474.16 2352.76,47.2441 "></polyline>
<polyline clip-path="url(#clip800)" style="stroke:#000000; stroke-linecap:round; stroke-linejoin:round; stroke-width:4; stroke-opacity:1; fill:none" points="156.922,1474.16 2352.76,1474.16 "></polyline>
<polyline clip-path="url(#clip800)" style="stroke:#000000; stroke-linecap:round; stroke-linejoin:round; stroke-width:4; stroke-opacity:1; fill:none" points="156.922,1474.16 156.922,1455.27 "></polyline>
<polyline clip-path="url(#clip800)" style="stroke:#000000; stroke-linecap:round; stroke-linejoin:round; stroke-width:4; stroke-opacity:1; fill:none" points="2352.76,1474.16 2352.76,1455.27 "></polyline>
<path clip-path="url(#clip800)" d="M103.539 1548.29 L111.178 1548.29 L111.178 1521.92 L102.868 1523.59 L102.868 1519.33 L111.132 1517.66 L115.808 1517.66 L115.808 1548.29 L123.447 1548.29 L123.447 1552.22 L103.539 1552.22 L103.539 1548.29 Z" fill="#000000" fill-rule="nonzero" fill-opacity="1"></path><path clip-path="url(#clip800)" d="M142.891 1520.74 Q139.28 1520.74 137.451 1524.31 Q135.646 1527.85 135.646 1534.98 Q135.646 1542.09 137.451 1545.65 Q139.28 1549.19 142.891 1549.19 Q146.525 1549.19 148.331 1545.65 Q150.159 1542.09 150.159 1534.98 Q150.159 1527.85 148.331 1524.31 Q146.525 1520.74 142.891 1520.74 M142.891 1517.04 Q148.701 1517.04 151.757 1521.65 Q154.835 1526.23 154.835 1534.98 Q154.835 1543.71 151.757 1548.31 Q148.701 1552.9 142.891 1552.9 Q137.081 1552.9 134.002 1548.31 Q130.947 1543.71 130.947 1534.98 Q130.947 1526.23 134.002 1521.65 Q137.081 1517.04 142.891 1517.04 Z" fill="#000000" fill-rule="nonzero" fill-opacity="1"></path><path clip-path="url(#clip800)" d="M154.835 1511.14 L178.947 1511.14 L178.947 1514.34 L154.835 1514.34 L154.835 1511.14 Z" fill="#000000" fill-rule="nonzero" fill-opacity="1"></path><path clip-path="url(#clip800)" d="M200.576 1518.25 Q199.993 1517.57 199.071 1515.99 Q197.811 1518.25 196.701 1519.25 Q195.31 1520.45 193.147 1520.45 Q190.608 1520.45 188.934 1518.55 Q187.166 1516.56 187.166 1513.27 Q187.166 1510.11 188.934 1507.96 Q190.514 1506.06 193.184 1506.06 Q194.557 1506.06 195.573 1506.63 Q196.758 1507.25 197.567 1508.32 Q198.319 1509.28 199.071 1510.58 Q200.331 1508.32 201.441 1507.32 Q202.833 1506.12 204.996 1506.12 Q207.535 1506.12 209.209 1508.02 Q210.977 1510.01 210.977 1513.3 Q210.977 1516.46 209.209 1518.61 Q207.629 1520.51 204.958 1520.51 Q203.585 1520.51 202.569 1519.94 Q201.554 1519.44 200.576 1518.25 M192.94 1517.99 Q196.043 1517.99 197.905 1513.47 Q195.517 1508.55 192.94 1508.55 Q191.059 1508.55 190.1 1509.9 Q189.066 1511.35 189.066 1513.27 Q189.066 1515.37 190.1 1516.67 Q191.153 1517.99 192.94 1517.99 M205.203 1508.58 Q202.4 1508.58 200.237 1513.1 Q202.607 1518.02 205.203 1518.02 Q207.083 1518.02 208.043 1516.67 Q209.077 1515.22 209.077 1513.3 Q209.077 1511.2 208.043 1509.9 Q206.989 1508.58 205.203 1508.58 Z" fill="#000000" fill-rule="nonzero" fill-opacity="1"></path><path clip-path="url(#clip800)" d="M2318.2 1548.29 L2325.84 1548.29 L2325.84 1521.92 L2317.53 1523.59 L2317.53 1519.33 L2325.79 1517.66 L2330.47 1517.66 L2330.47 1548.29 L2338.11 1548.29 L2338.11 1552.22 L2318.2 1552.22 L2318.2 1548.29 Z" fill="#000000" fill-rule="nonzero" fill-opacity="1"></path><path clip-path="url(#clip800)" d="M2357.55 1520.74 Q2353.94 1520.74 2352.11 1524.31 Q2350.31 1527.85 2350.31 1534.98 Q2350.31 1542.09 2352.11 1545.65 Q2353.94 1549.19 2357.55 1549.19 Q2361.19 1549.19 2362.99 1545.65 Q2364.82 1542.09 2364.82 1534.98 Q2364.82 1527.85 2362.99 1524.31 Q2361.19 1520.74 2357.55 1520.74 M2357.55 1517.04 Q2363.36 1517.04 2366.42 1521.65 Q2369.5 1526.23 2369.5 1534.98 Q2369.5 1543.71 2366.42 1548.31 Q2363.36 1552.9 2357.55 1552.9 Q2351.74 1552.9 2348.66 1548.31 Q2345.61 1543.71 2345.61 1534.98 Q2345.61 1526.23 2348.66 1521.65 Q2351.74 1517.04 2357.55 1517.04 Z" fill="#000000" fill-rule="nonzero" fill-opacity="1"></path><path clip-path="url(#clip800)" d="M2382.19 1509.67 Q2384.92 1510.26 2386.44 1512.1 Q2387.98 1513.94 2387.98 1516.65 Q2387.98 1520.81 2385.12 1523.08 Q2382.27 1525.36 2377 1525.36 Q2375.23 1525.36 2373.35 1525 Q2371.49 1524.66 2369.5 1523.97 L2369.5 1520.3 Q2371.08 1521.22 2372.96 1521.69 Q2374.84 1522.16 2376.89 1522.16 Q2380.46 1522.16 2382.32 1520.75 Q2384.2 1519.34 2384.2 1516.65 Q2384.2 1514.17 2382.45 1512.78 Q2380.72 1511.37 2377.62 1511.37 L2374.35 1511.37 L2374.35 1508.24 L2377.77 1508.24 Q2380.57 1508.24 2382.06 1507.13 Q2383.54 1506.01 2383.54 1503.9 Q2383.54 1501.74 2382 1500.59 Q2380.48 1499.42 2377.62 1499.42 Q2376.06 1499.42 2374.27 1499.76 Q2372.49 1500.1 2370.34 1500.82 L2370.34 1497.43 Q2372.5 1496.83 2374.39 1496.53 Q2376.29 1496.23 2377.96 1496.23 Q2382.28 1496.23 2384.81 1498.2 Q2387.33 1500.16 2387.33 1503.51 Q2387.33 1505.84 2385.99 1507.45 Q2384.65 1509.05 2382.19 1509.67 Z" fill="#000000" fill-rule="nonzero" fill-opacity="1"></path><polyline clip-path="url(#clip802)" style="stroke:#000000; stroke-linecap:round; stroke-linejoin:round; stroke-width:2; stroke-opacity:0.1; fill:none" points="156.922,1474.16 2352.76,1474.16 "></polyline>
<polyline clip-path="url(#clip802)" style="stroke:#000000; stroke-linecap:round; stroke-linejoin:round; stroke-width:2; stroke-opacity:0.1; fill:none" points="156.922,1117.43 2352.76,1117.43 "></polyline>
<polyline clip-path="url(#clip802)" style="stroke:#000000; stroke-linecap:round; stroke-linejoin:round; stroke-width:2; stroke-opacity:0.1; fill:none" points="156.922,760.704 2352.76,760.704 "></polyline>
<polyline clip-path="url(#clip802)" style="stroke:#000000; stroke-linecap:round; stroke-linejoin:round; stroke-width:2; stroke-opacity:0.1; fill:none" points="156.922,403.974 2352.76,403.974 "></polyline>
<polyline clip-path="url(#clip802)" style="stroke:#000000; stroke-linecap:round; stroke-linejoin:round; stroke-width:2; stroke-opacity:0.1; fill:none" points="156.922,47.2441 2352.76,47.2441 "></polyline>
<polyline clip-path="url(#clip800)" style="stroke:#000000; stroke-linecap:round; stroke-linejoin:round; stroke-width:4; stroke-opacity:1; fill:none" points="156.922,1474.16 156.922,47.2441 "></polyline>
<path clip-path="url(#clip800)" d="M57.7745 1487.51 L74.0939 1487.51 L74.0939 1491.44 L52.1495 1491.44 L52.1495 1487.51 Q54.8115 1484.75 59.3949 1480.13 Q64.0013 1475.47 65.1819 1474.13 Q67.4272 1471.61 68.3068 1469.87 Q69.2096 1468.11 69.2096 1466.42 Q69.2096 1463.67 67.2652 1461.93 Q65.3439 1460.19 62.2421 1460.19 Q60.043 1460.19 57.5893 1460.96 Q55.1588 1461.72 52.381 1463.27 L52.381 1458.55 Q55.2051 1457.42 57.6588 1456.84 Q60.1124 1456.26 62.1495 1456.26 Q67.5198 1456.26 70.7142 1458.94 Q73.9087 1461.63 73.9087 1466.12 Q73.9087 1468.25 73.0985 1470.17 Q72.3115 1472.07 70.205 1474.66 Q69.6263 1475.33 66.5245 1478.55 Q63.4226 1481.75 57.7745 1487.51 Z" fill="#000000" fill-rule="nonzero" fill-opacity="1"></path><path clip-path="url(#clip800)" d="M83.9086 1485.57 L88.7928 1485.57 L88.7928 1491.44 L83.9086 1491.44 L83.9086 1485.57 Z" fill="#000000" fill-rule="nonzero" fill-opacity="1"></path><path clip-path="url(#clip800)" d="M108.978 1459.96 Q105.367 1459.96 103.538 1463.53 Q101.733 1467.07 101.733 1474.2 Q101.733 1481.31 103.538 1484.87 Q105.367 1488.41 108.978 1488.41 Q112.612 1488.41 114.418 1484.87 Q116.246 1481.31 116.246 1474.2 Q116.246 1467.07 114.418 1463.53 Q112.612 1459.96 108.978 1459.96 M108.978 1456.26 Q114.788 1456.26 117.844 1460.87 Q120.922 1465.45 120.922 1474.2 Q120.922 1482.93 117.844 1487.53 Q114.788 1492.12 108.978 1492.12 Q103.168 1492.12 100.089 1487.53 Q97.0335 1482.93 97.0335 1474.2 Q97.0335 1465.45 100.089 1460.87 Q103.168 1456.26 108.978 1456.26 Z" fill="#000000" fill-rule="nonzero" fill-opacity="1"></path><path clip-path="url(#clip800)" d="M58.7699 1130.78 L75.0892 1130.78 L75.0892 1134.71 L53.1449 1134.71 L53.1449 1130.78 Q55.8069 1128.02 60.3902 1123.4 Q64.9967 1118.74 66.1772 1117.4 Q68.4226 1114.88 69.3022 1113.14 Q70.205 1111.38 70.205 1109.69 Q70.205 1106.94 68.2606 1105.2 Q66.3393 1103.46 63.2374 1103.46 Q61.0384 1103.46 58.5847 1104.23 Q56.1541 1104.99 53.3764 1106.54 L53.3764 1101.82 Q56.2004 1100.69 58.6541 1100.11 Q61.1078 1099.53 63.1448 1099.53 Q68.5152 1099.53 71.7096 1102.21 Q74.904 1104.9 74.904 1109.39 Q74.904 1111.52 74.0939 1113.44 Q73.3068 1115.34 71.2004 1117.93 Q70.6217 1118.6 67.5198 1121.82 Q64.418 1125.02 58.7699 1130.78 Z" fill="#000000" fill-rule="nonzero" fill-opacity="1"></path><path clip-path="url(#clip800)" d="M84.904 1128.83 L89.7882 1128.83 L89.7882 1134.71 L84.904 1134.71 L84.904 1128.83 Z" fill="#000000" fill-rule="nonzero" fill-opacity="1"></path><path clip-path="url(#clip800)" d="M100.02 1100.15 L118.376 1100.15 L118.376 1104.09 L104.302 1104.09 L104.302 1112.56 Q105.321 1112.21 106.339 1112.05 Q107.358 1111.87 108.376 1111.87 Q114.163 1111.87 117.543 1115.04 Q120.922 1118.21 120.922 1123.63 Q120.922 1129.21 117.45 1132.31 Q113.978 1135.39 107.658 1135.39 Q105.483 1135.39 103.214 1135.02 Q100.969 1134.65 98.5613 1133.9 L98.5613 1129.21 Q100.645 1130.34 102.867 1130.9 Q105.089 1131.45 107.566 1131.45 Q111.571 1131.45 113.908 1129.34 Q116.246 1127.24 116.246 1123.63 Q116.246 1120.02 113.908 1117.91 Q111.571 1115.8 107.566 1115.8 Q105.691 1115.8 103.816 1116.22 Q101.964 1116.64 100.02 1117.52 L100.02 1100.15 Z" fill="#000000" fill-rule="nonzero" fill-opacity="1"></path><path clip-path="url(#clip800)" d="M67.9133 759.35 Q71.2698 760.068 73.1448 762.336 Q75.0429 764.605 75.0429 767.938 Q75.0429 773.054 71.5244 775.855 Q68.0059 778.656 61.5245 778.656 Q59.3486 778.656 57.0338 778.216 Q54.7421 777.799 52.2884 776.943 L52.2884 772.429 Q54.2328 773.563 56.5477 774.142 Q58.8625 774.721 61.3856 774.721 Q65.7837 774.721 68.0754 772.984 Q70.3902 771.248 70.3902 767.938 Q70.3902 764.883 68.2374 763.17 Q66.1078 761.434 62.2884 761.434 L58.2606 761.434 L58.2606 757.591 L62.4735 757.591 Q65.9226 757.591 67.7513 756.225 Q69.58 754.836 69.58 752.244 Q69.58 749.582 67.6819 748.17 Q65.8069 746.735 62.2884 746.735 Q60.3671 746.735 58.168 747.151 Q55.969 747.568 53.3301 748.448 L53.3301 744.281 Q55.9921 743.54 58.3069 743.17 Q60.6449 742.799 62.705 742.799 Q68.0291 742.799 71.1309 745.23 Q74.2327 747.637 74.2327 751.758 Q74.2327 754.628 72.5892 756.619 Q70.9457 758.586 67.9133 759.35 Z" fill="#000000" fill-rule="nonzero" fill-opacity="1"></path><path clip-path="url(#clip800)" d="M83.9086 772.105 L88.7928 772.105 L88.7928 777.984 L83.9086 777.984 L83.9086 772.105 Z" fill="#000000" fill-rule="nonzero" fill-opacity="1"></path><path clip-path="url(#clip800)" d="M108.978 746.503 Q105.367 746.503 103.538 750.068 Q101.733 753.61 101.733 760.739 Q101.733 767.846 103.538 771.41 Q105.367 774.952 108.978 774.952 Q112.612 774.952 114.418 771.41 Q116.246 767.846 116.246 760.739 Q116.246 753.61 114.418 750.068 Q112.612 746.503 108.978 746.503 M108.978 742.799 Q114.788 742.799 117.844 747.406 Q120.922 751.989 120.922 760.739 Q120.922 769.466 117.844 774.072 Q114.788 778.656 108.978 778.656 Q103.168 778.656 100.089 774.072 Q97.0335 769.466 97.0335 760.739 Q97.0335 751.989 100.089 747.406 Q103.168 742.799 108.978 742.799 Z" fill="#000000" fill-rule="nonzero" fill-opacity="1"></path><path clip-path="url(#clip800)" d="M68.9087 402.62 Q72.2652 403.338 74.1402 405.606 Q76.0383 407.875 76.0383 411.208 Q76.0383 416.324 72.5198 419.125 Q69.0013 421.926 62.5198 421.926 Q60.3439 421.926 58.0291 421.486 Q55.7375 421.069 53.2838 420.213 L53.2838 415.699 Q55.2282 416.833 57.543 417.412 Q59.8578 417.99 62.381 417.99 Q66.7791 417.99 69.0707 416.254 Q71.3855 414.518 71.3855 411.208 Q71.3855 408.152 69.2328 406.44 Q67.1032 404.703 63.2837 404.703 L59.256 404.703 L59.256 400.861 L63.4689 400.861 Q66.918 400.861 68.7467 399.495 Q70.5754 398.106 70.5754 395.514 Q70.5754 392.852 68.6772 391.44 Q66.8022 390.004 63.2837 390.004 Q61.3624 390.004 59.1634 390.421 Q56.9643 390.838 54.3254 391.717 L54.3254 387.551 Q56.9875 386.81 59.3023 386.44 Q61.6402 386.069 63.7004 386.069 Q69.0244 386.069 72.1263 388.5 Q75.2281 390.907 75.2281 395.028 Q75.2281 397.898 73.5846 399.889 Q71.9411 401.856 68.9087 402.62 Z" fill="#000000" fill-rule="nonzero" fill-opacity="1"></path><path clip-path="url(#clip800)" d="M84.904 415.375 L89.7882 415.375 L89.7882 421.254 L84.904 421.254 L84.904 415.375 Z" fill="#000000" fill-rule="nonzero" fill-opacity="1"></path><path clip-path="url(#clip800)" d="M100.02 386.694 L118.376 386.694 L118.376 390.629 L104.302 390.629 L104.302 399.102 Q105.321 398.754 106.339 398.592 Q107.358 398.407 108.376 398.407 Q114.163 398.407 117.543 401.578 Q120.922 404.75 120.922 410.166 Q120.922 415.745 117.45 418.847 Q113.978 421.926 107.658 421.926 Q105.483 421.926 103.214 421.555 Q100.969 421.185 98.5613 420.444 L98.5613 415.745 Q100.645 416.879 102.867 417.435 Q105.089 417.99 107.566 417.99 Q111.571 417.99 113.908 415.884 Q116.246 413.777 116.246 410.166 Q116.246 406.555 113.908 404.449 Q111.571 402.342 107.566 402.342 Q105.691 402.342 103.816 402.759 Q101.964 403.176 100.02 404.055 L100.02 386.694 Z" fill="#000000" fill-rule="nonzero" fill-opacity="1"></path><path clip-path="url(#clip800)" d="M66.5939 34.0381 L54.7884 52.4871 L66.5939 52.4871 L66.5939 34.0381 M65.367 29.9641 L71.2466 29.9641 L71.2466 52.4871 L76.1772 52.4871 L76.1772 56.376 L71.2466 56.376 L71.2466 64.5241 L66.5939 64.5241 L66.5939 56.376 L50.9921 56.376 L50.9921 51.8621 L65.367 29.9641 Z" fill="#000000" fill-rule="nonzero" fill-opacity="1"></path><path clip-path="url(#clip800)" d="M83.9086 58.6445 L88.7928 58.6445 L88.7928 64.5241 L83.9086 64.5241 L83.9086 58.6445 Z" fill="#000000" fill-rule="nonzero" fill-opacity="1"></path><path clip-path="url(#clip800)" d="M108.978 33.0428 Q105.367 33.0428 103.538 36.6076 Q101.733 40.1492 101.733 47.2788 Q101.733 54.3853 103.538 57.9501 Q105.367 61.4917 108.978 61.4917 Q112.612 61.4917 114.418 57.9501 Q116.246 54.3853 116.246 47.2788 Q116.246 40.1492 114.418 36.6076 Q112.612 33.0428 108.978 33.0428 M108.978 29.3391 Q114.788 29.3391 117.844 33.9456 Q120.922 38.5289 120.922 47.2788 Q120.922 56.0056 117.844 60.6121 Q114.788 65.1954 108.978 65.1954 Q103.168 65.1954 100.089 60.6121 Q97.0335 56.0056 97.0335 47.2788 Q97.0335 38.5289 100.089 33.9456 Q103.168 29.3391 108.978 29.3391 Z" fill="#000000" fill-rule="nonzero" fill-opacity="1"></path><polyline clip-path="url(#clip802)" style="stroke:#009af9; stroke-linecap:round; stroke-linejoin:round; stroke-width:4; stroke-opacity:1; fill:none" points="159.118,2901.09 170.097,760.704 181.076,939.069 192.056,1632.71 203.035,403.974 214.014,1046.09 224.993,136.427 235.972,1188.78 246.951,241.824 257.931,556.859 268.91,1081.76 279.889,550.863 290.868,483.248 301.847,546.666 312.826,874.858 323.806,436.404 334.785,493.157 345.764,233.364 356.743,1097.62 367.722,266.77 378.702,576.586 389.681,961.937 400.66,817.03 411.639,832.05 422.618,795.507 433.597,946.824 444.577,953.933 455.556,744.85 466.535,447.478 477.514,159.896 488.493,977.291 499.472,760.704 510.452,849.887 521.431,1050.55 532.41,833.26 543.389,1054.48 554.368,1082.26 565.347,760.704 576.327,954.358 587.306,447.783 598.285,792.181 609.264,228.852 620.243,305.566 631.222,873.356 642.202,582.339 653.181,722.139 664.16,403.974 675.139,714.376 686.118,878.215 697.097,529.312 708.077,447.955 719.056,646.198 730.035,350.22 741.014,614.574 751.993,514.076 762.972,637.694 773.952,745.361 784.931,633.867 795.91,273.023 806.889,193.595 817.868,709.743 828.847,717.897 839.827,407.982 850.806,217.116 861.785,490.34 872.764,930 883.743,305.971 894.722,701.795 905.702,648.4 916.681,636.34 927.66,704.379 938.639,711.5 949.618,299.478 960.597,688.149 971.577,749.103 982.556,627.686 993.535,597.455 1004.51,798.828 1015.49,387.905 1026.47,744.366 1037.45,575.089 1048.43,786.743 1059.41,573.846 1070.39,882.041 1081.37,770.824 1092.35,714.509 1103.33,623.297 1114.31,740.886 1125.28,760.704 1136.26,526.434 1147.24,387.253 1158.22,892.827 1169.2,693.668 1180.18,526.282 1191.16,630.546 1202.14,778.541 1213.12,613.256 1224.1,493.157 1235.08,910.693 1246.06,318.047 1257.03,533.909 1268.01,895.469 1278.99,817.781 1289.97,773.077 1300.95,812.811 1311.93,667.275 1322.91,723.801 1333.89,624.807 1344.87,657.004 1355.85,649.355 1366.83,764.582 1377.81,824.206 1388.78,889.773 1399.76,645.116 1410.74,662.702 1421.72,691.66 1432.7,610.917 1443.68,552.278 1454.66,621.869 1465.64,651.232 1476.62,632.357 1487.6,683.87 1498.58,630.647 1509.56,635.665 1520.53,801.28 1531.51,690.065 1542.49,854.751 1553.47,549.993 1564.45,733.654 1575.43,757.386 1586.41,482.009 1597.39,629.095 1608.37,717.765 1619.35,770.303 1630.33,674.425 1641.31,794.975 1652.28,434.758 1663.26,725.824 1674.24,700.188 1685.22,814.664 1696.2,772.848 1707.18,711.072 1718.16,733.264 1729.14,640.742 1740.12,721.404 1751.1,503.066 1762.08,344.519 1773.06,618.012 1784.04,811.464 1795.01,789.016 1805.99,601.477 1816.97,752.177 1827.95,859.945 1838.93,565.57 1849.91,655.869 1860.89,659.607 1871.87,741.347 1882.85,574.198 1893.83,549.639 1904.81,733.473 1915.79,458.856 1926.76,663.541 1937.74,640.865 1948.72,644.56 1959.7,567.416 1970.68,599.061 1981.66,752.949 1992.64,786.004 2003.62,758.156 2014.6,783.235 2025.58,529.387 2036.56,335.026 2047.54,818.749 2058.51,506.292 2069.49,473.648 2080.47,542.628 2091.45,664.222 2102.43,750.997 2113.41,662.729 2124.39,696.739 2135.37,722.008 2146.35,971.548 2157.33,628.49 2168.31,607.999 2179.29,511.642 2190.26,742.052 2201.24,882.144 2212.22,629.661 2223.2,601.886 2234.18,613.175 2245.16,661.809 2256.14,581.126 2267.12,584.75 2278.1,831.408 2289.08,680.669 2300.06,690.491 2311.04,598.768 2322.01,602.158 2332.99,790.521 2343.97,623.5 "></polyline>
<polyline clip-path="url(#clip802)" style="stroke:#ff0000; stroke-linecap:round; stroke-linejoin:round; stroke-width:4; stroke-opacity:1; fill:none" stroke-dasharray="16, 10" points="156.922,659.684 2352.76,659.684 "></polyline>
</svg>