<svg xmlns:xlink="http://www.w3.org/1999/xlink" width="432pt" height="288pt" viewBox="0 0 432 288" xmlns="http://www.w3.org/2000/svg" version="1.1">
 <metadata>
  <rdf:rdf xmlns:dc="http://purl.org/dc/elements/1.1/" xmlns:cc="http://creativecommons.org/ns#" xmlns:rdf="http://www.w3.org/1999/02/22-rdf-syntax-ns#">
   <cc:work>
    <dc:type rdf:resource="http://purl.org/dc/dcmitype/StillImage"></dc:type>
    <dc:date>2023-10-15T23:28:02.431804</dc:date>
    <dc:format>image/svg+xml</dc:format>
    <dc:creator>
     <cc:agent>
      <dc:title>Matplotlib v3.8.0, https://matplotlib.org/</dc:title>
     </cc:agent>
    </dc:creator>
   </cc:work>
  </rdf:rdf>
 </metadata>
 <defs>
  <style type="text/css">*{stroke-linejoin: round; stroke-linecap: butt}</style>
 </defs>
 <g id="figure_1">
  <g id="patch_1">
   <path d="M 0 288 
L 432 288 
L 432 0 
L 0 0 
z
" style="fill: #ffffff"></path>
  </g>
  <g id="axes_1">
   <g id="patch_2">
    <path d="M 40.796161 256.209354 
L 419.005032 256.209354 
L 419.005032 2.834646 
L 40.796161 2.834646 
z
" style="fill: #ffffff"></path>
   </g>
   <g id="matplotlib.axis_1">
    <g id="xtick_1">
     <g id="line2d_1">
      <path d="M 51.500185 256.209354 
L 51.500185 2.834646 
" clip-path="url(#p0dfc570ef2)" style="fill: none; stroke: #000000; stroke-opacity: 0.1; stroke-width: 0.5; stroke-linecap: square"></path>
     </g>
     <g id="line2d_2">
      <defs>
       <path id="m2f5bd5cec7" d="M 0 0 
L 0 -2.5 
" style="stroke: #000000; stroke-width: 0.5"></path>
      </defs>
      <g>
       <use xlink:href="#m2f5bd5cec7" x="51.500185" y="256.209354" style="stroke: #000000; stroke-width: 0.5"></use>
      </g>
     </g>
     <g id="text_1">
      <!-- $0$ -->
      <g transform="translate(48.940185 265.788104) scale(0.08 -0.08)">
       <defs>
        <path id="DejaVuSans-30" d="M 2034 4250 
Q 1547 4250 1301 3770 
Q 1056 3291 1056 2328 
Q 1056 1369 1301 889 
Q 1547 409 2034 409 
Q 2525 409 2770 889 
Q 3016 1369 3016 2328 
Q 3016 3291 2770 3770 
Q 2525 4250 2034 4250 
z
M 2034 4750 
Q 2819 4750 3233 4129 
Q 3647 3509 3647 2328 
Q 3647 1150 3233 529 
Q 2819 -91 2034 -91 
Q 1250 -91 836 529 
Q 422 1150 422 2328 
Q 422 3509 836 4129 
Q 1250 4750 2034 4750 
z
" transform="scale(0.015625)"></path>
       </defs>
       <use xlink:href="#DejaVuSans-30" transform="translate(0 0.78125)"></use>
      </g>
     </g>
    </g>
    <g id="xtick_2">
     <g id="line2d_3">
      <path d="M 140.700391 256.209354 
L 140.700391 2.834646 
" clip-path="url(#p0dfc570ef2)" style="fill: none; stroke: #000000; stroke-opacity: 0.1; stroke-width: 0.5; stroke-linecap: square"></path>
     </g>
     <g id="line2d_4">
      <g>
       <use xlink:href="#m2f5bd5cec7" x="140.700391" y="256.209354" style="stroke: #000000; stroke-width: 0.5"></use>
      </g>
     </g>
     <g id="text_2">
      <!-- $2.50×10^{6}$ -->
      <g transform="translate(121.420391 265.788104) scale(0.08 -0.08)">
       <defs>
        <path id="DejaVuSans-32" d="M 1228 531 
L 3431 531 
L 3431 0 
L 469 0 
L 469 531 
Q 828 903 1448 1529 
Q 2069 2156 2228 2338 
Q 2531 2678 2651 2914 
Q 2772 3150 2772 3378 
Q 2772 3750 2511 3984 
Q 2250 4219 1831 4219 
Q 1534 4219 1204 4116 
Q 875 4013 500 3803 
L 500 4441 
Q 881 4594 1212 4672 
Q 1544 4750 1819 4750 
Q 2544 4750 2975 4387 
Q 3406 4025 3406 3419 
Q 3406 3131 3298 2873 
Q 3191 2616 2906 2266 
Q 2828 2175 2409 1742 
Q 1991 1309 1228 531 
z
" transform="scale(0.015625)"></path>
        <path id="DejaVuSans-2e" d="M 684 794 
L 1344 794 
L 1344 0 
L 684 0 
L 684 794 
z
" transform="scale(0.015625)"></path>
        <path id="DejaVuSans-35" d="M 691 4666 
L 3169 4666 
L 3169 4134 
L 1269 4134 
L 1269 2991 
Q 1406 3038 1543 3061 
Q 1681 3084 1819 3084 
Q 2600 3084 3056 2656 
Q 3513 2228 3513 1497 
Q 3513 744 3044 326 
Q 2575 -91 1722 -91 
Q 1428 -91 1123 -41 
Q 819 9 494 109 
L 494 744 
Q 775 591 1075 516 
Q 1375 441 1709 441 
Q 2250 441 2565 725 
Q 2881 1009 2881 1497 
Q 2881 1984 2565 2268 
Q 2250 2553 1709 2553 
Q 1456 2553 1204 2497 
Q 953 2441 691 2322 
L 691 4666 
z
" transform="scale(0.015625)"></path>
        <path id="DejaVuSans-d7" d="M 4488 3438 
L 3059 2003 
L 4488 575 
L 4116 197 
L 2681 1631 
L 1247 197 
L 878 575 
L 2303 2003 
L 878 3438 
L 1247 3816 
L 2681 2381 
L 4116 3816 
L 4488 3438 
z
" transform="scale(0.015625)"></path>
        <path id="DejaVuSans-31" d="M 794 531 
L 1825 531 
L 1825 4091 
L 703 3866 
L 703 4441 
L 1819 4666 
L 2450 4666 
L 2450 531 
L 3481 531 
L 3481 0 
L 794 0 
L 794 531 
z
" transform="scale(0.015625)"></path>
        <path id="DejaVuSans-36" d="M 2113 2584 
Q 1688 2584 1439 2293 
Q 1191 2003 1191 1497 
Q 1191 994 1439 701 
Q 1688 409 2113 409 
Q 2538 409 2786 701 
Q 3034 994 3034 1497 
Q 3034 2003 2786 2293 
Q 2538 2584 2113 2584 
z
M 3366 4563 
L 3366 3988 
Q 3128 4100 2886 4159 
Q 2644 4219 2406 4219 
Q 1781 4219 1451 3797 
Q 1122 3375 1075 2522 
Q 1259 2794 1537 2939 
Q 1816 3084 2150 3084 
Q 2853 3084 3261 2657 
Q 3669 2231 3669 1497 
Q 3669 778 3244 343 
Q 2819 -91 2113 -91 
Q 1303 -91 875 529 
Q 447 1150 447 2328 
Q 447 3434 972 4092 
Q 1497 4750 2381 4750 
Q 2619 4750 2861 4703 
Q 3103 4656 3366 4563 
z
" transform="scale(0.015625)"></path>
       </defs>
       <use xlink:href="#DejaVuSans-32" transform="translate(0 0.765625)"></use>
       <use xlink:href="#DejaVuSans-2e" transform="translate(63.623047 0.765625)"></use>
       <use xlink:href="#DejaVuSans-35" transform="translate(95.410156 0.765625)"></use>
       <use xlink:href="#DejaVuSans-30" transform="translate(159.033203 0.765625)"></use>
       <use xlink:href="#DejaVuSans-d7" transform="translate(222.65625 0.765625)"></use>
       <use xlink:href="#DejaVuSans-31" transform="translate(306.445312 0.765625)"></use>
       <use xlink:href="#DejaVuSans-30" transform="translate(370.068359 0.765625)"></use>
       <use xlink:href="#DejaVuSans-36" transform="translate(434.648438 39.046875) scale(0.7)"></use>
      </g>
     </g>
    </g>
    <g id="xtick_3">
     <g id="line2d_5">
      <path d="M 229.900596 256.209354 
L 229.900596 2.834646 
" clip-path="url(#p0dfc570ef2)" style="fill: none; stroke: #000000; stroke-opacity: 0.1; stroke-width: 0.5; stroke-linecap: square"></path>
     </g>
     <g id="line2d_6">
      <g>
       <use xlink:href="#m2f5bd5cec7" x="229.900596" y="256.209354" style="stroke: #000000; stroke-width: 0.5"></use>
      </g>
     </g>
     <g id="text_3">
      <!-- $5.00×10^{6}$ -->
      <g transform="translate(210.620596 265.788104) scale(0.08 -0.08)">
       <use xlink:href="#DejaVuSans-35" transform="translate(0 0.765625)"></use>
       <use xlink:href="#DejaVuSans-2e" transform="translate(63.623047 0.765625)"></use>
       <use xlink:href="#DejaVuSans-30" transform="translate(95.410156 0.765625)"></use>
       <use xlink:href="#DejaVuSans-30" transform="translate(159.033203 0.765625)"></use>
       <use xlink:href="#DejaVuSans-d7" transform="translate(222.65625 0.765625)"></use>
       <use xlink:href="#DejaVuSans-31" transform="translate(306.445312 0.765625)"></use>
       <use xlink:href="#DejaVuSans-30" transform="translate(370.068359 0.765625)"></use>
       <use xlink:href="#DejaVuSans-36" transform="translate(434.648438 39.046875) scale(0.7)"></use>
      </g>
     </g>
    </g>
    <g id="xtick_4">
     <g id="line2d_7">
      <path d="M 319.100802 256.209354 
L 319.100802 2.834646 
" clip-path="url(#p0dfc570ef2)" style="fill: none; stroke: #000000; stroke-opacity: 0.1; stroke-width: 0.5; stroke-linecap: square"></path>
     </g>
     <g id="line2d_8">
      <g>
       <use xlink:href="#m2f5bd5cec7" x="319.100802" y="256.209354" style="stroke: #000000; stroke-width: 0.5"></use>
      </g>
     </g>
     <g id="text_4">
      <!-- $7.50×10^{6}$ -->
      <g transform="translate(299.820802 265.788104) scale(0.08 -0.08)">
       <defs>
        <path id="DejaVuSans-37" d="M 525 4666 
L 3525 4666 
L 3525 4397 
L 1831 0 
L 1172 0 
L 2766 4134 
L 525 4134 
L 525 4666 
z
" transform="scale(0.015625)"></path>
       </defs>
       <use xlink:href="#DejaVuSans-37" transform="translate(0 0.765625)"></use>
       <use xlink:href="#DejaVuSans-2e" transform="translate(63.623047 0.765625)"></use>
       <use xlink:href="#DejaVuSans-35" transform="translate(95.410156 0.765625)"></use>
       <use xlink:href="#DejaVuSans-30" transform="translate(159.033203 0.765625)"></use>
       <use xlink:href="#DejaVuSans-d7" transform="translate(222.65625 0.765625)"></use>
       <use xlink:href="#DejaVuSans-31" transform="translate(306.445312 0.765625)"></use>
       <use xlink:href="#DejaVuSans-30" transform="translate(370.068359 0.765625)"></use>
       <use xlink:href="#DejaVuSans-36" transform="translate(434.648438 39.046875) scale(0.7)"></use>
      </g>
     </g>
    </g>
    <g id="xtick_5">
     <g id="line2d_9">
      <path d="M 408.301007 256.209354 
L 408.301007 2.834646 
" clip-path="url(#p0dfc570ef2)" style="fill: none; stroke: #000000; stroke-opacity: 0.1; stroke-width: 0.5; stroke-linecap: square"></path>
     </g>
     <g id="line2d_10">
      <g>
       <use xlink:href="#m2f5bd5cec7" x="408.301007" y="256.209354" style="stroke: #000000; stroke-width: 0.5"></use>
      </g>
     </g>
     <g id="text_5">
      <!-- $1.00×10^{7}$ -->
      <g transform="translate(389.021007 265.788104) scale(0.08 -0.08)">
       <use xlink:href="#DejaVuSans-31" transform="translate(0 0.684375)"></use>
       <use xlink:href="#DejaVuSans-2e" transform="translate(63.623047 0.684375)"></use>
       <use xlink:href="#DejaVuSans-30" transform="translate(95.410156 0.684375)"></use>
       <use xlink:href="#DejaVuSans-30" transform="translate(159.033203 0.684375)"></use>
       <use xlink:href="#DejaVuSans-d7" transform="translate(222.65625 0.684375)"></use>
       <use xlink:href="#DejaVuSans-31" transform="translate(306.445312 0.684375)"></use>
       <use xlink:href="#DejaVuSans-30" transform="translate(370.068359 0.684375)"></use>
       <use xlink:href="#DejaVuSans-37" transform="translate(434.648438 38.965625) scale(0.7)"></use>
      </g>
     </g>
    </g>
    <g id="text_6">
     <!-- $N$ -->
     <g transform="translate(225.775596 279.810136) scale(0.11 -0.11)">
      <defs>
       <path id="DejaVuSans-Oblique-4e" d="M 1081 4666 
L 1931 4666 
L 3219 666 
L 4000 4666 
L 4616 4666 
L 3706 0 
L 2853 0 
L 1569 4025 
L 788 0 
L 172 0 
L 1081 4666 
z
" transform="scale(0.015625)"></path>
      </defs>
      <use xlink:href="#DejaVuSans-Oblique-4e" transform="translate(0 0.09375)"></use>
     </g>
    </g>
   </g>
   <g id="matplotlib.axis_2">
    <g id="ytick_1">
     <g id="line2d_11">
      <path d="M 40.796161 217.887068 
L 419.005032 217.887068 
" clip-path="url(#p0dfc570ef2)" style="fill: none; stroke: #000000; stroke-opacity: 0.1; stroke-width: 0.5; stroke-linecap: square"></path>
     </g>
     <g id="line2d_12">
      <defs>
       <path id="mef4edc5729" d="M 0 0 
L 2.5 0 
" style="stroke: #000000; stroke-width: 0.5"></path>
      </defs>
      <g>
       <use xlink:href="#mef4edc5729" x="40.796161" y="217.887068" style="stroke: #000000; stroke-width: 0.5"></use>
      </g>
     </g>
     <g id="text_7">
      <!-- $10^{-6}$ -->
      <g transform="translate(18.496161 220.926443) scale(0.08 -0.08)">
       <defs>
        <path id="DejaVuSans-2212" d="M 678 2272 
L 4684 2272 
L 4684 1741 
L 678 1741 
L 678 2272 
z
" transform="scale(0.015625)"></path>
       </defs>
       <use xlink:href="#DejaVuSans-31" transform="translate(0 0.765625)"></use>
       <use xlink:href="#DejaVuSans-30" transform="translate(63.623047 0.765625)"></use>
       <use xlink:href="#DejaVuSans-2212" transform="translate(128.203125 39.046875) scale(0.7)"></use>
       <use xlink:href="#DejaVuSans-36" transform="translate(186.855469 39.046875) scale(0.7)"></use>
      </g>
     </g>
    </g>
    <g id="ytick_2">
     <g id="line2d_13">
      <path d="M 40.796161 101.669328 
L 419.005032 101.669328 
" clip-path="url(#p0dfc570ef2)" style="fill: none; stroke: #000000; stroke-opacity: 0.1; stroke-width: 0.5; stroke-linecap: square"></path>
     </g>
     <g id="line2d_14">
      <g>
       <use xlink:href="#mef4edc5729" x="40.796161" y="101.669328" style="stroke: #000000; stroke-width: 0.5"></use>
      </g>
     </g>
     <g id="text_8">
      <!-- $10^{-4}$ -->
      <g transform="translate(18.496161 104.708703) scale(0.08 -0.08)">
       <defs>
        <path id="DejaVuSans-34" d="M 2419 4116 
L 825 1625 
L 2419 1625 
L 2419 4116 
z
M 2253 4666 
L 3047 4666 
L 3047 1625 
L 3713 1625 
L 3713 1100 
L 3047 1100 
L 3047 0 
L 2419 0 
L 2419 1100 
L 313 1100 
L 313 1709 
L 2253 4666 
z
" transform="scale(0.015625)"></path>
       </defs>
       <use xlink:href="#DejaVuSans-31" transform="translate(0 0.684375)"></use>
       <use xlink:href="#DejaVuSans-30" transform="translate(63.623047 0.684375)"></use>
       <use xlink:href="#DejaVuSans-2212" transform="translate(128.203125 38.965625) scale(0.7)"></use>
       <use xlink:href="#DejaVuSans-34" transform="translate(186.855469 38.965625) scale(0.7)"></use>
      </g>
     </g>
    </g>
    <g id="ytick_3">
     <g id="line2d_15">
      <defs>
       <path id="mf57dc9e08c" d="M 0 0 
L -2 0 
" style="stroke: #000000; stroke-width: 0.6"></path>
      </defs>
      <g>
       <use xlink:href="#mf57dc9e08c" x="40.796161" y="159.778198" style="stroke: #000000; stroke-width: 0.6"></use>
      </g>
     </g>
    </g>
    <g id="ytick_4">
     <g id="line2d_16">
      <g>
       <use xlink:href="#mf57dc9e08c" x="40.796161" y="43.560458" style="stroke: #000000; stroke-width: 0.6"></use>
      </g>
     </g>
    </g>
    <g id="text_9">
     <!-- Relative Error -->
     <g transform="translate(12.208504 166.854109) rotate(-90) scale(0.11 -0.11)">
      <defs>
       <path id="DejaVuSans-52" d="M 2841 2188 
Q 3044 2119 3236 1894 
Q 3428 1669 3622 1275 
L 4263 0 
L 3584 0 
L 2988 1197 
Q 2756 1666 2539 1819 
Q 2322 1972 1947 1972 
L 1259 1972 
L 1259 0 
L 628 0 
L 628 4666 
L 2053 4666 
Q 2853 4666 3247 4331 
Q 3641 3997 3641 3322 
Q 3641 2881 3436 2590 
Q 3231 2300 2841 2188 
z
M 1259 4147 
L 1259 2491 
L 2053 2491 
Q 2509 2491 2742 2702 
Q 2975 2913 2975 3322 
Q 2975 3731 2742 3939 
Q 2509 4147 2053 4147 
L 1259 4147 
z
" transform="scale(0.015625)"></path>
       <path id="DejaVuSans-65" d="M 3597 1894 
L 3597 1613 
L 953 1613 
Q 991 1019 1311 708 
Q 1631 397 2203 397 
Q 2534 397 2845 478 
Q 3156 559 3463 722 
L 3463 178 
Q 3153 47 2828 -22 
Q 2503 -91 2169 -91 
Q 1331 -91 842 396 
Q 353 884 353 1716 
Q 353 2575 817 3079 
Q 1281 3584 2069 3584 
Q 2775 3584 3186 3129 
Q 3597 2675 3597 1894 
z
M 3022 2063 
Q 3016 2534 2758 2815 
Q 2500 3097 2075 3097 
Q 1594 3097 1305 2825 
Q 1016 2553 972 2059 
L 3022 2063 
z
" transform="scale(0.015625)"></path>
       <path id="DejaVuSans-6c" d="M 603 4863 
L 1178 4863 
L 1178 0 
L 603 0 
L 603 4863 
z
" transform="scale(0.015625)"></path>
       <path id="DejaVuSans-61" d="M 2194 1759 
Q 1497 1759 1228 1600 
Q 959 1441 959 1056 
Q 959 750 1161 570 
Q 1363 391 1709 391 
Q 2188 391 2477 730 
Q 2766 1069 2766 1631 
L 2766 1759 
L 2194 1759 
z
M 3341 1997 
L 3341 0 
L 2766 0 
L 2766 531 
Q 2569 213 2275 61 
Q 1981 -91 1556 -91 
Q 1019 -91 701 211 
Q 384 513 384 1019 
Q 384 1609 779 1909 
Q 1175 2209 1959 2209 
L 2766 2209 
L 2766 2266 
Q 2766 2663 2505 2880 
Q 2244 3097 1772 3097 
Q 1472 3097 1187 3025 
Q 903 2953 641 2809 
L 641 3341 
Q 956 3463 1253 3523 
Q 1550 3584 1831 3584 
Q 2591 3584 2966 3190 
Q 3341 2797 3341 1997 
z
" transform="scale(0.015625)"></path>
       <path id="DejaVuSans-74" d="M 1172 4494 
L 1172 3500 
L 2356 3500 
L 2356 3053 
L 1172 3053 
L 1172 1153 
Q 1172 725 1289 603 
Q 1406 481 1766 481 
L 2356 481 
L 2356 0 
L 1766 0 
Q 1100 0 847 248 
Q 594 497 594 1153 
L 594 3053 
L 172 3053 
L 172 3500 
L 594 3500 
L 594 4494 
L 1172 4494 
z
" transform="scale(0.015625)"></path>
       <path id="DejaVuSans-69" d="M 603 3500 
L 1178 3500 
L 1178 0 
L 603 0 
L 603 3500 
z
M 603 4863 
L 1178 4863 
L 1178 4134 
L 603 4134 
L 603 4863 
z
" transform="scale(0.015625)"></path>
       <path id="DejaVuSans-76" d="M 191 3500 
L 800 3500 
L 1894 563 
L 2988 3500 
L 3597 3500 
L 2284 0 
L 1503 0 
L 191 3500 
z
" transform="scale(0.015625)"></path>
       <path id="DejaVuSans-20" transform="scale(0.015625)"></path>
       <path id="DejaVuSans-45" d="M 628 4666 
L 3578 4666 
L 3578 4134 
L 1259 4134 
L 1259 2753 
L 3481 2753 
L 3481 2222 
L 1259 2222 
L 1259 531 
L 3634 531 
L 3634 0 
L 628 0 
L 628 4666 
z
" transform="scale(0.015625)"></path>
       <path id="DejaVuSans-72" d="M 2631 2963 
Q 2534 3019 2420 3045 
Q 2306 3072 2169 3072 
Q 1681 3072 1420 2755 
Q 1159 2438 1159 1844 
L 1159 0 
L 581 0 
L 581 3500 
L 1159 3500 
L 1159 2956 
Q 1341 3275 1631 3429 
Q 1922 3584 2338 3584 
Q 2397 3584 2469 3576 
Q 2541 3569 2628 3553 
L 2631 2963 
z
" transform="scale(0.015625)"></path>
       <path id="DejaVuSans-6f" d="M 1959 3097 
Q 1497 3097 1228 2736 
Q 959 2375 959 1747 
Q 959 1119 1226 758 
Q 1494 397 1959 397 
Q 2419 397 2687 759 
Q 2956 1122 2956 1747 
Q 2956 2369 2687 2733 
Q 2419 3097 1959 3097 
z
M 1959 3584 
Q 2709 3584 3137 3096 
Q 3566 2609 3566 1747 
Q 3566 888 3137 398 
Q 2709 -91 1959 -91 
Q 1206 -91 779 398 
Q 353 888 353 1747 
Q 353 2609 779 3096 
Q 1206 3584 1959 3584 
z
" transform="scale(0.015625)"></path>
      </defs>
      <use xlink:href="#DejaVuSans-52"></use>
      <use xlink:href="#DejaVuSans-65" x="64.982422"></use>
      <use xlink:href="#DejaVuSans-6c" x="126.505859"></use>
      <use xlink:href="#DejaVuSans-61" x="154.289062"></use>
      <use xlink:href="#DejaVuSans-74" x="215.568359"></use>
      <use xlink:href="#DejaVuSans-69" x="254.777344"></use>
      <use xlink:href="#DejaVuSans-76" x="282.560547"></use>
      <use xlink:href="#DejaVuSans-65" x="341.740234"></use>
      <use xlink:href="#DejaVuSans-20" x="403.263672"></use>
      <use xlink:href="#DejaVuSans-45" x="435.050781"></use>
      <use xlink:href="#DejaVuSans-72" x="498.234375"></use>
      <use xlink:href="#DejaVuSans-72" x="537.597656"></use>
      <use xlink:href="#DejaVuSans-6f" x="576.460938"></use>
      <use xlink:href="#DejaVuSans-72" x="637.642578"></use>
     </g>
    </g>
   </g>
   <g id="line2d_17">
    <path d="M 51.856986 12.415361 
L 52.213787 60.704234 
L 52.570588 10.005628 
L 52.927389 89.573693 
L 53.284189 29.369643 
L 53.64099 56.598767 
L 54.354592 19.681137 
L 54.711393 18.852152 
L 55.068193 49.198021 
L 55.424994 18.718389 
L 55.781795 61.541522 
L 56.138596 69.70131 
L 56.495397 39.675091 
L 56.852198 20.079262 
L 57.208998 62.515581 
L 57.565799 37.214936 
L 57.9226 112.155268 
L 58.279401 75.166675 
L 58.636202 90.315333 
L 58.993002 45.519535 
L 59.349803 26.080446 
L 59.706604 152.373299 
L 60.063405 55.908392 
L 60.777007 42.91695 
L 61.133807 42.920457 
L 61.490608 40.074568 
L 61.847409 43.153584 
L 62.20421 100.631637 
L 62.561011 60.704234 
L 62.917812 43.551937 
L 63.274612 79.819246 
L 63.631413 86.03067 
L 63.988214 65.474084 
L 64.345015 196.449235 
L 64.701816 63.729117 
L 65.058616 41.386409 
L 65.415417 49.852049 
L 65.772218 50.808172 
L 66.129019 59.349922 
L 66.48582 58.050508 
L 66.842621 34.994478 
L 67.199421 73.101881 
L 67.556222 59.737065 
L 67.913023 63.825861 
L 68.269824 47.312771 
L 68.626625 46.399301 
L 68.983426 85.896109 
L 69.340226 45.690205 
L 69.697027 80.667235 
L 70.053828 85.981255 
L 70.410629 102.035427 
L 70.76743 46.266475 
L 71.12423 72.173621 
L 71.481031 55.506045 
L 71.837832 52.757337 
L 72.194633 46.152528 
L 72.551434 74.887421 
L 72.908235 56.888056 
L 73.265035 75.502847 
L 73.621836 180.542415 
L 73.978637 135.09771 
L 74.335438 49.84657 
L 74.692239 96.686853 
L 75.049039 100.077093 
L 75.40584 52.396534 
L 75.762641 70.281426 
L 76.119442 44.396426 
L 76.476243 89.716214 
L 76.833044 81.768074 
L 77.189844 47.661111 
L 77.546645 77.45589 
L 77.903446 50.79371 
L 78.260247 36.583974 
L 78.617048 84.555145 
L 78.973849 76.098089 
L 79.330649 77.352333 
L 79.68745 88.744214 
L 80.044251 31.049485 
L 80.401052 132.822266 
L 80.757853 41.802307 
L 81.114653 45.507585 
L 81.471454 66.622318 
L 81.828255 77.867904 
L 82.185056 127.180033 
L 82.541857 74.515445 
L 82.898658 50.432997 
L 83.255458 74.561591 
L 83.612259 35.453248 
L 83.96906 86.702598 
L 84.325861 58.909472 
L 84.682662 44.695661 
L 85.039462 77.252211 
L 85.396263 58.593342 
L 85.753064 57.777613 
L 86.109865 63.318042 
L 86.466666 45.87639 
L 86.823467 68.119959 
L 87.180267 73.70799 
L 87.537068 59.199352 
L 87.893869 88.851964 
L 88.25067 56.581341 
L 88.607471 66.980752 
L 88.964272 91.390347 
L 89.321072 52.592498 
L 89.677873 53.850895 
L 90.034674 86.129182 
L 90.391475 39.765512 
L 90.748276 78.541305 
L 91.105076 79.963585 
L 91.461877 60.81767 
L 91.818678 58.247628 
L 92.175479 98.156814 
L 92.53228 52.575915 
L 92.889081 117.253956 
L 93.245881 55.618879 
L 93.602682 85.603337 
L 94.316284 107.032416 
L 95.029885 61.631189 
L 95.386686 57.763883 
L 95.743487 74.635295 
L 96.100288 178.344551 
L 96.457089 101.484936 
L 96.81389 92.814892 
L 97.527491 50.961782 
L 97.884292 112.155268 
L 98.241093 120.181764 
L 98.597894 113.616209 
L 99.311495 60.100304 
L 99.668296 91.367731 
L 100.025097 62.590802 
L 100.381898 97.788969 
L 100.738699 78.03178 
L 101.095499 66.182737 
L 101.4523 77.77345 
L 101.809101 33.626422 
L 102.165902 80.270769 
L 102.522703 90.136856 
L 102.879504 83.498673 
L 103.593105 111.823997 
L 103.949906 46.669817 
L 104.306707 54.593861 
L 104.663508 88.817314 
L 105.020309 55.908392 
L 105.377109 85.533783 
L 105.73391 64.718388 
L 106.090711 57.517271 
L 106.447512 75.303526 
L 106.804313 58.474851 
L 107.161113 74.812636 
L 107.517914 56.510868 
L 107.874715 67.212104 
L 108.231516 54.701573 
L 108.588317 127.620207 
L 108.945118 52.911508 
L 109.301918 60.900619 
L 110.01552 104.53301 
L 110.372321 113.228401 
L 110.729122 118.830812 
L 111.085922 63.001922 
L 111.442723 92.612122 
L 112.156325 88.068086 
L 112.513126 79.985083 
L 112.869927 66.291006 
L 113.226727 64.027946 
L 113.583528 59.529914 
L 113.940329 82.894848 
L 114.29713 93.215798 
L 115.010732 53.012731 
L 115.367532 128.638121 
L 115.724333 53.90488 
L 116.081134 95.389155 
L 116.437935 81.280089 
L 116.794736 113.946595 
L 117.151536 74.782393 
L 117.508337 72.291655 
L 117.865138 61.68282 
L 118.221939 71.911688 
L 118.57874 75.501854 
L 118.935541 100.178871 
L 119.292341 77.007275 
L 119.649142 135.349993 
L 120.005943 59.890476 
L 120.362744 177.385679 
L 120.719545 88.630152 
L 121.076345 65.40686 
L 121.433146 71.31137 
L 121.789947 61.814608 
L 122.146748 167.096063 
L 122.503549 87.747656 
L 122.86035 107.167845 
L 123.21715 141.704602 
L 123.573951 50.328782 
L 123.930752 127.951732 
L 124.287553 84.390019 
L 124.644354 137.60406 
L 125.001155 83.060671 
L 125.357955 151.918498 
L 125.714756 96.459633 
L 126.071557 87.555262 
L 126.428358 89.907503 
L 126.785159 70.901035 
L 127.141959 69.823915 
L 127.49876 69.525375 
L 127.855561 116.858235 
L 128.212362 66.628087 
L 128.569163 91.586257 
L 128.925964 72.658799 
L 129.282764 75.185289 
L 129.639565 85.535163 
L 129.996366 129.235486 
L 130.353167 61.908373 
L 131.066768 113.892859 
L 131.423569 64.441717 
L 131.78037 97.783369 
L 132.137171 84.835854 
L 132.493972 92.261479 
L 132.850773 123.235928 
L 133.564374 68.902133 
L 133.921175 85.985566 
L 134.277976 63.702494 
L 134.634777 112.259958 
L 134.991578 123.201977 
L 135.348378 61.976436 
L 135.705179 60.357489 
L 136.06198 64.819874 
L 136.418781 85.085424 
L 136.775582 75.361021 
L 137.132382 89.24424 
L 137.489183 172.192077 
L 137.845984 71.646466 
L 138.202785 102.665767 
L 139.273187 59.570653 
L 139.629988 64.044602 
L 139.986789 163.881747 
L 140.34359 98.879125 
L 140.700391 105.96891 
L 141.057191 84.16912 
L 141.413992 113.191776 
L 141.770793 69.342769 
L 142.127594 66.109905 
L 142.484395 84.765558 
L 142.841196 87.272501 
L 143.197996 109.623237 
L 143.911598 179.684398 
L 144.268399 73.429987 
L 144.6252 71.474127 
L 144.982001 54.64682 
L 145.338801 94.188745 
L 145.695602 79.752627 
L 146.052403 91.463454 
L 146.409204 95.87036 
L 146.766005 58.240959 
L 147.122805 144.92164 
L 147.479606 73.040026 
L 147.836407 108.315574 
L 148.193208 59.516446 
L 148.550009 73.433298 
L 148.90681 79.408465 
L 149.26361 82.716821 
L 149.620411 63.399124 
L 149.977212 98.779536 
L 150.334013 76.021934 
L 150.690814 78.085407 
L 151.047615 59.614926 
L 151.404415 82.030948 
L 151.761216 54.597211 
L 152.118017 85.569641 
L 152.474818 60.659481 
L 152.831619 94.853408 
L 153.188419 111.810629 
L 153.54522 83.320815 
L 153.902021 150.722436 
L 154.258822 95.68636 
L 154.615623 89.154851 
L 154.972424 69.51708 
L 155.329224 112.407475 
L 155.686025 109.880987 
L 156.042826 60.216576 
L 156.399627 97.131013 
L 156.756428 112.739593 
L 157.113228 59.965698 
L 157.470029 65.354304 
L 157.82683 73.894766 
L 158.183631 162.015129 
L 158.540432 92.378099 
L 158.897233 73.093686 
L 159.254033 117.542702 
L 159.610834 64.512865 
L 159.967635 75.197515 
L 160.324436 81.035369 
L 160.681237 64.781337 
L 161.038038 63.24332 
L 161.394838 71.951352 
L 161.751639 88.850124 
L 162.10844 78.878952 
L 162.465241 81.198456 
L 162.822042 73.414505 
L 163.178842 141.98838 
L 163.535643 68.949689 
L 163.892444 69.957771 
L 164.249245 137.841062 
L 164.606046 66.22495 
L 164.962847 84.210831 
L 165.319647 91.568438 
L 165.676448 77.491221 
L 166.033249 126.008296 
L 166.746851 79.160817 
L 167.103651 136.522466 
L 167.460452 139.078525 
L 167.817253 74.312769 
L 168.174054 90.29896 
L 168.530855 98.509173 
L 168.887656 83.829304 
L 169.244456 99.714053 
L 169.601257 65.263769 
L 169.958058 77.594931 
L 170.314859 70.089067 
L 170.67166 177.757159 
L 171.028461 89.088394 
L 171.385261 119.570195 
L 171.742062 84.684739 
L 172.098863 65.244365 
L 172.455664 77.593049 
L 172.812465 110.359257 
L 173.169265 67.256592 
L 173.526066 75.445571 
L 173.882867 61.722347 
L 174.239668 104.274042 
L 174.596469 67.98662 
L 174.95327 97.595475 
L 175.31007 106.020348 
L 175.666871 76.478805 
L 176.023672 100.545147 
L 176.380473 77.006788 
L 176.737274 104.395548 
L 177.094074 78.862034 
L 177.450875 119.554388 
L 178.521278 63.052067 
L 178.878079 145.463101 
L 179.234879 74.308758 
L 179.59168 82.586594 
L 179.948481 70.909785 
L 180.305282 74.695862 
L 180.662083 103.862544 
L 181.018884 68.561055 
L 181.375684 87.195208 
L 182.089286 72.802619 
L 182.446087 124.479095 
L 183.159688 108.650172 
L 183.516489 102.053721 
L 183.87329 72.224073 
L 184.230091 69.414653 
L 184.586892 108.799302 
L 184.943693 82.208557 
L 185.300493 80.781159 
L 185.657294 87.153529 
L 186.014095 102.100776 
L 186.370896 70.644478 
L 186.727697 61.76436 
L 187.084498 80.446836 
L 187.441298 85.142611 
L 187.798099 114.984462 
L 188.1549 78.413374 
L 188.511701 69.338268 
L 189.225302 107.261175 
L 189.582103 65.324424 
L 189.938904 85.389529 
L 190.295705 66.076788 
L 190.652506 109.661203 
L 191.009307 61.893064 
L 191.366107 75.217169 
L 191.722908 76.760255 
L 192.079709 113.483645 
L 192.43651 100.398508 
L 192.793311 68.828668 
L 193.150111 83.297846 
L 193.506912 102.901715 
L 193.863713 66.42726 
L 194.220514 96.778317 
L 194.577315 82.745942 
L 194.934116 74.717361 
L 195.290916 73.163102 
L 195.647717 147.031996 
L 196.004518 75.833348 
L 196.361319 77.939795 
L 196.71812 87.138316 
L 197.074921 122.839619 
L 197.431721 66.870059 
L 197.788522 112.393878 
L 198.145323 98.738646 
L 198.502124 80.571068 
L 198.858925 76.072426 
L 199.215725 79.317493 
L 199.572526 94.305483 
L 199.929327 83.824407 
L 200.286128 114.58194 
L 200.642929 67.10799 
L 200.99973 80.07561 
L 201.35653 73.597764 
L 201.713331 69.420026 
L 202.070132 95.828538 
L 202.426933 59.870987 
L 202.783734 96.249486 
L 203.140534 67.931301 
L 203.497335 56.822909 
L 203.854136 87.968608 
L 204.210937 59.195326 
L 204.567738 107.153879 
L 204.924539 107.589472 
L 205.281339 111.194621 
L 205.63814 78.107906 
L 205.994941 62.196654 
L 206.708543 101.34912 
L 207.065344 98.387351 
L 207.422144 79.936693 
L 207.778945 99.094497 
L 208.135746 72.187642 
L 208.492547 83.38849 
L 208.849348 111.663315 
L 209.206148 74.054989 
L 209.562949 99.990542 
L 209.91975 67.326015 
L 210.276551 101.79057 
L 210.633352 91.65987 
L 210.990153 88.94724 
L 211.346953 89.841584 
L 211.703754 92.494943 
L 212.060555 52.55418 
L 212.774157 97.504482 
L 213.130957 74.998739 
L 213.487758 119.438985 
L 213.844559 112.532571 
L 214.20136 94.843561 
L 214.558161 70.656667 
L 214.914962 169.379282 
L 215.271762 86.776141 
L 215.628563 72.349589 
L 216.342165 58.942548 
L 216.698966 106.651094 
L 217.055767 82.839245 
L 217.412567 67.144202 
L 217.769368 91.874335 
L 218.126169 63.482623 
L 218.48297 57.813027 
L 218.839771 73.122972 
L 219.196571 71.369442 
L 219.553372 127.608439 
L 219.910173 119.668645 
L 220.266974 129.912804 
L 220.623775 100.840686 
L 220.980576 108.44006 
L 221.337376 75.662261 
L 221.694177 77.954987 
L 222.050978 91.096409 
L 222.407779 109.873151 
L 222.76458 63.249702 
L 223.121381 84.267796 
L 223.478181 80.81957 
L 223.834982 82.027893 
L 224.191783 52.752414 
L 224.905385 109.21337 
L 225.262185 89.768507 
L 225.618986 162.04317 
L 225.975787 64.789571 
L 226.332588 108.038864 
L 226.689389 114.278279 
L 227.40299 94.963483 
L 227.759791 73.45124 
L 228.116592 109.943778 
L 228.473393 69.187099 
L 228.830194 127.211042 
L 229.543795 60.590176 
L 229.900596 109.51074 
L 230.257397 97.684015 
L 230.614198 114.173479 
L 230.970999 82.001488 
L 231.327799 90.911286 
L 231.6846 107.029769 
L 232.041401 87.610727 
L 232.398202 85.202049 
L 232.755003 77.169999 
L 233.111804 139.766051 
L 233.468604 86.848412 
L 233.825405 118.547402 
L 234.182206 180.635285 
L 234.539007 106.586573 
L 234.895808 80.380936 
L 235.252608 160.996656 
L 235.609409 80.23709 
L 235.96621 143.467353 
L 236.323011 93.899669 
L 236.679812 81.75183 
L 237.036613 78.288945 
L 237.393413 134.27075 
L 237.750214 97.668282 
L 238.107015 110.75216 
L 238.463816 145.445193 
L 238.820617 88.434419 
L 239.534218 95.684516 
L 239.891019 127.383081 
L 240.24782 79.521508 
L 240.604621 67.552536 
L 240.961422 113.089631 
L 241.318222 138.205895 
L 241.675023 105.672586 
L 242.031824 111.138075 
L 242.388625 95.067555 
L 242.745426 86.230136 
L 243.102227 101.408679 
L 243.459027 78.077814 
L 243.815828 196.449235 
L 244.172629 80.924077 
L 244.52943 68.526797 
L 245.243031 84.44198 
L 245.599832 91.354063 
L 245.956633 69.821708 
L 246.313434 115.690897 
L 246.670235 74.414572 
L 247.383836 181.708078 
L 247.740637 101.371256 
L 248.097438 83.668474 
L 248.454239 78.244305 
L 248.81104 100.064405 
L 249.524641 47.296174 
L 249.881442 70.852547 
L 250.238243 150.666268 
L 250.595044 110.103128 
L 250.951845 102.712072 
L 251.308645 78.267982 
L 251.665446 78.587313 
L 252.379048 92.709117 
L 252.735849 175.928116 
L 253.09265 157.082838 
L 253.44945 80.137522 
L 253.806251 89.349304 
L 254.163052 153.846068 
L 254.519853 86.180926 
L 254.876654 135.007016 
L 255.233454 100.673472 
L 255.590255 89.366214 
L 255.947056 86.207562 
L 256.303857 71.62817 
L 256.660658 126.558153 
L 257.017459 98.814168 
L 257.374259 85.48972 
L 257.73106 86.951622 
L 258.087861 68.714728 
L 258.444662 185.174318 
L 258.801463 63.310684 
L 259.158263 101.111883 
L 259.515064 120.899813 
L 259.871865 112.955745 
L 260.228666 69.051854 
L 260.585467 69.337712 
L 260.942268 94.736714 
L 261.299068 89.170869 
L 261.655869 123.061531 
L 262.01267 72.866132 
L 262.369471 137.070291 
L 262.726272 91.484175 
L 263.083073 111.627192 
L 263.439873 118.13924 
L 263.796674 104.600231 
L 264.153475 146.909493 
L 264.510276 82.155537 
L 264.867077 82.147688 
L 265.223877 81.026675 
L 265.580678 108.323318 
L 265.937479 116.146847 
L 266.29428 88.144182 
L 266.651081 182.728248 
L 267.007882 78.057782 
L 267.364682 115.573117 
L 267.721483 108.033015 
L 268.078284 125.442349 
L 268.435085 86.21816 
L 268.791886 92.857644 
L 269.148687 93.823293 
L 269.505487 62.118189 
L 269.862288 169.45318 
L 270.219089 69.894856 
L 270.57589 82.647486 
L 270.932691 145.306729 
L 271.289491 100.077093 
L 271.646292 88.881878 
L 272.003093 84.08345 
L 272.359894 81.628569 
L 272.716695 95.884919 
L 273.073496 159.870742 
L 273.430296 62.784944 
L 273.787097 77.528533 
L 274.143898 102.754541 
L 274.500699 103.613436 
L 274.8575 82.437085 
L 275.2143 74.078263 
L 275.571101 70.898026 
L 275.927902 127.225752 
L 276.284703 97.289771 
L 276.641504 81.219296 
L 276.998305 119.119017 
L 277.355105 114.980415 
L 277.711906 138.358721 
L 278.068707 98.491138 
L 278.425508 73.941975 
L 278.782309 106.79738 
L 279.13911 87.123705 
L 279.49591 205.300377 
L 279.852711 99.363103 
L 280.209512 107.270901 
L 280.566313 146.537475 
L 280.923114 85.489994 
L 281.279914 95.921443 
L 281.636715 64.918903 
L 281.993516 108.512436 
L 282.350317 122.782618 
L 283.063919 75.726288 
L 283.77752 107.993636 
L 284.491122 68.408158 
L 284.847923 157.156296 
L 285.204723 79.670215 
L 285.561524 218.402184 
L 285.918325 120.666871 
L 286.275126 93.338732 
L 286.631927 96.110988 
L 286.988728 95.88559 
L 287.345528 104.079575 
L 288.05913 146.201184 
L 288.415931 81.818089 
L 288.772732 135.114702 
L 289.129533 92.134108 
L 289.486333 80.736373 
L 289.843134 61.705527 
L 290.199935 105.732873 
L 290.556736 80.07241 
L 290.913537 72.482039 
L 291.270337 82.375852 
L 291.627138 128.487144 
L 291.983939 92.22505 
L 292.34074 102.776052 
L 292.697541 78.410993 
L 293.054342 92.37175 
L 293.767943 66.292361 
L 294.481545 152.104486 
L 294.838346 74.651441 
L 295.195146 137.740768 
L 295.551947 126.174691 
L 295.908748 125.947101 
L 296.265549 111.663315 
L 296.62235 114.884222 
L 296.979151 114.065601 
L 297.335951 159.210147 
L 297.692752 61.108458 
L 298.049553 148.847313 
L 298.406354 105.621581 
L 298.763155 152.119024 
L 299.119956 92.072803 
L 299.476756 84.583876 
L 299.833557 85.057429 
L 300.190358 72.459399 
L 300.547159 74.831408 
L 300.90396 116.516038 
L 301.26076 112.64687 
L 301.617561 121.605657 
L 301.974362 77.109024 
L 302.331163 94.412406 
L 303.044765 111.642592 
L 303.401565 73.69436 
L 303.758366 100.833079 
L 304.115167 98.279731 
L 304.471968 155.481085 
L 304.828769 98.269983 
L 305.18557 100.326266 
L 305.54237 111.758617 
L 305.899171 83.533276 
L 306.255972 107.568308 
L 306.612773 96.211806 
L 306.969574 88.672932 
L 307.326374 135.534849 
L 307.683175 78.289071 
L 308.039976 88.65421 
L 308.396777 135.707526 
L 308.753578 87.298774 
L 309.110379 73.407635 
L 309.467179 138.628552 
L 309.82398 89.262167 
L 310.180781 102.789828 
L 310.537582 84.639821 
L 310.894383 82.474704 
L 311.251183 93.024214 
L 311.607984 139.159717 
L 311.964785 107.581707 
L 312.321586 91.90308 
L 312.678387 66.100721 
L 313.035188 68.765953 
L 313.748789 84.618579 
L 314.10559 107.081137 
L 314.462391 70.059117 
L 314.819192 85.169029 
L 315.175993 79.15188 
L 315.532793 108.784294 
L 315.889594 81.668203 
L 316.246395 101.373902 
L 316.603196 80.13827 
L 317.316797 109.286043 
L 317.673598 80.937654 
L 318.030399 107.659932 
L 318.3872 115.342257 
L 318.744001 97.181408 
L 319.100802 149.144162 
L 319.457602 85.200072 
L 320.171204 148.129979 
L 320.884806 71.011803 
L 321.241606 84.377516 
L 321.598407 120.501596 
L 321.955208 106.425131 
L 322.312009 59.658324 
L 322.66881 133.972328 
L 323.025611 136.226555 
L 323.382411 104.688345 
L 324.096013 88.010135 
L 324.452814 94.319851 
L 324.809615 78.987362 
L 325.166416 207.513302 
L 325.523216 61.57567 
L 326.236818 96.064848 
L 326.593619 125.863333 
L 326.95042 132.767585 
L 327.30722 125.816267 
L 327.664021 79.244717 
L 328.020822 118.311901 
L 328.377623 73.205245 
L 328.734424 83.218848 
L 329.091225 116.633755 
L 329.448025 98.188622 
L 329.804826 163.279231 
L 330.518428 67.694117 
L 330.875229 114.329194 
L 331.232029 81.494618 
L 331.58883 171.067144 
L 331.945631 54.780377 
L 332.302432 163.400593 
L 332.659233 75.015451 
L 333.016034 78.802658 
L 333.372834 63.971719 
L 333.729635 124.487568 
L 334.086436 92.672917 
L 334.443237 185.544986 
L 334.800038 99.058282 
L 335.156839 133.002959 
L 335.513639 97.461215 
L 335.87044 102.880171 
L 336.227241 105.459595 
L 336.940843 68.591824 
L 337.297643 114.43889 
L 337.654444 190.386281 
L 338.011245 84.049122 
L 338.368046 135.728182 
L 338.724847 91.387761 
L 339.081648 86.215584 
L 339.438448 78.392451 
L 339.795249 102.75667 
L 340.15205 76.364432 
L 340.865652 105.92543 
L 341.222453 93.776554 
L 341.579253 93.490701 
L 341.936054 86.418481 
L 342.292855 72.779259 
L 342.649656 129.945457 
L 343.006457 111.595426 
L 343.363257 81.689162 
L 343.720058 78.452453 
L 344.076859 99.460352 
L 344.43366 192.090149 
L 344.790461 84.652255 
L 345.147262 94.081364 
L 345.504062 70.012091 
L 345.860863 94.266259 
L 346.217664 107.899058 
L 346.574465 105.313526 
L 346.931266 82.466996 
L 347.288066 100.322958 
L 347.644867 101.771609 
L 348.001668 132.450987 
L 348.358469 112.364509 
L 348.71527 141.255562 
L 349.072071 83.972704 
L 349.428871 101.521344 
L 349.785672 71.750889 
L 350.142473 134.871853 
L 350.499274 114.324656 
L 350.856075 100.632305 
L 351.212876 137.967241 
L 351.569676 110.940378 
L 351.926477 109.995408 
L 352.283278 90.974917 
L 352.640079 227.667322 
L 352.99688 60.243416 
L 353.35368 118.911332 
L 353.710481 95.705876 
L 354.067282 80.394274 
L 354.424083 116.23451 
L 354.780884 120.336679 
L 355.137685 73.724953 
L 355.494485 96.900268 
L 355.851286 188.656627 
L 356.208087 77.371334 
L 356.564888 114.511044 
L 356.921689 86.378253 
L 357.278489 121.956807 
L 357.63529 90.821498 
L 357.992091 169.566129 
L 358.348892 77.25493 
L 358.705693 65.390628 
L 359.062494 70.239909 
L 359.419294 83.33012 
L 359.776095 89.133934 
L 360.132896 86.198956 
L 360.489697 92.449751 
L 360.846498 65.259853 
L 361.203299 117.990395 
L 361.560099 102.552463 
L 361.9169 103.798122 
L 362.273701 73.327779 
L 362.630502 101.737665 
L 362.987303 71.357777 
L 363.700904 96.04092 
L 364.414506 108.479228 
L 364.771307 110.337092 
L 365.128108 109.170201 
L 365.484908 98.322625 
L 365.841709 124.847377 
L 366.19851 75.462912 
L 366.555311 116.470106 
L 366.912112 71.461293 
L 367.268912 134.367161 
L 367.625713 77.723228 
L 367.982514 79.761207 
L 368.339315 170.112114 
L 368.696116 154.423059 
L 369.052917 75.185869 
L 369.409717 102.295653 
L 369.766518 75.688413 
L 370.123319 86.57422 
L 370.48012 64.807492 
L 370.836921 100.69633 
L 371.193722 115.029691 
L 371.907323 83.298934 
L 372.264124 85.284781 
L 372.620925 73.626288 
L 372.977726 78.426753 
L 373.334526 74.396289 
L 373.691327 85.009052 
L 374.048128 124.300143 
L 374.404929 92.079309 
L 374.76173 112.698428 
L 375.118531 102.206913 
L 375.475331 109.753283 
L 375.832132 100.267885 
L 376.188933 77.522295 
L 376.545734 77.066173 
L 376.902535 123.029717 
L 377.259335 81.89634 
L 377.616136 98.833912 
L 377.972937 79.89283 
L 378.329738 104.549778 
L 378.686539 120.158664 
L 379.04334 94.316711 
L 379.40014 107.489431 
L 379.756941 84.426649 
L 380.113742 93.624939 
L 380.470543 88.421423 
L 380.827344 105.739292 
L 381.184145 79.891628 
L 381.540945 80.007718 
L 381.897746 86.953766 
L 382.254547 100.222474 
L 382.611348 103.381384 
L 382.968149 78.726335 
L 383.324949 100.433465 
L 383.68175 98.903461 
L 384.038551 111.383638 
L 384.395352 98.866126 
L 384.752153 128.749767 
L 385.465754 99.560869 
L 385.822555 170.672626 
L 386.179356 127.975171 
L 386.536157 234.926114 
L 386.892958 109.57425 
L 387.249759 77.738086 
L 387.606559 93.277692 
L 387.96336 94.516537 
L 388.320161 99.168148 
L 388.676962 88.120646 
L 389.033763 122.275425 
L 389.390563 125.647363 
L 389.747364 70.754867 
L 390.104165 93.840837 
L 390.460966 81.893744 
L 390.817767 97.835174 
L 391.174568 64.435688 
L 391.531368 123.873728 
L 391.888169 137.73315 
L 392.24497 74.370812 
L 392.601771 87.270249 
L 392.958572 67.158178 
L 393.315372 114.229802 
L 393.672173 115.098645 
L 394.028974 83.375222 
L 394.385775 79.871254 
L 394.742576 122.599446 
L 395.099377 107.526232 
L 395.456177 82.94958 
L 395.812978 167.290972 
L 396.169779 78.913759 
L 396.52658 96.796524 
L 396.883381 68.364179 
L 397.240182 153.449535 
L 397.596982 98.371613 
L 397.953783 90.886223 
L 398.310584 92.957511 
L 398.667385 98.684781 
L 399.024186 72.03922 
L 399.380986 109.346535 
L 399.737787 109.64105 
L 400.094588 129.170503 
L 400.451389 75.812199 
L 400.80819 150.508245 
L 401.164991 88.637008 
L 401.521791 93.834116 
L 401.878592 90.366069 
L 402.235393 80.788831 
L 402.592194 89.657632 
L 402.948995 87.672606 
L 403.305795 93.554498 
L 403.662596 150.520455 
L 404.019397 94.988732 
L 404.376198 76.025282 
L 404.732999 160.749842 
L 405.0898 153.152618 
L 405.4466 154.982044 
L 405.803401 111.406557 
L 406.160202 120.769232 
L 406.517003 249.038372 
L 406.873804 78.102247 
L 407.230605 132.552478 
L 407.587405 92.873685 
L 407.944206 99.481996 
L 408.301007 126.780732 
L 408.301007 126.780732 
" clip-path="url(#p0dfc570ef2)" style="fill: none; stroke: #009afa"></path>
   </g>
   <g id="patch_3">
    <path d="M 40.796161 256.209354 
L 40.796161 2.834646 
" style="fill: none; stroke: #000000; stroke-linejoin: miter; stroke-linecap: square"></path>
   </g>
   <g id="patch_4">
    <path d="M 40.796161 256.209354 
L 419.005032 256.209354 
" style="fill: none; stroke: #000000; stroke-linejoin: miter; stroke-linecap: square"></path>
   </g>
  </g>
 </g>
 <defs>
  <clipPath id="p0dfc570ef2">
   <rect x="40.796161" y="2.834646" width="378.208871" height="253.374709"></rect>
  </clipPath>
 </defs>
</svg>