<?xml version="1.0" encoding="utf-8"?>
<svg xmlns="http://www.w3.org/2000/svg" xmlns:xlink="http://www.w3.org/1999/xlink" width="600" height="400" viewBox="0 0 2400 1600">
<defs>
  <clipPath id="clip460">
    <rect x="0" y="0" width="2400" height="1600"/>
  </clipPath>
</defs>
<path clip-path="url(#clip460)" d="M0 1600 L2400 1600 L2400 0 L0 0  Z" fill="#ffffff" fill-rule="evenodd" fill-opacity="1"/>
<defs>
  <clipPath id="clip461">
    <rect x="480" y="0" width="1681" height="1600"/>
  </clipPath>
</defs>
<path clip-path="url(#clip460)" d="M252.764 1410.9 L2352.76 1410.9 L2352.76 47.2441 L252.764 47.2441  Z" fill="#ffffff" fill-rule="evenodd" fill-opacity="1"/>
<defs>
  <clipPath id="clip462">
    <rect x="252" y="47" width="2101" height="1365"/>
  </clipPath>
</defs>
<polyline clip-path="url(#clip462)" style="stroke:#000000; stroke-linecap:round; stroke-linejoin:round; stroke-width:2; stroke-opacity:0.1; fill:none" points="312.198,1410.9 312.198,47.2441 "/>
<polyline clip-path="url(#clip462)" style="stroke:#000000; stroke-linecap:round; stroke-linejoin:round; stroke-width:2; stroke-opacity:0.1; fill:none" points="807.479,1410.9 807.479,47.2441 "/>
<polyline clip-path="url(#clip462)" style="stroke:#000000; stroke-linecap:round; stroke-linejoin:round; stroke-width:2; stroke-opacity:0.1; fill:none" points="1302.76,1410.9 1302.76,47.2441 "/>
<polyline clip-path="url(#clip462)" style="stroke:#000000; stroke-linecap:round; stroke-linejoin:round; stroke-width:2; stroke-opacity:0.1; fill:none" points="1798.04,1410.9 1798.04,47.2441 "/>
<polyline clip-path="url(#clip462)" style="stroke:#000000; stroke-linecap:round; stroke-linejoin:round; stroke-width:2; stroke-opacity:0.1; fill:none" points="2293.32,1410.9 2293.32,47.2441 "/>
<polyline clip-path="url(#clip460)" style="stroke:#000000; stroke-linecap:round; stroke-linejoin:round; stroke-width:4; stroke-opacity:1; fill:none" points="252.764,1410.9 2352.76,1410.9 "/>
<polyline clip-path="url(#clip460)" style="stroke:#000000; stroke-linecap:round; stroke-linejoin:round; stroke-width:4; stroke-opacity:1; fill:none" points="312.198,1410.9 312.198,1392 "/>
<polyline clip-path="url(#clip460)" style="stroke:#000000; stroke-linecap:round; stroke-linejoin:round; stroke-width:4; stroke-opacity:1; fill:none" points="807.479,1410.9 807.479,1392 "/>
<polyline clip-path="url(#clip460)" style="stroke:#000000; stroke-linecap:round; stroke-linejoin:round; stroke-width:4; stroke-opacity:1; fill:none" points="1302.76,1410.9 1302.76,1392 "/>
<polyline clip-path="url(#clip460)" style="stroke:#000000; stroke-linecap:round; stroke-linejoin:round; stroke-width:4; stroke-opacity:1; fill:none" points="1798.04,1410.9 1798.04,1392 "/>
<polyline clip-path="url(#clip460)" style="stroke:#000000; stroke-linecap:round; stroke-linejoin:round; stroke-width:4; stroke-opacity:1; fill:none" points="2293.32,1410.9 2293.32,1392 "/>
<path clip-path="url(#clip460)" d="M312.198 1441.82 Q308.587 1441.82 306.758 1445.38 Q304.952 1448.92 304.952 1456.05 Q304.952 1463.16 306.758 1466.72 Q308.587 1470.26 312.198 1470.26 Q315.832 1470.26 317.637 1466.72 Q319.466 1463.16 319.466 1456.05 Q319.466 1448.92 317.637 1445.38 Q315.832 1441.82 312.198 1441.82 M312.198 1438.11 Q318.008 1438.11 321.063 1442.72 Q324.142 1447.3 324.142 1456.05 Q324.142 1464.78 321.063 1469.38 Q318.008 1473.97 312.198 1473.97 Q306.388 1473.97 303.309 1469.38 Q300.253 1464.78 300.253 1456.05 Q300.253 1447.3 303.309 1442.72 Q306.388 1438.11 312.198 1438.11 Z" fill="#000000" fill-rule="nonzero" fill-opacity="1" /><path clip-path="url(#clip460)" d="M704.529 1485.02 L720.849 1485.02 L720.849 1488.96 L698.904 1488.96 L698.904 1485.02 Q701.566 1482.27 706.15 1477.64 Q710.756 1472.98 711.937 1471.64 Q714.182 1469.12 715.062 1467.38 Q715.965 1465.62 715.965 1463.93 Q715.965 1461.18 714.02 1459.44 Q712.099 1457.71 708.997 1457.71 Q706.798 1457.71 704.344 1458.47 Q701.914 1459.23 699.136 1460.79 L699.136 1456.06 Q701.96 1454.93 704.414 1454.35 Q706.867 1453.77 708.904 1453.77 Q714.275 1453.77 717.469 1456.46 Q720.664 1459.14 720.664 1463.63 Q720.664 1465.76 719.853 1467.68 Q719.066 1469.58 716.96 1472.17 Q716.381 1472.85 713.279 1476.06 Q710.178 1479.26 704.529 1485.02 Z" fill="#000000" fill-rule="nonzero" fill-opacity="1" /><path clip-path="url(#clip460)" d="M730.664 1483.08 L735.548 1483.08 L735.548 1488.96 L730.664 1488.96 L730.664 1483.08 Z" fill="#000000" fill-rule="nonzero" fill-opacity="1" /><path clip-path="url(#clip460)" d="M745.779 1454.4 L764.136 1454.4 L764.136 1458.33 L750.062 1458.33 L750.062 1466.8 Q751.08 1466.46 752.099 1466.29 Q753.117 1466.11 754.136 1466.11 Q759.923 1466.11 763.302 1469.28 Q766.682 1472.45 766.682 1477.87 Q766.682 1483.45 763.21 1486.55 Q759.737 1489.63 753.418 1489.63 Q751.242 1489.63 748.974 1489.26 Q746.728 1488.89 744.321 1488.15 L744.321 1483.45 Q746.404 1484.58 748.626 1485.14 Q750.849 1485.69 753.325 1485.69 Q757.33 1485.69 759.668 1483.59 Q762.006 1481.48 762.006 1477.87 Q762.006 1474.26 759.668 1472.15 Q757.33 1470.04 753.325 1470.04 Q751.45 1470.04 749.575 1470.46 Q747.724 1470.88 745.779 1471.76 L745.779 1454.4 Z" fill="#000000" fill-rule="nonzero" fill-opacity="1" /><path clip-path="url(#clip460)" d="M785.895 1457.48 Q782.284 1457.48 780.455 1461.04 Q778.649 1464.58 778.649 1471.71 Q778.649 1478.82 780.455 1482.38 Q782.284 1485.92 785.895 1485.92 Q789.529 1485.92 791.335 1482.38 Q793.163 1478.82 793.163 1471.71 Q793.163 1464.58 791.335 1461.04 Q789.529 1457.48 785.895 1457.48 M785.895 1453.77 Q791.705 1453.77 794.76 1458.38 Q797.839 1462.96 797.839 1471.71 Q797.839 1480.44 794.76 1485.04 Q791.705 1489.63 785.895 1489.63 Q780.085 1489.63 777.006 1485.04 Q773.95 1480.44 773.95 1471.71 Q773.95 1462.96 777.006 1458.38 Q780.085 1453.77 785.895 1453.77 Z" fill="#000000" fill-rule="nonzero" fill-opacity="1" /><path clip-path="url(#clip460)" d="M834.228 1463.49 L823.649 1474.12 L834.228 1484.7 L831.473 1487.5 L820.848 1476.87 L810.223 1487.5 L807.492 1484.7 L818.047 1474.12 L807.492 1463.49 L810.223 1460.69 L820.848 1471.32 L831.473 1460.69 L834.228 1463.49 Z" fill="#000000" fill-rule="nonzero" fill-opacity="1" /><path clip-path="url(#clip460)" d="M846.589 1485.02 L854.228 1485.02 L854.228 1458.66 L845.918 1460.32 L845.918 1456.06 L854.181 1454.4 L858.857 1454.4 L858.857 1485.02 L866.496 1485.02 L866.496 1488.96 L846.589 1488.96 L846.589 1485.02 Z" fill="#000000" fill-rule="nonzero" fill-opacity="1" /><path clip-path="url(#clip460)" d="M885.94 1457.48 Q882.329 1457.48 880.501 1461.04 Q878.695 1464.58 878.695 1471.71 Q878.695 1478.82 880.501 1482.38 Q882.329 1485.92 885.94 1485.92 Q889.575 1485.92 891.38 1482.38 Q893.209 1478.82 893.209 1471.71 Q893.209 1464.58 891.38 1461.04 Q889.575 1457.48 885.94 1457.48 M885.94 1453.77 Q891.751 1453.77 894.806 1458.38 Q897.885 1462.96 897.885 1471.71 Q897.885 1480.44 894.806 1485.04 Q891.751 1489.63 885.94 1489.63 Q880.13 1489.63 877.052 1485.04 Q873.996 1480.44 873.996 1471.71 Q873.996 1462.96 877.052 1458.38 Q880.13 1453.77 885.94 1453.77 Z" fill="#000000" fill-rule="nonzero" fill-opacity="1" /><path clip-path="url(#clip460)" d="M899.07 1433.47 L913.984 1433.47 L913.984 1436.66 L902.549 1436.66 L902.549 1443.55 Q903.377 1443.27 904.204 1443.13 Q905.032 1442.98 905.859 1442.98 Q910.561 1442.98 913.307 1445.56 Q916.053 1448.14 916.053 1452.54 Q916.053 1457.07 913.232 1459.59 Q910.411 1462.09 905.276 1462.09 Q903.508 1462.09 901.665 1461.79 Q899.841 1461.49 897.885 1460.89 L897.885 1457.07 Q899.578 1457.99 901.383 1458.44 Q903.189 1458.89 905.201 1458.89 Q908.455 1458.89 910.354 1457.18 Q912.254 1455.47 912.254 1452.54 Q912.254 1449.6 910.354 1447.89 Q908.455 1446.18 905.201 1446.18 Q903.678 1446.18 902.154 1446.52 Q900.65 1446.86 899.07 1447.57 L899.07 1433.47 Z" fill="#000000" fill-rule="nonzero" fill-opacity="1" /><path clip-path="url(#clip460)" d="M1195.74 1454.4 L1214.09 1454.4 L1214.09 1458.33 L1200.02 1458.33 L1200.02 1466.8 Q1201.04 1466.46 1202.06 1466.29 Q1203.07 1466.11 1204.09 1466.11 Q1209.88 1466.11 1213.26 1469.28 Q1216.64 1472.45 1216.64 1477.87 Q1216.64 1483.45 1213.17 1486.55 Q1209.69 1489.63 1203.38 1489.63 Q1201.2 1489.63 1198.93 1489.26 Q1196.69 1488.89 1194.28 1488.15 L1194.28 1483.45 Q1196.36 1484.58 1198.58 1485.14 Q1200.81 1485.69 1203.28 1485.69 Q1207.29 1485.69 1209.63 1483.59 Q1211.96 1481.48 1211.96 1477.87 Q1211.96 1474.26 1209.63 1472.15 Q1207.29 1470.04 1203.28 1470.04 Q1201.41 1470.04 1199.53 1470.46 Q1197.68 1470.88 1195.74 1471.76 L1195.74 1454.4 Z" fill="#000000" fill-rule="nonzero" fill-opacity="1" /><path clip-path="url(#clip460)" d="M1225.85 1483.08 L1230.74 1483.08 L1230.74 1488.96 L1225.85 1488.96 L1225.85 1483.08 Z" fill="#000000" fill-rule="nonzero" fill-opacity="1" /><path clip-path="url(#clip460)" d="M1250.92 1457.48 Q1247.31 1457.48 1245.48 1461.04 Q1243.68 1464.58 1243.68 1471.71 Q1243.68 1478.82 1245.48 1482.38 Q1247.31 1485.92 1250.92 1485.92 Q1254.56 1485.92 1256.36 1482.38 Q1258.19 1478.82 1258.19 1471.71 Q1258.19 1464.58 1256.36 1461.04 Q1254.56 1457.48 1250.92 1457.48 M1250.92 1453.77 Q1256.73 1453.77 1259.79 1458.38 Q1262.87 1462.96 1262.87 1471.71 Q1262.87 1480.44 1259.79 1485.04 Q1256.73 1489.63 1250.92 1489.63 Q1245.11 1489.63 1242.03 1485.04 Q1238.98 1480.44 1238.98 1471.71 Q1238.98 1462.96 1242.03 1458.38 Q1245.11 1453.77 1250.92 1453.77 Z" fill="#000000" fill-rule="nonzero" fill-opacity="1" /><path clip-path="url(#clip460)" d="M1281.08 1457.48 Q1277.47 1457.48 1275.64 1461.04 Q1273.84 1464.58 1273.84 1471.71 Q1273.84 1478.82 1275.64 1482.38 Q1277.47 1485.92 1281.08 1485.92 Q1284.72 1485.92 1286.52 1482.38 Q1288.35 1478.82 1288.35 1471.71 Q1288.35 1464.58 1286.52 1461.04 Q1284.72 1457.48 1281.08 1457.48 M1281.08 1453.77 Q1286.89 1453.77 1289.95 1458.38 Q1293.03 1462.96 1293.03 1471.71 Q1293.03 1480.44 1289.95 1485.04 Q1286.89 1489.63 1281.08 1489.63 Q1275.27 1489.63 1272.19 1485.04 Q1269.14 1480.44 1269.14 1471.71 Q1269.14 1462.96 1272.19 1458.38 Q1275.27 1453.77 1281.08 1453.77 Z" fill="#000000" fill-rule="nonzero" fill-opacity="1" /><path clip-path="url(#clip460)" d="M1329.42 1463.49 L1318.84 1474.12 L1329.42 1484.7 L1326.66 1487.5 L1316.04 1476.87 L1305.41 1487.5 L1302.68 1484.7 L1313.24 1474.12 L1302.68 1463.49 L1305.41 1460.69 L1316.04 1471.32 L1326.66 1460.69 L1329.42 1463.49 Z" fill="#000000" fill-rule="nonzero" fill-opacity="1" /><path clip-path="url(#clip460)" d="M1341.78 1485.02 L1349.42 1485.02 L1349.42 1458.66 L1341.11 1460.32 L1341.11 1456.06 L1349.37 1454.4 L1354.05 1454.4 L1354.05 1485.02 L1361.68 1485.02 L1361.68 1488.96 L1341.78 1488.96 L1341.78 1485.02 Z" fill="#000000" fill-rule="nonzero" fill-opacity="1" /><path clip-path="url(#clip460)" d="M1381.13 1457.48 Q1377.52 1457.48 1375.69 1461.04 Q1373.88 1464.58 1373.88 1471.71 Q1373.88 1478.82 1375.69 1482.38 Q1377.52 1485.92 1381.13 1485.92 Q1384.76 1485.92 1386.57 1482.38 Q1388.4 1478.82 1388.4 1471.71 Q1388.4 1464.58 1386.57 1461.04 Q1384.76 1457.48 1381.13 1457.48 M1381.13 1453.77 Q1386.94 1453.77 1389.99 1458.38 Q1393.07 1462.96 1393.07 1471.71 Q1393.07 1480.44 1389.99 1485.04 Q1386.94 1489.63 1381.13 1489.63 Q1375.32 1489.63 1372.24 1485.04 Q1369.18 1480.44 1369.18 1471.71 Q1369.18 1462.96 1372.24 1458.38 Q1375.32 1453.77 1381.13 1453.77 Z" fill="#000000" fill-rule="nonzero" fill-opacity="1" /><path clip-path="url(#clip460)" d="M1394.26 1433.47 L1409.17 1433.47 L1409.17 1436.66 L1397.74 1436.66 L1397.74 1443.55 Q1398.57 1443.27 1399.39 1443.13 Q1400.22 1442.98 1401.05 1442.98 Q1405.75 1442.98 1408.5 1445.56 Q1411.24 1448.14 1411.24 1452.54 Q1411.24 1457.07 1408.42 1459.59 Q1405.6 1462.09 1400.46 1462.09 Q1398.7 1462.09 1396.85 1461.79 Q1395.03 1461.49 1393.07 1460.89 L1393.07 1457.07 Q1394.77 1457.99 1396.57 1458.44 Q1398.38 1458.89 1400.39 1458.89 Q1403.64 1458.89 1405.54 1457.18 Q1407.44 1455.47 1407.44 1452.54 Q1407.44 1449.6 1405.54 1447.89 Q1403.64 1446.18 1400.39 1446.18 Q1398.87 1446.18 1397.34 1446.52 Q1395.84 1446.86 1394.26 1447.57 L1394.26 1433.47 Z" fill="#000000" fill-rule="nonzero" fill-opacity="1" /><path clip-path="url(#clip460)" d="M1689.68 1454.4 L1711.9 1454.4 L1711.9 1456.39 L1699.35 1488.96 L1694.47 1488.96 L1706.27 1458.33 L1689.68 1458.33 L1689.68 1454.4 Z" fill="#000000" fill-rule="nonzero" fill-opacity="1" /><path clip-path="url(#clip460)" d="M1721.02 1483.08 L1725.9 1483.08 L1725.9 1488.96 L1721.02 1488.96 L1721.02 1483.08 Z" fill="#000000" fill-rule="nonzero" fill-opacity="1" /><path clip-path="url(#clip460)" d="M1736.13 1454.4 L1754.49 1454.4 L1754.49 1458.33 L1740.42 1458.33 L1740.42 1466.8 Q1741.43 1466.46 1742.45 1466.29 Q1743.47 1466.11 1744.49 1466.11 Q1750.28 1466.11 1753.66 1469.28 Q1757.04 1472.45 1757.04 1477.87 Q1757.04 1483.45 1753.56 1486.55 Q1750.09 1489.63 1743.77 1489.63 Q1741.6 1489.63 1739.33 1489.26 Q1737.08 1488.89 1734.67 1488.15 L1734.67 1483.45 Q1736.76 1484.58 1738.98 1485.14 Q1741.2 1485.69 1743.68 1485.69 Q1747.68 1485.69 1750.02 1483.59 Q1752.36 1481.48 1752.36 1477.87 Q1752.36 1474.26 1750.02 1472.15 Q1747.68 1470.04 1743.68 1470.04 Q1741.8 1470.04 1739.93 1470.46 Q1738.08 1470.88 1736.13 1471.76 L1736.13 1454.4 Z" fill="#000000" fill-rule="nonzero" fill-opacity="1" /><path clip-path="url(#clip460)" d="M1776.25 1457.48 Q1772.64 1457.48 1770.81 1461.04 Q1769 1464.58 1769 1471.71 Q1769 1478.82 1770.81 1482.38 Q1772.64 1485.92 1776.25 1485.92 Q1779.88 1485.92 1781.69 1482.38 Q1783.52 1478.82 1783.52 1471.71 Q1783.52 1464.58 1781.69 1461.04 Q1779.88 1457.48 1776.25 1457.48 M1776.25 1453.77 Q1782.06 1453.77 1785.11 1458.38 Q1788.19 1462.96 1788.19 1471.71 Q1788.19 1480.44 1785.11 1485.04 Q1782.06 1489.63 1776.25 1489.63 Q1770.44 1489.63 1767.36 1485.04 Q1764.3 1480.44 1764.3 1471.71 Q1764.3 1462.96 1767.36 1458.38 Q1770.44 1453.77 1776.25 1453.77 Z" fill="#000000" fill-rule="nonzero" fill-opacity="1" /><path clip-path="url(#clip460)" d="M1824.58 1463.49 L1814 1474.12 L1824.58 1484.7 L1821.83 1487.5 L1811.2 1476.87 L1800.58 1487.5 L1797.85 1484.7 L1808.4 1474.12 L1797.85 1463.49 L1800.58 1460.69 L1811.2 1471.32 L1821.83 1460.69 L1824.58 1463.49 Z" fill="#000000" fill-rule="nonzero" fill-opacity="1" /><path clip-path="url(#clip460)" d="M1836.94 1485.02 L1844.58 1485.02 L1844.58 1458.66 L1836.27 1460.32 L1836.27 1456.06 L1844.54 1454.4 L1849.21 1454.4 L1849.21 1485.02 L1856.85 1485.02 L1856.85 1488.96 L1836.94 1488.96 L1836.94 1485.02 Z" fill="#000000" fill-rule="nonzero" fill-opacity="1" /><path clip-path="url(#clip460)" d="M1876.29 1457.48 Q1872.68 1457.48 1870.85 1461.04 Q1869.05 1464.58 1869.05 1471.71 Q1869.05 1478.82 1870.85 1482.38 Q1872.68 1485.92 1876.29 1485.92 Q1879.93 1485.92 1881.73 1482.38 Q1883.56 1478.82 1883.56 1471.71 Q1883.56 1464.58 1881.73 1461.04 Q1879.93 1457.48 1876.29 1457.48 M1876.29 1453.77 Q1882.1 1453.77 1885.16 1458.38 Q1888.24 1462.96 1888.24 1471.71 Q1888.24 1480.44 1885.16 1485.04 Q1882.1 1489.63 1876.29 1489.63 Q1870.48 1489.63 1867.41 1485.04 Q1864.35 1480.44 1864.35 1471.71 Q1864.35 1462.96 1867.41 1458.38 Q1870.48 1453.77 1876.29 1453.77 Z" fill="#000000" fill-rule="nonzero" fill-opacity="1" /><path clip-path="url(#clip460)" d="M1889.42 1433.47 L1904.34 1433.47 L1904.34 1436.66 L1892.9 1436.66 L1892.9 1443.55 Q1893.73 1443.27 1894.56 1443.13 Q1895.39 1442.98 1896.21 1442.98 Q1900.92 1442.98 1903.66 1445.56 Q1906.41 1448.14 1906.41 1452.54 Q1906.41 1457.07 1903.59 1459.59 Q1900.76 1462.09 1895.63 1462.09 Q1893.86 1462.09 1892.02 1461.79 Q1890.19 1461.49 1888.24 1460.89 L1888.24 1457.07 Q1889.93 1457.99 1891.74 1458.44 Q1893.54 1458.89 1895.55 1458.89 Q1898.81 1458.89 1900.71 1457.18 Q1902.61 1455.47 1902.61 1452.54 Q1902.61 1449.6 1900.71 1447.89 Q1898.81 1446.18 1895.55 1446.18 Q1894.03 1446.18 1892.51 1446.52 Q1891 1446.86 1889.42 1447.57 L1889.42 1433.47 Z" fill="#000000" fill-rule="nonzero" fill-opacity="1" /><path clip-path="url(#clip460)" d="M2185.68 1485.02 L2193.31 1485.02 L2193.31 1458.66 L2185 1460.32 L2185 1456.06 L2193.27 1454.4 L2197.94 1454.4 L2197.94 1485.02 L2205.58 1485.02 L2205.58 1488.96 L2185.68 1488.96 L2185.68 1485.02 Z" fill="#000000" fill-rule="nonzero" fill-opacity="1" /><path clip-path="url(#clip460)" d="M2215.03 1483.08 L2219.91 1483.08 L2219.91 1488.96 L2215.03 1488.96 L2215.03 1483.08 Z" fill="#000000" fill-rule="nonzero" fill-opacity="1" /><path clip-path="url(#clip460)" d="M2240.1 1457.48 Q2236.49 1457.48 2234.66 1461.04 Q2232.85 1464.58 2232.85 1471.71 Q2232.85 1478.82 2234.66 1482.38 Q2236.49 1485.92 2240.1 1485.92 Q2243.73 1485.92 2245.54 1482.38 Q2247.37 1478.82 2247.37 1471.71 Q2247.37 1464.58 2245.54 1461.04 Q2243.73 1457.48 2240.1 1457.48 M2240.1 1453.77 Q2245.91 1453.77 2248.96 1458.38 Q2252.04 1462.96 2252.04 1471.71 Q2252.04 1480.44 2248.96 1485.04 Q2245.91 1489.63 2240.1 1489.63 Q2234.29 1489.63 2231.21 1485.04 Q2228.15 1480.44 2228.15 1471.71 Q2228.15 1462.96 2231.21 1458.38 Q2234.29 1453.77 2240.1 1453.77 Z" fill="#000000" fill-rule="nonzero" fill-opacity="1" /><path clip-path="url(#clip460)" d="M2270.26 1457.48 Q2266.65 1457.48 2264.82 1461.04 Q2263.01 1464.58 2263.01 1471.71 Q2263.01 1478.82 2264.82 1482.38 Q2266.65 1485.92 2270.26 1485.92 Q2273.89 1485.92 2275.7 1482.38 Q2277.53 1478.82 2277.53 1471.71 Q2277.53 1464.58 2275.7 1461.04 Q2273.89 1457.48 2270.26 1457.48 M2270.26 1453.77 Q2276.07 1453.77 2279.12 1458.38 Q2282.2 1462.96 2282.2 1471.71 Q2282.2 1480.44 2279.12 1485.04 Q2276.07 1489.63 2270.26 1489.63 Q2264.45 1489.63 2261.37 1485.04 Q2258.31 1480.44 2258.31 1471.71 Q2258.31 1462.96 2261.37 1458.38 Q2264.45 1453.77 2270.26 1453.77 Z" fill="#000000" fill-rule="nonzero" fill-opacity="1" /><path clip-path="url(#clip460)" d="M2318.59 1463.49 L2308.01 1474.12 L2318.59 1484.7 L2315.84 1487.5 L2305.21 1476.87 L2294.59 1487.5 L2291.86 1484.7 L2302.41 1474.12 L2291.86 1463.49 L2294.59 1460.69 L2305.21 1471.32 L2315.84 1460.69 L2318.59 1463.49 Z" fill="#000000" fill-rule="nonzero" fill-opacity="1" /><path clip-path="url(#clip460)" d="M2330.95 1485.02 L2338.59 1485.02 L2338.59 1458.66 L2330.28 1460.32 L2330.28 1456.06 L2338.55 1454.4 L2343.22 1454.4 L2343.22 1485.02 L2350.86 1485.02 L2350.86 1488.96 L2330.95 1488.96 L2330.95 1485.02 Z" fill="#000000" fill-rule="nonzero" fill-opacity="1" /><path clip-path="url(#clip460)" d="M2370.3 1457.48 Q2366.69 1457.48 2364.86 1461.04 Q2363.06 1464.58 2363.06 1471.71 Q2363.06 1478.82 2364.86 1482.38 Q2366.69 1485.92 2370.3 1485.92 Q2373.94 1485.92 2375.74 1482.38 Q2377.57 1478.82 2377.57 1471.71 Q2377.57 1464.58 2375.74 1461.04 Q2373.94 1457.48 2370.3 1457.48 M2370.3 1453.77 Q2376.11 1453.77 2379.17 1458.38 Q2382.25 1462.96 2382.25 1471.71 Q2382.25 1480.44 2379.17 1485.04 Q2376.11 1489.63 2370.3 1489.63 Q2364.49 1489.63 2361.42 1485.04 Q2358.36 1480.44 2358.36 1471.71 Q2358.36 1462.96 2361.42 1458.38 Q2364.49 1453.77 2370.3 1453.77 Z" fill="#000000" fill-rule="nonzero" fill-opacity="1" /><path clip-path="url(#clip460)" d="M2392.27 1445.99 Q2389.72 1445.99 2388.21 1447.74 Q2386.73 1449.49 2386.73 1452.54 Q2386.73 1455.57 2388.21 1457.33 Q2389.72 1459.08 2392.27 1459.08 Q2394.83 1459.08 2396.32 1457.33 Q2397.82 1455.57 2397.82 1452.54 Q2397.82 1449.49 2396.32 1447.74 Q2394.83 1445.99 2392.27 1445.99 M2399.82 1434.09 L2399.82 1437.55 Q2398.39 1436.87 2396.92 1436.51 Q2395.47 1436.16 2394.04 1436.16 Q2390.28 1436.16 2388.29 1438.69 Q2386.31 1441.23 2386.03 1446.37 Q2387.14 1444.73 2388.81 1443.87 Q2390.49 1442.98 2392.5 1442.98 Q2396.73 1442.98 2399.18 1445.56 Q2401.64 1448.12 2401.64 1452.54 Q2401.64 1456.86 2399.08 1459.48 Q2396.52 1462.09 2392.27 1462.09 Q2387.4 1462.09 2384.83 1458.37 Q2382.25 1454.62 2382.25 1447.53 Q2382.25 1440.88 2385.41 1436.93 Q2388.57 1432.96 2393.89 1432.96 Q2395.32 1432.96 2396.77 1433.24 Q2398.24 1433.52 2399.82 1434.09 Z" fill="#000000" fill-rule="nonzero" fill-opacity="1" /><path clip-path="url(#clip460)" d="M1332.06 1523.67 Q1332.06 1524.99 1330.94 1524.99 Q1327.3 1525.12 1325.81 1526.34 Q1324.37 1527.54 1323.82 1529.85 L1314.61 1566.6 Q1314.28 1567.76 1314.09 1567.89 Q1313.9 1567.99 1313.54 1567.99 Q1313.09 1567.99 1312.84 1567.76 Q1312.61 1567.54 1312.29 1566.73 L1295.86 1527.89 Q1295.73 1527.63 1295.57 1527.28 Q1295.41 1526.92 1295.28 1526.7 L1286.56 1561.51 Q1286.3 1562.51 1286.3 1563.03 Q1286.3 1564.28 1287.17 1565.09 Q1288.07 1565.86 1290.65 1565.96 Q1291.97 1565.96 1291.97 1566.67 Q1291.97 1567.99 1290.77 1567.99 Q1289.68 1567.99 1287.39 1567.89 Q1285.11 1567.79 1283.98 1567.79 Q1282.88 1567.79 1280.66 1567.89 Q1278.44 1567.99 1277.38 1567.99 Q1276.54 1567.99 1276.54 1567.25 Q1276.54 1566.67 1276.76 1566.38 Q1276.99 1566.05 1277.18 1566.02 Q1277.38 1565.96 1277.67 1565.96 Q1279.6 1565.89 1280.92 1565.51 Q1282.24 1565.12 1282.98 1564.38 Q1283.75 1563.64 1284.11 1562.9 Q1284.49 1562.12 1284.78 1561 L1293.61 1525.57 Q1293.61 1524.99 1289.13 1524.99 Q1288.36 1524.99 1288.04 1524.96 Q1287.75 1524.93 1287.52 1524.77 Q1287.3 1524.6 1287.3 1524.25 Q1287.3 1523.35 1287.68 1523.16 Q1288.07 1522.93 1289.2 1522.93 L1298.05 1522.93 Q1299.18 1522.93 1299.47 1523.12 Q1299.76 1523.28 1300.15 1524.19 L1314.74 1558.61 L1322.11 1529.27 Q1322.3 1528.69 1322.3 1527.89 Q1322.3 1526.6 1321.34 1525.83 Q1320.4 1525.02 1317.83 1524.99 Q1316.64 1524.99 1316.64 1524.25 Q1316.64 1523.64 1316.86 1523.35 Q1317.12 1523.03 1317.31 1522.99 Q1317.54 1522.93 1317.83 1522.93 Q1318.92 1522.93 1321.18 1523.03 Q1323.43 1523.12 1324.56 1523.12 Q1325.65 1523.12 1327.88 1523.03 Q1330.13 1522.93 1331.22 1522.93 Q1331.61 1522.93 1331.8 1523.12 Q1332.03 1523.28 1332.06 1523.48 L1332.06 1523.67 Z" fill="#000000" fill-rule="nonzero" fill-opacity="1" /><polyline clip-path="url(#clip462)" style="stroke:#000000; stroke-linecap:round; stroke-linejoin:round; stroke-width:2; stroke-opacity:0.1; fill:none" points="252.764,1312.63 2352.76,1312.63 "/>
<polyline clip-path="url(#clip462)" style="stroke:#000000; stroke-linecap:round; stroke-linejoin:round; stroke-width:2; stroke-opacity:0.1; fill:none" points="252.764,1015 2352.76,1015 "/>
<polyline clip-path="url(#clip462)" style="stroke:#000000; stroke-linecap:round; stroke-linejoin:round; stroke-width:2; stroke-opacity:0.1; fill:none" points="252.764,717.371 2352.76,717.371 "/>
<polyline clip-path="url(#clip462)" style="stroke:#000000; stroke-linecap:round; stroke-linejoin:round; stroke-width:2; stroke-opacity:0.1; fill:none" points="252.764,419.74 2352.76,419.74 "/>
<polyline clip-path="url(#clip462)" style="stroke:#000000; stroke-linecap:round; stroke-linejoin:round; stroke-width:2; stroke-opacity:0.1; fill:none" points="252.764,122.109 2352.76,122.109 "/>
<polyline clip-path="url(#clip460)" style="stroke:#000000; stroke-linecap:round; stroke-linejoin:round; stroke-width:4; stroke-opacity:1; fill:none" points="252.764,1410.9 252.764,47.2441 "/>
<polyline clip-path="url(#clip460)" style="stroke:#000000; stroke-linecap:round; stroke-linejoin:round; stroke-width:4; stroke-opacity:1; fill:none" points="252.764,1312.63 271.662,1312.63 "/>
<polyline clip-path="url(#clip460)" style="stroke:#000000; stroke-linecap:round; stroke-linejoin:round; stroke-width:4; stroke-opacity:1; fill:none" points="252.764,1015 271.662,1015 "/>
<polyline clip-path="url(#clip460)" style="stroke:#000000; stroke-linecap:round; stroke-linejoin:round; stroke-width:4; stroke-opacity:1; fill:none" points="252.764,717.371 271.662,717.371 "/>
<polyline clip-path="url(#clip460)" style="stroke:#000000; stroke-linecap:round; stroke-linejoin:round; stroke-width:4; stroke-opacity:1; fill:none" points="252.764,419.74 271.662,419.74 "/>
<polyline clip-path="url(#clip460)" style="stroke:#000000; stroke-linecap:round; stroke-linejoin:round; stroke-width:4; stroke-opacity:1; fill:none" points="252.764,122.109 271.662,122.109 "/>
<path clip-path="url(#clip460)" d="M115.195 1332.43 L122.834 1332.43 L122.834 1306.06 L114.523 1307.73 L114.523 1303.47 L122.787 1301.8 L127.463 1301.8 L127.463 1332.43 L135.102 1332.43 L135.102 1336.36 L115.195 1336.36 L115.195 1332.43 Z" fill="#000000" fill-rule="nonzero" fill-opacity="1" /><path clip-path="url(#clip460)" d="M154.546 1304.88 Q150.935 1304.88 149.107 1308.44 Q147.301 1311.99 147.301 1319.12 Q147.301 1326.22 149.107 1329.79 Q150.935 1333.33 154.546 1333.33 Q158.181 1333.33 159.986 1329.79 Q161.815 1326.22 161.815 1319.12 Q161.815 1311.99 159.986 1308.44 Q158.181 1304.88 154.546 1304.88 M154.546 1301.18 Q160.357 1301.18 163.412 1305.78 Q166.491 1310.37 166.491 1319.12 Q166.491 1327.84 163.412 1332.45 Q160.357 1337.03 154.546 1337.03 Q148.736 1337.03 145.658 1332.45 Q142.602 1327.84 142.602 1319.12 Q142.602 1310.37 145.658 1305.78 Q148.736 1301.18 154.546 1301.18 Z" fill="#000000" fill-rule="nonzero" fill-opacity="1" /><path clip-path="url(#clip460)" d="M166.491 1295.28 L190.602 1295.28 L190.602 1298.47 L166.491 1298.47 L166.491 1295.28 Z" fill="#000000" fill-rule="nonzero" fill-opacity="1" /><path clip-path="url(#clip460)" d="M207.398 1293.4 Q204.84 1293.4 203.335 1295.15 Q201.849 1296.89 201.849 1299.94 Q201.849 1302.97 203.335 1304.74 Q204.84 1306.49 207.398 1306.49 Q209.956 1306.49 211.441 1304.74 Q212.946 1302.97 212.946 1299.94 Q212.946 1296.89 211.441 1295.15 Q209.956 1293.4 207.398 1293.4 M214.94 1281.49 L214.94 1284.95 Q213.51 1284.27 212.043 1283.92 Q210.595 1283.56 209.166 1283.56 Q205.404 1283.56 203.41 1286.1 Q201.436 1288.64 201.153 1293.77 Q202.263 1292.14 203.937 1291.27 Q205.611 1290.39 207.623 1290.39 Q211.855 1290.39 214.3 1292.96 Q216.764 1295.52 216.764 1299.94 Q216.764 1304.27 214.206 1306.88 Q211.648 1309.5 207.398 1309.5 Q202.526 1309.5 199.95 1305.77 Q197.373 1302.03 197.373 1294.94 Q197.373 1288.28 200.533 1284.33 Q203.693 1280.36 209.015 1280.36 Q210.445 1280.36 211.893 1280.64 Q213.36 1280.93 214.94 1281.49 Z" fill="#000000" fill-rule="nonzero" fill-opacity="1" /><path clip-path="url(#clip460)" d="M116.135 1034.79 L123.774 1034.79 L123.774 1008.43 L115.464 1010.1 L115.464 1005.84 L123.728 1004.17 L128.404 1004.17 L128.404 1034.79 L136.042 1034.79 L136.042 1038.73 L116.135 1038.73 L116.135 1034.79 Z" fill="#000000" fill-rule="nonzero" fill-opacity="1" /><path clip-path="url(#clip460)" d="M155.487 1007.25 Q151.876 1007.25 150.047 1010.81 Q148.241 1014.35 148.241 1021.48 Q148.241 1028.59 150.047 1032.16 Q151.876 1035.7 155.487 1035.7 Q159.121 1035.7 160.927 1032.16 Q162.755 1028.59 162.755 1021.48 Q162.755 1014.35 160.927 1010.81 Q159.121 1007.25 155.487 1007.25 M155.487 1003.54 Q161.297 1003.54 164.352 1008.15 Q167.431 1012.73 167.431 1021.48 Q167.431 1030.21 164.352 1034.82 Q161.297 1039.4 155.487 1039.4 Q149.677 1039.4 146.598 1034.82 Q143.542 1030.21 143.542 1021.48 Q143.542 1012.73 146.598 1008.15 Q149.677 1003.54 155.487 1003.54 Z" fill="#000000" fill-rule="nonzero" fill-opacity="1" /><path clip-path="url(#clip460)" d="M167.431 997.646 L191.543 997.646 L191.543 1000.84 L167.431 1000.84 L167.431 997.646 Z" fill="#000000" fill-rule="nonzero" fill-opacity="1" /><path clip-path="url(#clip460)" d="M199.781 983.239 L214.695 983.239 L214.695 986.437 L203.26 986.437 L203.26 993.32 Q204.088 993.038 204.915 992.907 Q205.743 992.756 206.57 992.756 Q211.272 992.756 214.018 995.333 Q216.764 997.91 216.764 1002.31 Q216.764 1006.84 213.943 1009.36 Q211.122 1011.86 205.987 1011.86 Q204.219 1011.86 202.376 1011.56 Q200.552 1011.26 198.596 1010.66 L198.596 1006.84 Q200.288 1007.76 202.094 1008.22 Q203.899 1008.67 205.912 1008.67 Q209.166 1008.67 211.065 1006.96 Q212.965 1005.24 212.965 1002.31 Q212.965 999.377 211.065 997.665 Q209.166 995.953 205.912 995.953 Q204.388 995.953 202.865 996.292 Q201.36 996.631 199.781 997.345 L199.781 983.239 Z" fill="#000000" fill-rule="nonzero" fill-opacity="1" /><path clip-path="url(#clip460)" d="M114.931 737.164 L122.57 737.164 L122.57 710.798 L114.26 712.465 L114.26 708.206 L122.524 706.539 L127.2 706.539 L127.2 737.164 L134.839 737.164 L134.839 741.099 L114.931 741.099 L114.931 737.164 Z" fill="#000000" fill-rule="nonzero" fill-opacity="1" /><path clip-path="url(#clip460)" d="M154.283 709.618 Q150.672 709.618 148.843 713.182 Q147.038 716.724 147.038 723.854 Q147.038 730.96 148.843 734.525 Q150.672 738.066 154.283 738.066 Q157.917 738.066 159.723 734.525 Q161.552 730.96 161.552 723.854 Q161.552 716.724 159.723 713.182 Q157.917 709.618 154.283 709.618 M154.283 705.914 Q160.093 705.914 163.149 710.52 Q166.227 715.104 166.227 723.854 Q166.227 732.58 163.149 737.187 Q160.093 741.77 154.283 741.77 Q148.473 741.77 145.394 737.187 Q142.339 732.58 142.339 723.854 Q142.339 715.104 145.394 710.52 Q148.473 705.914 154.283 705.914 Z" fill="#000000" fill-rule="nonzero" fill-opacity="1" /><path clip-path="url(#clip460)" d="M166.227 700.015 L190.339 700.015 L190.339 703.213 L166.227 703.213 L166.227 700.015 Z" fill="#000000" fill-rule="nonzero" fill-opacity="1" /><path clip-path="url(#clip460)" d="M208.978 688.919 L199.386 703.908 L208.978 703.908 L208.978 688.919 M207.981 685.608 L212.758 685.608 L212.758 703.908 L216.764 703.908 L216.764 707.068 L212.758 707.068 L212.758 713.688 L208.978 713.688 L208.978 707.068 L196.301 707.068 L196.301 703.401 L207.981 685.608 Z" fill="#000000" fill-rule="nonzero" fill-opacity="1" /><path clip-path="url(#clip460)" d="M115.853 439.533 L123.492 439.533 L123.492 413.167 L115.182 414.834 L115.182 410.575 L123.446 408.908 L128.121 408.908 L128.121 439.533 L135.76 439.533 L135.76 443.468 L115.853 443.468 L115.853 439.533 Z" fill="#000000" fill-rule="nonzero" fill-opacity="1" /><path clip-path="url(#clip460)" d="M155.205 411.987 Q151.594 411.987 149.765 415.551 Q147.959 419.093 147.959 426.223 Q147.959 433.329 149.765 436.894 Q151.594 440.436 155.205 440.436 Q158.839 440.436 160.644 436.894 Q162.473 433.329 162.473 426.223 Q162.473 419.093 160.644 415.551 Q158.839 411.987 155.205 411.987 M155.205 408.283 Q161.015 408.283 164.07 412.889 Q167.149 417.473 167.149 426.223 Q167.149 434.949 164.07 439.556 Q161.015 444.139 155.205 444.139 Q149.395 444.139 146.316 439.556 Q143.26 434.949 143.26 426.223 Q143.26 417.473 146.316 412.889 Q149.395 408.283 155.205 408.283 Z" fill="#000000" fill-rule="nonzero" fill-opacity="1" /><path clip-path="url(#clip460)" d="M167.149 402.384 L191.261 402.384 L191.261 405.582 L167.149 405.582 L167.149 402.384 Z" fill="#000000" fill-rule="nonzero" fill-opacity="1" /><path clip-path="url(#clip460)" d="M210.971 400.917 Q213.698 401.5 215.222 403.343 Q216.764 405.187 216.764 407.895 Q216.764 412.051 213.905 414.327 Q211.046 416.603 205.78 416.603 Q204.012 416.603 202.132 416.246 Q200.27 415.907 198.276 415.211 L198.276 411.544 Q199.856 412.465 201.737 412.935 Q203.617 413.406 205.667 413.406 Q209.241 413.406 211.103 411.995 Q212.984 410.584 212.984 407.895 Q212.984 405.412 211.234 404.021 Q209.504 402.61 206.401 402.61 L203.128 402.61 L203.128 399.488 L206.551 399.488 Q209.354 399.488 210.84 398.378 Q212.325 397.25 212.325 395.143 Q212.325 392.98 210.783 391.833 Q209.26 390.667 206.401 390.667 Q204.84 390.667 203.053 391.006 Q201.266 391.344 199.122 392.059 L199.122 388.673 Q201.285 388.072 203.166 387.771 Q205.066 387.47 206.739 387.47 Q211.065 387.47 213.585 389.445 Q216.106 391.401 216.106 394.748 Q216.106 397.08 214.77 398.698 Q213.435 400.297 210.971 400.917 Z" fill="#000000" fill-rule="nonzero" fill-opacity="1" /><path clip-path="url(#clip460)" d="M116.624 141.902 L124.263 141.902 L124.263 115.536 L115.953 117.203 L115.953 112.944 L124.217 111.277 L128.893 111.277 L128.893 141.902 L136.531 141.902 L136.531 145.837 L116.624 145.837 L116.624 141.902 Z" fill="#000000" fill-rule="nonzero" fill-opacity="1" /><path clip-path="url(#clip460)" d="M155.976 114.356 Q152.365 114.356 150.536 117.92 Q148.73 121.462 148.73 128.592 Q148.73 135.698 150.536 139.263 Q152.365 142.805 155.976 142.805 Q159.61 142.805 161.416 139.263 Q163.244 135.698 163.244 128.592 Q163.244 121.462 161.416 117.92 Q159.61 114.356 155.976 114.356 M155.976 110.652 Q161.786 110.652 164.841 115.258 Q167.92 119.842 167.92 128.592 Q167.92 137.318 164.841 141.925 Q161.786 146.508 155.976 146.508 Q150.166 146.508 147.087 141.925 Q144.031 137.318 144.031 128.592 Q144.031 119.842 147.087 115.258 Q150.166 110.652 155.976 110.652 Z" fill="#000000" fill-rule="nonzero" fill-opacity="1" /><path clip-path="url(#clip460)" d="M167.92 104.753 L192.032 104.753 L192.032 107.951 L167.92 107.951 L167.92 104.753 Z" fill="#000000" fill-rule="nonzero" fill-opacity="1" /><path clip-path="url(#clip460)" d="M203.504 115.229 L216.764 115.229 L216.764 118.427 L198.934 118.427 L198.934 115.229 Q201.097 112.991 204.821 109.23 Q208.564 105.449 209.523 104.358 Q211.347 102.308 212.062 100.898 Q212.796 99.4683 212.796 98.0954 Q212.796 95.8572 211.216 94.4466 Q209.655 93.0361 207.134 93.0361 Q205.348 93.0361 203.354 93.6567 Q201.379 94.2774 199.122 95.5375 L199.122 91.7007 Q201.417 90.7791 203.41 90.3089 Q205.404 89.8387 207.059 89.8387 Q211.423 89.8387 214.018 92.0204 Q216.613 94.2021 216.613 97.8509 Q216.613 99.5812 215.955 101.142 Q215.316 102.684 213.604 104.791 Q213.134 105.336 210.614 107.951 Q208.094 110.546 203.504 115.229 Z" fill="#000000" fill-rule="nonzero" fill-opacity="1" /><path clip-path="url(#clip460)" d="M41.7242 924.577 Q42.4244 922.508 44.7161 920.567 Q47.0077 918.593 51.0181 916.62 L64.0042 910.095 L64.0042 917.002 L51.8138 923.081 Q47.0395 925.437 45.48 927.665 Q43.9204 929.861 43.9204 933.68 L43.9204 940.682 L64.0042 940.682 L64.0042 947.112 L16.4842 947.112 L16.4842 932.598 Q16.4842 924.45 19.8898 920.439 Q23.2955 916.429 30.1704 916.429 Q34.6582 916.429 37.6183 918.53 Q40.5784 920.599 41.7242 924.577 M21.7677 940.682 L38.6368 940.682 L38.6368 932.598 Q38.6368 927.951 36.5043 925.596 Q34.34 923.209 30.1704 923.209 Q26.0009 923.209 23.9002 925.596 Q21.7677 927.951 21.7677 932.598 L21.7677 940.682 Z" fill="#000000" fill-rule="nonzero" fill-opacity="1" /><path clip-path="url(#clip460)" d="M44.7161 874.511 L47.5806 874.511 L47.5806 901.438 Q53.6281 901.056 56.8109 897.809 Q59.9619 894.531 59.9619 888.706 Q59.9619 885.333 59.1344 882.182 Q58.3069 878.999 56.6518 875.879 L62.1899 875.879 Q63.5267 879.031 64.227 882.341 Q64.9272 885.651 64.9272 889.056 Q64.9272 897.587 59.9619 902.584 Q54.9967 907.549 46.5303 907.549 Q37.7774 907.549 32.6531 902.838 Q27.4968 898.096 27.4968 890.075 Q27.4968 882.882 32.1438 878.712 Q36.7589 874.511 44.7161 874.511 M42.9973 880.367 Q38.1912 880.431 35.3266 883.073 Q32.4621 885.683 32.4621 890.011 Q32.4621 894.913 35.2312 897.873 Q38.0002 900.801 43.0292 901.247 L42.9973 880.367 Z" fill="#000000" fill-rule="nonzero" fill-opacity="1" /><path clip-path="url(#clip460)" d="M14.479 864.899 L14.479 859.042 L64.0042 859.042 L64.0042 864.899 L14.479 864.899 Z" fill="#000000" fill-rule="nonzero" fill-opacity="1" /><path clip-path="url(#clip460)" d="M46.0847 830.587 Q46.0847 837.685 47.7079 840.422 Q49.3312 843.16 53.2461 843.16 Q56.3653 843.16 58.2114 841.123 Q60.0256 839.054 60.0256 835.521 Q60.0256 830.651 56.5881 827.723 Q53.1188 824.763 47.3897 824.763 L46.0847 824.763 L46.0847 830.587 M43.6657 818.906 L64.0042 818.906 L64.0042 824.763 L58.5933 824.763 Q61.8398 826.768 63.3994 829.76 Q64.9272 832.752 64.9272 837.08 Q64.9272 842.555 61.8716 845.802 Q58.7843 849.016 53.6281 849.016 Q47.6125 849.016 44.5569 845.006 Q41.5014 840.964 41.5014 832.975 L41.5014 824.763 L40.9285 824.763 Q36.8862 824.763 34.6901 827.436 Q32.4621 830.078 32.4621 834.884 Q32.4621 837.94 33.1941 840.836 Q33.9262 843.733 35.3903 846.406 L29.9795 846.406 Q28.7381 843.192 28.1334 840.168 Q27.4968 837.144 27.4968 834.28 Q27.4968 826.545 31.5072 822.726 Q35.5176 818.906 43.6657 818.906 Z" fill="#000000" fill-rule="nonzero" fill-opacity="1" /><path clip-path="url(#clip460)" d="M18.2347 801.051 L28.3562 801.051 L28.3562 788.988 L32.9077 788.988 L32.9077 801.051 L52.2594 801.051 Q56.6199 801.051 57.8613 799.873 Q59.1026 798.663 59.1026 795.003 L59.1026 788.988 L64.0042 788.988 L64.0042 795.003 Q64.0042 801.783 61.4897 804.361 Q58.9434 806.939 52.2594 806.939 L32.9077 806.939 L32.9077 811.236 L28.3562 811.236 L28.3562 806.939 L18.2347 806.939 L18.2347 801.051 Z" fill="#000000" fill-rule="nonzero" fill-opacity="1" /><path clip-path="url(#clip460)" d="M28.3562 781.285 L28.3562 775.429 L64.0042 775.429 L64.0042 781.285 L28.3562 781.285 M14.479 781.285 L14.479 775.429 L21.895 775.429 L21.895 781.285 L14.479 781.285 Z" fill="#000000" fill-rule="nonzero" fill-opacity="1" /><path clip-path="url(#clip460)" d="M28.3562 767.376 L28.3562 761.169 L58.275 750.029 L28.3562 738.889 L28.3562 732.683 L64.0042 746.051 L64.0042 754.008 L28.3562 767.376 Z" fill="#000000" fill-rule="nonzero" fill-opacity="1" /><path clip-path="url(#clip460)" d="M44.7161 694.107 L47.5806 694.107 L47.5806 721.034 Q53.6281 720.652 56.8109 717.405 Q59.9619 714.127 59.9619 708.302 Q59.9619 704.928 59.1344 701.777 Q58.3069 698.595 56.6518 695.475 L62.1899 695.475 Q63.5267 698.626 64.227 701.937 Q64.9272 705.247 64.9272 708.652 Q64.9272 717.182 59.9619 722.179 Q54.9967 727.145 46.5303 727.145 Q37.7774 727.145 32.6531 722.434 Q27.4968 717.692 27.4968 709.671 Q27.4968 702.478 32.1438 698.308 Q36.7589 694.107 44.7161 694.107 M42.9973 699.963 Q38.1912 700.027 35.3266 702.669 Q32.4621 705.279 32.4621 709.607 Q32.4621 714.509 35.2312 717.469 Q38.0002 720.397 43.0292 720.843 L42.9973 699.963 Z" fill="#000000" fill-rule="nonzero" fill-opacity="1" /><path clip-path="url(#clip460)" d="M16.4842 663.52 L16.4842 633.473 L21.895 633.473 L21.895 657.09 L35.9632 657.09 L35.9632 634.46 L41.3741 634.46 L41.3741 657.09 L58.5933 657.09 L58.5933 632.9 L64.0042 632.9 L64.0042 663.52 L16.4842 663.52 Z" fill="#000000" fill-rule="nonzero" fill-opacity="1" /><path clip-path="url(#clip460)" d="M33.8307 601.931 Q33.2578 602.918 33.0032 604.096 Q32.7167 605.241 32.7167 606.642 Q32.7167 611.607 35.9632 614.281 Q39.1779 616.923 45.2253 616.923 L64.0042 616.923 L64.0042 622.811 L28.3562 622.811 L28.3562 616.923 L33.8944 616.923 Q30.6479 615.076 29.0883 612.116 Q27.4968 609.156 27.4968 604.923 Q27.4968 604.318 27.5923 603.586 Q27.656 602.854 27.8151 601.963 L33.8307 601.931 Z" fill="#000000" fill-rule="nonzero" fill-opacity="1" /><path clip-path="url(#clip460)" d="M33.8307 576.277 Q33.2578 577.264 33.0032 578.442 Q32.7167 579.588 32.7167 580.988 Q32.7167 585.953 35.9632 588.627 Q39.1779 591.269 45.2253 591.269 L64.0042 591.269 L64.0042 597.157 L28.3562 597.157 L28.3562 591.269 L33.8944 591.269 Q30.6479 589.423 29.0883 586.463 Q27.4968 583.503 27.4968 579.269 Q27.4968 578.665 27.5923 577.933 Q27.656 577.201 27.8151 576.309 L33.8307 576.277 Z" fill="#000000" fill-rule="nonzero" fill-opacity="1" /><path clip-path="url(#clip460)" d="M32.4621 557.753 Q32.4621 562.464 36.1542 565.201 Q39.8145 567.938 46.212 567.938 Q52.6095 567.938 56.3017 565.233 Q59.9619 562.496 59.9619 557.753 Q59.9619 553.074 56.2698 550.337 Q52.5777 547.6 46.212 547.6 Q39.8781 547.6 36.186 550.337 Q32.4621 553.074 32.4621 557.753 M27.4968 557.753 Q27.4968 550.114 32.4621 545.754 Q37.4273 541.393 46.212 541.393 Q54.9649 541.393 59.9619 545.754 Q64.9272 550.114 64.9272 557.753 Q64.9272 565.424 59.9619 569.784 Q54.9649 574.113 46.212 574.113 Q37.4273 574.113 32.4621 569.784 Q27.4968 565.424 27.4968 557.753 Z" fill="#000000" fill-rule="nonzero" fill-opacity="1" /><path clip-path="url(#clip460)" d="M33.8307 511.029 Q33.2578 512.016 33.0032 513.193 Q32.7167 514.339 32.7167 515.74 Q32.7167 520.705 35.9632 523.378 Q39.1779 526.02 45.2253 526.02 L64.0042 526.02 L64.0042 531.909 L28.3562 531.909 L28.3562 526.02 L33.8944 526.02 Q30.6479 524.174 29.0883 521.214 Q27.4968 518.254 27.4968 514.021 Q27.4968 513.416 27.5923 512.684 Q27.656 511.952 27.8151 511.061 L33.8307 511.029 Z" fill="#000000" fill-rule="nonzero" fill-opacity="1" /><polyline clip-path="url(#clip462)" style="stroke:#009af9; stroke-linecap:round; stroke-linejoin:round; stroke-width:4; stroke-opacity:1; fill:none" points="314.179,85.838 316.16,507.55 318.141,345.193 320.122,409.244 322.103,299.039 324.084,202.052 326.066,288.181 328.047,206.074 330.028,513.716 332.009,478.587 333.99,241.215 335.971,116.041 337.952,570.68 339.933,367.861 341.915,213.645 343.896,177.874 345.877,206.005 347.858,475.736 349.839,350.153 351.82,195.597 353.801,479.829 355.782,308.808 357.764,277.817 359.745,204.623 361.726,463.04 363.707,226.085 365.688,466.662 367.669,339.69 369.65,307.076 371.631,330.636 373.613,440.987 375.594,523.539 377.575,318.186 379.556,398.234 381.537,481.371 383.518,288.022 385.499,314.234 387.48,415.377 389.462,396.979 391.443,405.505 393.424,222.877 395.405,349.672 397.386,354.651 399.367,541.052 401.348,627.519 403.329,374.381 405.311,439.366 407.292,467.211 409.273,433.905 411.254,153.551 413.235,544.087 415.216,394.352 417.197,435.327 419.178,416.462 421.16,411.898 423.141,329.657 425.122,228.015 427.103,342.335 429.084,324.931 431.065,238.093 433.046,459.264 435.027,176.504 437.009,512.808 438.99,507.372 440.971,191.64 442.952,591.545 444.933,336.333 446.914,411.495 448.895,581.312 450.876,342.578 452.858,527.27 454.839,652.618 456.82,503.746 458.801,296.786 460.782,310.508 462.763,501.381 464.744,345.193 466.725,299.799 468.707,333.991 470.688,350.75 472.669,474.186 474.65,448.265 476.631,560.426 478.612,387.832 480.593,482.265 482.574,370.636 484.556,263.779 486.537,454.15 488.518,396.86 490.499,618.701 492.48,437.631 494.461,282.063 496.442,563.447 498.423,351.233 500.405,268.817 502.386,654.916 504.367,287.072 506.348,521.53 508.329,532.17 510.31,352.45 512.291,515.603 514.272,399.919 516.254,614.068 518.235,469.48 520.216,331.03 522.197,461.635 524.178,322.441 526.159,344.34 528.14,450.652 530.121,380.318 532.103,405.681 534.084,379.162 536.065,253.559 538.046,351.849 540.027,326.915 542.008,414.077 543.989,510.355 545.97,374.99 547.951,380.737 549.933,322.344 551.914,535.458 553.895,434.353 555.876,278.108 557.857,451.163 559.838,358.045 561.819,337.364 563.8,556.721 565.782,556.254 567.763,408.365 569.744,446.142 571.725,503.449 573.706,388.083 575.687,212.76 577.668,758.669 579.649,421.93 581.631,666.359 583.612,343.851 585.593,548.415 587.574,331.146 589.555,371.857 591.536,640.055 593.517,226.444 595.498,384.019 597.48,365.801 599.461,417.656 601.442,660.037 603.423,348.415 605.404,661.362 607.385,398.124 609.366,293.551 611.347,392.094 613.329,363.455 615.31,477.134 617.291,725.965 619.272,248.108 621.253,397.18 623.234,442.389 625.215,305.167 627.196,546.901 629.178,383.986 631.159,522.496 633.14,456.829 635.121,454.412 637.102,467.958 639.083,326.935 641.064,548.643 643.045,475.042 645.027,334.125 647.008,443.682 648.989,526.822 650.97,470.175 652.951,717.304 654.932,446.013 656.913,507.55 658.894,559.332 660.876,335.093 662.857,488.802 664.838,648.202 666.819,413.736 668.8,373.183 670.781,340.676 672.762,320.709 674.743,630.546 676.725,552.513 678.706,824.574 680.687,348.78 682.668,359.234 684.649,479.292 686.63,434.183 688.611,504.177 690.592,464.688 692.574,392.931 694.555,440.437 696.536,531.37 698.517,504.262 700.498,519.698 702.479,382.389 704.46,311.901 706.441,485.14 708.423,598.612 710.404,593.907 712.385,466.409 714.366,331.243 716.347,450.567 718.328,434.731 720.309,642.036 722.29,438.679 724.272,421.477 726.253,553.732 728.234,491.887 730.215,416.453 732.196,460.566 734.177,451.16 736.158,361.274 738.139,578.63 740.121,503.118 742.102,418.107 744.083,445.574 746.064,460.172 748.045,461.171 750.026,501.804 752.007,585.422 753.988,332.407 755.97,434.299 757.951,395.851 759.932,353.645 761.913,408.566 763.894,445.057 765.875,292.807 767.856,597.743 769.837,492.887 771.819,450.726 773.8,458.843 775.781,466.325 777.762,362.034 779.743,429.38 781.724,491.748 783.705,694.926 785.686,504.861 787.668,413.017 789.649,579.392 791.63,343.674 793.611,487.768 795.592,517.652 797.573,393.053 799.554,458.684 801.535,408.478 803.517,864.187 805.498,343.455 807.479,519.799 809.46,342.236 811.441,490.299 813.422,332.822 815.403,468.189 817.384,299.563 819.366,390.515 821.347,520.362 823.328,371.512 825.309,382.602 827.29,312.131 829.271,370.481 831.252,390.164 833.233,361.667 835.215,593.922 837.196,323.708 839.177,420.363 841.158,389.825 843.139,474.584 845.12,359.042 847.101,485.504 849.082,672.585 851.064,460.958 853.045,552.622 855.026,358.322 857.007,420.028 858.988,527.889 860.969,478.852 862.95,463.455 864.931,504.304 866.913,307.876 868.894,518.39 870.875,361.438 872.856,800.537 874.837,414.144 876.818,858.305 878.799,604.293 880.78,414.505 882.762,722.908 884.743,362.268 886.724,462.616 888.705,527.708 890.686,318.545 892.667,363.219 894.648,756.497 896.629,635.822 898.611,508.334 900.592,547.602 902.573,753.83 904.554,421.281 906.535,519.916 908.516,459.471 910.497,423.582 912.478,588.777 914.46,561.01 916.441,750.351 918.422,400.068 920.403,740.021 922.384,370.657 924.365,419.557 926.346,679.763 928.327,660.83 930.309,463.424 932.29,435.492 934.271,444.277 936.252,397.18 938.233,324.089 940.214,440.997 942.195,731.532 944.176,306.21 946.158,595.721 948.139,571.07 950.12,527.595 952.101,452.17 954.082,866.864 956.063,516.868 958.044,730.123 960.025,559.959 962.007,533.797 963.988,840.025 965.969,621.55 967.95,486.758 969.931,543.869 971.912,974.117 973.893,439.571 975.874,575.886 977.856,420.072 979.837,556.079 981.818,610.725 983.799,451.048 985.78,428.455 987.761,470.225 989.742,358.267 991.723,451.669 993.705,676.84 995.686,554.358 997.667,479.793 999.648,373.031 1001.63,391.735 1003.61,524.331 1005.59,655.522 1007.57,524.854 1009.55,469.48 1011.53,386.897 1013.52,511.177 1015.5,420.423 1017.48,705.094 1019.46,477.646 1021.44,290.779 1023.42,306.914 1025.4,337.226 1027.38,418.952 1029.36,400.035 1031.35,708.509 1033.33,467.175 1035.31,524.296 1037.29,384.782 1039.27,512.969 1041.25,498.233 1043.23,561.321 1045.21,310.865 1047.19,463.761 1049.18,942.57 1051.16,354.98 1053.14,426.354 1055.12,414.509 1057.1,620.03 1059.08,452.452 1061.06,527.988 1063.04,402.589 1065.02,910.514 1067.01,414.217 1068.99,443.266 1070.97,470.258 1072.95,581.768 1074.93,582.703 1076.91,480.608 1078.89,520.954 1080.87,500.231 1082.86,753.431 1084.84,602.111 1086.82,314.665 1088.8,479.384 1090.78,727.582 1092.76,516.728 1094.74,527.028 1096.72,368.499 1098.7,661.416 1100.69,627.748 1102.67,514.229 1104.65,556.254 1106.63,401.265 1108.61,368.332 1110.59,488.834 1112.57,437.699 1114.55,384.353 1116.53,948.218 1118.52,557.692 1120.5,399.953 1122.48,641.332 1124.46,454.15 1126.44,537.654 1128.42,449.498 1130.4,632.473 1132.38,649.808 1134.36,377.409 1136.35,373.946 1138.33,585.327 1140.31,414.669 1142.29,653.76 1144.27,559.629 1146.25,386.877 1148.23,586.854 1150.21,467.597 1152.19,456.376 1154.18,455.962 1156.16,432.819 1158.14,509.08 1160.12,612.633 1162.1,436.13 1164.08,320.244 1166.06,508.305 1168.04,536.029 1170.02,349.936 1172.01,559.288 1173.99,918.624 1175.97,589.063 1177.95,476.64 1179.93,443.337 1181.91,496.627 1183.89,438.37 1185.87,488.54 1187.85,567.138 1189.84,685.235 1191.82,1073.64 1193.8,399.679 1195.78,662.824 1197.76,679.719 1199.74,396.128 1201.72,557.179 1203.7,596.302 1205.68,506.935 1207.67,396.183 1209.65,442.924 1211.63,831.327 1213.61,554.656 1215.59,596.038 1217.57,437.868 1219.55,539.558 1221.53,765.946 1223.51,630.326 1225.5,440.878 1227.48,430.819 1229.46,595.509 1231.44,656.743 1233.42,531.236 1235.4,441.849 1237.38,664.866 1239.36,401.174 1241.35,389.974 1243.33,465.112 1245.31,499.533 1247.29,540.245 1249.27,613.977 1251.25,416.162 1253.23,389.026 1255.21,544.389 1257.19,733.471 1259.18,447.305 1261.16,490.104 1263.14,506.363 1265.12,871.295 1267.1,526.234 1269.08,465.288 1271.06,467.497 1273.04,687.192 1275.02,523.906 1277.01,608.072 1278.99,432.705 1280.97,618.858 1282.95,568.342 1284.93,843.822 1286.91,449.857 1288.89,414.345 1290.87,657.423 1292.85,370.714 1294.84,395.335 1296.82,550.55 1298.8,819.753 1300.78,657.425 1302.76,489.972 1304.74,467.24 1306.72,510.163 1308.7,399.583 1310.68,365.909 1312.67,489.016 1314.65,501.252 1316.63,509.485 1318.61,360.135 1320.59,545.302 1322.57,409.99 1324.55,529.669 1326.53,808.562 1328.51,842.887 1330.5,603.186 1332.48,642.737 1334.46,724.162 1336.44,598.124 1338.42,582.215 1340.4,435.926 1342.38,615.175 1344.36,469.449 1346.34,446.683 1348.33,316.041 1350.31,502.091 1352.29,482.348 1354.27,509.415 1356.25,429.154 1358.23,642.113 1360.21,630.485 1362.19,341.251 1364.17,491.933 1366.16,473.727 1368.14,476.799 1370.12,343.685 1372.1,354.136 1374.08,372.988 1376.06,321.453 1378.04,601.933 1380.02,479.505 1382,950.386 1383.99,824.198 1385.97,380.247 1387.95,430.702 1389.93,788.725 1391.91,501.725 1393.89,715.83 1395.87,468.24 1397.85,724.259 1399.84,422.704 1401.82,773.367 1403.8,398.666 1405.78,450.857 1407.76,644.734 1409.74,471.48 1411.72,846.763 1413.7,352.506 1415.68,606.405 1417.67,567.083 1419.65,447.048 1421.63,548.069 1423.61,587.466 1425.59,750.227 1427.57,566.716 1429.55,394.721 1431.53,423.82 1433.51,543.503 1435.5,569.091 1437.48,833.566 1439.46,523.377 1441.44,364.392 1443.42,915.968 1445.4,657.755 1447.38,481.936 1449.36,543.134 1451.34,706.972 1453.33,619.658 1455.31,462.023 1457.29,548.124 1459.27,425.341 1461.25,541.25 1463.23,522.961 1465.21,547.388 1467.19,558.816 1469.17,435.04 1471.16,442.284 1473.14,410.938 1475.12,385.529 1477.1,490.022 1479.08,571.929 1481.06,612.772 1483.04,399.064 1485.02,420.925 1487,461.519 1488.99,429.831 1490.97,488.704 1492.95,836.013 1494.93,532.29 1496.91,517.83 1498.89,433.331 1500.87,597.522 1502.85,591.184 1504.83,587.94 1506.82,445.872 1508.8,469.219 1510.78,750.096 1512.76,488.911 1514.74,410.092 1516.72,441.006 1518.7,676.698 1520.68,493.447 1522.66,639.398 1524.65,459.159 1526.63,702.359 1528.61,634.542 1530.59,571.876 1532.57,491.483 1534.55,578.1 1536.53,463.095 1538.51,474.421 1540.49,475.691 1542.48,468.968 1544.46,438.555 1546.44,517.35 1548.42,615.895 1550.4,731.08 1552.38,535.522 1554.36,499.179 1556.34,418.225 1558.32,440.55 1560.31,521.121 1562.29,701.021 1564.27,784.023 1566.25,719.147 1568.23,617.972 1570.21,529.811 1572.19,521.249 1574.17,347.981 1576.16,497.31 1578.14,438.648 1580.12,466.095 1582.1,553.244 1584.08,606.791 1586.06,747.442 1588.04,520.717 1590.02,511.641 1592,570.714 1593.99,598.35 1595.97,498.842 1597.95,547.703 1599.93,789.61 1601.91,690.805 1603.89,872.701 1605.87,723.268 1607.85,610.3 1609.83,705.934 1611.82,472.783 1613.8,803.965 1615.78,467.914 1617.76,481.647 1619.74,552.075 1621.72,499.459 1623.7,514.692 1625.68,451.584 1627.66,489.339 1629.65,456.576 1631.63,537.814 1633.61,637.173 1635.59,426.212 1637.57,940.212 1639.55,644.083 1641.53,855.03 1643.51,554.945 1645.49,456.752 1647.48,587.692 1649.46,654.478 1651.44,605.823 1653.42,401.892 1655.4,1087.24 1657.38,576.451 1659.36,534.527 1661.34,596.599 1663.32,388.791 1665.31,626.982 1667.29,483.65 1669.27,385.484 1671.25,592.891 1673.23,482.723 1675.21,570.031 1677.19,448.756 1679.17,765.77 1681.15,934.32 1683.14,515.811 1685.12,718.218 1687.1,673.852 1689.08,446.064 1691.06,606.51 1693.04,486.533 1695.02,465.059 1697,564.109 1698.98,503.186 1700.97,427.151 1702.95,492.721 1704.93,561.714 1706.91,636.574 1708.89,563.767 1710.87,702.722 1712.85,456.294 1714.83,781.34 1716.81,1082.71 1718.8,761.302 1720.78,904.843 1722.76,612.873 1724.74,424.465 1726.72,563.286 1728.7,464.017 1730.68,691.087 1732.66,577.232 1734.65,1091.57 1736.63,496.96 1738.61,623.035 1740.59,424.198 1742.57,519.284 1744.55,463.785 1746.53,602.515 1748.51,886.974 1750.49,444.189 1752.48,653.671 1754.46,828.845 1756.44,589.259 1758.42,606.046 1760.4,600.266 1762.38,655.836 1764.36,814.543 1766.34,483.598 1768.32,349.581 1770.31,574.966 1772.29,451.014 1774.27,483.533 1776.25,553.16 1778.23,693.994 1780.21,568.555 1782.19,416.933 1784.17,412.152 1786.15,699.239 1788.14,736.069 1790.12,419.713 1792.1,401.343 1794.08,505.677 1796.06,592.789 1798.04,407.935 1800.02,514.221 1802,558.692 1803.98,568.695 1805.97,427.477 1807.95,527.116 1809.93,606.51 1811.91,606.292 1813.89,594.682 1815.87,421.248 1817.85,417.275 1819.83,400.056 1821.81,920.833 1823.8,606.955 1825.78,600.849 1827.76,449.463 1829.74,548.6 1831.72,737.361 1833.7,540.375 1835.68,483.015 1837.66,614.933 1839.64,436.473 1841.63,1372.3 1843.61,452.219 1845.59,493.645 1847.57,500.679 1849.55,668.466 1851.53,492.109 1853.51,602.352 1855.49,733.108 1857.47,536.334 1859.46,738.637 1861.44,573.202 1863.42,491.579 1865.4,499.134 1867.38,836.353 1869.36,563.473 1871.34,449.855 1873.32,784.733 1875.3,563.897 1877.29,516.922 1879.27,521.857 1881.25,646.842 1883.23,602.679 1885.21,928.877 1887.19,554.307 1889.17,518.116 1891.15,453.344 1893.14,533.603 1895.12,489.126 1897.1,330.568 1899.08,559.081 1901.06,382.121 1903.04,618.303 1905.02,488.528 1907,510.835 1908.98,710.19 1910.97,348.869 1912.95,448.575 1914.93,448.184 1916.91,532.202 1918.89,404.636 1920.87,405.629 1922.85,580.073 1924.83,731.967 1926.81,564.731 1928.8,465.763 1930.78,418.731 1932.76,544.192 1934.74,788.52 1936.72,491.558 1938.7,457.06 1940.68,860.764 1942.66,590.35 1944.64,434.147 1946.63,552.214 1948.61,748.177 1950.59,562.819 1952.57,526.975 1954.55,482.689 1956.53,709.137 1958.51,748.934 1960.49,481.343 1962.47,479.306 1964.46,683.587 1966.44,547.257 1968.42,502.972 1970.4,1297.81 1972.38,462.535 1974.36,814.596 1976.34,518.01 1978.32,375.672 1980.3,500.424 1982.29,518.937 1984.27,522.196 1986.25,664.958 1988.23,615.477 1990.21,602.13 1992.19,518.74 1994.17,765.247 1996.15,499.366 1998.13,731.672 2000.12,734.161 2002.1,466.21 2004.08,555.874 2006.06,493.823 2008.04,428.722 2010.02,683.056 2012,815.16 2013.98,661.404 2015.96,371.84 2017.95,1240.53 2019.93,466.855 2021.91,1138.11 2023.89,550.89 2025.87,494.3 2027.85,523.751 2029.83,686.009 2031.81,588.754 2033.79,760.215 2035.78,354.101 2037.76,736.059 2039.74,434.323 2041.72,422.455 2043.7,668.732 2045.68,614.249 2047.66,383.564 2049.64,480.886 2051.62,516.743 2053.61,349.358 2055.59,411.195 2057.57,424.636 2059.55,472.609 2061.53,523.578 2063.51,461.407 2065.49,529.921 2067.47,466.198 2069.46,416.168 2071.44,599.621 2073.42,1122.79 2075.4,600.507 2077.38,1114.68 2079.36,471.657 2081.34,598.036 2083.32,672.908 2085.3,434.384 2087.29,672.931 2089.27,545.227 2091.25,429.588 2093.23,438.001 2095.21,503.885 2097.19,779.542 2099.17,556.385 2101.15,491.378 2103.13,562.078 2105.12,407.839 2107.1,666.177 2109.08,763.473 2111.06,784.176 2113.04,538.924 2115.02,543.043 2117,814.587 2118.98,415.203 2120.96,733.035 2122.95,659.784 2124.93,473.892 2126.91,664.002 2128.89,550.012 2130.87,574.658 2132.85,440.664 2134.83,732.431 2136.81,721.076 2138.79,586.771 2140.78,736.532 2142.76,435.161 2144.74,486.541 2146.72,876.1 2148.7,525.961 2150.68,499.413 2152.66,442.066 2154.64,447.182 2156.62,560.914 2158.61,478.692 2160.59,383.291 2162.57,886.104 2164.55,725.954 2166.53,459.778 2168.51,459.495 2170.49,401.939 2172.47,499.752 2174.45,526.885 2176.44,719.548 2178.42,430.847 2180.4,469.103 2182.38,656.358 2184.36,533.118 2186.34,631.244 2188.32,487.873 2190.3,447.957 2192.28,560.499 2194.27,348.445 2196.25,610.801 2198.23,457.324 2200.21,650.617 2202.19,479.79 2204.17,538.727 2206.15,491.684 2208.13,724.813 2210.11,1160.53 2212.1,465.942 2214.08,676.752 2216.06,465.771 2218.04,567.457 2220.02,615.427 2222,436.738 2223.98,427.595 2225.96,390.76 2227.95,465.75 2229.93,617.666 2231.91,604.543 2233.89,533.577 2235.87,475.185 2237.85,416.133 2239.83,473.182 2241.81,509.904 2243.79,633.26 2245.78,532.011 2247.76,531.582 2249.74,471.314 2251.72,599.893 2253.7,729.27 2255.68,810.11 2257.66,689.071 2259.64,471.923 2261.62,511.571 2263.61,627.704 2265.59,441.072 2267.57,509.865 2269.55,834.376 2271.53,486.838 2273.51,689.027 2275.49,440.779 2277.47,697.33 2279.45,642.094 2281.44,465.904 2283.42,543.137 2285.4,695.607 2287.38,409.282 2289.36,1124.22 2291.34,480.92 2293.32,768.61 "/>
</svg>
