<?xml version="1.0" encoding="utf-8"?>
<svg xmlns="http://www.w3.org/2000/svg" xmlns:xlink="http://www.w3.org/1999/xlink" width="600" height="400" viewBox="0 0 2400 1600">
<defs>
  <clipPath id="clip550">
    <rect x="0" y="0" width="2400" height="1600"/>
  </clipPath>
</defs>
<path clip-path="url(#clip550)" d="M0 1600 L2400 1600 L2400 0 L0 0  Z" fill="#ffffff" fill-rule="evenodd" fill-opacity="1"/>
<defs>
  <clipPath id="clip551">
    <rect x="480" y="0" width="1681" height="1600"/>
  </clipPath>
</defs>
<path clip-path="url(#clip550)" d="M252.764 1410.9 L2352.76 1410.9 L2352.76 47.2441 L252.764 47.2441  Z" fill="#ffffff" fill-rule="evenodd" fill-opacity="1"/>
<defs>
  <clipPath id="clip552">
    <rect x="252" y="47" width="2101" height="1365"/>
  </clipPath>
</defs>
<polyline clip-path="url(#clip552)" style="stroke:#000000; stroke-linecap:round; stroke-linejoin:round; stroke-width:2; stroke-opacity:0.1; fill:none" points="312.198,1410.9 312.198,47.2441 "/>
<polyline clip-path="url(#clip552)" style="stroke:#000000; stroke-linecap:round; stroke-linejoin:round; stroke-width:2; stroke-opacity:0.1; fill:none" points="807.479,1410.9 807.479,47.2441 "/>
<polyline clip-path="url(#clip552)" style="stroke:#000000; stroke-linecap:round; stroke-linejoin:round; stroke-width:2; stroke-opacity:0.1; fill:none" points="1302.76,1410.9 1302.76,47.2441 "/>
<polyline clip-path="url(#clip552)" style="stroke:#000000; stroke-linecap:round; stroke-linejoin:round; stroke-width:2; stroke-opacity:0.1; fill:none" points="1798.04,1410.9 1798.04,47.2441 "/>
<polyline clip-path="url(#clip552)" style="stroke:#000000; stroke-linecap:round; stroke-linejoin:round; stroke-width:2; stroke-opacity:0.1; fill:none" points="2293.32,1410.9 2293.32,47.2441 "/>
<polyline clip-path="url(#clip550)" style="stroke:#000000; stroke-linecap:round; stroke-linejoin:round; stroke-width:4; stroke-opacity:1; fill:none" points="252.764,1410.9 2352.76,1410.9 "/>
<polyline clip-path="url(#clip550)" style="stroke:#000000; stroke-linecap:round; stroke-linejoin:round; stroke-width:4; stroke-opacity:1; fill:none" points="312.198,1410.9 312.198,1392 "/>
<polyline clip-path="url(#clip550)" style="stroke:#000000; stroke-linecap:round; stroke-linejoin:round; stroke-width:4; stroke-opacity:1; fill:none" points="807.479,1410.9 807.479,1392 "/>
<polyline clip-path="url(#clip550)" style="stroke:#000000; stroke-linecap:round; stroke-linejoin:round; stroke-width:4; stroke-opacity:1; fill:none" points="1302.76,1410.9 1302.76,1392 "/>
<polyline clip-path="url(#clip550)" style="stroke:#000000; stroke-linecap:round; stroke-linejoin:round; stroke-width:4; stroke-opacity:1; fill:none" points="1798.04,1410.9 1798.04,1392 "/>
<polyline clip-path="url(#clip550)" style="stroke:#000000; stroke-linecap:round; stroke-linejoin:round; stroke-width:4; stroke-opacity:1; fill:none" points="2293.32,1410.9 2293.32,1392 "/>
<path clip-path="url(#clip550)" d="M312.198 1441.82 Q308.587 1441.82 306.758 1445.38 Q304.952 1448.92 304.952 1456.05 Q304.952 1463.16 306.758 1466.72 Q308.587 1470.26 312.198 1470.26 Q315.832 1470.26 317.637 1466.72 Q319.466 1463.16 319.466 1456.05 Q319.466 1448.92 317.637 1445.38 Q315.832 1441.82 312.198 1441.82 M312.198 1438.11 Q318.008 1438.11 321.063 1442.72 Q324.142 1447.3 324.142 1456.05 Q324.142 1464.78 321.063 1469.38 Q318.008 1473.97 312.198 1473.97 Q306.388 1473.97 303.309 1469.38 Q300.253 1464.78 300.253 1456.05 Q300.253 1447.3 303.309 1442.72 Q306.388 1438.11 312.198 1438.11 Z" fill="#000000" fill-rule="nonzero" fill-opacity="1" /><path clip-path="url(#clip550)" d="M704.529 1485.02 L720.849 1485.02 L720.849 1488.96 L698.904 1488.96 L698.904 1485.02 Q701.566 1482.27 706.15 1477.64 Q710.756 1472.98 711.937 1471.64 Q714.182 1469.12 715.062 1467.38 Q715.965 1465.62 715.965 1463.93 Q715.965 1461.18 714.02 1459.44 Q712.099 1457.71 708.997 1457.71 Q706.798 1457.71 704.344 1458.47 Q701.914 1459.23 699.136 1460.79 L699.136 1456.06 Q701.96 1454.93 704.414 1454.35 Q706.867 1453.77 708.904 1453.77 Q714.275 1453.77 717.469 1456.46 Q720.664 1459.14 720.664 1463.63 Q720.664 1465.76 719.853 1467.68 Q719.066 1469.58 716.96 1472.17 Q716.381 1472.85 713.279 1476.06 Q710.178 1479.26 704.529 1485.02 Z" fill="#000000" fill-rule="nonzero" fill-opacity="1" /><path clip-path="url(#clip550)" d="M730.664 1483.08 L735.548 1483.08 L735.548 1488.96 L730.664 1488.96 L730.664 1483.08 Z" fill="#000000" fill-rule="nonzero" fill-opacity="1" /><path clip-path="url(#clip550)" d="M745.779 1454.4 L764.136 1454.4 L764.136 1458.33 L750.062 1458.33 L750.062 1466.8 Q751.08 1466.46 752.099 1466.29 Q753.117 1466.11 754.136 1466.11 Q759.923 1466.11 763.302 1469.28 Q766.682 1472.45 766.682 1477.87 Q766.682 1483.45 763.21 1486.55 Q759.737 1489.63 753.418 1489.63 Q751.242 1489.63 748.974 1489.26 Q746.728 1488.89 744.321 1488.15 L744.321 1483.45 Q746.404 1484.58 748.626 1485.14 Q750.849 1485.69 753.325 1485.69 Q757.33 1485.69 759.668 1483.59 Q762.006 1481.48 762.006 1477.87 Q762.006 1474.26 759.668 1472.15 Q757.33 1470.04 753.325 1470.04 Q751.45 1470.04 749.575 1470.46 Q747.724 1470.88 745.779 1471.76 L745.779 1454.4 Z" fill="#000000" fill-rule="nonzero" fill-opacity="1" /><path clip-path="url(#clip550)" d="M785.895 1457.48 Q782.284 1457.48 780.455 1461.04 Q778.649 1464.58 778.649 1471.71 Q778.649 1478.82 780.455 1482.38 Q782.284 1485.92 785.895 1485.92 Q789.529 1485.92 791.335 1482.38 Q793.163 1478.82 793.163 1471.71 Q793.163 1464.58 791.335 1461.04 Q789.529 1457.48 785.895 1457.48 M785.895 1453.77 Q791.705 1453.77 794.76 1458.38 Q797.839 1462.96 797.839 1471.71 Q797.839 1480.44 794.76 1485.04 Q791.705 1489.63 785.895 1489.63 Q780.085 1489.63 777.006 1485.04 Q773.95 1480.44 773.95 1471.71 Q773.95 1462.96 777.006 1458.38 Q780.085 1453.77 785.895 1453.77 Z" fill="#000000" fill-rule="nonzero" fill-opacity="1" /><path clip-path="url(#clip550)" d="M834.228 1463.49 L823.649 1474.12 L834.228 1484.7 L831.473 1487.5 L820.848 1476.87 L810.223 1487.5 L807.492 1484.7 L818.047 1474.12 L807.492 1463.49 L810.223 1460.69 L820.848 1471.32 L831.473 1460.69 L834.228 1463.49 Z" fill="#000000" fill-rule="nonzero" fill-opacity="1" /><path clip-path="url(#clip550)" d="M846.589 1485.02 L854.228 1485.02 L854.228 1458.66 L845.918 1460.32 L845.918 1456.06 L854.181 1454.4 L858.857 1454.4 L858.857 1485.02 L866.496 1485.02 L866.496 1488.96 L846.589 1488.96 L846.589 1485.02 Z" fill="#000000" fill-rule="nonzero" fill-opacity="1" /><path clip-path="url(#clip550)" d="M885.94 1457.48 Q882.329 1457.48 880.501 1461.04 Q878.695 1464.58 878.695 1471.71 Q878.695 1478.82 880.501 1482.38 Q882.329 1485.92 885.94 1485.92 Q889.575 1485.92 891.38 1482.38 Q893.209 1478.82 893.209 1471.71 Q893.209 1464.58 891.38 1461.04 Q889.575 1457.48 885.94 1457.48 M885.94 1453.77 Q891.751 1453.77 894.806 1458.38 Q897.885 1462.96 897.885 1471.71 Q897.885 1480.44 894.806 1485.04 Q891.751 1489.63 885.94 1489.63 Q880.13 1489.63 877.052 1485.04 Q873.996 1480.44 873.996 1471.71 Q873.996 1462.96 877.052 1458.38 Q880.13 1453.77 885.94 1453.77 Z" fill="#000000" fill-rule="nonzero" fill-opacity="1" /><path clip-path="url(#clip550)" d="M899.07 1433.47 L913.984 1433.47 L913.984 1436.66 L902.549 1436.66 L902.549 1443.55 Q903.377 1443.27 904.204 1443.13 Q905.032 1442.98 905.859 1442.98 Q910.561 1442.98 913.307 1445.56 Q916.053 1448.14 916.053 1452.54 Q916.053 1457.07 913.232 1459.59 Q910.411 1462.09 905.276 1462.09 Q903.508 1462.09 901.665 1461.79 Q899.841 1461.49 897.885 1460.89 L897.885 1457.07 Q899.578 1457.99 901.383 1458.44 Q903.189 1458.89 905.201 1458.89 Q908.455 1458.89 910.354 1457.18 Q912.254 1455.47 912.254 1452.54 Q912.254 1449.6 910.354 1447.89 Q908.455 1446.18 905.201 1446.18 Q903.678 1446.18 902.154 1446.52 Q900.65 1446.86 899.07 1447.57 L899.07 1433.47 Z" fill="#000000" fill-rule="nonzero" fill-opacity="1" /><path clip-path="url(#clip550)" d="M1195.74 1454.4 L1214.09 1454.4 L1214.09 1458.33 L1200.02 1458.33 L1200.02 1466.8 Q1201.04 1466.46 1202.06 1466.29 Q1203.07 1466.11 1204.09 1466.11 Q1209.88 1466.11 1213.26 1469.28 Q1216.64 1472.45 1216.64 1477.87 Q1216.64 1483.45 1213.17 1486.55 Q1209.69 1489.63 1203.38 1489.63 Q1201.2 1489.63 1198.93 1489.26 Q1196.69 1488.89 1194.28 1488.15 L1194.28 1483.45 Q1196.36 1484.58 1198.58 1485.14 Q1200.81 1485.69 1203.28 1485.69 Q1207.29 1485.69 1209.63 1483.59 Q1211.96 1481.48 1211.96 1477.87 Q1211.96 1474.26 1209.63 1472.15 Q1207.29 1470.04 1203.28 1470.04 Q1201.41 1470.04 1199.53 1470.46 Q1197.68 1470.88 1195.74 1471.76 L1195.74 1454.4 Z" fill="#000000" fill-rule="nonzero" fill-opacity="1" /><path clip-path="url(#clip550)" d="M1225.85 1483.08 L1230.74 1483.08 L1230.74 1488.96 L1225.85 1488.96 L1225.85 1483.08 Z" fill="#000000" fill-rule="nonzero" fill-opacity="1" /><path clip-path="url(#clip550)" d="M1250.92 1457.48 Q1247.31 1457.48 1245.48 1461.04 Q1243.68 1464.58 1243.68 1471.71 Q1243.68 1478.82 1245.48 1482.38 Q1247.31 1485.92 1250.92 1485.92 Q1254.56 1485.92 1256.36 1482.38 Q1258.19 1478.82 1258.19 1471.71 Q1258.19 1464.58 1256.36 1461.04 Q1254.56 1457.48 1250.92 1457.48 M1250.92 1453.77 Q1256.73 1453.77 1259.79 1458.38 Q1262.87 1462.96 1262.87 1471.71 Q1262.87 1480.44 1259.79 1485.04 Q1256.73 1489.63 1250.92 1489.63 Q1245.11 1489.63 1242.03 1485.04 Q1238.98 1480.44 1238.98 1471.71 Q1238.98 1462.96 1242.03 1458.38 Q1245.11 1453.77 1250.92 1453.77 Z" fill="#000000" fill-rule="nonzero" fill-opacity="1" /><path clip-path="url(#clip550)" d="M1281.08 1457.48 Q1277.47 1457.48 1275.64 1461.04 Q1273.84 1464.58 1273.84 1471.71 Q1273.84 1478.82 1275.64 1482.38 Q1277.47 1485.92 1281.08 1485.92 Q1284.72 1485.92 1286.52 1482.38 Q1288.35 1478.82 1288.35 1471.71 Q1288.35 1464.58 1286.52 1461.04 Q1284.72 1457.48 1281.08 1457.48 M1281.08 1453.77 Q1286.89 1453.77 1289.95 1458.38 Q1293.03 1462.96 1293.03 1471.71 Q1293.03 1480.44 1289.95 1485.04 Q1286.89 1489.63 1281.08 1489.63 Q1275.27 1489.63 1272.19 1485.04 Q1269.14 1480.44 1269.14 1471.71 Q1269.14 1462.96 1272.19 1458.38 Q1275.27 1453.77 1281.08 1453.77 Z" fill="#000000" fill-rule="nonzero" fill-opacity="1" /><path clip-path="url(#clip550)" d="M1329.42 1463.49 L1318.84 1474.12 L1329.42 1484.7 L1326.66 1487.5 L1316.04 1476.87 L1305.41 1487.5 L1302.68 1484.7 L1313.24 1474.12 L1302.68 1463.49 L1305.41 1460.69 L1316.04 1471.32 L1326.66 1460.69 L1329.42 1463.49 Z" fill="#000000" fill-rule="nonzero" fill-opacity="1" /><path clip-path="url(#clip550)" d="M1341.78 1485.02 L1349.42 1485.02 L1349.42 1458.66 L1341.11 1460.32 L1341.11 1456.06 L1349.37 1454.4 L1354.05 1454.4 L1354.05 1485.02 L1361.68 1485.02 L1361.68 1488.96 L1341.78 1488.96 L1341.78 1485.02 Z" fill="#000000" fill-rule="nonzero" fill-opacity="1" /><path clip-path="url(#clip550)" d="M1381.13 1457.48 Q1377.52 1457.48 1375.69 1461.04 Q1373.88 1464.58 1373.88 1471.71 Q1373.88 1478.82 1375.69 1482.38 Q1377.52 1485.92 1381.13 1485.92 Q1384.76 1485.92 1386.57 1482.38 Q1388.4 1478.82 1388.4 1471.71 Q1388.4 1464.58 1386.57 1461.04 Q1384.76 1457.48 1381.13 1457.48 M1381.13 1453.77 Q1386.94 1453.77 1389.99 1458.38 Q1393.07 1462.96 1393.07 1471.71 Q1393.07 1480.44 1389.99 1485.04 Q1386.94 1489.63 1381.13 1489.63 Q1375.32 1489.63 1372.24 1485.04 Q1369.18 1480.44 1369.18 1471.71 Q1369.18 1462.96 1372.24 1458.38 Q1375.32 1453.77 1381.13 1453.77 Z" fill="#000000" fill-rule="nonzero" fill-opacity="1" /><path clip-path="url(#clip550)" d="M1394.26 1433.47 L1409.17 1433.47 L1409.17 1436.66 L1397.74 1436.66 L1397.74 1443.55 Q1398.57 1443.27 1399.39 1443.13 Q1400.22 1442.98 1401.05 1442.98 Q1405.75 1442.98 1408.5 1445.56 Q1411.24 1448.14 1411.24 1452.54 Q1411.24 1457.07 1408.42 1459.59 Q1405.6 1462.09 1400.46 1462.09 Q1398.7 1462.09 1396.85 1461.79 Q1395.03 1461.49 1393.07 1460.89 L1393.07 1457.07 Q1394.77 1457.99 1396.57 1458.44 Q1398.38 1458.89 1400.39 1458.89 Q1403.64 1458.89 1405.54 1457.18 Q1407.44 1455.47 1407.44 1452.54 Q1407.44 1449.6 1405.54 1447.89 Q1403.64 1446.18 1400.39 1446.18 Q1398.87 1446.18 1397.34 1446.52 Q1395.84 1446.86 1394.26 1447.57 L1394.26 1433.47 Z" fill="#000000" fill-rule="nonzero" fill-opacity="1" /><path clip-path="url(#clip550)" d="M1689.68 1454.4 L1711.9 1454.4 L1711.9 1456.39 L1699.35 1488.96 L1694.47 1488.96 L1706.27 1458.33 L1689.68 1458.33 L1689.68 1454.4 Z" fill="#000000" fill-rule="nonzero" fill-opacity="1" /><path clip-path="url(#clip550)" d="M1721.02 1483.08 L1725.9 1483.08 L1725.9 1488.96 L1721.02 1488.96 L1721.02 1483.08 Z" fill="#000000" fill-rule="nonzero" fill-opacity="1" /><path clip-path="url(#clip550)" d="M1736.13 1454.4 L1754.49 1454.4 L1754.49 1458.33 L1740.42 1458.33 L1740.42 1466.8 Q1741.43 1466.46 1742.45 1466.29 Q1743.47 1466.11 1744.49 1466.11 Q1750.28 1466.11 1753.66 1469.28 Q1757.04 1472.45 1757.04 1477.87 Q1757.04 1483.45 1753.56 1486.55 Q1750.09 1489.63 1743.77 1489.63 Q1741.6 1489.63 1739.33 1489.26 Q1737.08 1488.89 1734.67 1488.15 L1734.67 1483.45 Q1736.76 1484.58 1738.98 1485.14 Q1741.2 1485.69 1743.68 1485.69 Q1747.68 1485.69 1750.02 1483.59 Q1752.36 1481.48 1752.36 1477.87 Q1752.36 1474.26 1750.02 1472.15 Q1747.68 1470.04 1743.68 1470.04 Q1741.8 1470.04 1739.93 1470.46 Q1738.08 1470.88 1736.13 1471.76 L1736.13 1454.4 Z" fill="#000000" fill-rule="nonzero" fill-opacity="1" /><path clip-path="url(#clip550)" d="M1776.25 1457.48 Q1772.64 1457.48 1770.81 1461.04 Q1769 1464.58 1769 1471.71 Q1769 1478.82 1770.81 1482.38 Q1772.64 1485.92 1776.25 1485.92 Q1779.88 1485.92 1781.69 1482.38 Q1783.52 1478.82 1783.52 1471.71 Q1783.52 1464.58 1781.69 1461.04 Q1779.88 1457.48 1776.25 1457.48 M1776.25 1453.77 Q1782.06 1453.77 1785.11 1458.38 Q1788.19 1462.96 1788.19 1471.71 Q1788.19 1480.44 1785.11 1485.04 Q1782.06 1489.63 1776.25 1489.63 Q1770.44 1489.63 1767.36 1485.04 Q1764.3 1480.44 1764.3 1471.71 Q1764.3 1462.96 1767.36 1458.38 Q1770.44 1453.77 1776.25 1453.77 Z" fill="#000000" fill-rule="nonzero" fill-opacity="1" /><path clip-path="url(#clip550)" d="M1824.58 1463.49 L1814 1474.12 L1824.58 1484.7 L1821.83 1487.5 L1811.2 1476.87 L1800.58 1487.5 L1797.85 1484.7 L1808.4 1474.12 L1797.85 1463.49 L1800.58 1460.69 L1811.2 1471.32 L1821.83 1460.69 L1824.58 1463.49 Z" fill="#000000" fill-rule="nonzero" fill-opacity="1" /><path clip-path="url(#clip550)" d="M1836.94 1485.02 L1844.58 1485.02 L1844.58 1458.66 L1836.27 1460.32 L1836.27 1456.06 L1844.54 1454.4 L1849.21 1454.4 L1849.21 1485.02 L1856.85 1485.02 L1856.85 1488.96 L1836.94 1488.96 L1836.94 1485.02 Z" fill="#000000" fill-rule="nonzero" fill-opacity="1" /><path clip-path="url(#clip550)" d="M1876.29 1457.48 Q1872.68 1457.48 1870.85 1461.04 Q1869.05 1464.58 1869.05 1471.71 Q1869.05 1478.82 1870.85 1482.38 Q1872.68 1485.92 1876.29 1485.92 Q1879.93 1485.92 1881.73 1482.38 Q1883.56 1478.82 1883.56 1471.71 Q1883.56 1464.58 1881.73 1461.04 Q1879.93 1457.48 1876.29 1457.48 M1876.29 1453.77 Q1882.1 1453.77 1885.16 1458.38 Q1888.24 1462.96 1888.24 1471.71 Q1888.24 1480.44 1885.16 1485.04 Q1882.1 1489.63 1876.29 1489.63 Q1870.48 1489.63 1867.41 1485.04 Q1864.35 1480.44 1864.35 1471.71 Q1864.35 1462.96 1867.41 1458.38 Q1870.48 1453.77 1876.29 1453.77 Z" fill="#000000" fill-rule="nonzero" fill-opacity="1" /><path clip-path="url(#clip550)" d="M1889.42 1433.47 L1904.34 1433.47 L1904.34 1436.66 L1892.9 1436.66 L1892.9 1443.55 Q1893.73 1443.27 1894.56 1443.13 Q1895.39 1442.98 1896.21 1442.98 Q1900.92 1442.98 1903.66 1445.56 Q1906.41 1448.14 1906.41 1452.54 Q1906.41 1457.07 1903.59 1459.59 Q1900.76 1462.09 1895.63 1462.09 Q1893.86 1462.09 1892.02 1461.79 Q1890.19 1461.49 1888.24 1460.89 L1888.24 1457.07 Q1889.93 1457.99 1891.74 1458.44 Q1893.54 1458.89 1895.55 1458.89 Q1898.81 1458.89 1900.71 1457.18 Q1902.61 1455.47 1902.61 1452.54 Q1902.61 1449.6 1900.71 1447.89 Q1898.81 1446.18 1895.55 1446.18 Q1894.03 1446.18 1892.51 1446.52 Q1891 1446.86 1889.42 1447.57 L1889.42 1433.47 Z" fill="#000000" fill-rule="nonzero" fill-opacity="1" /><path clip-path="url(#clip550)" d="M2185.68 1485.02 L2193.31 1485.02 L2193.31 1458.66 L2185 1460.32 L2185 1456.06 L2193.27 1454.4 L2197.94 1454.4 L2197.94 1485.02 L2205.58 1485.02 L2205.58 1488.96 L2185.68 1488.96 L2185.68 1485.02 Z" fill="#000000" fill-rule="nonzero" fill-opacity="1" /><path clip-path="url(#clip550)" d="M2215.03 1483.08 L2219.91 1483.08 L2219.91 1488.96 L2215.03 1488.96 L2215.03 1483.08 Z" fill="#000000" fill-rule="nonzero" fill-opacity="1" /><path clip-path="url(#clip550)" d="M2240.1 1457.48 Q2236.49 1457.48 2234.66 1461.04 Q2232.85 1464.58 2232.85 1471.71 Q2232.85 1478.82 2234.66 1482.38 Q2236.49 1485.92 2240.1 1485.92 Q2243.73 1485.92 2245.54 1482.38 Q2247.37 1478.82 2247.37 1471.71 Q2247.37 1464.58 2245.54 1461.04 Q2243.73 1457.48 2240.1 1457.48 M2240.1 1453.77 Q2245.91 1453.77 2248.96 1458.38 Q2252.04 1462.96 2252.04 1471.71 Q2252.04 1480.44 2248.96 1485.04 Q2245.91 1489.63 2240.1 1489.63 Q2234.29 1489.63 2231.21 1485.04 Q2228.15 1480.44 2228.15 1471.71 Q2228.15 1462.96 2231.21 1458.38 Q2234.29 1453.77 2240.1 1453.77 Z" fill="#000000" fill-rule="nonzero" fill-opacity="1" /><path clip-path="url(#clip550)" d="M2270.26 1457.48 Q2266.65 1457.48 2264.82 1461.04 Q2263.01 1464.58 2263.01 1471.71 Q2263.01 1478.82 2264.82 1482.38 Q2266.65 1485.92 2270.26 1485.92 Q2273.89 1485.92 2275.7 1482.38 Q2277.53 1478.82 2277.53 1471.71 Q2277.53 1464.58 2275.7 1461.04 Q2273.89 1457.48 2270.26 1457.48 M2270.26 1453.77 Q2276.07 1453.77 2279.12 1458.38 Q2282.2 1462.96 2282.2 1471.71 Q2282.2 1480.44 2279.12 1485.04 Q2276.07 1489.63 2270.26 1489.63 Q2264.45 1489.63 2261.37 1485.04 Q2258.31 1480.44 2258.31 1471.71 Q2258.31 1462.96 2261.37 1458.38 Q2264.45 1453.77 2270.26 1453.77 Z" fill="#000000" fill-rule="nonzero" fill-opacity="1" /><path clip-path="url(#clip550)" d="M2318.59 1463.49 L2308.01 1474.12 L2318.59 1484.7 L2315.84 1487.5 L2305.21 1476.87 L2294.59 1487.5 L2291.86 1484.7 L2302.41 1474.12 L2291.86 1463.49 L2294.59 1460.69 L2305.21 1471.32 L2315.84 1460.69 L2318.59 1463.49 Z" fill="#000000" fill-rule="nonzero" fill-opacity="1" /><path clip-path="url(#clip550)" d="M2330.95 1485.02 L2338.59 1485.02 L2338.59 1458.66 L2330.28 1460.32 L2330.28 1456.06 L2338.55 1454.4 L2343.22 1454.4 L2343.22 1485.02 L2350.86 1485.02 L2350.86 1488.96 L2330.95 1488.96 L2330.95 1485.02 Z" fill="#000000" fill-rule="nonzero" fill-opacity="1" /><path clip-path="url(#clip550)" d="M2370.3 1457.48 Q2366.69 1457.48 2364.86 1461.04 Q2363.06 1464.58 2363.06 1471.71 Q2363.06 1478.82 2364.86 1482.38 Q2366.69 1485.92 2370.3 1485.92 Q2373.94 1485.92 2375.74 1482.38 Q2377.57 1478.82 2377.57 1471.71 Q2377.57 1464.58 2375.74 1461.04 Q2373.94 1457.48 2370.3 1457.48 M2370.3 1453.77 Q2376.11 1453.77 2379.17 1458.38 Q2382.25 1462.96 2382.25 1471.71 Q2382.25 1480.44 2379.17 1485.04 Q2376.11 1489.63 2370.3 1489.63 Q2364.49 1489.63 2361.42 1485.04 Q2358.36 1480.44 2358.36 1471.71 Q2358.36 1462.96 2361.42 1458.38 Q2364.49 1453.77 2370.3 1453.77 Z" fill="#000000" fill-rule="nonzero" fill-opacity="1" /><path clip-path="url(#clip550)" d="M2392.27 1445.99 Q2389.72 1445.99 2388.21 1447.74 Q2386.73 1449.49 2386.73 1452.54 Q2386.73 1455.57 2388.21 1457.33 Q2389.72 1459.08 2392.27 1459.08 Q2394.83 1459.08 2396.32 1457.33 Q2397.82 1455.57 2397.82 1452.54 Q2397.82 1449.49 2396.32 1447.74 Q2394.83 1445.99 2392.27 1445.99 M2399.82 1434.09 L2399.82 1437.55 Q2398.39 1436.87 2396.92 1436.51 Q2395.47 1436.16 2394.04 1436.16 Q2390.28 1436.16 2388.29 1438.69 Q2386.31 1441.23 2386.03 1446.37 Q2387.14 1444.73 2388.81 1443.87 Q2390.49 1442.98 2392.5 1442.98 Q2396.73 1442.98 2399.18 1445.56 Q2401.64 1448.12 2401.64 1452.54 Q2401.64 1456.86 2399.08 1459.48 Q2396.52 1462.09 2392.27 1462.09 Q2387.4 1462.09 2384.83 1458.37 Q2382.25 1454.62 2382.25 1447.53 Q2382.25 1440.88 2385.41 1436.93 Q2388.57 1432.96 2393.89 1432.96 Q2395.32 1432.96 2396.77 1433.24 Q2398.24 1433.52 2399.82 1434.09 Z" fill="#000000" fill-rule="nonzero" fill-opacity="1" /><path clip-path="url(#clip550)" d="M1332.06 1523.67 Q1332.06 1524.99 1330.94 1524.99 Q1327.3 1525.12 1325.81 1526.34 Q1324.37 1527.54 1323.82 1529.85 L1314.61 1566.6 Q1314.28 1567.76 1314.09 1567.89 Q1313.9 1567.99 1313.54 1567.99 Q1313.09 1567.99 1312.84 1567.76 Q1312.61 1567.54 1312.29 1566.73 L1295.86 1527.89 Q1295.73 1527.63 1295.57 1527.28 Q1295.41 1526.92 1295.28 1526.7 L1286.56 1561.51 Q1286.3 1562.51 1286.3 1563.03 Q1286.3 1564.28 1287.17 1565.09 Q1288.07 1565.86 1290.65 1565.96 Q1291.97 1565.96 1291.97 1566.67 Q1291.97 1567.99 1290.77 1567.99 Q1289.68 1567.99 1287.39 1567.89 Q1285.11 1567.79 1283.98 1567.79 Q1282.88 1567.79 1280.66 1567.89 Q1278.44 1567.99 1277.38 1567.99 Q1276.54 1567.99 1276.54 1567.25 Q1276.54 1566.67 1276.76 1566.38 Q1276.99 1566.05 1277.18 1566.02 Q1277.38 1565.96 1277.67 1565.96 Q1279.6 1565.89 1280.92 1565.51 Q1282.24 1565.12 1282.98 1564.38 Q1283.75 1563.64 1284.11 1562.9 Q1284.49 1562.12 1284.78 1561 L1293.61 1525.57 Q1293.61 1524.99 1289.13 1524.99 Q1288.36 1524.99 1288.04 1524.96 Q1287.75 1524.93 1287.52 1524.77 Q1287.3 1524.6 1287.3 1524.25 Q1287.3 1523.35 1287.68 1523.16 Q1288.07 1522.93 1289.2 1522.93 L1298.05 1522.93 Q1299.18 1522.93 1299.47 1523.12 Q1299.76 1523.28 1300.15 1524.19 L1314.74 1558.61 L1322.11 1529.27 Q1322.3 1528.69 1322.3 1527.89 Q1322.3 1526.6 1321.34 1525.83 Q1320.4 1525.02 1317.83 1524.99 Q1316.64 1524.99 1316.64 1524.25 Q1316.64 1523.64 1316.86 1523.35 Q1317.12 1523.03 1317.31 1522.99 Q1317.54 1522.93 1317.83 1522.93 Q1318.92 1522.93 1321.18 1523.03 Q1323.43 1523.12 1324.56 1523.12 Q1325.65 1523.12 1327.88 1523.03 Q1330.13 1522.93 1331.22 1522.93 Q1331.61 1522.93 1331.8 1523.12 Q1332.03 1523.28 1332.06 1523.48 L1332.06 1523.67 Z" fill="#000000" fill-rule="nonzero" fill-opacity="1" /><polyline clip-path="url(#clip552)" style="stroke:#000000; stroke-linecap:round; stroke-linejoin:round; stroke-width:2; stroke-opacity:0.1; fill:none" points="252.764,1257.54 2352.76,1257.54 "/>
<polyline clip-path="url(#clip552)" style="stroke:#000000; stroke-linecap:round; stroke-linejoin:round; stroke-width:2; stroke-opacity:0.1; fill:none" points="252.764,1062.26 2352.76,1062.26 "/>
<polyline clip-path="url(#clip552)" style="stroke:#000000; stroke-linecap:round; stroke-linejoin:round; stroke-width:2; stroke-opacity:0.1; fill:none" points="252.764,866.975 2352.76,866.975 "/>
<polyline clip-path="url(#clip552)" style="stroke:#000000; stroke-linecap:round; stroke-linejoin:round; stroke-width:2; stroke-opacity:0.1; fill:none" points="252.764,671.691 2352.76,671.691 "/>
<polyline clip-path="url(#clip552)" style="stroke:#000000; stroke-linecap:round; stroke-linejoin:round; stroke-width:2; stroke-opacity:0.1; fill:none" points="252.764,476.407 2352.76,476.407 "/>
<polyline clip-path="url(#clip552)" style="stroke:#000000; stroke-linecap:round; stroke-linejoin:round; stroke-width:2; stroke-opacity:0.1; fill:none" points="252.764,281.122 2352.76,281.122 "/>
<polyline clip-path="url(#clip552)" style="stroke:#000000; stroke-linecap:round; stroke-linejoin:round; stroke-width:2; stroke-opacity:0.1; fill:none" points="252.764,85.838 2352.76,85.838 "/>
<polyline clip-path="url(#clip550)" style="stroke:#000000; stroke-linecap:round; stroke-linejoin:round; stroke-width:4; stroke-opacity:1; fill:none" points="252.764,1410.9 252.764,47.2441 "/>
<polyline clip-path="url(#clip550)" style="stroke:#000000; stroke-linecap:round; stroke-linejoin:round; stroke-width:4; stroke-opacity:1; fill:none" points="252.764,1257.54 271.662,1257.54 "/>
<polyline clip-path="url(#clip550)" style="stroke:#000000; stroke-linecap:round; stroke-linejoin:round; stroke-width:4; stroke-opacity:1; fill:none" points="252.764,1062.26 271.662,1062.26 "/>
<polyline clip-path="url(#clip550)" style="stroke:#000000; stroke-linecap:round; stroke-linejoin:round; stroke-width:4; stroke-opacity:1; fill:none" points="252.764,866.975 271.662,866.975 "/>
<polyline clip-path="url(#clip550)" style="stroke:#000000; stroke-linecap:round; stroke-linejoin:round; stroke-width:4; stroke-opacity:1; fill:none" points="252.764,671.691 271.662,671.691 "/>
<polyline clip-path="url(#clip550)" style="stroke:#000000; stroke-linecap:round; stroke-linejoin:round; stroke-width:4; stroke-opacity:1; fill:none" points="252.764,476.407 271.662,476.407 "/>
<polyline clip-path="url(#clip550)" style="stroke:#000000; stroke-linecap:round; stroke-linejoin:round; stroke-width:4; stroke-opacity:1; fill:none" points="252.764,281.122 271.662,281.122 "/>
<polyline clip-path="url(#clip550)" style="stroke:#000000; stroke-linecap:round; stroke-linejoin:round; stroke-width:4; stroke-opacity:1; fill:none" points="252.764,85.838 271.662,85.838 "/>
<path clip-path="url(#clip550)" d="M115.195 1277.34 L122.834 1277.34 L122.834 1250.97 L114.523 1252.64 L114.523 1248.38 L122.787 1246.71 L127.463 1246.71 L127.463 1277.34 L135.102 1277.34 L135.102 1281.27 L115.195 1281.27 L115.195 1277.34 Z" fill="#000000" fill-rule="nonzero" fill-opacity="1" /><path clip-path="url(#clip550)" d="M154.546 1249.79 Q150.935 1249.79 149.107 1253.36 Q147.301 1256.9 147.301 1264.03 Q147.301 1271.13 149.107 1274.7 Q150.935 1278.24 154.546 1278.24 Q158.181 1278.24 159.986 1274.7 Q161.815 1271.13 161.815 1264.03 Q161.815 1256.9 159.986 1253.36 Q158.181 1249.79 154.546 1249.79 M154.546 1246.09 Q160.357 1246.09 163.412 1250.69 Q166.491 1255.28 166.491 1264.03 Q166.491 1272.75 163.412 1277.36 Q160.357 1281.94 154.546 1281.94 Q148.736 1281.94 145.658 1277.36 Q142.602 1272.75 142.602 1264.03 Q142.602 1255.28 145.658 1250.69 Q148.736 1246.09 154.546 1246.09 Z" fill="#000000" fill-rule="nonzero" fill-opacity="1" /><path clip-path="url(#clip550)" d="M166.491 1240.19 L190.602 1240.19 L190.602 1243.39 L166.491 1243.39 L166.491 1240.19 Z" fill="#000000" fill-rule="nonzero" fill-opacity="1" /><path clip-path="url(#clip550)" d="M207.398 1238.31 Q204.84 1238.31 203.335 1240.06 Q201.849 1241.81 201.849 1244.85 Q201.849 1247.88 203.335 1249.65 Q204.84 1251.4 207.398 1251.4 Q209.956 1251.4 211.441 1249.65 Q212.946 1247.88 212.946 1244.85 Q212.946 1241.81 211.441 1240.06 Q209.956 1238.31 207.398 1238.31 M214.94 1226.4 L214.94 1229.86 Q213.51 1229.19 212.043 1228.83 Q210.595 1228.47 209.166 1228.47 Q205.404 1228.47 203.41 1231.01 Q201.436 1233.55 201.153 1238.68 Q202.263 1237.05 203.937 1236.18 Q205.611 1235.3 207.623 1235.3 Q211.855 1235.3 214.3 1237.87 Q216.764 1240.43 216.764 1244.85 Q216.764 1249.18 214.206 1251.79 Q211.648 1254.41 207.398 1254.41 Q202.526 1254.41 199.95 1250.68 Q197.373 1246.94 197.373 1239.85 Q197.373 1233.19 200.533 1229.24 Q203.693 1225.27 209.015 1225.27 Q210.445 1225.27 211.893 1225.56 Q213.36 1225.84 214.94 1226.4 Z" fill="#000000" fill-rule="nonzero" fill-opacity="1" /><path clip-path="url(#clip550)" d="M116.135 1082.05 L123.774 1082.05 L123.774 1055.69 L115.464 1057.35 L115.464 1053.09 L123.728 1051.43 L128.404 1051.43 L128.404 1082.05 L136.042 1082.05 L136.042 1085.99 L116.135 1085.99 L116.135 1082.05 Z" fill="#000000" fill-rule="nonzero" fill-opacity="1" /><path clip-path="url(#clip550)" d="M155.487 1054.51 Q151.876 1054.51 150.047 1058.07 Q148.241 1061.61 148.241 1068.74 Q148.241 1075.85 150.047 1079.41 Q151.876 1082.95 155.487 1082.95 Q159.121 1082.95 160.927 1079.41 Q162.755 1075.85 162.755 1068.74 Q162.755 1061.61 160.927 1058.07 Q159.121 1054.51 155.487 1054.51 M155.487 1050.8 Q161.297 1050.8 164.352 1055.41 Q167.431 1059.99 167.431 1068.74 Q167.431 1077.47 164.352 1082.08 Q161.297 1086.66 155.487 1086.66 Q149.677 1086.66 146.598 1082.08 Q143.542 1077.47 143.542 1068.74 Q143.542 1059.99 146.598 1055.41 Q149.677 1050.8 155.487 1050.8 Z" fill="#000000" fill-rule="nonzero" fill-opacity="1" /><path clip-path="url(#clip550)" d="M167.431 1044.9 L191.543 1044.9 L191.543 1048.1 L167.431 1048.1 L167.431 1044.9 Z" fill="#000000" fill-rule="nonzero" fill-opacity="1" /><path clip-path="url(#clip550)" d="M199.781 1030.5 L214.695 1030.5 L214.695 1033.69 L203.26 1033.69 L203.26 1040.58 Q204.088 1040.3 204.915 1040.16 Q205.743 1040.01 206.57 1040.01 Q211.272 1040.01 214.018 1042.59 Q216.764 1045.17 216.764 1049.57 Q216.764 1054.1 213.943 1056.62 Q211.122 1059.12 205.987 1059.12 Q204.219 1059.12 202.376 1058.82 Q200.552 1058.52 198.596 1057.92 L198.596 1054.1 Q200.288 1055.02 202.094 1055.47 Q203.899 1055.92 205.912 1055.92 Q209.166 1055.92 211.065 1054.21 Q212.965 1052.5 212.965 1049.57 Q212.965 1046.63 211.065 1044.92 Q209.166 1043.21 205.912 1043.21 Q204.388 1043.21 202.865 1043.55 Q201.36 1043.89 199.781 1044.6 L199.781 1030.5 Z" fill="#000000" fill-rule="nonzero" fill-opacity="1" /><path clip-path="url(#clip550)" d="M114.931 886.768 L122.57 886.768 L122.57 860.402 L114.26 862.069 L114.26 857.81 L122.524 856.143 L127.2 856.143 L127.2 886.768 L134.839 886.768 L134.839 890.703 L114.931 890.703 L114.931 886.768 Z" fill="#000000" fill-rule="nonzero" fill-opacity="1" /><path clip-path="url(#clip550)" d="M154.283 859.222 Q150.672 859.222 148.843 862.786 Q147.038 866.328 147.038 873.458 Q147.038 880.564 148.843 884.129 Q150.672 887.671 154.283 887.671 Q157.917 887.671 159.723 884.129 Q161.552 880.564 161.552 873.458 Q161.552 866.328 159.723 862.786 Q157.917 859.222 154.283 859.222 M154.283 855.518 Q160.093 855.518 163.149 860.124 Q166.227 864.708 166.227 873.458 Q166.227 882.184 163.149 886.791 Q160.093 891.374 154.283 891.374 Q148.473 891.374 145.394 886.791 Q142.339 882.184 142.339 873.458 Q142.339 864.708 145.394 860.124 Q148.473 855.518 154.283 855.518 Z" fill="#000000" fill-rule="nonzero" fill-opacity="1" /><path clip-path="url(#clip550)" d="M166.227 849.619 L190.339 849.619 L190.339 852.817 L166.227 852.817 L166.227 849.619 Z" fill="#000000" fill-rule="nonzero" fill-opacity="1" /><path clip-path="url(#clip550)" d="M208.978 838.523 L199.386 853.512 L208.978 853.512 L208.978 838.523 M207.981 835.213 L212.758 835.213 L212.758 853.512 L216.764 853.512 L216.764 856.672 L212.758 856.672 L212.758 863.293 L208.978 863.293 L208.978 856.672 L196.301 856.672 L196.301 853.005 L207.981 835.213 Z" fill="#000000" fill-rule="nonzero" fill-opacity="1" /><path clip-path="url(#clip550)" d="M115.853 691.483 L123.492 691.483 L123.492 665.118 L115.182 666.784 L115.182 662.525 L123.446 660.859 L128.121 660.859 L128.121 691.483 L135.76 691.483 L135.76 695.419 L115.853 695.419 L115.853 691.483 Z" fill="#000000" fill-rule="nonzero" fill-opacity="1" /><path clip-path="url(#clip550)" d="M155.205 663.937 Q151.594 663.937 149.765 667.502 Q147.959 671.044 147.959 678.173 Q147.959 685.28 149.765 688.845 Q151.594 692.386 155.205 692.386 Q158.839 692.386 160.644 688.845 Q162.473 685.28 162.473 678.173 Q162.473 671.044 160.644 667.502 Q158.839 663.937 155.205 663.937 M155.205 660.234 Q161.015 660.234 164.07 664.84 Q167.149 669.423 167.149 678.173 Q167.149 686.9 164.07 691.507 Q161.015 696.09 155.205 696.09 Q149.395 696.09 146.316 691.507 Q143.26 686.9 143.26 678.173 Q143.26 669.423 146.316 664.84 Q149.395 660.234 155.205 660.234 Z" fill="#000000" fill-rule="nonzero" fill-opacity="1" /><path clip-path="url(#clip550)" d="M167.149 654.335 L191.261 654.335 L191.261 657.532 L167.149 657.532 L167.149 654.335 Z" fill="#000000" fill-rule="nonzero" fill-opacity="1" /><path clip-path="url(#clip550)" d="M210.971 652.868 Q213.698 653.451 215.222 655.294 Q216.764 657.137 216.764 659.846 Q216.764 664.002 213.905 666.278 Q211.046 668.554 205.78 668.554 Q204.012 668.554 202.132 668.196 Q200.27 667.858 198.276 667.162 L198.276 663.494 Q199.856 664.416 201.737 664.886 Q203.617 665.356 205.667 665.356 Q209.241 665.356 211.103 663.946 Q212.984 662.535 212.984 659.846 Q212.984 657.363 211.234 655.971 Q209.504 654.561 206.401 654.561 L203.128 654.561 L203.128 651.439 L206.551 651.439 Q209.354 651.439 210.84 650.329 Q212.325 649.2 212.325 647.094 Q212.325 644.931 210.783 643.784 Q209.26 642.618 206.401 642.618 Q204.84 642.618 203.053 642.956 Q201.266 643.295 199.122 644.009 L199.122 640.624 Q201.285 640.022 203.166 639.721 Q205.066 639.42 206.739 639.42 Q211.065 639.42 213.585 641.395 Q216.106 643.351 216.106 646.699 Q216.106 649.031 214.77 650.649 Q213.435 652.247 210.971 652.868 Z" fill="#000000" fill-rule="nonzero" fill-opacity="1" /><path clip-path="url(#clip550)" d="M116.624 496.199 L124.263 496.199 L124.263 469.834 L115.953 471.5 L115.953 467.241 L124.217 465.574 L128.893 465.574 L128.893 496.199 L136.531 496.199 L136.531 500.134 L116.624 500.134 L116.624 496.199 Z" fill="#000000" fill-rule="nonzero" fill-opacity="1" /><path clip-path="url(#clip550)" d="M155.976 468.653 Q152.365 468.653 150.536 472.218 Q148.73 475.759 148.73 482.889 Q148.73 489.995 150.536 493.56 Q152.365 497.102 155.976 497.102 Q159.61 497.102 161.416 493.56 Q163.244 489.995 163.244 482.889 Q163.244 475.759 161.416 472.218 Q159.61 468.653 155.976 468.653 M155.976 464.949 Q161.786 464.949 164.841 469.556 Q167.92 474.139 167.92 482.889 Q167.92 491.616 164.841 496.222 Q161.786 500.806 155.976 500.806 Q150.166 500.806 147.087 496.222 Q144.031 491.616 144.031 482.889 Q144.031 474.139 147.087 469.556 Q150.166 464.949 155.976 464.949 Z" fill="#000000" fill-rule="nonzero" fill-opacity="1" /><path clip-path="url(#clip550)" d="M167.92 459.051 L192.032 459.051 L192.032 462.248 L167.92 462.248 L167.92 459.051 Z" fill="#000000" fill-rule="nonzero" fill-opacity="1" /><path clip-path="url(#clip550)" d="M203.504 469.527 L216.764 469.527 L216.764 472.724 L198.934 472.724 L198.934 469.527 Q201.097 467.288 204.821 463.527 Q208.564 459.747 209.523 458.656 Q211.347 456.606 212.062 455.195 Q212.796 453.766 212.796 452.393 Q212.796 450.155 211.216 448.744 Q209.655 447.333 207.134 447.333 Q205.348 447.333 203.354 447.954 Q201.379 448.575 199.122 449.835 L199.122 445.998 Q201.417 445.076 203.41 444.606 Q205.404 444.136 207.059 444.136 Q211.423 444.136 214.018 446.318 Q216.613 448.499 216.613 452.148 Q216.613 453.878 215.955 455.44 Q215.316 456.982 213.604 459.088 Q213.134 459.634 210.614 462.248 Q208.094 464.843 203.504 469.527 Z" fill="#000000" fill-rule="nonzero" fill-opacity="1" /><path clip-path="url(#clip550)" d="M116.323 300.915 L123.962 300.915 L123.962 274.549 L115.652 276.216 L115.652 271.957 L123.916 270.29 L128.592 270.29 L128.592 300.915 L136.231 300.915 L136.231 304.85 L116.323 304.85 L116.323 300.915 Z" fill="#000000" fill-rule="nonzero" fill-opacity="1" /><path clip-path="url(#clip550)" d="M155.675 273.369 Q152.064 273.369 150.235 276.933 Q148.43 280.475 148.43 287.605 Q148.43 294.711 150.235 298.276 Q152.064 301.818 155.675 301.818 Q159.309 301.818 161.115 298.276 Q162.943 294.711 162.943 287.605 Q162.943 280.475 161.115 276.933 Q159.309 273.369 155.675 273.369 M155.675 269.665 Q161.485 269.665 164.541 274.271 Q167.619 278.855 167.619 287.605 Q167.619 296.331 164.541 300.938 Q161.485 305.521 155.675 305.521 Q149.865 305.521 146.786 300.938 Q143.73 296.331 143.73 287.605 Q143.73 278.855 146.786 274.271 Q149.865 269.665 155.675 269.665 Z" fill="#000000" fill-rule="nonzero" fill-opacity="1" /><path clip-path="url(#clip550)" d="M167.619 263.766 L191.731 263.766 L191.731 266.964 L167.619 266.964 L167.619 263.766 Z" fill="#000000" fill-rule="nonzero" fill-opacity="1" /><path clip-path="url(#clip550)" d="M200.589 274.242 L206.796 274.242 L206.796 252.82 L200.044 254.174 L200.044 250.714 L206.758 249.36 L210.557 249.36 L210.557 274.242 L216.764 274.242 L216.764 277.44 L200.589 277.44 L200.589 274.242 Z" fill="#000000" fill-rule="nonzero" fill-opacity="1" /><path clip-path="url(#clip550)" d="M146.058 105.63 L153.697 105.63 L153.697 79.2649 L145.387 80.9315 L145.387 76.6723 L153.651 75.0056 L158.327 75.0056 L158.327 105.63 L165.966 105.63 L165.966 109.566 L146.058 109.566 L146.058 105.63 Z" fill="#000000" fill-rule="nonzero" fill-opacity="1" /><path clip-path="url(#clip550)" d="M185.41 78.0843 Q181.799 78.0843 179.97 81.6491 Q178.165 85.1908 178.165 92.3204 Q178.165 99.4268 179.97 102.992 Q181.799 106.533 185.41 106.533 Q189.044 106.533 190.85 102.992 Q192.678 99.4268 192.678 92.3204 Q192.678 85.1908 190.85 81.6491 Q189.044 78.0843 185.41 78.0843 M185.41 74.3806 Q191.22 74.3806 194.276 78.9871 Q197.354 83.5704 197.354 92.3204 Q197.354 101.047 194.276 105.654 Q191.22 110.237 185.41 110.237 Q179.6 110.237 176.521 105.654 Q173.466 101.047 173.466 92.3204 Q173.466 83.5704 176.521 78.9871 Q179.6 74.3806 185.41 74.3806 Z" fill="#000000" fill-rule="nonzero" fill-opacity="1" /><path clip-path="url(#clip550)" d="M207.059 56.5767 Q204.125 56.5767 202.639 59.4731 Q201.172 62.3507 201.172 68.1434 Q201.172 73.9174 202.639 76.8138 Q204.125 79.6914 207.059 79.6914 Q210.012 79.6914 211.479 76.8138 Q212.965 73.9174 212.965 68.1434 Q212.965 62.3507 211.479 59.4731 Q210.012 56.5767 207.059 56.5767 M207.059 53.5674 Q211.78 53.5674 214.263 57.3102 Q216.764 61.0341 216.764 68.1434 Q216.764 75.234 214.263 78.9767 Q211.78 82.7007 207.059 82.7007 Q202.338 82.7007 199.837 78.9767 Q197.354 75.234 197.354 68.1434 Q197.354 61.0341 199.837 57.3102 Q202.338 53.5674 207.059 53.5674 Z" fill="#000000" fill-rule="nonzero" fill-opacity="1" /><path clip-path="url(#clip550)" d="M41.7242 924.577 Q42.4244 922.508 44.7161 920.567 Q47.0077 918.593 51.0181 916.62 L64.0042 910.095 L64.0042 917.002 L51.8138 923.081 Q47.0395 925.437 45.48 927.665 Q43.9204 929.861 43.9204 933.68 L43.9204 940.682 L64.0042 940.682 L64.0042 947.112 L16.4842 947.112 L16.4842 932.598 Q16.4842 924.45 19.8898 920.439 Q23.2955 916.429 30.1704 916.429 Q34.6582 916.429 37.6183 918.53 Q40.5784 920.599 41.7242 924.577 M21.7677 940.682 L38.6368 940.682 L38.6368 932.598 Q38.6368 927.951 36.5043 925.596 Q34.34 923.209 30.1704 923.209 Q26.0009 923.209 23.9002 925.596 Q21.7677 927.951 21.7677 932.598 L21.7677 940.682 Z" fill="#000000" fill-rule="nonzero" fill-opacity="1" /><path clip-path="url(#clip550)" d="M44.7161 874.511 L47.5806 874.511 L47.5806 901.438 Q53.6281 901.056 56.8109 897.809 Q59.9619 894.531 59.9619 888.706 Q59.9619 885.333 59.1344 882.182 Q58.3069 878.999 56.6518 875.879 L62.1899 875.879 Q63.5267 879.031 64.227 882.341 Q64.9272 885.651 64.9272 889.056 Q64.9272 897.587 59.9619 902.584 Q54.9967 907.549 46.5303 907.549 Q37.7774 907.549 32.6531 902.838 Q27.4968 898.096 27.4968 890.075 Q27.4968 882.882 32.1438 878.712 Q36.7589 874.511 44.7161 874.511 M42.9973 880.367 Q38.1912 880.431 35.3266 883.073 Q32.4621 885.683 32.4621 890.011 Q32.4621 894.913 35.2312 897.873 Q38.0002 900.801 43.0292 901.247 L42.9973 880.367 Z" fill="#000000" fill-rule="nonzero" fill-opacity="1" /><path clip-path="url(#clip550)" d="M14.479 864.899 L14.479 859.042 L64.0042 859.042 L64.0042 864.899 L14.479 864.899 Z" fill="#000000" fill-rule="nonzero" fill-opacity="1" /><path clip-path="url(#clip550)" d="M46.0847 830.587 Q46.0847 837.685 47.7079 840.422 Q49.3312 843.16 53.2461 843.16 Q56.3653 843.16 58.2114 841.123 Q60.0256 839.054 60.0256 835.521 Q60.0256 830.651 56.5881 827.723 Q53.1188 824.763 47.3897 824.763 L46.0847 824.763 L46.0847 830.587 M43.6657 818.906 L64.0042 818.906 L64.0042 824.763 L58.5933 824.763 Q61.8398 826.768 63.3994 829.76 Q64.9272 832.752 64.9272 837.08 Q64.9272 842.555 61.8716 845.802 Q58.7843 849.016 53.6281 849.016 Q47.6125 849.016 44.5569 845.006 Q41.5014 840.964 41.5014 832.975 L41.5014 824.763 L40.9285 824.763 Q36.8862 824.763 34.6901 827.436 Q32.4621 830.078 32.4621 834.884 Q32.4621 837.94 33.1941 840.836 Q33.9262 843.733 35.3903 846.406 L29.9795 846.406 Q28.7381 843.192 28.1334 840.168 Q27.4968 837.144 27.4968 834.28 Q27.4968 826.545 31.5072 822.726 Q35.5176 818.906 43.6657 818.906 Z" fill="#000000" fill-rule="nonzero" fill-opacity="1" /><path clip-path="url(#clip550)" d="M18.2347 801.051 L28.3562 801.051 L28.3562 788.988 L32.9077 788.988 L32.9077 801.051 L52.2594 801.051 Q56.6199 801.051 57.8613 799.873 Q59.1026 798.663 59.1026 795.003 L59.1026 788.988 L64.0042 788.988 L64.0042 795.003 Q64.0042 801.783 61.4897 804.361 Q58.9434 806.939 52.2594 806.939 L32.9077 806.939 L32.9077 811.236 L28.3562 811.236 L28.3562 806.939 L18.2347 806.939 L18.2347 801.051 Z" fill="#000000" fill-rule="nonzero" fill-opacity="1" /><path clip-path="url(#clip550)" d="M28.3562 781.285 L28.3562 775.429 L64.0042 775.429 L64.0042 781.285 L28.3562 781.285 M14.479 781.285 L14.479 775.429 L21.895 775.429 L21.895 781.285 L14.479 781.285 Z" fill="#000000" fill-rule="nonzero" fill-opacity="1" /><path clip-path="url(#clip550)" d="M28.3562 767.376 L28.3562 761.169 L58.275 750.029 L28.3562 738.889 L28.3562 732.683 L64.0042 746.051 L64.0042 754.008 L28.3562 767.376 Z" fill="#000000" fill-rule="nonzero" fill-opacity="1" /><path clip-path="url(#clip550)" d="M44.7161 694.107 L47.5806 694.107 L47.5806 721.034 Q53.6281 720.652 56.8109 717.405 Q59.9619 714.127 59.9619 708.302 Q59.9619 704.928 59.1344 701.777 Q58.3069 698.595 56.6518 695.475 L62.1899 695.475 Q63.5267 698.626 64.227 701.937 Q64.9272 705.247 64.9272 708.652 Q64.9272 717.182 59.9619 722.179 Q54.9967 727.145 46.5303 727.145 Q37.7774 727.145 32.6531 722.434 Q27.4968 717.692 27.4968 709.671 Q27.4968 702.478 32.1438 698.308 Q36.7589 694.107 44.7161 694.107 M42.9973 699.963 Q38.1912 700.027 35.3266 702.669 Q32.4621 705.279 32.4621 709.607 Q32.4621 714.509 35.2312 717.469 Q38.0002 720.397 43.0292 720.843 L42.9973 699.963 Z" fill="#000000" fill-rule="nonzero" fill-opacity="1" /><path clip-path="url(#clip550)" d="M16.4842 663.52 L16.4842 633.473 L21.895 633.473 L21.895 657.09 L35.9632 657.09 L35.9632 634.46 L41.3741 634.46 L41.3741 657.09 L58.5933 657.09 L58.5933 632.9 L64.0042 632.9 L64.0042 663.52 L16.4842 663.52 Z" fill="#000000" fill-rule="nonzero" fill-opacity="1" /><path clip-path="url(#clip550)" d="M33.8307 601.931 Q33.2578 602.918 33.0032 604.096 Q32.7167 605.241 32.7167 606.642 Q32.7167 611.607 35.9632 614.281 Q39.1779 616.923 45.2253 616.923 L64.0042 616.923 L64.0042 622.811 L28.3562 622.811 L28.3562 616.923 L33.8944 616.923 Q30.6479 615.076 29.0883 612.116 Q27.4968 609.156 27.4968 604.923 Q27.4968 604.318 27.5923 603.586 Q27.656 602.854 27.8151 601.963 L33.8307 601.931 Z" fill="#000000" fill-rule="nonzero" fill-opacity="1" /><path clip-path="url(#clip550)" d="M33.8307 576.277 Q33.2578 577.264 33.0032 578.442 Q32.7167 579.588 32.7167 580.988 Q32.7167 585.953 35.9632 588.627 Q39.1779 591.269 45.2253 591.269 L64.0042 591.269 L64.0042 597.157 L28.3562 597.157 L28.3562 591.269 L33.8944 591.269 Q30.6479 589.423 29.0883 586.463 Q27.4968 583.503 27.4968 579.269 Q27.4968 578.665 27.5923 577.933 Q27.656 577.201 27.8151 576.309 L33.8307 576.277 Z" fill="#000000" fill-rule="nonzero" fill-opacity="1" /><path clip-path="url(#clip550)" d="M32.4621 557.753 Q32.4621 562.464 36.1542 565.201 Q39.8145 567.938 46.212 567.938 Q52.6095 567.938 56.3017 565.233 Q59.9619 562.496 59.9619 557.753 Q59.9619 553.074 56.2698 550.337 Q52.5777 547.6 46.212 547.6 Q39.8781 547.6 36.186 550.337 Q32.4621 553.074 32.4621 557.753 M27.4968 557.753 Q27.4968 550.114 32.4621 545.754 Q37.4273 541.393 46.212 541.393 Q54.9649 541.393 59.9619 545.754 Q64.9272 550.114 64.9272 557.753 Q64.9272 565.424 59.9619 569.784 Q54.9649 574.113 46.212 574.113 Q37.4273 574.113 32.4621 569.784 Q27.4968 565.424 27.4968 557.753 Z" fill="#000000" fill-rule="nonzero" fill-opacity="1" /><path clip-path="url(#clip550)" d="M33.8307 511.029 Q33.2578 512.016 33.0032 513.193 Q32.7167 514.339 32.7167 515.74 Q32.7167 520.705 35.9632 523.378 Q39.1779 526.02 45.2253 526.02 L64.0042 526.02 L64.0042 531.909 L28.3562 531.909 L28.3562 526.02 L33.8944 526.02 Q30.6479 524.174 29.0883 521.214 Q27.4968 518.254 27.4968 514.021 Q27.4968 513.416 27.5923 512.684 Q27.656 511.952 27.8151 511.061 L33.8307 511.029 Z" fill="#000000" fill-rule="nonzero" fill-opacity="1" /><polyline clip-path="url(#clip552)" style="stroke:#009af9; stroke-linecap:round; stroke-linejoin:round; stroke-width:4; stroke-opacity:1; fill:none" points="312.198,85.838 314.179,376.463 316.16,502.984 318.141,456.465 320.122,406.359 322.103,483.239 324.084,502.984 326.066,517.375 328.047,482.507 330.028,424.643 332.009,477.547 333.99,474.594 335.971,494.202 337.952,605.339 339.933,464.849 341.915,450.888 343.896,431.581 345.877,441.688 347.858,423.14 349.839,574.374 351.82,544.056 353.801,572.306 355.782,606.245 357.764,528.403 359.745,629.644 361.726,392.779 363.707,698.102 365.688,463.183 367.669,696.124 369.65,461.773 371.631,966.142 373.613,606.245 375.594,639.215 377.575,547.51 379.556,510.993 381.537,824.132 383.518,554.443 385.499,585.459 387.48,441.529 389.462,461.598 391.443,575.634 393.424,507.304 395.405,570.968 397.386,515.691 399.367,607.946 401.348,584.475 403.329,587.231 405.311,554.174 407.292,468.725 409.273,498.571 411.254,574.021 413.235,555.424 415.216,580.093 417.197,540.978 419.178,733.821 421.16,517.609 423.141,563.839 425.122,589.554 427.103,608.144 429.084,630.103 431.065,493.095 433.046,480.207 435.027,547.432 437.009,482.68 438.99,717.718 440.971,511.973 442.952,615.959 444.933,525.487 446.914,521.508 448.895,513.218 450.876,551.362 452.858,534.767 454.839,469.726 456.82,500.429 458.801,648.473 460.782,630.73 462.763,518.913 464.744,505.42 466.725,570.82 468.707,649.875 470.688,521.482 472.669,587.336 474.65,508.699 476.631,448.733 478.612,485.87 480.593,539.198 482.574,575.684 484.556,560.835 486.537,592.16 488.518,645.384 490.499,536.284 492.48,629.349 494.461,665.389 496.442,564.974 498.423,605.539 500.405,512.44 502.386,567.095 504.367,580.655 506.348,587.274 508.329,763.439 510.31,607.147 512.291,580.316 514.272,650.544 516.254,566.516 518.235,639.655 520.216,621.57 522.197,531.971 524.178,688.854 526.159,544.427 528.14,571.44 530.121,564.773 532.103,624.68 534.084,652.386 536.065,600.56 538.046,565.961 540.027,559.667 542.008,629.049 543.989,638.103 545.97,797.03 547.951,550.319 549.933,555.241 551.914,853.717 553.895,601.344 555.876,500.029 557.857,517.931 559.838,828.497 561.819,551.362 563.8,483.416 565.782,575.979 567.763,685.226 569.744,617.317 571.725,662.716 573.706,599.122 575.687,602.759 577.668,569.69 579.649,555.307 581.631,580.093 583.612,519.284 585.593,577.629 587.574,513.14 589.555,509.856 591.536,658.807 593.517,570.24 595.498,524.487 597.48,757.68 599.461,477.547 601.442,644.112 603.423,694.922 605.404,712.493 607.385,521.354 609.366,709.695 611.347,723.176 613.329,599.28 615.31,769.241 617.291,822.557 619.272,595.838 621.253,572.384 623.234,555.606 625.215,549.221 627.196,696.669 629.178,575.634 631.159,525.143 633.14,569.142 635.121,675.581 637.102,956.277 639.083,675.56 641.064,756.46 643.045,657.52 645.027,543.598 647.008,663.051 648.989,743.12 650.97,734.362 652.951,499.799 654.932,563.723 656.913,587.577 658.894,626.767 660.876,577.081 662.857,646.359 664.838,570.525 666.819,603.549 668.8,630.548 670.781,672.817 672.762,751.556 674.743,573.365 676.725,608.572 678.706,641.014 680.687,713.09 682.668,569.497 684.649,705.252 686.63,555.232 688.611,527.959 690.592,598.841 692.574,547.392 694.555,685.59 696.536,710.357 698.517,634.198 700.498,552.028 702.479,659.817 704.46,667.232 706.441,867.007 708.423,667.296 710.404,637.783 712.385,540.779 714.366,553.927 716.347,746.836 718.328,563.878 720.309,570.8 722.29,554.236 724.272,527.039 726.253,670.039 728.234,538.781 730.215,657.411 732.196,613.488 734.177,911.602 736.158,621.202 738.139,759.278 740.121,566.467 742.102,681.817 744.083,529.183 746.064,574.434 748.045,658.586 750.026,634.283 752.007,512.86 753.988,616.944 755.97,532.805 757.951,557.215 759.932,664.7 761.913,546.626 763.894,834.403 765.875,602.748 767.856,622.664 769.837,543.613 771.819,616.339 773.8,693.65 775.781,548.897 777.762,796.493 779.743,616.262 781.724,661.113 783.705,636.239 785.686,597.481 787.668,650.137 789.649,690.117 791.63,635.646 793.611,668.185 795.592,883.56 797.573,581.295 799.554,572.21 801.535,623.236 803.517,757.024 805.498,490.891 807.479,570.196 809.46,577.522 811.441,730.468 813.422,634.13 815.403,588.632 817.384,646.557 819.366,563.337 821.347,563.687 823.328,577.718 825.309,598.363 827.29,781.864 829.271,625.12 831.252,710.496 833.233,790.999 835.215,587.198 837.196,525.151 839.177,606.407 841.158,730.988 843.139,565.582 845.12,589.736 847.101,680.2 849.082,592.856 851.064,565.272 853.045,570.5 855.026,606.411 857.007,621.876 858.988,537.077 860.969,626.68 862.95,546.952 864.931,694.947 866.913,616.879 868.894,612.587 870.875,582.107 872.856,596.26 874.837,704.985 876.818,573.786 878.799,544.57 880.78,586.522 882.762,600.485 884.743,765.507 886.724,585.703 888.705,642.711 890.686,760.804 892.667,634.278 894.648,583.368 896.629,842.16 898.611,639.896 900.592,905.02 902.573,682.424 904.554,724.079 906.535,543.666 908.516,724.666 910.497,579.647 912.478,629.378 914.46,535.055 916.441,603.085 918.422,617.665 920.403,579.436 922.384,733.091 924.365,642.388 926.346,563.907 928.327,635.105 930.309,690.298 932.29,619.972 934.271,702.686 936.252,653.516 938.233,574.318 940.214,590.47 942.195,566.779 944.176,648.819 946.158,702.555 948.139,638.175 950.12,527.393 952.101,597.466 954.082,610.243 956.063,706.975 958.044,539.933 960.025,645.034 962.007,723.509 963.988,533.102 965.969,560.376 967.95,600.073 969.931,610.935 971.912,718.237 973.893,608.477 975.874,560.143 977.856,522.14 979.837,656.983 981.818,521.062 983.799,582.447 985.78,729.7 987.761,579.567 989.742,594.765 991.723,579.636 993.705,641.769 995.686,700.742 997.667,915.419 999.648,963.705 1001.63,670.791 1003.61,646.422 1005.59,590.786 1007.57,667.702 1009.55,557.774 1011.53,596.11 1013.52,564.693 1015.5,560.061 1017.48,600.632 1019.46,568.188 1021.44,776.665 1023.42,665.878 1025.4,540.521 1027.38,743.787 1029.36,578.25 1031.35,579.535 1033.33,843.956 1035.31,669.823 1037.29,610.426 1039.27,688.168 1041.25,682.706 1043.23,561.812 1045.21,639.616 1047.19,763.467 1049.18,651.938 1051.16,615.992 1053.14,901.776 1055.12,522.127 1057.1,693.624 1059.08,630.147 1061.06,557.235 1063.04,587.558 1065.02,834.403 1067.01,578.283 1068.99,640.024 1070.97,589.987 1072.95,544.977 1074.93,598.056 1076.91,640.67 1078.89,645.298 1080.87,957.729 1082.86,703.993 1084.84,559.763 1086.82,702.28 1088.8,572.731 1090.78,584.86 1092.76,642.636 1094.74,596.3 1096.72,633.403 1098.7,623.68 1100.69,797.742 1102.67,710.157 1104.65,690.529 1106.63,631.264 1108.61,692.049 1110.59,529.424 1112.57,590.219 1114.55,597.073 1116.53,565.577 1118.52,560.277 1120.5,603.535 1122.48,605.351 1124.46,638.359 1126.44,628.101 1128.42,750.647 1130.4,578.636 1132.38,659.846 1134.36,560.793 1136.35,649.443 1138.33,543.332 1140.31,799.335 1142.29,651.64 1144.27,766.266 1146.25,710.817 1148.23,578.719 1150.21,678.129 1152.19,615.079 1154.18,693.007 1156.16,569.121 1158.14,633.454 1160.12,679.498 1162.1,792.272 1164.08,588.22 1166.06,712.679 1168.04,621.91 1170.02,585.404 1172.01,594.727 1173.99,720.196 1175.97,567.208 1177.95,587.94 1179.93,565.187 1181.91,559.107 1183.89,665.022 1185.87,581.171 1187.85,625.207 1189.84,622.205 1191.82,945.645 1193.8,647.163 1195.78,583.341 1197.76,597.894 1199.74,547.802 1201.72,668.326 1203.7,619.177 1205.68,629.944 1207.67,593.432 1209.65,680.803 1211.63,741.145 1213.61,604.908 1215.59,748.518 1217.57,592.158 1219.55,641.458 1221.53,567.173 1223.51,702.867 1225.5,618.844 1227.48,673.292 1229.46,584.374 1231.44,580.459 1233.42,693.973 1235.4,681.248 1237.38,621.139 1239.36,753.24 1241.35,854.283 1243.33,658.807 1245.31,566.987 1247.29,572.156 1249.27,617.537 1251.25,580.499 1253.23,625.179 1255.21,576.053 1257.19,682.33 1259.18,642.991 1261.16,842.124 1263.14,735.763 1265.12,662.936 1267.1,662.218 1269.08,775.306 1271.06,588.248 1273.04,607.263 1275.02,593.397 1277.01,659.077 1278.99,624.901 1280.97,638.254 1282.95,700.598 1284.93,562.068 1286.91,685.917 1288.89,567.609 1290.87,672.495 1292.85,654.209 1294.84,575.079 1296.82,802.139 1298.8,666.513 1300.78,607.733 1302.76,694.961 1304.74,585.721 1306.72,874.839 1308.7,585.36 1310.68,589.525 1312.67,603.616 1314.65,644.436 1316.63,641.48 1318.61,550.851 1320.59,700.901 1322.57,610.942 1324.55,607.698 1326.53,735.615 1328.51,611.345 1330.5,550.106 1332.48,527.594 1334.46,554.443 1336.44,707.19 1338.42,575.077 1340.4,614.706 1342.38,648.95 1344.36,586.596 1346.34,619.715 1348.33,677.321 1350.31,588.384 1352.29,653.925 1354.27,628.221 1356.25,635.413 1358.23,671.117 1360.21,669.838 1362.19,586.343 1364.17,726.474 1366.16,736.245 1368.14,539.741 1370.12,781.639 1372.1,632.671 1374.08,757.376 1376.06,581.025 1378.04,741.996 1380.02,572.555 1382,640.362 1383.99,639.406 1385.97,680.722 1387.95,626.286 1389.93,620.904 1391.91,601.223 1393.89,762.2 1395.87,689.811 1397.85,712.441 1399.84,693.1 1401.82,727.638 1403.8,760.2 1405.78,797.347 1407.76,634.226 1409.74,661.911 1411.72,657.34 1413.7,540.748 1415.68,771.929 1417.67,784.317 1419.65,646.156 1421.63,667.75 1423.61,739.916 1425.59,591.47 1427.57,625.763 1429.55,660.856 1431.53,686.077 1433.51,653.726 1435.5,577.4 1437.48,571.103 1439.46,590.719 1441.44,744.018 1443.42,602.933 1445.4,621.036 1447.38,655.087 1449.36,708.736 1451.34,752.257 1453.33,709.376 1455.31,659.543 1457.29,584.158 1459.27,671.091 1461.25,626.721 1463.23,631.949 1465.21,571.555 1467.19,687.945 1469.17,553.839 1471.16,889.46 1473.14,770.197 1475.12,550.48 1477.1,745.658 1479.08,731.546 1481.06,583.278 1483.04,714.761 1485.02,697.771 1487,689.996 1488.99,677.403 1490.97,625.91 1492.95,589.842 1494.93,579.53 1496.91,651.898 1498.89,779.256 1500.87,575.634 1502.85,753.086 1504.83,692.648 1506.82,862.91 1508.8,636.426 1510.78,843.215 1512.76,700.78 1514.74,624.087 1516.72,614.725 1518.7,689.491 1520.68,720.588 1522.66,680.89 1524.65,669.822 1526.63,766.209 1528.61,727.949 1530.59,657.966 1532.57,622.912 1534.55,671.26 1536.53,630.152 1538.51,677.499 1540.49,704.665 1542.48,657.849 1544.46,595.893 1546.44,610.317 1548.42,721.371 1550.4,678.847 1552.38,751.257 1554.36,556.49 1556.34,596.657 1558.32,591.605 1560.31,574.234 1562.29,618.568 1564.27,638.448 1566.25,866.929 1568.23,567.821 1570.21,793.252 1572.19,725.095 1574.17,829.351 1576.16,721.237 1578.14,656.497 1580.12,645.846 1582.1,572.029 1584.08,613.731 1586.06,622.377 1588.04,545.982 1590.02,707.855 1592,631.647 1593.99,686.301 1595.97,572.032 1597.95,776.359 1599.93,749.712 1601.91,591.072 1603.89,576.448 1605.87,558.091 1607.85,637.955 1609.83,900.896 1611.82,565.177 1613.8,566.123 1615.78,601.002 1617.76,662.246 1619.74,581.19 1621.72,580.536 1623.7,661.514 1625.68,649.49 1627.66,782.509 1629.65,588.813 1631.63,658.276 1633.61,613.122 1635.59,641.812 1637.57,628.087 1639.55,608.444 1641.53,736.921 1643.51,696.655 1645.49,608.461 1647.48,571.054 1649.46,557.036 1651.44,811.288 1653.42,874.179 1655.4,614.804 1657.38,740.117 1659.36,831.911 1661.34,643.16 1663.32,653.926 1665.31,768.626 1667.29,951.491 1669.27,609.159 1671.25,622.659 1673.23,661.765 1675.21,662.687 1677.19,652.856 1679.17,746.55 1681.15,545.983 1683.14,714.146 1685.12,606.956 1687.1,894.004 1689.08,670.787 1691.06,612.43 1693.04,651.454 1695.02,748.016 1697,569.78 1698.98,627.891 1700.97,605.972 1702.95,636.329 1704.93,658.689 1706.91,684.942 1708.89,652.264 1710.87,769.175 1712.85,590.04 1714.83,734.431 1716.81,739.248 1718.8,613.108 1720.78,684.107 1722.76,583.971 1724.74,852.096 1726.72,568.106 1728.7,651.157 1730.68,574.152 1732.66,624.981 1734.65,663.667 1736.63,624.658 1738.61,723.659 1740.59,636.132 1742.57,661.237 1744.55,838.88 1746.53,758.93 1748.51,561.641 1750.49,738.615 1752.48,558.756 1754.46,833.475 1756.44,640.959 1758.42,617.34 1760.4,683.142 1762.38,765.446 1764.36,1081.78 1766.34,661.894 1768.32,667.426 1770.31,612.288 1772.29,632.825 1774.27,663.747 1776.25,566.39 1778.23,679.231 1780.21,679.618 1782.19,849.389 1784.17,729.725 1786.15,682.998 1788.14,623.496 1790.12,870.338 1792.1,687.926 1794.08,597.035 1796.06,703.829 1798.04,576.241 1800.02,529.752 1802,750.003 1803.98,857.973 1805.97,636.882 1807.95,619.021 1809.93,618.252 1811.91,698.678 1813.89,906.694 1815.87,659.628 1817.85,714.17 1819.83,662.764 1821.81,752.238 1823.8,685.91 1825.78,603.257 1827.76,1372.3 1829.74,618.368 1831.72,912.244 1833.7,1138.7 1835.68,561.97 1837.66,686.342 1839.64,718.695 1841.63,657.476 1843.61,979.324 1845.59,549.042 1847.57,566.583 1849.55,597.719 1851.53,672.156 1853.51,658.762 1855.49,554.138 1857.47,636.882 1859.46,728.047 1861.44,604.215 1863.42,1066.92 1865.4,683.211 1867.38,635.949 1869.36,581.419 1871.34,749.508 1873.32,797.055 1875.3,650.111 1877.29,797.836 1879.27,655.851 1881.25,763.358 1883.23,714.059 1885.21,646.166 1887.19,607.02 1889.17,612.246 1891.15,682.694 1893.14,685.253 1895.12,736.573 1897.1,631.595 1899.08,664.196 1901.06,678.982 1903.04,777.81 1905.02,586.225 1907,676.299 1908.98,682.81 1910.97,647.284 1912.95,637.707 1914.93,611.478 1916.91,703.655 1918.89,697.891 1920.87,573.336 1922.85,728.783 1924.83,639.17 1926.81,808.709 1928.8,770.628 1930.78,558.668 1932.76,634.669 1934.74,570.232 1936.72,612.722 1938.7,652.634 1940.68,763.873 1942.66,717.371 1944.64,586.366 1946.63,752.149 1948.61,636.836 1950.59,619.374 1952.57,771.116 1954.55,778.477 1956.53,725.988 1958.51,735.654 1960.49,762.156 1962.47,604.809 1964.46,852.329 1966.44,581.587 1968.42,968.22 1970.4,611.848 1972.38,689.532 1974.36,721.708 1976.34,694 1978.32,642.395 1980.3,746.476 1982.29,712.761 1984.27,572.391 1986.25,670.701 1988.23,657.734 1990.21,719.496 1992.19,779.4 1994.17,638.579 1996.15,871.687 1998.13,540.137 2000.12,685.217 2002.1,617.452 2004.08,595.531 2006.06,943.444 2008.04,577.656 2010.02,668.916 2012,648.89 2013.98,650.907 2015.96,743.383 2017.95,639.328 2019.93,653.144 2021.91,629.047 2023.89,788.034 2025.87,660.437 2027.85,604.01 2029.83,702.106 2031.81,637.312 2033.79,707.385 2035.78,714.435 2037.76,639.235 2039.74,613.336 2041.72,639.979 2043.7,614.832 2045.68,630.792 2047.66,669.021 2049.64,560.921 2051.62,629.644 2053.61,711.248 2055.59,724.785 2057.57,656.508 2059.55,640.594 2061.53,630.025 2063.51,772.258 2065.49,642.129 2067.47,628.978 2069.46,642.694 2071.44,622.488 2073.42,691.64 2075.4,612.24 2077.38,662.936 2079.36,676.693 2081.34,637.705 2083.32,651.163 2085.3,723.624 2087.29,674.451 2089.27,681.215 2091.25,581.967 2093.23,568.584 2095.21,639.139 2097.19,1029.75 2099.17,666.332 2101.15,613.334 2103.13,646.635 2105.12,672.383 2107.1,681.139 2109.08,749.841 2111.06,561.183 2113.04,717.69 2115.02,696.248 2117,662.983 2118.98,649.776 2120.96,625.2 2122.95,834.32 2124.93,772.787 2126.91,694.802 2128.89,834.459 2130.87,649.182 2132.85,616.638 2134.83,648.796 2136.81,708.685 2138.79,702.477 2140.78,620.224 2142.76,610.3 2144.74,698.832 2146.72,718.34 2148.7,721.173 2150.68,620.125 2152.66,787.933 2154.64,629.644 2156.62,619.172 2158.61,752.168 2160.59,584.997 2162.57,564.26 2164.55,722.148 2166.53,631.744 2168.51,607.697 2170.49,748.1 2172.47,642.354 2174.45,845.151 2176.44,594.248 2178.42,680.535 2180.4,719.571 2182.38,757.361 2184.36,661.11 2186.34,578.632 2188.32,791.406 2190.3,809.799 2192.28,645.858 2194.27,673.595 2196.25,572.419 2198.23,619.164 2200.21,613.633 2202.19,1195.46 2204.17,616.599 2206.15,745.599 2208.13,583.77 2210.11,1036.55 2212.1,690.472 2214.08,719.653 2216.06,742.42 2218.04,684.06 2220.02,620.048 2222,572.097 2223.98,768.52 2225.96,612.821 2227.95,857.704 2229.93,657.932 2231.91,732.632 2233.89,733.11 2235.87,647.406 2237.85,709.403 2239.83,744.392 2241.81,573.831 2243.79,800.643 2245.78,644.71 2247.76,732.871 2249.74,714.835 2251.72,675.387 2253.7,732.798 2255.68,850.318 2257.66,616.04 2259.64,614.908 2261.62,591.216 2263.61,676.424 2265.59,765.709 2267.57,649.864 2269.55,743.272 2271.53,577.005 2273.51,1072.67 2275.49,654.008 2277.47,643.364 2279.45,734.787 2281.44,674.063 2283.42,691.234 2285.4,618.763 2287.38,722.148 2289.36,704.962 2291.34,650.95 2293.32,667.043 "/>
</svg>
