<svg xmlns="http://www.w3.org/2000/svg" xmlns:xlink="http://www.w3.org/1999/xlink" width="600" height="400" viewBox="0 0 2400 1600">
<defs>
  <clipPath id="clip990">
    <rect x="0" y="0" width="2400" height="1600"></rect>
  </clipPath>
</defs>
<path clip-path="url(#clip990)" d="M0 1600 L2400 1600 L2400 0 L0 0  Z" fill="#ffffff" fill-rule="evenodd" fill-opacity="1"></path>
<defs>
  <clipPath id="clip991">
    <rect x="480" y="0" width="1681" height="1600"></rect>
  </clipPath>
</defs>
<path clip-path="url(#clip990)" d="M185.927 1486.45 L2352.76 1486.45 L2352.76 47.2441 L185.927 47.2441  Z" fill="#ffffff" fill-rule="evenodd" fill-opacity="1"></path>
<defs>
  <clipPath id="clip992">
    <rect x="185" y="47" width="2168" height="1440"></rect>
  </clipPath>
</defs>
<polyline clip-path="url(#clip992)" style="stroke:#000000; stroke-linecap:round; stroke-linejoin:round; stroke-width:2; stroke-opacity:0.1; fill:none" points="247.252,1486.45 247.252,47.2441 "></polyline>
<polyline clip-path="url(#clip992)" style="stroke:#000000; stroke-linecap:round; stroke-linejoin:round; stroke-width:2; stroke-opacity:0.1; fill:none" points="758.297,1486.45 758.297,47.2441 "></polyline>
<polyline clip-path="url(#clip992)" style="stroke:#000000; stroke-linecap:round; stroke-linejoin:round; stroke-width:2; stroke-opacity:0.1; fill:none" points="1269.34,1486.45 1269.34,47.2441 "></polyline>
<polyline clip-path="url(#clip992)" style="stroke:#000000; stroke-linecap:round; stroke-linejoin:round; stroke-width:2; stroke-opacity:0.1; fill:none" points="1780.39,1486.45 1780.39,47.2441 "></polyline>
<polyline clip-path="url(#clip992)" style="stroke:#000000; stroke-linecap:round; stroke-linejoin:round; stroke-width:2; stroke-opacity:0.1; fill:none" points="2291.43,1486.45 2291.43,47.2441 "></polyline>
<polyline clip-path="url(#clip990)" style="stroke:#000000; stroke-linecap:round; stroke-linejoin:round; stroke-width:4; stroke-opacity:1; fill:none" points="185.927,1486.45 2352.76,1486.45 "></polyline>
<polyline clip-path="url(#clip990)" style="stroke:#000000; stroke-linecap:round; stroke-linejoin:round; stroke-width:4; stroke-opacity:1; fill:none" points="247.252,1486.45 247.252,1467.55 "></polyline>
<polyline clip-path="url(#clip990)" style="stroke:#000000; stroke-linecap:round; stroke-linejoin:round; stroke-width:4; stroke-opacity:1; fill:none" points="758.297,1486.45 758.297,1467.55 "></polyline>
<polyline clip-path="url(#clip990)" style="stroke:#000000; stroke-linecap:round; stroke-linejoin:round; stroke-width:4; stroke-opacity:1; fill:none" points="1269.34,1486.45 1269.34,1467.55 "></polyline>
<polyline clip-path="url(#clip990)" style="stroke:#000000; stroke-linecap:round; stroke-linejoin:round; stroke-width:4; stroke-opacity:1; fill:none" points="1780.39,1486.45 1780.39,1467.55 "></polyline>
<polyline clip-path="url(#clip990)" style="stroke:#000000; stroke-linecap:round; stroke-linejoin:round; stroke-width:4; stroke-opacity:1; fill:none" points="2291.43,1486.45 2291.43,1467.55 "></polyline>
<path clip-path="url(#clip990)" d="M209.556 1517.37 Q205.944 1517.37 204.116 1520.93 Q202.31 1524.47 202.31 1531.6 Q202.31 1538.71 204.116 1542.27 Q205.944 1545.82 209.556 1545.82 Q213.19 1545.82 214.995 1542.27 Q216.824 1538.71 216.824 1531.6 Q216.824 1524.47 214.995 1520.93 Q213.19 1517.37 209.556 1517.37 M209.556 1513.66 Q215.366 1513.66 218.421 1518.27 Q221.5 1522.85 221.5 1531.6 Q221.5 1540.33 218.421 1544.94 Q215.366 1549.52 209.556 1549.52 Q203.745 1549.52 200.667 1544.94 Q197.611 1540.33 197.611 1531.6 Q197.611 1522.85 200.667 1518.27 Q203.745 1513.66 209.556 1513.66 Z" fill="#000000" fill-rule="nonzero" fill-opacity="1"></path><path clip-path="url(#clip990)" d="M229.718 1542.97 L234.602 1542.97 L234.602 1548.85 L229.718 1548.85 L229.718 1542.97 Z" fill="#000000" fill-rule="nonzero" fill-opacity="1"></path><path clip-path="url(#clip990)" d="M254.787 1517.37 Q251.176 1517.37 249.347 1520.93 Q247.541 1524.47 247.541 1531.6 Q247.541 1538.71 249.347 1542.27 Q251.176 1545.82 254.787 1545.82 Q258.421 1545.82 260.227 1542.27 Q262.055 1538.71 262.055 1531.6 Q262.055 1524.47 260.227 1520.93 Q258.421 1517.37 254.787 1517.37 M254.787 1513.66 Q260.597 1513.66 263.653 1518.27 Q266.731 1522.85 266.731 1531.6 Q266.731 1540.33 263.653 1544.94 Q260.597 1549.52 254.787 1549.52 Q248.977 1549.52 245.898 1544.94 Q242.842 1540.33 242.842 1531.6 Q242.842 1522.85 245.898 1518.27 Q248.977 1513.66 254.787 1513.66 Z" fill="#000000" fill-rule="nonzero" fill-opacity="1"></path><path clip-path="url(#clip990)" d="M284.949 1517.37 Q281.338 1517.37 279.509 1520.93 Q277.703 1524.47 277.703 1531.6 Q277.703 1538.71 279.509 1542.27 Q281.338 1545.82 284.949 1545.82 Q288.583 1545.82 290.388 1542.27 Q292.217 1538.71 292.217 1531.6 Q292.217 1524.47 290.388 1520.93 Q288.583 1517.37 284.949 1517.37 M284.949 1513.66 Q290.759 1513.66 293.814 1518.27 Q296.893 1522.85 296.893 1531.6 Q296.893 1540.33 293.814 1544.94 Q290.759 1549.52 284.949 1549.52 Q279.139 1549.52 276.06 1544.94 Q273.004 1540.33 273.004 1531.6 Q273.004 1522.85 276.06 1518.27 Q279.139 1513.66 284.949 1513.66 Z" fill="#000000" fill-rule="nonzero" fill-opacity="1"></path><path clip-path="url(#clip990)" d="M721.098 1517.37 Q717.487 1517.37 715.658 1520.93 Q713.853 1524.47 713.853 1531.6 Q713.853 1538.71 715.658 1542.27 Q717.487 1545.82 721.098 1545.82 Q724.732 1545.82 726.538 1542.27 Q728.366 1538.71 728.366 1531.6 Q728.366 1524.47 726.538 1520.93 Q724.732 1517.37 721.098 1517.37 M721.098 1513.66 Q726.908 1513.66 729.964 1518.27 Q733.042 1522.85 733.042 1531.6 Q733.042 1540.33 729.964 1544.94 Q726.908 1549.52 721.098 1549.52 Q715.288 1549.52 712.209 1544.94 Q709.153 1540.33 709.153 1531.6 Q709.153 1522.85 712.209 1518.27 Q715.288 1513.66 721.098 1513.66 Z" fill="#000000" fill-rule="nonzero" fill-opacity="1"></path><path clip-path="url(#clip990)" d="M741.26 1542.97 L746.144 1542.97 L746.144 1548.85 L741.26 1548.85 L741.26 1542.97 Z" fill="#000000" fill-rule="nonzero" fill-opacity="1"></path><path clip-path="url(#clip990)" d="M760.357 1544.91 L776.676 1544.91 L776.676 1548.85 L754.732 1548.85 L754.732 1544.91 Q757.394 1542.16 761.977 1537.53 Q766.584 1532.88 767.764 1531.53 Q770.01 1529.01 770.889 1527.27 Q771.792 1525.51 771.792 1523.82 Q771.792 1521.07 769.848 1519.33 Q767.926 1517.6 764.824 1517.6 Q762.625 1517.6 760.172 1518.36 Q757.741 1519.13 754.963 1520.68 L754.963 1515.95 Q757.787 1514.82 760.241 1514.24 Q762.695 1513.66 764.732 1513.66 Q770.102 1513.66 773.297 1516.35 Q776.491 1519.03 776.491 1523.52 Q776.491 1525.65 775.681 1527.57 Q774.894 1529.47 772.787 1532.07 Q772.209 1532.74 769.107 1535.95 Q766.005 1539.15 760.357 1544.91 Z" fill="#000000" fill-rule="nonzero" fill-opacity="1"></path><path clip-path="url(#clip990)" d="M786.537 1514.29 L804.894 1514.29 L804.894 1518.22 L790.82 1518.22 L790.82 1526.7 Q791.838 1526.35 792.857 1526.19 Q793.875 1526 794.894 1526 Q800.681 1526 804.06 1529.17 Q807.44 1532.34 807.44 1537.76 Q807.44 1543.34 803.968 1546.44 Q800.496 1549.52 794.176 1549.52 Q792 1549.52 789.732 1549.15 Q787.486 1548.78 785.079 1548.04 L785.079 1543.34 Q787.162 1544.47 789.385 1545.03 Q791.607 1545.58 794.084 1545.58 Q798.088 1545.58 800.426 1543.48 Q802.764 1541.37 802.764 1537.76 Q802.764 1534.15 800.426 1532.04 Q798.088 1529.94 794.084 1529.94 Q792.209 1529.94 790.334 1530.35 Q788.482 1530.77 786.537 1531.65 L786.537 1514.29 Z" fill="#000000" fill-rule="nonzero" fill-opacity="1"></path><path clip-path="url(#clip990)" d="M1231.64 1517.37 Q1228.03 1517.37 1226.21 1520.93 Q1224.4 1524.47 1224.4 1531.6 Q1224.4 1538.71 1226.21 1542.27 Q1228.03 1545.82 1231.64 1545.82 Q1235.28 1545.82 1237.08 1542.27 Q1238.91 1538.71 1238.91 1531.6 Q1238.91 1524.47 1237.08 1520.93 Q1235.28 1517.37 1231.64 1517.37 M1231.64 1513.66 Q1237.45 1513.66 1240.51 1518.27 Q1243.59 1522.85 1243.59 1531.6 Q1243.59 1540.33 1240.51 1544.94 Q1237.45 1549.52 1231.64 1549.52 Q1225.83 1549.52 1222.76 1544.94 Q1219.7 1540.33 1219.7 1531.6 Q1219.7 1522.85 1222.76 1518.27 Q1225.83 1513.66 1231.64 1513.66 Z" fill="#000000" fill-rule="nonzero" fill-opacity="1"></path><path clip-path="url(#clip990)" d="M1251.81 1542.97 L1256.69 1542.97 L1256.69 1548.85 L1251.81 1548.85 L1251.81 1542.97 Z" fill="#000000" fill-rule="nonzero" fill-opacity="1"></path><path clip-path="url(#clip990)" d="M1266.92 1514.29 L1285.28 1514.29 L1285.28 1518.22 L1271.2 1518.22 L1271.2 1526.7 Q1272.22 1526.35 1273.24 1526.19 Q1274.26 1526 1275.28 1526 Q1281.07 1526 1284.45 1529.17 Q1287.83 1532.34 1287.83 1537.76 Q1287.83 1543.34 1284.35 1546.44 Q1280.88 1549.52 1274.56 1549.52 Q1272.39 1549.52 1270.12 1549.15 Q1267.87 1548.78 1265.46 1548.04 L1265.46 1543.34 Q1267.55 1544.47 1269.77 1545.03 Q1271.99 1545.58 1274.47 1545.58 Q1278.47 1545.58 1280.81 1543.48 Q1283.15 1541.37 1283.15 1537.76 Q1283.15 1534.15 1280.81 1532.04 Q1278.47 1529.94 1274.47 1529.94 Q1272.59 1529.94 1270.72 1530.35 Q1268.87 1530.77 1266.92 1531.65 L1266.92 1514.29 Z" fill="#000000" fill-rule="nonzero" fill-opacity="1"></path><path clip-path="url(#clip990)" d="M1307.04 1517.37 Q1303.43 1517.37 1301.6 1520.93 Q1299.79 1524.47 1299.79 1531.6 Q1299.79 1538.71 1301.6 1542.27 Q1303.43 1545.82 1307.04 1545.82 Q1310.67 1545.82 1312.48 1542.27 Q1314.31 1538.71 1314.31 1531.6 Q1314.31 1524.47 1312.48 1520.93 Q1310.67 1517.37 1307.04 1517.37 M1307.04 1513.66 Q1312.85 1513.66 1315.9 1518.27 Q1318.98 1522.85 1318.98 1531.6 Q1318.98 1540.33 1315.9 1544.94 Q1312.85 1549.52 1307.04 1549.52 Q1301.23 1549.52 1298.15 1544.94 Q1295.09 1540.33 1295.09 1531.6 Q1295.09 1522.85 1298.15 1518.27 Q1301.23 1513.66 1307.04 1513.66 Z" fill="#000000" fill-rule="nonzero" fill-opacity="1"></path><path clip-path="url(#clip990)" d="M1743.19 1517.37 Q1739.58 1517.37 1737.75 1520.93 Q1735.94 1524.47 1735.94 1531.6 Q1735.94 1538.71 1737.75 1542.27 Q1739.58 1545.82 1743.19 1545.82 Q1746.82 1545.82 1748.63 1542.27 Q1750.46 1538.71 1750.46 1531.6 Q1750.46 1524.47 1748.63 1520.93 Q1746.82 1517.37 1743.19 1517.37 M1743.19 1513.66 Q1749 1513.66 1752.05 1518.27 Q1755.13 1522.85 1755.13 1531.6 Q1755.13 1540.33 1752.05 1544.94 Q1749 1549.52 1743.19 1549.52 Q1737.38 1549.52 1734.3 1544.94 Q1731.24 1540.33 1731.24 1531.6 Q1731.24 1522.85 1734.3 1518.27 Q1737.38 1513.66 1743.19 1513.66 Z" fill="#000000" fill-rule="nonzero" fill-opacity="1"></path><path clip-path="url(#clip990)" d="M1763.35 1542.97 L1768.23 1542.97 L1768.23 1548.85 L1763.35 1548.85 L1763.35 1542.97 Z" fill="#000000" fill-rule="nonzero" fill-opacity="1"></path><path clip-path="url(#clip990)" d="M1777.24 1514.29 L1799.46 1514.29 L1799.46 1516.28 L1786.91 1548.85 L1782.03 1548.85 L1793.83 1518.22 L1777.24 1518.22 L1777.24 1514.29 Z" fill="#000000" fill-rule="nonzero" fill-opacity="1"></path><path clip-path="url(#clip990)" d="M1808.63 1514.29 L1826.98 1514.29 L1826.98 1518.22 L1812.91 1518.22 L1812.91 1526.7 Q1813.93 1526.35 1814.95 1526.19 Q1815.96 1526 1816.98 1526 Q1822.77 1526 1826.15 1529.17 Q1829.53 1532.34 1829.53 1537.76 Q1829.53 1543.34 1826.06 1546.44 Q1822.58 1549.52 1816.27 1549.52 Q1814.09 1549.52 1811.82 1549.15 Q1809.58 1548.78 1807.17 1548.04 L1807.17 1543.34 Q1809.25 1544.47 1811.47 1545.03 Q1813.7 1545.58 1816.17 1545.58 Q1820.18 1545.58 1822.52 1543.48 Q1824.85 1541.37 1824.85 1537.76 Q1824.85 1534.15 1822.52 1532.04 Q1820.18 1529.94 1816.17 1529.94 Q1814.3 1529.94 1812.42 1530.35 Q1810.57 1530.77 1808.63 1531.65 L1808.63 1514.29 Z" fill="#000000" fill-rule="nonzero" fill-opacity="1"></path><path clip-path="url(#clip990)" d="M2243.5 1544.91 L2251.14 1544.91 L2251.14 1518.55 L2242.83 1520.21 L2242.83 1515.95 L2251.1 1514.29 L2255.77 1514.29 L2255.77 1544.91 L2263.41 1544.91 L2263.41 1548.85 L2243.5 1548.85 L2243.5 1544.91 Z" fill="#000000" fill-rule="nonzero" fill-opacity="1"></path><path clip-path="url(#clip990)" d="M2272.85 1542.97 L2277.74 1542.97 L2277.74 1548.85 L2272.85 1548.85 L2272.85 1542.97 Z" fill="#000000" fill-rule="nonzero" fill-opacity="1"></path><path clip-path="url(#clip990)" d="M2297.92 1517.37 Q2294.31 1517.37 2292.48 1520.93 Q2290.68 1524.47 2290.68 1531.6 Q2290.68 1538.71 2292.48 1542.27 Q2294.31 1545.82 2297.92 1545.82 Q2301.56 1545.82 2303.36 1542.27 Q2305.19 1538.71 2305.19 1531.6 Q2305.19 1524.47 2303.36 1520.93 Q2301.56 1517.37 2297.92 1517.37 M2297.92 1513.66 Q2303.73 1513.66 2306.79 1518.27 Q2309.87 1522.85 2309.87 1531.6 Q2309.87 1540.33 2306.79 1544.94 Q2303.73 1549.52 2297.92 1549.52 Q2292.11 1549.52 2289.03 1544.94 Q2285.98 1540.33 2285.98 1531.6 Q2285.98 1522.85 2289.03 1518.27 Q2292.11 1513.66 2297.92 1513.66 Z" fill="#000000" fill-rule="nonzero" fill-opacity="1"></path><path clip-path="url(#clip990)" d="M2328.09 1517.37 Q2324.47 1517.37 2322.65 1520.93 Q2320.84 1524.47 2320.84 1531.6 Q2320.84 1538.71 2322.65 1542.27 Q2324.47 1545.82 2328.09 1545.82 Q2331.72 1545.82 2333.53 1542.27 Q2335.35 1538.71 2335.35 1531.6 Q2335.35 1524.47 2333.53 1520.93 Q2331.72 1517.37 2328.09 1517.37 M2328.09 1513.66 Q2333.9 1513.66 2336.95 1518.27 Q2340.03 1522.85 2340.03 1531.6 Q2340.03 1540.33 2336.95 1544.94 Q2333.9 1549.52 2328.09 1549.52 Q2322.28 1549.52 2319.2 1544.94 Q2316.14 1540.33 2316.14 1531.6 Q2316.14 1522.85 2319.2 1518.27 Q2322.28 1513.66 2328.09 1513.66 Z" fill="#000000" fill-rule="nonzero" fill-opacity="1"></path><polyline clip-path="url(#clip992)" style="stroke:#000000; stroke-linecap:round; stroke-linejoin:round; stroke-width:2; stroke-opacity:0.1; fill:none" points="185.927,1424.34 2352.76,1424.34 "></polyline>
<polyline clip-path="url(#clip992)" style="stroke:#000000; stroke-linecap:round; stroke-linejoin:round; stroke-width:2; stroke-opacity:0.1; fill:none" points="185.927,1204.4 2352.76,1204.4 "></polyline>
<polyline clip-path="url(#clip992)" style="stroke:#000000; stroke-linecap:round; stroke-linejoin:round; stroke-width:2; stroke-opacity:0.1; fill:none" points="185.927,984.451 2352.76,984.451 "></polyline>
<polyline clip-path="url(#clip992)" style="stroke:#000000; stroke-linecap:round; stroke-linejoin:round; stroke-width:2; stroke-opacity:0.1; fill:none" points="185.927,764.506 2352.76,764.506 "></polyline>
<polyline clip-path="url(#clip992)" style="stroke:#000000; stroke-linecap:round; stroke-linejoin:round; stroke-width:2; stroke-opacity:0.1; fill:none" points="185.927,544.56 2352.76,544.56 "></polyline>
<polyline clip-path="url(#clip992)" style="stroke:#000000; stroke-linecap:round; stroke-linejoin:round; stroke-width:2; stroke-opacity:0.1; fill:none" points="185.927,324.614 2352.76,324.614 "></polyline>
<polyline clip-path="url(#clip992)" style="stroke:#000000; stroke-linecap:round; stroke-linejoin:round; stroke-width:2; stroke-opacity:0.1; fill:none" points="185.927,104.668 2352.76,104.668 "></polyline>
<polyline clip-path="url(#clip990)" style="stroke:#000000; stroke-linecap:round; stroke-linejoin:round; stroke-width:4; stroke-opacity:1; fill:none" points="185.927,1486.45 185.927,47.2441 "></polyline>
<polyline clip-path="url(#clip990)" style="stroke:#000000; stroke-linecap:round; stroke-linejoin:round; stroke-width:4; stroke-opacity:1; fill:none" points="185.927,1424.34 204.824,1424.34 "></polyline>
<polyline clip-path="url(#clip990)" style="stroke:#000000; stroke-linecap:round; stroke-linejoin:round; stroke-width:4; stroke-opacity:1; fill:none" points="185.927,1204.4 204.824,1204.4 "></polyline>
<polyline clip-path="url(#clip990)" style="stroke:#000000; stroke-linecap:round; stroke-linejoin:round; stroke-width:4; stroke-opacity:1; fill:none" points="185.927,984.451 204.824,984.451 "></polyline>
<polyline clip-path="url(#clip990)" style="stroke:#000000; stroke-linecap:round; stroke-linejoin:round; stroke-width:4; stroke-opacity:1; fill:none" points="185.927,764.506 204.824,764.506 "></polyline>
<polyline clip-path="url(#clip990)" style="stroke:#000000; stroke-linecap:round; stroke-linejoin:round; stroke-width:4; stroke-opacity:1; fill:none" points="185.927,544.56 204.824,544.56 "></polyline>
<polyline clip-path="url(#clip990)" style="stroke:#000000; stroke-linecap:round; stroke-linejoin:round; stroke-width:4; stroke-opacity:1; fill:none" points="185.927,324.614 204.824,324.614 "></polyline>
<polyline clip-path="url(#clip990)" style="stroke:#000000; stroke-linecap:round; stroke-linejoin:round; stroke-width:4; stroke-opacity:1; fill:none" points="185.927,104.668 204.824,104.668 "></polyline>
<path clip-path="url(#clip990)" d="M53.3995 1437.69 L61.0384 1437.69 L61.0384 1411.32 L52.7282 1412.99 L52.7282 1408.73 L60.9921 1407.06 L65.668 1407.06 L65.668 1437.69 L73.3068 1437.69 L73.3068 1441.62 L53.3995 1441.62 L53.3995 1437.69 Z" fill="#000000" fill-rule="nonzero" fill-opacity="1"></path><path clip-path="url(#clip990)" d="M82.7512 1435.74 L87.6354 1435.74 L87.6354 1441.62 L82.7512 1441.62 L82.7512 1435.74 Z" fill="#000000" fill-rule="nonzero" fill-opacity="1"></path><path clip-path="url(#clip990)" d="M97.8669 1407.06 L116.223 1407.06 L116.223 1411 L102.149 1411 L102.149 1419.47 Q103.168 1419.12 104.186 1418.96 Q105.205 1418.78 106.223 1418.78 Q112.01 1418.78 115.39 1421.95 Q118.77 1425.12 118.77 1430.54 Q118.77 1436.11 115.297 1439.22 Q111.825 1442.29 105.506 1442.29 Q103.33 1442.29 101.061 1441.92 Q98.8159 1441.55 96.4085 1440.81 L96.4085 1436.11 Q98.4919 1437.25 100.714 1437.8 Q102.936 1438.36 105.413 1438.36 Q109.418 1438.36 111.756 1436.25 Q114.094 1434.15 114.094 1430.54 Q114.094 1426.92 111.756 1424.82 Q109.418 1422.71 105.413 1422.71 Q103.538 1422.71 101.663 1423.13 Q99.8113 1423.54 97.8669 1424.42 L97.8669 1407.06 Z" fill="#000000" fill-rule="nonzero" fill-opacity="1"></path><path clip-path="url(#clip990)" d="M137.982 1410.14 Q134.371 1410.14 132.543 1413.71 Q130.737 1417.25 130.737 1424.38 Q130.737 1431.48 132.543 1435.05 Q134.371 1438.59 137.982 1438.59 Q141.617 1438.59 143.422 1435.05 Q145.251 1431.48 145.251 1424.38 Q145.251 1417.25 143.422 1413.71 Q141.617 1410.14 137.982 1410.14 M137.982 1406.44 Q143.793 1406.44 146.848 1411.04 Q149.927 1415.63 149.927 1424.38 Q149.927 1433.1 146.848 1437.71 Q143.793 1442.29 137.982 1442.29 Q132.172 1442.29 129.094 1437.71 Q126.038 1433.1 126.038 1424.38 Q126.038 1415.63 129.094 1411.04 Q132.172 1406.44 137.982 1406.44 Z" fill="#000000" fill-rule="nonzero" fill-opacity="1"></path><path clip-path="url(#clip990)" d="M54.3949 1217.74 L62.0337 1217.74 L62.0337 1191.38 L53.7236 1193.04 L53.7236 1188.78 L61.9874 1187.12 L66.6633 1187.12 L66.6633 1217.74 L74.3022 1217.74 L74.3022 1221.68 L54.3949 1221.68 L54.3949 1217.74 Z" fill="#000000" fill-rule="nonzero" fill-opacity="1"></path><path clip-path="url(#clip990)" d="M83.7466 1215.8 L88.6308 1215.8 L88.6308 1221.68 L83.7466 1221.68 L83.7466 1215.8 Z" fill="#000000" fill-rule="nonzero" fill-opacity="1"></path><path clip-path="url(#clip990)" d="M97.6354 1187.12 L119.857 1187.12 L119.857 1189.11 L107.311 1221.68 L102.427 1221.68 L114.233 1191.05 L97.6354 1191.05 L97.6354 1187.12 Z" fill="#000000" fill-rule="nonzero" fill-opacity="1"></path><path clip-path="url(#clip990)" d="M129.024 1187.12 L147.38 1187.12 L147.38 1191.05 L133.306 1191.05 L133.306 1199.52 Q134.325 1199.18 135.344 1199.02 Q136.362 1198.83 137.381 1198.83 Q143.168 1198.83 146.547 1202 Q149.927 1205.17 149.927 1210.59 Q149.927 1216.17 146.455 1219.27 Q142.982 1222.35 136.663 1222.35 Q134.487 1222.35 132.219 1221.98 Q129.973 1221.61 127.566 1220.87 L127.566 1216.17 Q129.649 1217.3 131.871 1217.86 Q134.094 1218.41 136.57 1218.41 Q140.575 1218.41 142.913 1216.31 Q145.251 1214.2 145.251 1210.59 Q145.251 1206.98 142.913 1204.87 Q140.575 1202.77 136.57 1202.77 Q134.695 1202.77 132.82 1203.18 Q130.969 1203.6 129.024 1204.48 L129.024 1187.12 Z" fill="#000000" fill-rule="nonzero" fill-opacity="1"></path><path clip-path="url(#clip990)" d="M56.6171 997.796 L72.9365 997.796 L72.9365 1001.73 L50.9921 1001.73 L50.9921 997.796 Q53.6541 995.042 58.2375 990.412 Q62.8439 985.759 64.0245 984.417 Q66.2698 981.894 67.1494 980.158 Q68.0522 978.398 68.0522 976.708 Q68.0522 973.954 66.1078 972.218 Q64.1865 970.482 61.0847 970.482 Q58.8856 970.482 56.4319 971.246 Q54.0014 972.009 51.2236 973.56 L51.2236 968.838 Q54.0477 967.704 56.5014 967.125 Q58.955 966.546 60.9921 966.546 Q66.3624 966.546 69.5568 969.232 Q72.7513 971.917 72.7513 976.408 Q72.7513 978.537 71.9411 980.458 Q71.1541 982.357 69.0476 984.949 Q68.4689 985.62 65.367 988.838 Q62.2652 992.032 56.6171 997.796 Z" fill="#000000" fill-rule="nonzero" fill-opacity="1"></path><path clip-path="url(#clip990)" d="M82.7512 995.852 L87.6354 995.852 L87.6354 1001.73 L82.7512 1001.73 L82.7512 995.852 Z" fill="#000000" fill-rule="nonzero" fill-opacity="1"></path><path clip-path="url(#clip990)" d="M107.821 970.25 Q104.209 970.25 102.381 973.815 Q100.575 977.357 100.575 984.486 Q100.575 991.593 102.381 995.157 Q104.209 998.699 107.821 998.699 Q111.455 998.699 113.26 995.157 Q115.089 991.593 115.089 984.486 Q115.089 977.357 113.26 973.815 Q111.455 970.25 107.821 970.25 M107.821 966.546 Q113.631 966.546 116.686 971.153 Q119.765 975.736 119.765 984.486 Q119.765 993.213 116.686 997.819 Q113.631 1002.4 107.821 1002.4 Q102.01 1002.4 98.9317 997.819 Q95.8761 993.213 95.8761 984.486 Q95.8761 975.736 98.9317 971.153 Q102.01 966.546 107.821 966.546 Z" fill="#000000" fill-rule="nonzero" fill-opacity="1"></path><path clip-path="url(#clip990)" d="M137.982 970.25 Q134.371 970.25 132.543 973.815 Q130.737 977.357 130.737 984.486 Q130.737 991.593 132.543 995.157 Q134.371 998.699 137.982 998.699 Q141.617 998.699 143.422 995.157 Q145.251 991.593 145.251 984.486 Q145.251 977.357 143.422 973.815 Q141.617 970.25 137.982 970.25 M137.982 966.546 Q143.793 966.546 146.848 971.153 Q149.927 975.736 149.927 984.486 Q149.927 993.213 146.848 997.819 Q143.793 1002.4 137.982 1002.4 Q132.172 1002.4 129.094 997.819 Q126.038 993.213 126.038 984.486 Q126.038 975.736 129.094 971.153 Q132.172 966.546 137.982 966.546 Z" fill="#000000" fill-rule="nonzero" fill-opacity="1"></path><path clip-path="url(#clip990)" d="M57.6125 777.851 L73.9318 777.851 L73.9318 781.786 L51.9875 781.786 L51.9875 777.851 Q54.6495 775.096 59.2328 770.466 Q63.8393 765.814 65.0198 764.471 Q67.2652 761.948 68.1448 760.212 Q69.0476 758.452 69.0476 756.763 Q69.0476 754.008 67.1032 752.272 Q65.1819 750.536 62.08 750.536 Q59.881 750.536 57.4273 751.3 Q54.9967 752.064 52.219 753.615 L52.219 748.892 Q55.043 747.758 57.4967 747.179 Q59.9504 746.601 61.9874 746.601 Q67.3578 746.601 70.5522 749.286 Q73.7466 751.971 73.7466 756.462 Q73.7466 758.591 72.9365 760.513 Q72.1494 762.411 70.0429 765.003 Q69.4642 765.675 66.3624 768.892 Q63.2606 772.087 57.6125 777.851 Z" fill="#000000" fill-rule="nonzero" fill-opacity="1"></path><path clip-path="url(#clip990)" d="M83.7466 775.906 L88.6308 775.906 L88.6308 781.786 L83.7466 781.786 L83.7466 775.906 Z" fill="#000000" fill-rule="nonzero" fill-opacity="1"></path><path clip-path="url(#clip990)" d="M102.844 777.851 L119.163 777.851 L119.163 781.786 L97.2187 781.786 L97.2187 777.851 Q99.8808 775.096 104.464 770.466 Q109.071 765.814 110.251 764.471 Q112.496 761.948 113.376 760.212 Q114.279 758.452 114.279 756.763 Q114.279 754.008 112.334 752.272 Q110.413 750.536 107.311 750.536 Q105.112 750.536 102.659 751.3 Q100.228 752.064 97.4502 753.615 L97.4502 748.892 Q100.274 747.758 102.728 747.179 Q105.182 746.601 107.219 746.601 Q112.589 746.601 115.783 749.286 Q118.978 751.971 118.978 756.462 Q118.978 758.591 118.168 760.513 Q117.381 762.411 115.274 765.003 Q114.695 765.675 111.594 768.892 Q108.492 772.087 102.844 777.851 Z" fill="#000000" fill-rule="nonzero" fill-opacity="1"></path><path clip-path="url(#clip990)" d="M129.024 747.226 L147.38 747.226 L147.38 751.161 L133.306 751.161 L133.306 759.633 Q134.325 759.286 135.344 759.124 Q136.362 758.939 137.381 758.939 Q143.168 758.939 146.547 762.11 Q149.927 765.281 149.927 770.698 Q149.927 776.276 146.455 779.378 Q142.982 782.457 136.663 782.457 Q134.487 782.457 132.219 782.087 Q129.973 781.716 127.566 780.976 L127.566 776.276 Q129.649 777.411 131.871 777.966 Q134.094 778.522 136.57 778.522 Q140.575 778.522 142.913 776.415 Q145.251 774.309 145.251 770.698 Q145.251 767.087 142.913 764.98 Q140.575 762.874 136.57 762.874 Q134.695 762.874 132.82 763.29 Q130.969 763.707 129.024 764.587 L129.024 747.226 Z" fill="#000000" fill-rule="nonzero" fill-opacity="1"></path><path clip-path="url(#clip990)" d="M56.6171 557.905 L72.9365 557.905 L72.9365 561.84 L50.9921 561.84 L50.9921 557.905 Q53.6541 555.15 58.2375 550.521 Q62.8439 545.868 64.0245 544.525 Q66.2698 542.002 67.1494 540.266 Q68.0522 538.507 68.0522 536.817 Q68.0522 534.062 66.1078 532.326 Q64.1865 530.59 61.0847 530.59 Q58.8856 530.59 56.4319 531.354 Q54.0014 532.118 51.2236 533.669 L51.2236 528.947 Q54.0477 527.812 56.5014 527.234 Q58.955 526.655 60.9921 526.655 Q66.3624 526.655 69.5568 529.34 Q72.7513 532.025 72.7513 536.516 Q72.7513 538.646 71.9411 540.567 Q71.1541 542.465 69.0476 545.058 Q68.4689 545.729 65.367 548.946 Q62.2652 552.141 56.6171 557.905 Z" fill="#000000" fill-rule="nonzero" fill-opacity="1"></path><path clip-path="url(#clip990)" d="M82.7512 555.96 L87.6354 555.96 L87.6354 561.84 L82.7512 561.84 L82.7512 555.96 Z" fill="#000000" fill-rule="nonzero" fill-opacity="1"></path><path clip-path="url(#clip990)" d="M97.8669 527.28 L116.223 527.28 L116.223 531.215 L102.149 531.215 L102.149 539.687 Q103.168 539.34 104.186 539.178 Q105.205 538.993 106.223 538.993 Q112.01 538.993 115.39 542.164 Q118.77 545.335 118.77 550.752 Q118.77 556.331 115.297 559.433 Q111.825 562.511 105.506 562.511 Q103.33 562.511 101.061 562.141 Q98.8159 561.77 96.4085 561.03 L96.4085 556.331 Q98.4919 557.465 100.714 558.021 Q102.936 558.576 105.413 558.576 Q109.418 558.576 111.756 556.47 Q114.094 554.363 114.094 550.752 Q114.094 547.141 111.756 545.034 Q109.418 542.928 105.413 542.928 Q103.538 542.928 101.663 543.345 Q99.8113 543.761 97.8669 544.641 L97.8669 527.28 Z" fill="#000000" fill-rule="nonzero" fill-opacity="1"></path><path clip-path="url(#clip990)" d="M137.982 530.359 Q134.371 530.359 132.543 533.923 Q130.737 537.465 130.737 544.595 Q130.737 551.701 132.543 555.266 Q134.371 558.808 137.982 558.808 Q141.617 558.808 143.422 555.266 Q145.251 551.701 145.251 544.595 Q145.251 537.465 143.422 533.923 Q141.617 530.359 137.982 530.359 M137.982 526.655 Q143.793 526.655 146.848 531.261 Q149.927 535.845 149.927 544.595 Q149.927 553.321 146.848 557.928 Q143.793 562.511 137.982 562.511 Q132.172 562.511 129.094 557.928 Q126.038 553.321 126.038 544.595 Q126.038 535.845 129.094 531.261 Q132.172 526.655 137.982 526.655 Z" fill="#000000" fill-rule="nonzero" fill-opacity="1"></path><path clip-path="url(#clip990)" d="M57.6125 337.959 L73.9318 337.959 L73.9318 341.894 L51.9875 341.894 L51.9875 337.959 Q54.6495 335.204 59.2328 330.575 Q63.8393 325.922 65.0198 324.579 Q67.2652 322.056 68.1448 320.32 Q69.0476 318.561 69.0476 316.871 Q69.0476 314.117 67.1032 312.38 Q65.1819 310.644 62.08 310.644 Q59.881 310.644 57.4273 311.408 Q54.9967 312.172 52.219 313.723 L52.219 309.001 Q55.043 307.867 57.4967 307.288 Q59.9504 306.709 61.9874 306.709 Q67.3578 306.709 70.5522 309.394 Q73.7466 312.08 73.7466 316.57 Q73.7466 318.7 72.9365 320.621 Q72.1494 322.519 70.0429 325.112 Q69.4642 325.783 66.3624 329.001 Q63.2606 332.195 57.6125 337.959 Z" fill="#000000" fill-rule="nonzero" fill-opacity="1"></path><path clip-path="url(#clip990)" d="M83.7466 336.015 L88.6308 336.015 L88.6308 341.894 L83.7466 341.894 L83.7466 336.015 Z" fill="#000000" fill-rule="nonzero" fill-opacity="1"></path><path clip-path="url(#clip990)" d="M97.6354 307.334 L119.857 307.334 L119.857 309.325 L107.311 341.894 L102.427 341.894 L114.233 311.269 L97.6354 311.269 L97.6354 307.334 Z" fill="#000000" fill-rule="nonzero" fill-opacity="1"></path><path clip-path="url(#clip990)" d="M129.024 307.334 L147.38 307.334 L147.38 311.269 L133.306 311.269 L133.306 319.742 Q134.325 319.394 135.344 319.232 Q136.362 319.047 137.381 319.047 Q143.168 319.047 146.547 322.218 Q149.927 325.39 149.927 330.806 Q149.927 336.385 146.455 339.487 Q142.982 342.565 136.663 342.565 Q134.487 342.565 132.219 342.195 Q129.973 341.825 127.566 341.084 L127.566 336.385 Q129.649 337.519 131.871 338.075 Q134.094 338.63 136.57 338.63 Q140.575 338.63 142.913 336.524 Q145.251 334.417 145.251 330.806 Q145.251 327.195 142.913 325.089 Q140.575 322.982 136.57 322.982 Q134.695 322.982 132.82 323.399 Q130.969 323.816 129.024 324.695 L129.024 307.334 Z" fill="#000000" fill-rule="nonzero" fill-opacity="1"></path><path clip-path="url(#clip990)" d="M66.7559 103.314 Q70.1124 104.032 71.9874 106.3 Q73.8855 108.569 73.8855 111.902 Q73.8855 117.018 70.367 119.819 Q66.8485 122.62 60.3671 122.62 Q58.1912 122.62 55.8764 122.18 Q53.5847 121.763 51.131 120.907 L51.131 116.393 Q53.0754 117.527 55.3903 118.106 Q57.7051 118.685 60.2282 118.685 Q64.6263 118.685 66.918 116.948 Q69.2328 115.212 69.2328 111.902 Q69.2328 108.847 67.08 107.134 Q64.9504 105.398 61.131 105.398 L57.1032 105.398 L57.1032 101.555 L61.3161 101.555 Q64.7652 101.555 66.5939 100.189 Q68.4226 98.8004 68.4226 96.2078 Q68.4226 93.5458 66.5245 92.1337 Q64.6495 90.6986 61.131 90.6986 Q59.2097 90.6986 57.0106 91.1152 Q54.8115 91.5319 52.1727 92.4115 L52.1727 88.2449 Q54.8347 87.5041 57.1495 87.1338 Q59.4875 86.7634 61.5476 86.7634 Q66.8717 86.7634 69.9735 89.1939 Q73.0753 91.6013 73.0753 95.7217 Q73.0753 98.592 71.4318 100.583 Q69.7883 102.55 66.7559 103.314 Z" fill="#000000" fill-rule="nonzero" fill-opacity="1"></path><path clip-path="url(#clip990)" d="M82.7512 116.069 L87.6354 116.069 L87.6354 121.948 L82.7512 121.948 L82.7512 116.069 Z" fill="#000000" fill-rule="nonzero" fill-opacity="1"></path><path clip-path="url(#clip990)" d="M107.821 90.4671 Q104.209 90.4671 102.381 94.0319 Q100.575 97.5735 100.575 104.703 Q100.575 111.81 102.381 115.374 Q104.209 118.916 107.821 118.916 Q111.455 118.916 113.26 115.374 Q115.089 111.81 115.089 104.703 Q115.089 97.5735 113.26 94.0319 Q111.455 90.4671 107.821 90.4671 M107.821 86.7634 Q113.631 86.7634 116.686 91.3699 Q119.765 95.9532 119.765 104.703 Q119.765 113.43 116.686 118.036 Q113.631 122.62 107.821 122.62 Q102.01 122.62 98.9317 118.036 Q95.8761 113.43 95.8761 104.703 Q95.8761 95.9532 98.9317 91.3699 Q102.01 86.7634 107.821 86.7634 Z" fill="#000000" fill-rule="nonzero" fill-opacity="1"></path><path clip-path="url(#clip990)" d="M137.982 90.4671 Q134.371 90.4671 132.543 94.0319 Q130.737 97.5735 130.737 104.703 Q130.737 111.81 132.543 115.374 Q134.371 118.916 137.982 118.916 Q141.617 118.916 143.422 115.374 Q145.251 111.81 145.251 104.703 Q145.251 97.5735 143.422 94.0319 Q141.617 90.4671 137.982 90.4671 M137.982 86.7634 Q143.793 86.7634 146.848 91.3699 Q149.927 95.9532 149.927 104.703 Q149.927 113.43 146.848 118.036 Q143.793 122.62 137.982 122.62 Q132.172 122.62 129.094 118.036 Q126.038 113.43 126.038 104.703 Q126.038 95.9532 129.094 91.3699 Q132.172 86.7634 137.982 86.7634 Z" fill="#000000" fill-rule="nonzero" fill-opacity="1"></path><polyline clip-path="url(#clip992)" style="stroke:#00008b; stroke-linecap:round; stroke-linejoin:round; stroke-width:4; stroke-opacity:1; fill:none" points="247.32,1410.61 254.066,1393.8 260.88,1352.36 267.694,1324.45 274.508,1287.9 281.322,1249.41 288.136,1271.97 294.95,1198.6 301.764,1184.75 308.577,1168.11 315.391,1138.71 322.205,1125.43 329.019,1108.46 335.833,1111.95 342.647,1061.78 349.461,1062.89 356.275,1009.97 363.089,1006.48 369.903,970.434 376.717,986.3 383.531,977.365 390.345,948.096 397.159,939.997 403.972,905.558 410.786,872.562 417.6,870.037 424.414,876.731 431.228,863.936 438.042,824.443 444.856,820.749 451.67,809.677 458.484,644.946 465.298,669.578 472.112,638.395 478.926,636.495 485.74,633.477 492.554,589.274 499.367,566.851 506.181,568.131 512.995,564.817 519.809,511.716 526.623,538.279 533.437,578.036 540.251,516.454 547.065,537.247 553.879,522.036 560.693,530.51 567.507,481.718 574.321,493.421 581.135,482.287 587.949,502.854 594.762,492.287 601.576,479.456 608.39,463.597 615.204,474.413 622.018,474.153 628.832,453.646 635.646,420.277 642.46,446.459 649.274,415.101 656.088,397.708 662.902,438.518 669.716,406.58 676.53,403.56 683.344,398.89 690.157,427.904 696.971,391.342 703.785,419.105 710.599,371.058 717.413,406.898 724.227,389.06 731.041,359.473 737.855,359.439 744.669,367.906 751.483,334.831 758.297,391.403 765.111,349.721 771.925,371.009 778.739,361.8 785.552,401.593 792.366,357.131 799.18,339.585 805.994,320.92 812.808,354.445 819.622,363.097 826.436,316.036 833.25,337.885 840.064,307.697 846.878,337.73 853.692,310.702 860.506,333.112 867.32,326.271 874.134,293.013 880.947,323.664 887.761,319.507 894.575,289.111 901.389,292.426 908.203,269.513 915.017,314.071 921.831,339.885 928.645,285.106 935.459,252.791 942.273,306.063 949.087,261.202 955.901,313.039 962.715,277.579 969.529,277.456 976.342,247.252 983.156,255.242 989.97,254.888 996.784,258.47 1003.6,214.616 1010.41,246.753 1017.23,262.792 1024.04,215.643 1030.85,238.015 1037.67,238.105 1044.48,265.965 1051.3,264.065 1058.11,239.187 1064.92,208.42 1071.74,254.387 1078.55,220.199 1085.37,235.566 1092.18,191.996 1098.99,234.221 1105.81,221.369 1112.62,239.761 1119.43,221.608 1126.25,249.799 1133.06,241.32 1139.88,199.652 1146.69,234.829 1153.5,226.274 1160.32,235.183 1167.13,220.303 1173.95,248.832 1180.76,217.224 1187.57,238.281 1194.39,194.543 1201.2,219.345 1208.02,175.623 1214.83,223.299 1221.64,200.164 1228.46,234.727 1235.27,210.154 1242.09,229.551 1248.9,223.165 1255.71,257.573 1262.53,188.198 1269.34,197.819 1276.16,211.448 1282.97,236.866 1289.78,228.296 1296.6,224.913 1303.41,202.791 1310.22,203.148 1317.04,183.989 1323.85,218.472 1330.67,193.264 1337.48,238.952 1344.29,231.733 1351.11,209.094 1357.92,223.244 1364.74,245.809 1371.55,228.985 1378.36,232.594 1385.18,144.573 1391.99,226.477 1398.81,238.562 1405.62,259.232 1412.43,223.865 1419.25,226.212 1426.06,236.649 1432.88,238.831 1439.69,257.852 1446.5,245.924 1453.32,231.418 1460.13,264.142 1466.95,211.668 1473.76,240.021 1480.57,255.107 1487.39,263.418 1494.2,224.15 1501.01,254.262 1507.83,246.528 1514.64,255.83 1521.46,250.643 1528.27,240.175 1535.08,253.246 1541.9,254.057 1548.71,257.44 1555.53,268.538 1562.34,288.72 1569.15,263.118 1575.97,291.218 1582.78,305.846 1589.6,224.955 1596.41,247.141 1603.22,273.69 1610.04,279.019 1616.85,281.28 1623.67,310.331 1630.48,304.076 1637.29,293.421 1644.11,298.41 1650.92,304.294 1657.74,295.3 1664.55,289.118 1671.36,278.424 1678.18,317.348 1684.99,333.305 1691.8,326.04 1698.62,329.206 1705.43,297.162 1712.25,319.843 1719.06,329.983 1725.87,310.659 1732.69,319.948 1739.5,325.035 1746.32,327.497 1753.13,342.706 1759.94,353.061 1766.76,354.057 1773.57,354.127 1780.39,347.207 1787.2,373.514 1794.01,375.906 1800.83,383.081 1807.64,408.008 1814.46,407.555 1821.27,423.82 1828.08,399.733 1834.9,390.802 1841.71,405.979 1848.53,389.674 1855.34,425.927 1862.15,418.914 1868.97,440.099 1875.78,427.854 1882.59,426.312 1889.41,448.267 1896.22,450.57 1903.04,428.773 1909.85,444.64 1916.66,466.051 1923.48,456.538 1930.29,471.478 1937.11,514.169 1943.92,510.423 1950.73,494.041 1957.55,499.863 1964.36,501.927 1971.18,537.395 1977.99,536.915 1984.8,497.186 1991.62,544.57 1998.43,530.257 2005.25,547.196 2012.06,569.988 2018.87,572.331 2025.69,552.184 2032.5,554.953 2039.32,576.572 2046.13,575.785 2052.94,587.08 2059.76,604.981 2066.57,634.654 2073.38,624.94 2080.2,630.28 2087.01,657.589 2093.83,816.282 2100.64,843.007 2107.45,860.745 2114.27,873.692 2121.08,882.904 2127.9,925.663 2134.71,887.664 2141.52,947.249 2148.34,959.098 2155.15,935.349 2161.97,922.178 2168.78,998.255 2175.59,1034.95 2182.41,1041.87 2189.22,1050.69 2196.04,1067.58 2202.85,1096.92 2209.66,1087.8 2216.48,1112.07 2223.29,1150.5 2230.11,1166.71 2236.92,1196.06 2243.73,1225.82 2250.55,1248.22 2257.36,1263.65 2264.17,1270.09 2270.99,1346.71 2277.8,1350.73 2284.62,1373.11 2291.43,1416.39 "></polyline>
<polyline clip-path="url(#clip992)" style="stroke:#00008b; stroke-linecap:round; stroke-linejoin:round; stroke-width:4; stroke-opacity:1; fill:none" points="247.252,1424.34 267.9,1318.26 288.549,1237.02 309.197,1165.39 329.845,1100.23 350.493,1040.2 371.142,984.656 391.79,933.309 412.438,886.124 433.087,843.234 453.735,634.663 474.383,609.909 495.031,586.344 515.68,563.882 536.328,542.448 556.976,521.981 577.624,502.426 598.273,483.738 618.921,465.875 639.569,448.8 660.217,432.482 680.866,416.892 701.514,402.003 722.162,387.794 742.811,374.242 763.459,361.329 784.107,349.037 804.755,337.351 825.404,326.256 846.052,315.74 866.7,305.79 887.348,296.395 907.997,287.546 928.645,279.233 949.293,271.448 969.941,264.182 990.59,257.431 1011.24,251.185 1031.89,245.442 1052.53,240.194 1073.18,235.437 1093.83,231.167 1114.48,227.381 1135.13,224.075 1155.78,221.246 1176.42,218.892 1197.07,217.012 1217.72,215.603 1238.37,214.664 1259.02,214.195 1279.67,214.195 1300.31,214.664 1320.96,215.603 1341.61,217.012 1362.26,218.892 1382.91,221.246 1403.56,224.075 1424.2,227.381 1444.85,231.167 1465.5,235.437 1486.15,240.194 1506.8,245.442 1527.44,251.185 1548.09,257.431 1568.74,264.182 1589.39,271.448 1610.04,279.233 1630.69,287.546 1651.33,296.395 1671.98,305.79 1692.63,315.74 1713.28,326.256 1733.93,337.351 1754.58,349.037 1775.22,361.329 1795.87,374.242 1816.52,387.794 1837.17,402.003 1857.82,416.892 1878.47,432.482 1899.11,448.8 1919.76,465.875 1940.41,483.738 1961.06,502.426 1981.71,521.981 2002.35,542.448 2023,563.882 2043.65,586.344 2064.3,609.909 2084.95,634.663 2105.6,843.234 2126.24,886.124 2146.89,933.309 2167.54,984.656 2188.19,1040.2 2208.84,1100.23 2229.49,1165.39 2250.13,1237.02 2270.78,1318.26 2291.43,1424.34 "></polyline>
<polyline clip-path="url(#clip992)" style="stroke:#455ab6; stroke-linecap:round; stroke-linejoin:round; stroke-width:4; stroke-opacity:1; fill:none" points="247.32,1445.72 254.066,1397.3 260.88,1379.98 267.694,1323.77 274.508,1287 281.322,1273.67 288.136,1231.36 294.95,1204.6 301.764,1196.2 308.577,1167.78 315.391,1166.41 322.205,1139.4 329.019,1105.87 335.833,1089.26 342.647,1096.43 349.461,1082.69 356.275,1057.01 363.089,1050.89 369.903,1006.78 376.717,1012.2 383.531,997.288 390.345,983.946 397.159,938.456 403.972,924.22 410.786,960.819 417.6,900.575 424.414,875.661 431.228,863.772 438.042,853.856 444.856,847.442 451.67,816.399 458.484,836.88 465.298,823.974 472.112,788.83 478.926,778.813 485.74,787.496 492.554,798.258 499.367,738.622 506.181,759.873 512.995,699.828 519.809,726.612 526.623,722.197 533.437,699.44 540.251,692.724 547.065,663.071 553.879,642.648 560.693,615.393 567.507,659.329 574.321,583.205 581.135,620.689 587.949,619.354 594.762,601.164 601.576,600.156 608.39,599.788 615.204,555.166 622.018,565.513 628.832,521.127 635.646,604.839 642.46,551.716 649.274,495.33 656.088,492.572 662.902,450.42 669.716,459.066 676.53,416.165 683.344,435.269 690.157,429.811 696.971,464.22 703.785,387.379 710.599,413.725 717.413,411.522 724.227,363.204 731.041,408.751 737.855,372.624 744.669,405.361 751.483,380.289 758.297,413.822 765.111,416.058 771.925,399.742 778.739,353.111 785.552,374.505 792.366,378.39 799.18,328.618 805.994,358.125 812.808,344.33 819.622,367.136 826.436,381.721 833.25,399.58 840.064,367.715 846.878,370.72 853.692,318.431 860.506,363.926 867.32,353.159 874.134,276.429 880.947,327.259 887.761,325.987 894.575,325.561 901.389,352.398 908.203,286.646 915.017,317.25 921.831,324.674 928.645,289.219 935.459,313.225 942.273,292.659 949.087,307.951 955.901,302.692 962.715,293.571 969.529,293.193 976.342,296.856 983.156,258.873 989.97,284.649 996.784,305.489 1003.6,295.968 1010.41,256.66 1017.23,278.526 1024.04,256.449 1030.85,258.698 1037.67,268.445 1044.48,284.254 1051.3,273.463 1058.11,303.46 1064.92,267.445 1071.74,247.909 1078.55,238.861 1085.37,273.122 1092.18,216.567 1098.99,250.842 1105.81,287.525 1112.62,245.424 1119.43,244.926 1126.25,234.386 1133.06,242.261 1139.88,227.26 1146.69,228.602 1153.5,247.951 1160.32,238.868 1167.13,216.541 1173.95,266.442 1180.76,231.804 1187.57,218.206 1194.39,252.552 1201.2,193.044 1208.02,228.662 1214.83,256.761 1221.64,255.59 1228.46,235.203 1235.27,229.925 1242.09,227.495 1248.9,213.297 1255.71,280.13 1262.53,212.154 1269.34,273.6 1276.16,268.735 1282.97,272.369 1289.78,200.252 1296.6,226.31 1303.41,235.354 1310.22,232.553 1317.04,215.586 1323.85,230.059 1330.67,218.86 1337.48,224.935 1344.29,236.243 1351.11,251.902 1357.92,235.469 1364.74,246.15 1371.55,219.69 1378.36,273.122 1385.18,249.912 1391.99,245.132 1398.81,250.858 1405.62,238.388 1412.43,275.187 1419.25,243.379 1426.06,277.328 1432.88,241.349 1439.69,264.952 1446.5,269.164 1453.32,264.683 1460.13,234.687 1466.95,275.295 1473.76,263.165 1480.57,286.203 1487.39,273.35 1494.2,259.856 1501.01,294.396 1507.83,281.409 1514.64,272.988 1521.46,268.711 1528.27,288.799 1535.08,312.227 1541.9,292.903 1548.71,290.236 1555.53,305.506 1562.34,278.258 1569.15,263.669 1575.97,297.694 1582.78,305.769 1589.6,281.498 1596.41,298.008 1603.22,311.782 1610.04,309.448 1616.85,292.299 1623.67,313.013 1630.48,290.812 1637.29,331.524 1644.11,350.381 1650.92,302.278 1657.74,283.263 1664.55,310.231 1671.36,306.441 1678.18,334.839 1684.99,312.448 1691.8,333.259 1698.62,327.136 1705.43,370.375 1712.25,343.124 1719.06,359.335 1725.87,351.53 1732.69,384.404 1739.5,351.332 1746.32,324.923 1753.13,391.988 1759.94,384.463 1766.76,360.986 1773.57,373.689 1780.39,396.045 1787.2,361.943 1794.01,384.816 1800.83,400.807 1807.64,410.309 1814.46,409.618 1821.27,426.071 1828.08,416.246 1834.9,420.243 1841.71,428.686 1848.53,421.223 1855.34,433.808 1862.15,448.725 1868.97,454.868 1875.78,475.983 1882.59,450.175 1889.41,524.745 1896.22,537.366 1903.04,546.622 1909.85,569.708 1916.66,548.777 1923.48,565.089 1930.29,585.205 1937.11,579.685 1943.92,590.601 1950.73,627.17 1957.55,633.112 1964.36,659.965 1971.18,625.968 1977.99,635.98 1984.8,679.101 1991.62,673.639 1998.43,684.238 2005.25,730.245 2012.06,733.452 2018.87,698.969 2025.69,738.395 2032.5,745.171 2039.32,725.611 2046.13,769.375 2052.94,748.06 2059.76,800.133 2066.57,749.931 2073.38,798.859 2080.2,820.5 2087.01,819.023 2093.83,864.888 2100.64,881.145 2107.45,864.531 2114.27,898.294 2121.08,924.063 2127.9,949.503 2134.71,927.747 2141.52,965.809 2148.34,983.276 2155.15,986.821 2161.97,992.727 2168.78,1019.54 2175.59,1041.77 2182.41,1065.66 2189.22,1065.77 2196.04,1080.96 2202.85,1108.28 2209.66,1125.41 2216.48,1149.65 2223.29,1175.14 2230.11,1195.81 2236.92,1204.38 2243.73,1227.8 2250.55,1233.02 2257.36,1297.37 2264.17,1321.34 2270.99,1353.32 2277.8,1360.68 2284.62,1379.7 2291.43,1442.95 "></polyline>
<polyline clip-path="url(#clip992)" style="stroke:#455ab6; stroke-linecap:round; stroke-linejoin:round; stroke-width:4; stroke-opacity:1; fill:none" points="247.252,1424.34 267.9,1323.71 288.549,1247.9 309.197,1181.58 329.845,1121.47 350.493,1066.05 371.142,1014.4 391.79,965.914 412.438,920.174 433.087,876.861 453.735,835.729 474.383,796.584 495.031,759.267 515.68,723.646 536.328,689.612 556.976,657.071 577.624,625.942 598.273,596.157 618.921,567.654 639.569,540.382 660.217,452.824 680.866,437.507 701.514,422.88 722.162,408.92 742.811,395.606 763.459,382.919 784.107,370.843 804.755,359.362 825.404,348.463 846.052,338.131 866.7,328.355 887.348,319.126 907.997,310.432 928.645,302.264 949.293,294.616 969.941,287.478 990.59,280.845 1011.24,274.709 1031.89,269.066 1052.53,263.91 1073.18,259.237 1093.83,255.042 1114.48,251.322 1135.13,248.074 1155.78,245.295 1176.42,242.983 1197.07,241.135 1217.72,239.751 1238.37,238.829 1259.02,238.368 1279.67,238.368 1300.31,238.829 1320.96,239.751 1341.61,241.135 1362.26,242.983 1382.91,245.295 1403.56,248.074 1424.2,251.322 1444.85,255.042 1465.5,259.237 1486.15,263.91 1506.8,269.066 1527.44,274.709 1548.09,280.845 1568.74,287.478 1589.39,294.616 1610.04,302.264 1630.69,310.432 1651.33,319.126 1671.98,328.355 1692.63,338.131 1713.28,348.463 1733.93,359.362 1754.58,370.843 1775.22,382.919 1795.87,395.606 1816.52,408.92 1837.17,422.88 1857.82,437.507 1878.47,452.824 1899.11,540.382 1919.76,567.654 1940.41,596.157 1961.06,625.942 1981.71,657.071 2002.35,689.612 2023,723.646 2043.65,759.267 2064.3,796.584 2084.95,835.729 2105.6,876.861 2126.24,920.174 2146.89,965.914 2167.54,1014.4 2188.19,1066.05 2208.84,1121.47 2229.49,1181.58 2250.13,1247.9 2270.78,1323.71 2291.43,1424.34 "></polyline>
<polyline clip-path="url(#clip992)" style="stroke:#008000; stroke-linecap:round; stroke-linejoin:round; stroke-width:4; stroke-opacity:1; fill:none" points="247.32,1429.13 254.066,1382.97 260.88,1347.82 267.694,1323.58 274.508,1296.14 281.322,1261.24 288.136,1258.34 294.95,1225.24 301.764,1185.87 308.577,1186.39 315.391,1185.23 322.205,1178.85 329.019,1124.45 335.833,1098.39 342.647,1062.15 349.461,1054.98 356.275,1079.37 363.089,1050.22 369.903,1020.81 376.717,985.128 383.531,991.883 390.345,989.208 397.159,972.383 403.972,930.632 410.786,945.573 417.6,897.925 424.414,924.168 431.228,869.624 438.042,864.341 444.856,850.832 451.67,858.041 458.484,830.665 465.298,834.337 472.112,814.266 478.926,767.814 485.74,790.842 492.554,754.563 499.367,747.981 506.181,730.723 512.995,740.936 519.809,720.721 526.623,725.931 533.437,650.093 540.251,674.339 547.065,700.929 553.879,635.324 560.693,656.899 567.507,676.981 574.321,627.829 581.135,641.48 587.949,614.735 594.762,603.262 601.576,579.507 608.39,548.282 615.204,563.202 622.018,576.57 628.832,521.944 635.646,562.292 642.46,512.43 649.274,525.213 656.088,521.546 662.902,502.417 669.716,546.081 676.53,497.153 683.344,483.777 690.157,507.653 696.971,482.753 703.785,450.504 710.599,487.618 717.413,490.949 724.227,467.557 731.041,442.076 737.855,431.018 744.669,436.462 751.483,457.863 758.297,418.918 765.111,386.63 771.925,388.273 778.739,370.624 785.552,373.299 792.366,363.025 799.18,371.179 805.994,396.306 812.808,351.301 819.622,324.281 826.436,315.822 833.25,392.412 840.064,298.443 846.878,291.953 853.692,327.926 860.506,349.078 867.32,285.266 874.134,295.31 880.947,367.335 887.761,319.033 894.575,359.169 901.389,308.743 908.203,319.529 915.017,271.335 921.831,298.594 928.645,325.111 935.459,294.592 942.273,289.352 949.087,304.505 955.901,287.011 962.715,273.76 969.529,260.979 976.342,297.101 983.156,284.375 989.97,255.526 996.784,314.902 1003.6,263.713 1010.41,275.169 1017.23,277.243 1024.04,260.397 1030.85,257.779 1037.67,256.999 1044.48,270.835 1051.3,263.927 1058.11,240.689 1064.92,279.03 1071.74,249.749 1078.55,258.286 1085.37,307.381 1092.18,211.571 1098.99,288.381 1105.81,248.181 1112.62,239.322 1119.43,283.4 1126.25,247.234 1133.06,257.726 1139.88,244.274 1146.69,240.933 1153.5,296.65 1160.32,262.263 1167.13,271.897 1173.95,265.937 1180.76,264.674 1187.57,226.784 1194.39,242.579 1201.2,261.357 1208.02,200.977 1214.83,250.348 1221.64,217.942 1228.46,220.667 1235.27,270.514 1242.09,232.173 1248.9,273.89 1255.71,237.619 1262.53,242.926 1269.34,226.176 1276.16,220.703 1282.97,229.213 1289.78,269.001 1296.6,252.776 1303.41,196.018 1310.22,211.308 1317.04,157.374 1323.85,290.532 1330.67,268.986 1337.48,237.774 1344.29,254.89 1351.11,251.071 1357.92,256.141 1364.74,291.211 1371.55,213.612 1378.36,255.302 1385.18,241.669 1391.99,260.29 1398.81,262.272 1405.62,229.146 1412.43,221.913 1419.25,290.118 1426.06,254.883 1432.88,291.572 1439.69,291.963 1446.5,261.197 1453.32,275.381 1460.13,264.798 1466.95,294.181 1473.76,288.175 1480.57,308.698 1487.39,229.874 1494.2,278.697 1501.01,278.797 1507.83,281.595 1514.64,263.64 1521.46,303.116 1528.27,294.087 1535.08,251.254 1541.9,280.612 1548.71,296.421 1555.53,284.977 1562.34,256.411 1569.15,287.608 1575.97,303.891 1582.78,305.819 1589.6,292.308 1596.41,320.665 1603.22,302.144 1610.04,301.533 1616.85,319.899 1623.67,287.867 1630.48,305.207 1637.29,284.397 1644.11,354.103 1650.92,320.124 1657.74,331.589 1664.55,368.993 1671.36,296.733 1678.18,323.886 1684.99,318.834 1691.8,358.869 1698.62,338.267 1705.43,351.811 1712.25,345.566 1719.06,377.213 1725.87,373.85 1732.69,382.866 1739.5,353.185 1746.32,404.061 1753.13,362.079 1759.94,378.866 1766.76,403.895 1773.57,365.488 1780.39,434.408 1787.2,420.414 1794.01,389.569 1800.83,430.698 1807.64,429.118 1814.46,444.067 1821.27,443.502 1828.08,494.901 1834.9,459.023 1841.71,456.15 1848.53,533.182 1855.34,457.2 1862.15,523.447 1868.97,505.346 1875.78,539.076 1882.59,556.946 1889.41,538.893 1896.22,531.241 1903.04,571.294 1909.85,554.244 1916.66,546.905 1923.48,553.282 1930.29,563.595 1937.11,599.894 1943.92,591.211 1950.73,565.644 1957.55,631.555 1964.36,618.702 1971.18,624.488 1977.99,648.265 1984.8,687.023 1991.62,660.853 1998.43,680.643 2005.25,686.313 2012.06,690.585 2018.87,675.504 2025.69,740.687 2032.5,768.022 2039.32,778.472 2046.13,778.194 2052.94,760.333 2059.76,820.293 2066.57,832.233 2073.38,842.42 2080.2,841.563 2087.01,801.805 2093.83,850.708 2100.64,862.336 2107.45,884.212 2114.27,889.504 2121.08,933.279 2127.9,899.987 2134.71,932.169 2141.52,967.923 2148.34,980.678 2155.15,976.22 2161.97,1016.61 2168.78,1024.29 2175.59,1065.17 2182.41,1053.87 2189.22,1062.89 2196.04,1099.32 2202.85,1121.98 2209.66,1138.54 2216.48,1154.71 2223.29,1161.54 2230.11,1188.6 2236.92,1214.75 2243.73,1212.5 2250.55,1250.02 2257.36,1269.28 2264.17,1298.41 2270.99,1342.3 2277.8,1375.72 2284.62,1368.42 2291.43,1410.59 "></polyline>
<polyline clip-path="url(#clip992)" style="stroke:#008000; stroke-linecap:round; stroke-linejoin:round; stroke-width:4; stroke-opacity:1; fill:none" points="247.252,1424.34 267.9,1324.12 288.549,1248.72 309.197,1182.8 329.845,1123.11 350.493,1068.08 371.142,1016.82 391.79,968.718 412.438,923.342 433.087,880.371 453.735,839.555 474.383,800.691 495.031,763.614 515.68,728.183 536.328,694.279 556.976,661.797 577.624,630.648 598.273,600.749 618.921,572.026 639.569,544.412 660.217,517.845 680.866,492.269 701.514,467.628 722.162,443.872 742.811,420.952 763.459,398.821 784.107,377.435 804.755,356.749 825.404,336.719 846.052,342.006 866.7,332.275 887.348,323.086 907.997,314.432 928.645,306.301 949.293,298.687 969.941,291.581 990.59,284.978 1011.24,278.87 1031.89,273.252 1052.53,268.119 1073.18,263.467 1093.83,259.291 1114.48,255.588 1135.13,252.355 1155.78,249.588 1176.42,247.286 1197.07,245.447 1217.72,244.069 1238.37,243.151 1259.02,242.692 1279.67,242.692 1300.31,243.151 1320.96,244.069 1341.61,245.447 1362.26,247.286 1382.91,249.588 1403.56,252.355 1424.2,255.588 1444.85,259.291 1465.5,263.467 1486.15,268.119 1506.8,273.252 1527.44,278.87 1548.09,284.978 1568.74,291.581 1589.39,298.687 1610.04,306.301 1630.69,314.432 1651.33,323.086 1671.98,332.275 1692.63,342.006 1713.28,336.719 1733.93,356.749 1754.58,377.435 1775.22,398.821 1795.87,420.952 1816.52,443.872 1837.17,467.628 1857.82,492.269 1878.47,517.845 1899.11,544.412 1919.76,572.026 1940.41,600.749 1961.06,630.648 1981.71,661.797 2002.35,694.279 2023,728.183 2043.65,763.614 2064.3,800.691 2084.95,839.555 2105.6,880.371 2126.24,923.342 2146.89,968.718 2167.54,1016.82 2188.19,1068.08 2208.84,1123.11 2229.49,1182.8 2250.13,1248.72 2270.78,1324.12 2291.43,1424.34 "></polyline>
<polyline clip-path="url(#clip992)" style="stroke:#d8ab00; stroke-linecap:round; stroke-linejoin:round; stroke-width:4; stroke-opacity:1; fill:none" points="247.32,1417.31 254.066,1377.72 260.88,1348.5 267.694,1326.54 274.508,1285.25 281.322,1263.76 288.136,1260.96 294.95,1231.41 301.764,1199.82 308.577,1199.88 315.391,1144.05 322.205,1147.7 329.019,1119.92 335.833,1107.14 342.647,1082.93 349.461,1062.36 356.275,1078.65 363.089,1047.07 369.903,1038.25 376.717,990.293 383.531,991.886 390.345,974.435 397.159,944.722 403.972,938.26 410.786,943.154 417.6,936.139 424.414,892.994 431.228,905.522 438.042,862.082 444.856,857.239 451.67,847.277 458.484,844.633 465.298,828.967 472.112,806.934 478.926,813.35 485.74,812.095 492.554,772.021 499.367,756.221 506.181,724.929 512.995,738.776 519.809,731.97 526.623,719.701 533.437,664.303 540.251,698.611 547.065,660.363 553.879,667.985 560.693,648.883 567.507,614.029 574.321,610.621 581.135,600.397 587.949,613.615 594.762,577.322 601.576,565.444 608.39,606.691 615.204,540.6 622.018,563.101 628.832,572.681 635.646,581.579 642.46,535.977 649.274,515.547 656.088,530.942 662.902,501.998 669.716,509.374 676.53,519.78 683.344,505.717 690.157,504.175 696.971,486.638 703.785,470.798 710.599,472.111 717.413,446.088 724.227,449.877 731.041,450.433 737.855,436.875 744.669,449.239 751.483,438.035 758.297,416.838 765.111,436.731 771.925,410.307 778.739,381.35 785.552,400.879 792.366,384.492 799.18,339.455 805.994,357.062 812.808,368.017 819.622,299.445 826.436,305.441 833.25,325.702 840.064,325.735 846.878,328.098 853.692,335.43 860.506,331.083 867.32,332.42 874.134,320.956 880.947,342.226 887.761,320.867 894.575,312.081 901.389,333.546 908.203,307.112 915.017,312.37 921.831,283.22 928.645,289.042 935.459,320.916 942.273,254.185 949.087,283.791 955.901,276.775 962.715,315.005 969.529,263.156 976.342,273.254 983.156,276.476 989.97,321.594 996.784,287.055 1003.6,299.127 1010.41,258.961 1017.23,304.017 1024.04,266.741 1030.85,266.134 1037.67,286.036 1044.48,283.082 1051.3,272.172 1058.11,235.674 1064.92,276.535 1071.74,284.015 1078.55,241.316 1085.37,233.508 1092.18,253.941 1098.99,259.204 1105.81,249.64 1112.62,273.671 1119.43,250.541 1126.25,198.237 1133.06,259.589 1139.88,255.721 1146.69,227.294 1153.5,212.804 1160.32,232.46 1167.13,257.634 1173.95,267.795 1180.76,207.283 1187.57,246.142 1194.39,233.885 1201.2,235.987 1208.02,226.054 1214.83,265.12 1221.64,250.423 1228.46,255.723 1235.27,230.216 1242.09,265.027 1248.9,287.411 1255.71,263.499 1262.53,261.077 1269.34,186.387 1276.16,261.891 1282.97,250.918 1289.78,221.275 1296.6,233.115 1303.41,259.846 1310.22,245.721 1317.04,283.091 1323.85,258.297 1330.67,235.277 1337.48,242.533 1344.29,281.486 1351.11,236.306 1357.92,263.289 1364.74,242.739 1371.55,252.412 1378.36,241.745 1385.18,237.153 1391.99,249.25 1398.81,233.056 1405.62,242.187 1412.43,241.239 1419.25,262.414 1426.06,231.491 1432.88,313.524 1439.69,269.891 1446.5,225.392 1453.32,300.575 1460.13,246.313 1466.95,219.689 1473.76,244.824 1480.57,260.006 1487.39,298.446 1494.2,264.964 1501.01,282.136 1507.83,295.157 1514.64,289.958 1521.46,281.268 1528.27,312.919 1535.08,329.719 1541.9,282.296 1548.71,281.2 1555.53,307.693 1562.34,287.363 1569.15,311.172 1575.97,279.219 1582.78,291.595 1589.6,321.169 1596.41,310.697 1603.22,299.216 1610.04,308.516 1616.85,304.608 1623.67,307.905 1630.48,338.5 1637.29,331.723 1644.11,342.207 1650.92,320.943 1657.74,301.927 1664.55,330.785 1671.36,340.174 1678.18,336.326 1684.99,290.289 1691.8,312.434 1698.62,320.165 1705.43,331.038 1712.25,349.981 1719.06,341.511 1725.87,345.412 1732.69,369.835 1739.5,361.238 1746.32,369.766 1753.13,397.055 1759.94,403.746 1766.76,384.15 1773.57,422.332 1780.39,409.802 1787.2,423.458 1794.01,425.77 1800.83,422.139 1807.64,450.273 1814.46,470.022 1821.27,484.692 1828.08,448.998 1834.9,470.439 1841.71,483.502 1848.53,502.928 1855.34,513.642 1862.15,461.141 1868.97,498.848 1875.78,514.224 1882.59,530.384 1889.41,551.626 1896.22,592.05 1903.04,567.9 1909.85,575.858 1916.66,540.772 1923.48,611.419 1930.29,614.027 1937.11,595.356 1943.92,627.185 1950.73,599.937 1957.55,629.204 1964.36,649.017 1971.18,667.132 1977.99,650.152 1984.8,718.182 1991.62,642.021 1998.43,709.699 2005.25,698.85 2012.06,684.534 2018.87,730.247 2025.69,732.713 2032.5,761.775 2039.32,770.666 2046.13,761.269 2052.94,784.678 2059.76,780.446 2066.57,788.933 2073.38,857.391 2080.2,813.112 2087.01,844.005 2093.83,853.265 2100.64,861.406 2107.45,872.487 2114.27,881.609 2121.08,910.358 2127.9,952.469 2134.71,940.706 2141.52,972.893 2148.34,967.845 2155.15,975.25 2161.97,983.061 2168.78,1008.7 2175.59,1037.13 2182.41,1068.8 2189.22,1064.8 2196.04,1096.6 2202.85,1128.23 2209.66,1132.04 2216.48,1113.99 2223.29,1153.29 2230.11,1161 2236.92,1196.72 2243.73,1218.48 2250.55,1245.3 2257.36,1260.17 2264.17,1302.49 2270.99,1359.13 2277.8,1371.04 2284.62,1403.11 2291.43,1427.05 "></polyline>
<polyline clip-path="url(#clip992)" style="stroke:#d8ab00; stroke-linecap:round; stroke-linejoin:round; stroke-width:4; stroke-opacity:1; fill:none" points="247.252,1424.34 267.9,1324.07 288.549,1248.61 309.197,1182.64 329.845,1122.89 350.493,1067.82 371.142,1016.5 391.79,968.345 412.438,922.917 433.087,879.896 453.735,839.03 474.383,800.118 495.031,762.994 515.68,727.518 536.328,693.573 556.976,661.053 577.624,629.868 598.273,599.937 618.921,571.187 639.569,543.552 660.217,516.97 680.866,491.384 701.514,466.741 722.162,442.991 742.811,420.086 763.459,397.981 784.107,376.63 804.755,355.992 825.404,336.023 846.052,316.683 866.7,331.47 887.348,322.268 907.997,313.6 928.645,305.457 949.293,297.832 969.941,290.716 990.59,284.102 1011.24,277.986 1031.89,272.359 1052.53,267.219 1073.18,262.56 1093.83,258.378 1114.48,254.669 1135.13,251.431 1155.78,248.66 1176.42,246.355 1197.07,244.513 1217.72,243.133 1238.37,242.213 1259.02,241.754 1279.67,241.754 1300.31,242.213 1320.96,243.133 1341.61,244.513 1362.26,246.355 1382.91,248.66 1403.56,251.431 1424.2,254.669 1444.85,258.378 1465.5,262.56 1486.15,267.219 1506.8,272.359 1527.44,277.986 1548.09,284.102 1568.74,290.716 1589.39,297.832 1610.04,305.457 1630.69,313.6 1651.33,322.268 1671.98,331.47 1692.63,316.683 1713.28,336.023 1733.93,355.992 1754.58,376.63 1775.22,397.981 1795.87,420.086 1816.52,442.991 1837.17,466.741 1857.82,491.384 1878.47,516.97 1899.11,543.552 1919.76,571.187 1940.41,599.937 1961.06,629.868 1981.71,661.053 2002.35,693.573 2023,727.518 2043.65,762.994 2064.3,800.118 2084.95,839.03 2105.6,879.896 2126.24,922.917 2146.89,968.345 2167.54,1016.5 2188.19,1067.82 2208.84,1122.89 2229.49,1182.64 2250.13,1248.61 2270.78,1324.07 2291.43,1424.34 "></polyline>
<polyline clip-path="url(#clip992)" style="stroke:#cc0000; stroke-linecap:round; stroke-linejoin:round; stroke-width:4; stroke-opacity:1; fill:none" points="247.32,1423.13 254.066,1388.75 260.88,1331.57 267.694,1310.92 274.508,1302.29 281.322,1275.9 288.136,1242.93 294.95,1231.93 301.764,1223.48 308.577,1170.52 315.391,1175.77 322.205,1141.14 329.019,1123.66 335.833,1101.06 342.647,1081.43 349.461,1069.91 356.275,1063.86 363.089,1036.4 369.903,1031.67 376.717,1013.17 383.531,971.511 390.345,945.815 397.159,956.151 403.972,957.331 410.786,897.725 417.6,898.663 424.414,894.732 431.228,898.221 438.042,878.656 444.856,829.417 451.67,821.334 458.484,839.848 465.298,788.088 472.112,815.663 478.926,750.078 485.74,774.218 492.554,754.276 499.367,776.907 506.181,744.056 512.995,761.582 519.809,725.522 526.623,709.007 533.437,684.044 540.251,693.629 547.065,669.596 553.879,660.242 560.693,665.579 567.507,633.846 574.321,651.365 581.135,591.656 587.949,587.835 594.762,611.34 601.576,626.795 608.39,571.129 615.204,569.587 622.018,548.326 628.832,585.687 635.646,522.535 642.46,535.073 649.274,517.164 656.088,529.216 662.902,524.197 669.716,522.988 676.53,474.811 683.344,487.242 690.157,458.619 696.971,490.855 703.785,438.709 710.599,438.934 717.413,444.457 724.227,417.451 731.041,393.866 737.855,424.394 744.669,410.555 751.483,409.722 758.297,407.046 765.111,350.729 771.925,326.731 778.739,403.427 785.552,350.092 792.366,344.384 799.18,289.836 805.994,349.895 812.808,330.004 819.622,317.919 826.436,288.631 833.25,343.185 840.064,298.277 846.878,320.331 853.692,314.458 860.506,264.376 867.32,277.539 874.134,283.346 880.947,245.865 887.761,279.256 894.575,269.332 901.389,235.145 908.203,235.976 915.017,241.479 921.831,246.76 928.645,193.926 935.459,196.296 942.273,198.872 949.087,228.771 955.901,159.583 962.715,185.163 969.529,186.542 976.342,216.732 983.156,238.82 989.97,173.904 996.784,191.166 1003.6,163.915 1010.41,191.096 1017.23,179.093 1024.04,165.12 1030.85,171.662 1037.67,135.661 1044.48,152.533 1051.3,137.49 1058.11,120.995 1064.92,114.879 1071.74,221.804 1078.55,253.374 1085.37,221.578 1092.18,224.648 1098.99,227.735 1105.81,274.475 1112.62,258.667 1119.43,221.987 1126.25,226.237 1133.06,241.743 1139.88,231.383 1146.69,242.884 1153.5,216.278 1160.32,240.672 1167.13,260.079 1173.95,210.279 1180.76,191.31 1187.57,242.583 1194.39,247.529 1201.2,237.887 1208.02,166.155 1214.83,243.859 1221.64,252.798 1228.46,251.546 1235.27,230.708 1242.09,243.382 1248.9,186.441 1255.71,236.51 1262.53,239.995 1269.34,188.931 1276.16,206.526 1282.97,230.033 1289.78,218.242 1296.6,241.707 1303.41,215.092 1310.22,227.815 1317.04,232.479 1323.85,206.225 1330.67,227.446 1337.48,216.15 1344.29,186.744 1351.11,216.427 1357.92,238.867 1364.74,199.751 1371.55,255.668 1378.36,205.174 1385.18,193.606 1391.99,229.449 1398.81,258.215 1405.62,243.033 1412.43,206.483 1419.25,202.421 1426.06,205.418 1432.88,199.445 1439.69,223.684 1446.5,231.782 1453.32,231.626 1460.13,266.875 1466.95,238.094 1473.76,270.244 1480.57,87.9763 1487.39,120.398 1494.2,125.934 1501.01,152.77 1507.83,207.253 1514.64,139.441 1521.46,159.958 1528.27,175.325 1535.08,193.032 1541.9,174.284 1548.71,158.986 1555.53,173.016 1562.34,196.549 1569.15,277.334 1575.97,170.504 1582.78,197.851 1589.6,221.608 1596.41,223.506 1603.22,215.229 1610.04,199.103 1616.85,252.11 1623.67,208.154 1630.48,273.141 1637.29,276.77 1644.11,249.52 1650.92,296.382 1657.74,279.025 1664.55,300.886 1671.36,264.139 1678.18,276.757 1684.99,344.729 1691.8,299.636 1698.62,291.066 1705.43,331.395 1712.25,355.695 1719.06,290.325 1725.87,338.257 1732.69,323.927 1739.5,342.776 1746.32,363.147 1753.13,354.587 1759.94,374.397 1766.76,346.269 1773.57,400.509 1780.39,364.977 1787.2,341.572 1794.01,442.086 1800.83,457.508 1807.64,425.678 1814.46,456.569 1821.27,410.249 1828.08,462.608 1834.9,400.81 1841.71,486.045 1848.53,462.286 1855.34,485.047 1862.15,504.34 1868.97,491.256 1875.78,489.985 1882.59,508.655 1889.41,525.159 1896.22,529.456 1903.04,539.742 1909.85,555.466 1916.66,554.811 1923.48,551.985 1930.29,564.453 1937.11,594.844 1943.92,585.958 1950.73,591.173 1957.55,626.323 1964.36,628.154 1971.18,669.358 1977.99,655.509 1984.8,683.573 1991.62,686.236 1998.43,694.511 2005.25,652.162 2012.06,670.21 2018.87,711.462 2025.69,734.199 2032.5,717.801 2039.32,780.691 2046.13,787.065 2052.94,767.629 2059.76,790.253 2066.57,785.446 2073.38,795.248 2080.2,816.187 2087.01,821.039 2093.83,836.407 2100.64,863.352 2107.45,883.803 2114.27,872.163 2121.08,913.108 2127.9,948.202 2134.71,916.333 2141.52,961.714 2148.34,936.543 2155.15,977.652 2161.97,1028.86 2168.78,978.288 2175.59,1052.65 2182.41,1025.12 2189.22,1046.44 2196.04,1083.04 2202.85,1114.4 2209.66,1108.85 2216.48,1118.08 2223.29,1174.41 2230.11,1178.76 2236.92,1209.5 2243.73,1208.88 2250.55,1256.74 2257.36,1255.08 2264.17,1283.8 2270.99,1337.57 2277.8,1336.93 2284.62,1380.21 2291.43,1422.15 "></polyline>
<polyline clip-path="url(#clip992)" style="stroke:#cc0000; stroke-linecap:round; stroke-linejoin:round; stroke-width:4; stroke-opacity:1; fill:none" points="247.252,1424.34 267.9,1323.23 288.549,1246.94 309.197,1180.13 329.845,1119.54 350.493,1063.63 371.142,1011.48 391.79,962.494 412.438,916.242 433.087,872.404 453.735,830.731 474.383,791.022 495.031,753.115 515.68,716.873 536.328,682.181 556.976,648.937 577.624,617.055 598.273,586.458 618.921,557.076 639.569,528.849 660.217,501.72 680.866,475.637 701.514,450.554 722.162,426.427 742.811,403.214 763.459,380.876 784.107,359.377 804.755,338.683 825.404,318.759 846.052,299.574 866.7,281.096 887.348,263.294 907.997,246.14 928.645,229.603 949.293,213.655 969.941,198.267 990.59,183.41 1011.24,169.055 1031.89,155.174 1052.53,141.738 1073.18,244.194 1093.83,239.811 1114.48,235.924 1135.13,232.53 1155.78,229.626 1176.42,227.21 1197.07,225.28 1217.72,223.833 1238.37,222.869 1259.02,222.388 1279.67,222.388 1300.31,222.869 1320.96,223.833 1341.61,225.28 1362.26,227.21 1382.91,229.626 1403.56,232.53 1424.2,235.924 1444.85,239.811 1465.5,244.194 1486.15,141.738 1506.8,155.174 1527.44,169.055 1548.09,183.41 1568.74,198.267 1589.39,213.655 1610.04,229.603 1630.69,246.14 1651.33,263.294 1671.98,281.096 1692.63,299.574 1713.28,318.759 1733.93,338.683 1754.58,359.377 1775.22,380.876 1795.87,403.214 1816.52,426.427 1837.17,450.554 1857.82,475.637 1878.47,501.72 1899.11,528.849 1919.76,557.076 1940.41,586.458 1961.06,617.055 1981.71,648.937 2002.35,682.181 2023,716.873 2043.65,753.115 2064.3,791.022 2084.95,830.731 2105.6,872.404 2126.24,916.242 2146.89,962.494 2167.54,1011.48 2188.19,1063.63 2208.84,1119.54 2229.49,1180.13 2250.13,1246.94 2270.78,1323.23 2291.43,1424.34 "></polyline>
<path clip-path="url(#clip990)" d="M1807.13 406.258 L2280.53 406.258 L2280.53 95.2176 L1807.13 95.2176  Z" fill="#ffffff" fill-rule="evenodd" fill-opacity="1"></path>
<polyline clip-path="url(#clip990)" style="stroke:#000000; stroke-linecap:round; stroke-linejoin:round; stroke-width:4; stroke-opacity:1; fill:none" points="1807.13,406.258 2280.53,406.258 2280.53,95.2176 1807.13,95.2176 1807.13,406.258 "></polyline>
<polyline clip-path="url(#clip990)" style="stroke:#00008b; stroke-linecap:round; stroke-linejoin:round; stroke-width:4; stroke-opacity:1; fill:none" points="1831.21,147.058 1975.66,147.058 "></polyline>
<path clip-path="url(#clip990)" d="M2007.66 164.338 L1999.74 138.412 L2004.32 138.412 L2011.01 160.171 Q2013.79 157.301 2016.11 153.319 Q2017.87 150.333 2017.96 147.74 Q2018 146.514 2017.45 144.199 Q2016.8 141.444 2014.35 138.412 L2018.65 138.412 L2018.65 138.412 Q2020.25 140.472 2021.31 143.342 Q2022.29 145.981 2022.29 147.787 Q2022.29 152.324 2019.14 156.375 Q2015.04 161.652 2012.19 164.338 L2007.66 164.338 Z" fill="#000000" fill-rule="nonzero" fill-opacity="1"></path><path clip-path="url(#clip990)" d="M2044.6 142.81 L2074.28 142.81 L2074.28 146.699 L2044.6 146.699 L2044.6 142.81 M2044.6 152.254 L2074.28 152.254 L2074.28 156.189 L2044.6 156.189 L2044.6 152.254 Z" fill="#000000" fill-rule="nonzero" fill-opacity="1"></path><path clip-path="url(#clip990)" d="M2109.44 132.856 Q2105.83 132.856 2104 136.421 Q2102.19 139.963 2102.19 147.092 Q2102.19 154.199 2104 157.764 Q2105.83 161.305 2109.44 161.305 Q2113.07 161.305 2114.88 157.764 Q2116.71 154.199 2116.71 147.092 Q2116.71 139.963 2114.88 136.421 Q2113.07 132.856 2109.44 132.856 M2109.44 129.153 Q2115.25 129.153 2118.3 133.759 Q2121.38 138.342 2121.38 147.092 Q2121.38 155.819 2118.3 160.426 Q2115.25 165.009 2109.44 165.009 Q2103.63 165.009 2100.55 160.426 Q2097.49 155.819 2097.49 147.092 Q2097.49 138.342 2100.55 133.759 Q2103.63 129.153 2109.44 129.153 Z" fill="#000000" fill-rule="nonzero" fill-opacity="1"></path><path clip-path="url(#clip990)" d="M2129.6 158.458 L2134.49 158.458 L2134.49 164.338 L2129.6 164.338 L2129.6 158.458 Z" fill="#000000" fill-rule="nonzero" fill-opacity="1"></path><path clip-path="url(#clip990)" d="M2145.48 160.402 L2153.12 160.402 L2153.12 134.037 L2144.81 135.703 L2144.81 131.444 L2153.07 129.778 L2157.75 129.778 L2157.75 160.402 L2165.39 160.402 L2165.39 164.338 L2145.48 164.338 L2145.48 160.402 Z" fill="#000000" fill-rule="nonzero" fill-opacity="1"></path><polyline clip-path="url(#clip990)" style="stroke:#455ab6; stroke-linecap:round; stroke-linejoin:round; stroke-width:4; stroke-opacity:1; fill:none" points="1831.21,198.898 1975.66,198.898 "></polyline>
<path clip-path="url(#clip990)" d="M2007.66 216.178 L1999.74 190.252 L2004.32 190.252 L2011.01 212.011 Q2013.79 209.141 2016.11 205.159 Q2017.87 202.173 2017.96 199.58 Q2018 198.354 2017.45 196.039 Q2016.8 193.284 2014.35 190.252 L2018.65 190.252 L2018.65 190.252 Q2020.25 192.312 2021.31 195.182 Q2022.29 197.821 2022.29 199.627 Q2022.29 204.164 2019.14 208.215 Q2015.04 213.492 2012.19 216.178 L2007.66 216.178 Z" fill="#000000" fill-rule="nonzero" fill-opacity="1"></path><path clip-path="url(#clip990)" d="M2044.6 194.65 L2074.28 194.65 L2074.28 198.539 L2044.6 198.539 L2044.6 194.65 M2044.6 204.094 L2074.28 204.094 L2074.28 208.029 L2044.6 208.029 L2044.6 204.094 Z" fill="#000000" fill-rule="nonzero" fill-opacity="1"></path><path clip-path="url(#clip990)" d="M2109.44 184.696 Q2105.83 184.696 2104 188.261 Q2102.19 191.803 2102.19 198.932 Q2102.19 206.039 2104 209.604 Q2105.83 213.145 2109.44 213.145 Q2113.07 213.145 2114.88 209.604 Q2116.71 206.039 2116.71 198.932 Q2116.71 191.803 2114.88 188.261 Q2113.07 184.696 2109.44 184.696 M2109.44 180.993 Q2115.25 180.993 2118.3 185.599 Q2121.38 190.182 2121.38 198.932 Q2121.38 207.659 2118.3 212.266 Q2115.25 216.849 2109.44 216.849 Q2103.63 216.849 2100.55 212.266 Q2097.49 207.659 2097.49 198.932 Q2097.49 190.182 2100.55 185.599 Q2103.63 180.993 2109.44 180.993 Z" fill="#000000" fill-rule="nonzero" fill-opacity="1"></path><path clip-path="url(#clip990)" d="M2129.6 210.298 L2134.49 210.298 L2134.49 216.178 L2129.6 216.178 L2129.6 210.298 Z" fill="#000000" fill-rule="nonzero" fill-opacity="1"></path><path clip-path="url(#clip990)" d="M2148.7 212.242 L2165.02 212.242 L2165.02 216.178 L2143.07 216.178 L2143.07 212.242 Q2145.74 209.488 2150.32 204.858 Q2154.93 200.205 2156.11 198.863 Q2158.35 196.34 2159.23 194.604 Q2160.13 192.844 2160.13 191.155 Q2160.13 188.4 2158.19 186.664 Q2156.27 184.928 2153.17 184.928 Q2150.97 184.928 2148.51 185.692 Q2146.08 186.455 2143.3 188.006 L2143.3 183.284 Q2146.13 182.15 2148.58 181.571 Q2151.04 180.993 2153.07 180.993 Q2158.44 180.993 2161.64 183.678 Q2164.83 186.363 2164.83 190.854 Q2164.83 192.983 2164.02 194.905 Q2163.24 196.803 2161.13 199.395 Q2160.55 200.067 2157.45 203.284 Q2154.35 206.479 2148.7 212.242 Z" fill="#000000" fill-rule="nonzero" fill-opacity="1"></path><polyline clip-path="url(#clip990)" style="stroke:#008000; stroke-linecap:round; stroke-linejoin:round; stroke-width:4; stroke-opacity:1; fill:none" points="1831.21,250.738 1975.66,250.738 "></polyline>
<path clip-path="url(#clip990)" d="M2007.66 268.018 L1999.74 242.092 L2004.32 242.092 L2011.01 263.851 Q2013.79 260.981 2016.11 256.999 Q2017.87 254.013 2017.96 251.42 Q2018 250.194 2017.45 247.879 Q2016.8 245.124 2014.35 242.092 L2018.65 242.092 L2018.65 242.092 Q2020.25 244.152 2021.31 247.022 Q2022.29 249.661 2022.29 251.467 Q2022.29 256.004 2019.14 260.055 Q2015.04 265.332 2012.19 268.018 L2007.66 268.018 Z" fill="#000000" fill-rule="nonzero" fill-opacity="1"></path><path clip-path="url(#clip990)" d="M2044.6 246.49 L2074.28 246.49 L2074.28 250.379 L2044.6 250.379 L2044.6 246.49 M2044.6 255.934 L2074.28 255.934 L2074.28 259.869 L2044.6 259.869 L2044.6 255.934 Z" fill="#000000" fill-rule="nonzero" fill-opacity="1"></path><path clip-path="url(#clip990)" d="M2109.44 236.536 Q2105.83 236.536 2104 240.101 Q2102.19 243.643 2102.19 250.772 Q2102.19 257.879 2104 261.444 Q2105.83 264.985 2109.44 264.985 Q2113.07 264.985 2114.88 261.444 Q2116.71 257.879 2116.71 250.772 Q2116.71 243.643 2114.88 240.101 Q2113.07 236.536 2109.44 236.536 M2109.44 232.833 Q2115.25 232.833 2118.3 237.439 Q2121.38 242.022 2121.38 250.772 Q2121.38 259.499 2118.3 264.106 Q2115.25 268.689 2109.44 268.689 Q2103.63 268.689 2100.55 264.106 Q2097.49 259.499 2097.49 250.772 Q2097.49 242.022 2100.55 237.439 Q2103.63 232.833 2109.44 232.833 Z" fill="#000000" fill-rule="nonzero" fill-opacity="1"></path><path clip-path="url(#clip990)" d="M2129.6 262.138 L2134.49 262.138 L2134.49 268.018 L2129.6 268.018 L2129.6 262.138 Z" fill="#000000" fill-rule="nonzero" fill-opacity="1"></path><path clip-path="url(#clip990)" d="M2148.7 264.082 L2165.02 264.082 L2165.02 268.018 L2143.07 268.018 L2143.07 264.082 Q2145.74 261.328 2150.32 256.698 Q2154.93 252.045 2156.11 250.703 Q2158.35 248.18 2159.23 246.444 Q2160.13 244.684 2160.13 242.995 Q2160.13 240.24 2158.19 238.504 Q2156.27 236.768 2153.17 236.768 Q2150.97 236.768 2148.51 237.532 Q2146.08 238.295 2143.3 239.846 L2143.3 235.124 Q2146.13 233.99 2148.58 233.411 Q2151.04 232.833 2153.07 232.833 Q2158.44 232.833 2161.64 235.518 Q2164.83 238.203 2164.83 242.694 Q2164.83 244.823 2164.02 246.745 Q2163.24 248.643 2161.13 251.235 Q2160.55 251.907 2157.45 255.124 Q2154.35 258.319 2148.7 264.082 Z" fill="#000000" fill-rule="nonzero" fill-opacity="1"></path><path clip-path="url(#clip990)" d="M2184.83 251.606 Q2181.5 251.606 2179.58 253.388 Q2177.68 255.17 2177.68 258.295 Q2177.68 261.42 2179.58 263.203 Q2181.5 264.985 2184.83 264.985 Q2188.17 264.985 2190.09 263.203 Q2192.01 261.397 2192.01 258.295 Q2192.01 255.17 2190.09 253.388 Q2188.19 251.606 2184.83 251.606 M2180.16 249.615 Q2177.15 248.874 2175.46 246.814 Q2173.79 244.754 2173.79 241.791 Q2173.79 237.647 2176.73 235.24 Q2179.69 232.833 2184.83 232.833 Q2189.99 232.833 2192.93 235.24 Q2195.87 237.647 2195.87 241.791 Q2195.87 244.754 2194.18 246.814 Q2192.52 248.874 2189.53 249.615 Q2192.91 250.402 2194.79 252.694 Q2196.68 254.985 2196.68 258.295 Q2196.68 263.319 2193.61 266.004 Q2190.55 268.689 2184.83 268.689 Q2179.11 268.689 2176.04 266.004 Q2172.98 263.319 2172.98 258.295 Q2172.98 254.985 2174.88 252.694 Q2176.78 250.402 2180.16 249.615 M2178.44 242.231 Q2178.44 244.916 2180.11 246.42 Q2181.8 247.925 2184.83 247.925 Q2187.84 247.925 2189.53 246.42 Q2191.24 244.916 2191.24 242.231 Q2191.24 239.545 2189.53 238.041 Q2187.84 236.536 2184.83 236.536 Q2181.8 236.536 2180.11 238.041 Q2178.44 239.545 2178.44 242.231 Z" fill="#000000" fill-rule="nonzero" fill-opacity="1"></path><path clip-path="url(#clip990)" d="M2217.84 237.532 L2206.04 255.981 L2217.84 255.981 L2217.84 237.532 M2216.61 233.458 L2222.49 233.458 L2222.49 255.981 L2227.42 255.981 L2227.42 259.869 L2222.49 259.869 L2222.49 268.018 L2217.84 268.018 L2217.84 259.869 L2202.24 259.869 L2202.24 255.356 L2216.61 233.458 Z" fill="#000000" fill-rule="nonzero" fill-opacity="1"></path><path clip-path="url(#clip990)" d="M2249.32 249.383 Q2252.68 250.101 2254.55 252.369 Q2256.45 254.638 2256.45 257.971 Q2256.45 263.087 2252.93 265.888 Q2249.42 268.689 2242.93 268.689 Q2240.76 268.689 2238.44 268.249 Q2236.15 267.832 2233.7 266.976 L2233.7 262.462 Q2235.64 263.596 2237.96 264.175 Q2240.27 264.754 2242.8 264.754 Q2247.19 264.754 2249.48 263.018 Q2251.8 261.281 2251.8 257.971 Q2251.8 254.916 2249.65 253.203 Q2247.52 251.467 2243.7 251.467 L2239.67 251.467 L2239.67 247.624 L2243.88 247.624 Q2247.33 247.624 2249.16 246.258 Q2250.99 244.87 2250.99 242.277 Q2250.99 239.615 2249.09 238.203 Q2247.22 236.768 2243.7 236.768 Q2241.78 236.768 2239.58 237.184 Q2237.38 237.601 2234.74 238.481 L2234.74 234.314 Q2237.4 233.573 2239.72 233.203 Q2242.05 232.833 2244.11 232.833 Q2249.44 232.833 2252.54 235.263 Q2255.64 237.67 2255.64 241.791 Q2255.64 244.661 2254 246.652 Q2252.36 248.62 2249.32 249.383 Z" fill="#000000" fill-rule="nonzero" fill-opacity="1"></path><polyline clip-path="url(#clip990)" style="stroke:#d8ab00; stroke-linecap:round; stroke-linejoin:round; stroke-width:4; stroke-opacity:1; fill:none" points="1831.21,302.578 1975.66,302.578 "></polyline>
<path clip-path="url(#clip990)" d="M2007.66 319.858 L1999.74 293.932 L2004.32 293.932 L2011.01 315.691 Q2013.79 312.821 2016.11 308.839 Q2017.87 305.853 2017.96 303.26 Q2018 302.034 2017.45 299.719 Q2016.8 296.964 2014.35 293.932 L2018.65 293.932 L2018.65 293.932 Q2020.25 295.992 2021.31 298.862 Q2022.29 301.501 2022.29 303.307 Q2022.29 307.844 2019.14 311.895 Q2015.04 317.172 2012.19 319.858 L2007.66 319.858 Z" fill="#000000" fill-rule="nonzero" fill-opacity="1"></path><path clip-path="url(#clip990)" d="M2044.6 298.33 L2074.28 298.33 L2074.28 302.219 L2044.6 302.219 L2044.6 298.33 M2044.6 307.774 L2074.28 307.774 L2074.28 311.709 L2044.6 311.709 L2044.6 307.774 Z" fill="#000000" fill-rule="nonzero" fill-opacity="1"></path><path clip-path="url(#clip990)" d="M2109.44 288.376 Q2105.83 288.376 2104 291.941 Q2102.19 295.483 2102.19 302.612 Q2102.19 309.719 2104 313.284 Q2105.83 316.825 2109.44 316.825 Q2113.07 316.825 2114.88 313.284 Q2116.71 309.719 2116.71 302.612 Q2116.71 295.483 2114.88 291.941 Q2113.07 288.376 2109.44 288.376 M2109.44 284.673 Q2115.25 284.673 2118.3 289.279 Q2121.38 293.862 2121.38 302.612 Q2121.38 311.339 2118.3 315.946 Q2115.25 320.529 2109.44 320.529 Q2103.63 320.529 2100.55 315.946 Q2097.49 311.339 2097.49 302.612 Q2097.49 293.862 2100.55 289.279 Q2103.63 284.673 2109.44 284.673 Z" fill="#000000" fill-rule="nonzero" fill-opacity="1"></path><path clip-path="url(#clip990)" d="M2129.6 313.978 L2134.49 313.978 L2134.49 319.858 L2129.6 319.858 L2129.6 313.978 Z" fill="#000000" fill-rule="nonzero" fill-opacity="1"></path><path clip-path="url(#clip990)" d="M2158.84 301.223 Q2162.19 301.941 2164.07 304.209 Q2165.97 306.478 2165.97 309.811 Q2165.97 314.927 2162.45 317.728 Q2158.93 320.529 2152.45 320.529 Q2150.27 320.529 2147.96 320.089 Q2145.67 319.672 2143.21 318.816 L2143.21 314.302 Q2145.16 315.436 2147.47 316.015 Q2149.79 316.594 2152.31 316.594 Q2156.71 316.594 2159 314.858 Q2161.31 313.121 2161.31 309.811 Q2161.31 306.756 2159.16 305.043 Q2157.03 303.307 2153.21 303.307 L2149.18 303.307 L2149.18 299.464 L2153.4 299.464 Q2156.85 299.464 2158.68 298.098 Q2160.5 296.71 2160.5 294.117 Q2160.5 291.455 2158.61 290.043 Q2156.73 288.608 2153.21 288.608 Q2151.29 288.608 2149.09 289.024 Q2146.89 289.441 2144.25 290.321 L2144.25 286.154 Q2146.92 285.413 2149.23 285.043 Q2151.57 284.673 2153.63 284.673 Q2158.95 284.673 2162.05 287.103 Q2165.16 289.51 2165.16 293.631 Q2165.16 296.501 2163.51 298.492 Q2161.87 300.46 2158.84 301.223 Z" fill="#000000" fill-rule="nonzero" fill-opacity="1"></path><polyline clip-path="url(#clip990)" style="stroke:#cc0000; stroke-linecap:round; stroke-linejoin:round; stroke-width:4; stroke-opacity:1; fill:none" points="1831.21,354.418 1975.66,354.418 "></polyline>
<path clip-path="url(#clip990)" d="M2007.66 371.698 L1999.74 345.772 L2004.32 345.772 L2011.01 367.531 Q2013.79 364.661 2016.11 360.679 Q2017.87 357.693 2017.96 355.1 Q2018 353.874 2017.45 351.559 Q2016.8 348.804 2014.35 345.772 L2018.65 345.772 L2018.65 345.772 Q2020.25 347.832 2021.31 350.702 Q2022.29 353.341 2022.29 355.147 Q2022.29 359.684 2019.14 363.735 Q2015.04 369.012 2012.19 371.698 L2007.66 371.698 Z" fill="#000000" fill-rule="nonzero" fill-opacity="1"></path><path clip-path="url(#clip990)" d="M2044.6 350.17 L2074.28 350.17 L2074.28 354.059 L2044.6 354.059 L2044.6 350.17 M2044.6 359.614 L2074.28 359.614 L2074.28 363.549 L2044.6 363.549 L2044.6 359.614 Z" fill="#000000" fill-rule="nonzero" fill-opacity="1"></path><path clip-path="url(#clip990)" d="M2109.44 340.216 Q2105.83 340.216 2104 343.781 Q2102.19 347.323 2102.19 354.452 Q2102.19 361.559 2104 365.124 Q2105.83 368.665 2109.44 368.665 Q2113.07 368.665 2114.88 365.124 Q2116.71 361.559 2116.71 354.452 Q2116.71 347.323 2114.88 343.781 Q2113.07 340.216 2109.44 340.216 M2109.44 336.513 Q2115.25 336.513 2118.3 341.119 Q2121.38 345.702 2121.38 354.452 Q2121.38 363.179 2118.3 367.786 Q2115.25 372.369 2109.44 372.369 Q2103.63 372.369 2100.55 367.786 Q2097.49 363.179 2097.49 354.452 Q2097.49 345.702 2100.55 341.119 Q2103.63 336.513 2109.44 336.513 Z" fill="#000000" fill-rule="nonzero" fill-opacity="1"></path><path clip-path="url(#clip990)" d="M2129.6 365.818 L2134.49 365.818 L2134.49 371.698 L2129.6 371.698 L2129.6 365.818 Z" fill="#000000" fill-rule="nonzero" fill-opacity="1"></path><path clip-path="url(#clip990)" d="M2157.52 341.212 L2145.71 359.661 L2157.52 359.661 L2157.52 341.212 M2156.29 337.138 L2162.17 337.138 L2162.17 359.661 L2167.1 359.661 L2167.1 363.549 L2162.17 363.549 L2162.17 371.698 L2157.52 371.698 L2157.52 363.549 L2141.92 363.549 L2141.92 359.036 L2156.29 337.138 Z" fill="#000000" fill-rule="nonzero" fill-opacity="1"></path></svg>