<svg xmlns="http://www.w3.org/2000/svg" xmlns:xlink="http://www.w3.org/1999/xlink" width="600" height="400" viewBox="0 0 2400 1600">
<defs>
  <clipPath id="clip170">
    <rect x="0" y="0" width="2400" height="1600"></rect>
  </clipPath>
</defs>
<path clip-path="url(#clip170)" d="M0 1600 L2400 1600 L2400 0 L0 0  Z" fill="#ffffff" fill-rule="evenodd" fill-opacity="1"></path>
<defs>
  <clipPath id="clip171">
    <rect x="480" y="0" width="1681" height="1600"></rect>
  </clipPath>
</defs>
<path clip-path="url(#clip170)" d="M234.195 1423.18 L2352.76 1423.18 L2352.76 47.2441 L234.195 47.2441  Z" fill="#ffffff" fill-rule="evenodd" fill-opacity="1"></path>
<defs>
  <clipPath id="clip172">
    <rect x="234" y="47" width="2120" height="1377"></rect>
  </clipPath>
</defs>
<polyline clip-path="url(#clip172)" style="stroke:#000000; stroke-linecap:round; stroke-linejoin:round; stroke-width:2; stroke-opacity:0.1; fill:none" points="294.154,1423.18 294.154,47.2441 "></polyline>
<polyline clip-path="url(#clip172)" style="stroke:#000000; stroke-linecap:round; stroke-linejoin:round; stroke-width:2; stroke-opacity:0.1; fill:none" points="494.018,1423.18 494.018,47.2441 "></polyline>
<polyline clip-path="url(#clip172)" style="stroke:#000000; stroke-linecap:round; stroke-linejoin:round; stroke-width:2; stroke-opacity:0.1; fill:none" points="693.883,1423.18 693.883,47.2441 "></polyline>
<polyline clip-path="url(#clip172)" style="stroke:#000000; stroke-linecap:round; stroke-linejoin:round; stroke-width:2; stroke-opacity:0.1; fill:none" points="893.747,1423.18 893.747,47.2441 "></polyline>
<polyline clip-path="url(#clip172)" style="stroke:#000000; stroke-linecap:round; stroke-linejoin:round; stroke-width:2; stroke-opacity:0.1; fill:none" points="1093.61,1423.18 1093.61,47.2441 "></polyline>
<polyline clip-path="url(#clip172)" style="stroke:#000000; stroke-linecap:round; stroke-linejoin:round; stroke-width:2; stroke-opacity:0.1; fill:none" points="1293.48,1423.18 1293.48,47.2441 "></polyline>
<polyline clip-path="url(#clip172)" style="stroke:#000000; stroke-linecap:round; stroke-linejoin:round; stroke-width:2; stroke-opacity:0.1; fill:none" points="1493.34,1423.18 1493.34,47.2441 "></polyline>
<polyline clip-path="url(#clip172)" style="stroke:#000000; stroke-linecap:round; stroke-linejoin:round; stroke-width:2; stroke-opacity:0.1; fill:none" points="1693.2,1423.18 1693.2,47.2441 "></polyline>
<polyline clip-path="url(#clip172)" style="stroke:#000000; stroke-linecap:round; stroke-linejoin:round; stroke-width:2; stroke-opacity:0.1; fill:none" points="1893.07,1423.18 1893.07,47.2441 "></polyline>
<polyline clip-path="url(#clip172)" style="stroke:#000000; stroke-linecap:round; stroke-linejoin:round; stroke-width:2; stroke-opacity:0.1; fill:none" points="2092.93,1423.18 2092.93,47.2441 "></polyline>
<polyline clip-path="url(#clip172)" style="stroke:#000000; stroke-linecap:round; stroke-linejoin:round; stroke-width:2; stroke-opacity:0.1; fill:none" points="2292.8,1423.18 2292.8,47.2441 "></polyline>
<polyline clip-path="url(#clip170)" style="stroke:#000000; stroke-linecap:round; stroke-linejoin:round; stroke-width:4; stroke-opacity:1; fill:none" points="234.195,1423.18 2352.76,1423.18 "></polyline>
<polyline clip-path="url(#clip170)" style="stroke:#000000; stroke-linecap:round; stroke-linejoin:round; stroke-width:4; stroke-opacity:1; fill:none" points="294.154,1423.18 294.154,1404.28 "></polyline>
<polyline clip-path="url(#clip170)" style="stroke:#000000; stroke-linecap:round; stroke-linejoin:round; stroke-width:4; stroke-opacity:1; fill:none" points="494.018,1423.18 494.018,1404.28 "></polyline>
<polyline clip-path="url(#clip170)" style="stroke:#000000; stroke-linecap:round; stroke-linejoin:round; stroke-width:4; stroke-opacity:1; fill:none" points="693.883,1423.18 693.883,1404.28 "></polyline>
<polyline clip-path="url(#clip170)" style="stroke:#000000; stroke-linecap:round; stroke-linejoin:round; stroke-width:4; stroke-opacity:1; fill:none" points="893.747,1423.18 893.747,1404.28 "></polyline>
<polyline clip-path="url(#clip170)" style="stroke:#000000; stroke-linecap:round; stroke-linejoin:round; stroke-width:4; stroke-opacity:1; fill:none" points="1093.61,1423.18 1093.61,1404.28 "></polyline>
<polyline clip-path="url(#clip170)" style="stroke:#000000; stroke-linecap:round; stroke-linejoin:round; stroke-width:4; stroke-opacity:1; fill:none" points="1293.48,1423.18 1293.48,1404.28 "></polyline>
<polyline clip-path="url(#clip170)" style="stroke:#000000; stroke-linecap:round; stroke-linejoin:round; stroke-width:4; stroke-opacity:1; fill:none" points="1493.34,1423.18 1493.34,1404.28 "></polyline>
<polyline clip-path="url(#clip170)" style="stroke:#000000; stroke-linecap:round; stroke-linejoin:round; stroke-width:4; stroke-opacity:1; fill:none" points="1693.2,1423.18 1693.2,1404.28 "></polyline>
<polyline clip-path="url(#clip170)" style="stroke:#000000; stroke-linecap:round; stroke-linejoin:round; stroke-width:4; stroke-opacity:1; fill:none" points="1893.07,1423.18 1893.07,1404.28 "></polyline>
<polyline clip-path="url(#clip170)" style="stroke:#000000; stroke-linecap:round; stroke-linejoin:round; stroke-width:4; stroke-opacity:1; fill:none" points="2092.93,1423.18 2092.93,1404.28 "></polyline>
<polyline clip-path="url(#clip170)" style="stroke:#000000; stroke-linecap:round; stroke-linejoin:round; stroke-width:4; stroke-opacity:1; fill:none" points="2292.8,1423.18 2292.8,1404.28 "></polyline>
<path clip-path="url(#clip170)" d="M256.458 1454.1 Q252.847 1454.1 251.018 1457.66 Q249.212 1461.2 249.212 1468.33 Q249.212 1475.44 251.018 1479.01 Q252.847 1482.55 256.458 1482.55 Q260.092 1482.55 261.897 1479.01 Q263.726 1475.44 263.726 1468.33 Q263.726 1461.2 261.897 1457.66 Q260.092 1454.1 256.458 1454.1 M256.458 1450.39 Q262.268 1450.39 265.323 1455 Q268.402 1459.58 268.402 1468.33 Q268.402 1477.06 265.323 1481.67 Q262.268 1486.25 256.458 1486.25 Q250.647 1486.25 247.569 1481.67 Q244.513 1477.06 244.513 1468.33 Q244.513 1459.58 247.569 1455 Q250.647 1450.39 256.458 1450.39 Z" fill="#000000" fill-rule="nonzero" fill-opacity="1"></path><path clip-path="url(#clip170)" d="M276.62 1479.7 L281.504 1479.7 L281.504 1485.58 L276.62 1485.58 L276.62 1479.7 Z" fill="#000000" fill-rule="nonzero" fill-opacity="1"></path><path clip-path="url(#clip170)" d="M295.717 1481.64 L312.036 1481.64 L312.036 1485.58 L290.092 1485.58 L290.092 1481.64 Q292.754 1478.89 297.337 1474.26 Q301.943 1469.61 303.124 1468.27 Q305.369 1465.74 306.249 1464.01 Q307.152 1462.25 307.152 1460.56 Q307.152 1457.8 305.207 1456.07 Q303.286 1454.33 300.184 1454.33 Q297.985 1454.33 295.531 1455.09 Q293.101 1455.86 290.323 1457.41 L290.323 1452.69 Q293.147 1451.55 295.601 1450.97 Q298.055 1450.39 300.092 1450.39 Q305.462 1450.39 308.656 1453.08 Q311.851 1455.77 311.851 1460.26 Q311.851 1462.39 311.041 1464.31 Q310.254 1466.2 308.147 1468.8 Q307.568 1469.47 304.467 1472.69 Q301.365 1475.88 295.717 1481.64 Z" fill="#000000" fill-rule="nonzero" fill-opacity="1"></path><path clip-path="url(#clip170)" d="M331.851 1454.1 Q328.24 1454.1 326.411 1457.66 Q324.605 1461.2 324.605 1468.33 Q324.605 1475.44 326.411 1479.01 Q328.24 1482.55 331.851 1482.55 Q335.485 1482.55 337.291 1479.01 Q339.119 1475.44 339.119 1468.33 Q339.119 1461.2 337.291 1457.66 Q335.485 1454.1 331.851 1454.1 M331.851 1450.39 Q337.661 1450.39 340.716 1455 Q343.795 1459.58 343.795 1468.33 Q343.795 1477.06 340.716 1481.67 Q337.661 1486.25 331.851 1486.25 Q326.041 1486.25 322.962 1481.67 Q319.906 1477.06 319.906 1468.33 Q319.906 1459.58 322.962 1455 Q326.041 1450.39 331.851 1450.39 Z" fill="#000000" fill-rule="nonzero" fill-opacity="1"></path><path clip-path="url(#clip170)" d="M456.935 1454.1 Q453.324 1454.1 451.495 1457.66 Q449.69 1461.2 449.69 1468.33 Q449.69 1475.44 451.495 1479.01 Q453.324 1482.55 456.935 1482.55 Q460.57 1482.55 462.375 1479.01 Q464.204 1475.44 464.204 1468.33 Q464.204 1461.2 462.375 1457.66 Q460.57 1454.1 456.935 1454.1 M456.935 1450.39 Q462.745 1450.39 465.801 1455 Q468.88 1459.58 468.88 1468.33 Q468.88 1477.06 465.801 1481.67 Q462.745 1486.25 456.935 1486.25 Q451.125 1486.25 448.046 1481.67 Q444.991 1477.06 444.991 1468.33 Q444.991 1459.58 448.046 1455 Q451.125 1450.39 456.935 1450.39 Z" fill="#000000" fill-rule="nonzero" fill-opacity="1"></path><path clip-path="url(#clip170)" d="M477.097 1479.7 L481.981 1479.7 L481.981 1485.58 L477.097 1485.58 L477.097 1479.7 Z" fill="#000000" fill-rule="nonzero" fill-opacity="1"></path><path clip-path="url(#clip170)" d="M496.194 1481.64 L512.514 1481.64 L512.514 1485.58 L490.569 1485.58 L490.569 1481.64 Q493.231 1478.89 497.815 1474.26 Q502.421 1469.61 503.602 1468.27 Q505.847 1465.74 506.727 1464.01 Q507.629 1462.25 507.629 1460.56 Q507.629 1457.8 505.685 1456.07 Q503.764 1454.33 500.662 1454.33 Q498.463 1454.33 496.009 1455.09 Q493.579 1455.86 490.801 1457.41 L490.801 1452.69 Q493.625 1451.55 496.079 1450.97 Q498.532 1450.39 500.569 1450.39 Q505.94 1450.39 509.134 1453.08 Q512.329 1455.77 512.329 1460.26 Q512.329 1462.39 511.518 1464.31 Q510.731 1466.2 508.625 1468.8 Q508.046 1469.47 504.944 1472.69 Q501.842 1475.88 496.194 1481.64 Z" fill="#000000" fill-rule="nonzero" fill-opacity="1"></path><path clip-path="url(#clip170)" d="M523.139 1481.64 L530.777 1481.64 L530.777 1455.28 L522.467 1456.95 L522.467 1452.69 L530.731 1451.02 L535.407 1451.02 L535.407 1481.64 L543.046 1481.64 L543.046 1485.58 L523.139 1485.58 L523.139 1481.64 Z" fill="#000000" fill-rule="nonzero" fill-opacity="1"></path><path clip-path="url(#clip170)" d="M656.985 1454.1 Q653.374 1454.1 651.545 1457.66 Q649.739 1461.2 649.739 1468.33 Q649.739 1475.44 651.545 1479.01 Q653.374 1482.55 656.985 1482.55 Q660.619 1482.55 662.424 1479.01 Q664.253 1475.44 664.253 1468.33 Q664.253 1461.2 662.424 1457.66 Q660.619 1454.1 656.985 1454.1 M656.985 1450.39 Q662.795 1450.39 665.85 1455 Q668.929 1459.58 668.929 1468.33 Q668.929 1477.06 665.85 1481.67 Q662.795 1486.25 656.985 1486.25 Q651.175 1486.25 648.096 1481.67 Q645.04 1477.06 645.04 1468.33 Q645.04 1459.58 648.096 1455 Q651.175 1450.39 656.985 1450.39 Z" fill="#000000" fill-rule="nonzero" fill-opacity="1"></path><path clip-path="url(#clip170)" d="M677.147 1479.7 L682.031 1479.7 L682.031 1485.58 L677.147 1485.58 L677.147 1479.7 Z" fill="#000000" fill-rule="nonzero" fill-opacity="1"></path><path clip-path="url(#clip170)" d="M696.244 1481.64 L712.563 1481.64 L712.563 1485.58 L690.619 1485.58 L690.619 1481.64 Q693.281 1478.89 697.864 1474.26 Q702.471 1469.61 703.651 1468.27 Q705.896 1465.74 706.776 1464.01 Q707.679 1462.25 707.679 1460.56 Q707.679 1457.8 705.734 1456.07 Q703.813 1454.33 700.711 1454.33 Q698.512 1454.33 696.059 1455.09 Q693.628 1455.86 690.85 1457.41 L690.85 1452.69 Q693.674 1451.55 696.128 1450.97 Q698.582 1450.39 700.619 1450.39 Q705.989 1450.39 709.184 1453.08 Q712.378 1455.77 712.378 1460.26 Q712.378 1462.39 711.568 1464.31 Q710.781 1466.2 708.674 1468.8 Q708.096 1469.47 704.994 1472.69 Q701.892 1475.88 696.244 1481.64 Z" fill="#000000" fill-rule="nonzero" fill-opacity="1"></path><path clip-path="url(#clip170)" d="M726.406 1481.64 L742.725 1481.64 L742.725 1485.58 L720.781 1485.58 L720.781 1481.64 Q723.443 1478.89 728.026 1474.26 Q732.632 1469.61 733.813 1468.27 Q736.058 1465.74 736.938 1464.01 Q737.841 1462.25 737.841 1460.56 Q737.841 1457.8 735.896 1456.07 Q733.975 1454.33 730.873 1454.33 Q728.674 1454.33 726.22 1455.09 Q723.79 1455.86 721.012 1457.41 L721.012 1452.69 Q723.836 1451.55 726.29 1450.97 Q728.744 1450.39 730.781 1450.39 Q736.151 1450.39 739.345 1453.08 Q742.54 1455.77 742.54 1460.26 Q742.54 1462.39 741.73 1464.31 Q740.943 1466.2 738.836 1468.8 Q738.257 1469.47 735.156 1472.69 Q732.054 1475.88 726.406 1481.64 Z" fill="#000000" fill-rule="nonzero" fill-opacity="1"></path><path clip-path="url(#clip170)" d="M856.374 1454.1 Q852.763 1454.1 850.935 1457.66 Q849.129 1461.2 849.129 1468.33 Q849.129 1475.44 850.935 1479.01 Q852.763 1482.55 856.374 1482.55 Q860.009 1482.55 861.814 1479.01 Q863.643 1475.44 863.643 1468.33 Q863.643 1461.2 861.814 1457.66 Q860.009 1454.1 856.374 1454.1 M856.374 1450.39 Q862.185 1450.39 865.24 1455 Q868.319 1459.58 868.319 1468.33 Q868.319 1477.06 865.24 1481.67 Q862.185 1486.25 856.374 1486.25 Q850.564 1486.25 847.486 1481.67 Q844.43 1477.06 844.43 1468.33 Q844.43 1459.58 847.486 1455 Q850.564 1450.39 856.374 1450.39 Z" fill="#000000" fill-rule="nonzero" fill-opacity="1"></path><path clip-path="url(#clip170)" d="M876.536 1479.7 L881.421 1479.7 L881.421 1485.58 L876.536 1485.58 L876.536 1479.7 Z" fill="#000000" fill-rule="nonzero" fill-opacity="1"></path><path clip-path="url(#clip170)" d="M895.633 1481.64 L911.953 1481.64 L911.953 1485.58 L890.009 1485.58 L890.009 1481.64 Q892.671 1478.89 897.254 1474.26 Q901.86 1469.61 903.041 1468.27 Q905.286 1465.74 906.166 1464.01 Q907.069 1462.25 907.069 1460.56 Q907.069 1457.8 905.124 1456.07 Q903.203 1454.33 900.101 1454.33 Q897.902 1454.33 895.448 1455.09 Q893.018 1455.86 890.24 1457.41 L890.24 1452.69 Q893.064 1451.55 895.518 1450.97 Q897.971 1450.39 900.008 1450.39 Q905.379 1450.39 908.573 1453.08 Q911.768 1455.77 911.768 1460.26 Q911.768 1462.39 910.957 1464.31 Q910.17 1466.2 908.064 1468.8 Q907.485 1469.47 904.383 1472.69 Q901.282 1475.88 895.633 1481.64 Z" fill="#000000" fill-rule="nonzero" fill-opacity="1"></path><path clip-path="url(#clip170)" d="M935.934 1466.95 Q939.291 1467.66 941.166 1469.93 Q943.064 1472.2 943.064 1475.53 Q943.064 1480.65 939.545 1483.45 Q936.027 1486.25 929.545 1486.25 Q927.369 1486.25 925.055 1485.81 Q922.763 1485.39 920.309 1484.54 L920.309 1480.02 Q922.254 1481.16 924.569 1481.74 Q926.883 1482.32 929.406 1482.32 Q933.805 1482.32 936.096 1480.58 Q938.411 1478.84 938.411 1475.53 Q938.411 1472.48 936.258 1470.77 Q934.129 1469.03 930.309 1469.03 L926.281 1469.03 L926.281 1465.19 L930.494 1465.19 Q933.943 1465.19 935.772 1463.82 Q937.601 1462.43 937.601 1459.84 Q937.601 1457.18 935.703 1455.77 Q933.828 1454.33 930.309 1454.33 Q928.388 1454.33 926.189 1454.75 Q923.99 1455.16 921.351 1456.04 L921.351 1451.88 Q924.013 1451.14 926.328 1450.77 Q928.666 1450.39 930.726 1450.39 Q936.05 1450.39 939.152 1452.83 Q942.254 1455.23 942.254 1459.35 Q942.254 1462.22 940.61 1464.21 Q938.967 1466.18 935.934 1466.95 Z" fill="#000000" fill-rule="nonzero" fill-opacity="1"></path><path clip-path="url(#clip170)" d="M1055.67 1454.1 Q1052.06 1454.1 1050.23 1457.66 Q1048.43 1461.2 1048.43 1468.33 Q1048.43 1475.44 1050.23 1479.01 Q1052.06 1482.55 1055.67 1482.55 Q1059.31 1482.55 1061.11 1479.01 Q1062.94 1475.44 1062.94 1468.33 Q1062.94 1461.2 1061.11 1457.66 Q1059.31 1454.1 1055.67 1454.1 M1055.67 1450.39 Q1061.48 1450.39 1064.54 1455 Q1067.62 1459.58 1067.62 1468.33 Q1067.62 1477.06 1064.54 1481.67 Q1061.48 1486.25 1055.67 1486.25 Q1049.86 1486.25 1046.78 1481.67 Q1043.73 1477.06 1043.73 1468.33 Q1043.73 1459.58 1046.78 1455 Q1049.86 1450.39 1055.67 1450.39 Z" fill="#000000" fill-rule="nonzero" fill-opacity="1"></path><path clip-path="url(#clip170)" d="M1075.83 1479.7 L1080.72 1479.7 L1080.72 1485.58 L1075.83 1485.58 L1075.83 1479.7 Z" fill="#000000" fill-rule="nonzero" fill-opacity="1"></path><path clip-path="url(#clip170)" d="M1094.93 1481.64 L1111.25 1481.64 L1111.25 1485.58 L1089.31 1485.58 L1089.31 1481.64 Q1091.97 1478.89 1096.55 1474.26 Q1101.16 1469.61 1102.34 1468.27 Q1104.58 1465.74 1105.46 1464.01 Q1106.37 1462.25 1106.37 1460.56 Q1106.37 1457.8 1104.42 1456.07 Q1102.5 1454.33 1099.4 1454.33 Q1097.2 1454.33 1094.75 1455.09 Q1092.31 1455.86 1089.54 1457.41 L1089.54 1452.69 Q1092.36 1451.55 1094.81 1450.97 Q1097.27 1450.39 1099.31 1450.39 Q1104.68 1450.39 1107.87 1453.08 Q1111.06 1455.77 1111.06 1460.26 Q1111.06 1462.39 1110.25 1464.31 Q1109.47 1466.2 1107.36 1468.8 Q1106.78 1469.47 1103.68 1472.69 Q1100.58 1475.88 1094.93 1481.64 Z" fill="#000000" fill-rule="nonzero" fill-opacity="1"></path><path clip-path="url(#clip170)" d="M1133.91 1455.09 L1122.11 1473.54 L1133.91 1473.54 L1133.91 1455.09 M1132.69 1451.02 L1138.56 1451.02 L1138.56 1473.54 L1143.5 1473.54 L1143.5 1477.43 L1138.56 1477.43 L1138.56 1485.58 L1133.91 1485.58 L1133.91 1477.43 L1118.31 1477.43 L1118.31 1472.92 L1132.69 1451.02 Z" fill="#000000" fill-rule="nonzero" fill-opacity="1"></path><path clip-path="url(#clip170)" d="M1256.28 1454.1 Q1252.67 1454.1 1250.84 1457.66 Q1249.03 1461.2 1249.03 1468.33 Q1249.03 1475.44 1250.84 1479.01 Q1252.67 1482.55 1256.28 1482.55 Q1259.91 1482.55 1261.72 1479.01 Q1263.55 1475.44 1263.55 1468.33 Q1263.55 1461.2 1261.72 1457.66 Q1259.91 1454.1 1256.28 1454.1 M1256.28 1450.39 Q1262.09 1450.39 1265.14 1455 Q1268.22 1459.58 1268.22 1468.33 Q1268.22 1477.06 1265.14 1481.67 Q1262.09 1486.25 1256.28 1486.25 Q1250.47 1486.25 1247.39 1481.67 Q1244.33 1477.06 1244.33 1468.33 Q1244.33 1459.58 1247.39 1455 Q1250.47 1450.39 1256.28 1450.39 Z" fill="#000000" fill-rule="nonzero" fill-opacity="1"></path><path clip-path="url(#clip170)" d="M1276.44 1479.7 L1281.32 1479.7 L1281.32 1485.58 L1276.44 1485.58 L1276.44 1479.7 Z" fill="#000000" fill-rule="nonzero" fill-opacity="1"></path><path clip-path="url(#clip170)" d="M1295.54 1481.64 L1311.85 1481.64 L1311.85 1485.58 L1289.91 1485.58 L1289.91 1481.64 Q1292.57 1478.89 1297.16 1474.26 Q1301.76 1469.61 1302.94 1468.27 Q1305.19 1465.74 1306.07 1464.01 Q1306.97 1462.25 1306.97 1460.56 Q1306.97 1457.8 1305.03 1456.07 Q1303.1 1454.33 1300 1454.33 Q1297.8 1454.33 1295.35 1455.09 Q1292.92 1455.86 1290.14 1457.41 L1290.14 1452.69 Q1292.97 1451.55 1295.42 1450.97 Q1297.87 1450.39 1299.91 1450.39 Q1305.28 1450.39 1308.48 1453.08 Q1311.67 1455.77 1311.67 1460.26 Q1311.67 1462.39 1310.86 1464.31 Q1310.07 1466.2 1307.97 1468.8 Q1307.39 1469.47 1304.29 1472.69 Q1301.18 1475.88 1295.54 1481.64 Z" fill="#000000" fill-rule="nonzero" fill-opacity="1"></path><path clip-path="url(#clip170)" d="M1321.72 1451.02 L1340.07 1451.02 L1340.07 1454.96 L1326 1454.96 L1326 1463.43 Q1327.02 1463.08 1328.04 1462.92 Q1329.05 1462.73 1330.07 1462.73 Q1335.86 1462.73 1339.24 1465.9 Q1342.62 1469.08 1342.62 1474.49 Q1342.62 1480.07 1339.15 1483.17 Q1335.67 1486.25 1329.35 1486.25 Q1327.18 1486.25 1324.91 1485.88 Q1322.67 1485.51 1320.26 1484.77 L1320.26 1480.07 Q1322.34 1481.2 1324.56 1481.76 Q1326.79 1482.32 1329.26 1482.32 Q1333.27 1482.32 1335.6 1480.21 Q1337.94 1478.1 1337.94 1474.49 Q1337.94 1470.88 1335.6 1468.77 Q1333.27 1466.67 1329.26 1466.67 Q1327.39 1466.67 1325.51 1467.08 Q1323.66 1467.5 1321.72 1468.38 L1321.72 1451.02 Z" fill="#000000" fill-rule="nonzero" fill-opacity="1"></path><path clip-path="url(#clip170)" d="M1455.56 1454.1 Q1451.95 1454.1 1450.12 1457.66 Q1448.32 1461.2 1448.32 1468.33 Q1448.32 1475.44 1450.12 1479.01 Q1451.95 1482.55 1455.56 1482.55 Q1459.2 1482.55 1461 1479.01 Q1462.83 1475.44 1462.83 1468.33 Q1462.83 1461.2 1461 1457.66 Q1459.2 1454.1 1455.56 1454.1 M1455.56 1450.39 Q1461.37 1450.39 1464.43 1455 Q1467.51 1459.58 1467.51 1468.33 Q1467.51 1477.06 1464.43 1481.67 Q1461.37 1486.25 1455.56 1486.25 Q1449.75 1486.25 1446.67 1481.67 Q1443.62 1477.06 1443.62 1468.33 Q1443.62 1459.58 1446.67 1455 Q1449.75 1450.39 1455.56 1450.39 Z" fill="#000000" fill-rule="nonzero" fill-opacity="1"></path><path clip-path="url(#clip170)" d="M1475.72 1479.7 L1480.61 1479.7 L1480.61 1485.58 L1475.72 1485.58 L1475.72 1479.7 Z" fill="#000000" fill-rule="nonzero" fill-opacity="1"></path><path clip-path="url(#clip170)" d="M1494.82 1481.64 L1511.14 1481.64 L1511.14 1485.58 L1489.2 1485.58 L1489.2 1481.64 Q1491.86 1478.89 1496.44 1474.26 Q1501.05 1469.61 1502.23 1468.27 Q1504.47 1465.74 1505.35 1464.01 Q1506.26 1462.25 1506.26 1460.56 Q1506.26 1457.8 1504.31 1456.07 Q1502.39 1454.33 1499.29 1454.33 Q1497.09 1454.33 1494.64 1455.09 Q1492.21 1455.86 1489.43 1457.41 L1489.43 1452.69 Q1492.25 1451.55 1494.71 1450.97 Q1497.16 1450.39 1499.2 1450.39 Q1504.57 1450.39 1507.76 1453.08 Q1510.96 1455.77 1510.96 1460.26 Q1510.96 1462.39 1510.15 1464.31 Q1509.36 1466.2 1507.25 1468.8 Q1506.67 1469.47 1503.57 1472.69 Q1500.47 1475.88 1494.82 1481.64 Z" fill="#000000" fill-rule="nonzero" fill-opacity="1"></path><path clip-path="url(#clip170)" d="M1531.53 1466.44 Q1528.39 1466.44 1526.53 1468.59 Q1524.71 1470.74 1524.71 1474.49 Q1524.71 1478.22 1526.53 1480.39 Q1528.39 1482.55 1531.53 1482.55 Q1534.68 1482.55 1536.51 1480.39 Q1538.36 1478.22 1538.36 1474.49 Q1538.36 1470.74 1536.51 1468.59 Q1534.68 1466.44 1531.53 1466.44 M1540.82 1451.78 L1540.82 1456.04 Q1539.06 1455.21 1537.25 1454.77 Q1535.47 1454.33 1533.71 1454.33 Q1529.08 1454.33 1526.63 1457.45 Q1524.2 1460.58 1523.85 1466.9 Q1525.21 1464.89 1527.27 1463.82 Q1529.33 1462.73 1531.81 1462.73 Q1537.02 1462.73 1540.03 1465.9 Q1543.06 1469.05 1543.06 1474.49 Q1543.06 1479.82 1539.91 1483.03 Q1536.77 1486.25 1531.53 1486.25 Q1525.54 1486.25 1522.37 1481.67 Q1519.2 1477.06 1519.2 1468.33 Q1519.2 1460.14 1523.08 1455.28 Q1526.97 1450.39 1533.52 1450.39 Q1535.28 1450.39 1537.07 1450.74 Q1538.87 1451.09 1540.82 1451.78 Z" fill="#000000" fill-rule="nonzero" fill-opacity="1"></path><path clip-path="url(#clip170)" d="M1655.96 1454.1 Q1652.35 1454.1 1650.52 1457.66 Q1648.71 1461.2 1648.71 1468.33 Q1648.71 1475.44 1650.52 1479.01 Q1652.35 1482.55 1655.96 1482.55 Q1659.59 1482.55 1661.4 1479.01 Q1663.23 1475.44 1663.23 1468.33 Q1663.23 1461.2 1661.4 1457.66 Q1659.59 1454.1 1655.96 1454.1 M1655.96 1450.39 Q1661.77 1450.39 1664.82 1455 Q1667.9 1459.58 1667.9 1468.33 Q1667.9 1477.06 1664.82 1481.67 Q1661.77 1486.25 1655.96 1486.25 Q1650.15 1486.25 1647.07 1481.67 Q1644.01 1477.06 1644.01 1468.33 Q1644.01 1459.58 1647.07 1455 Q1650.15 1450.39 1655.96 1450.39 Z" fill="#000000" fill-rule="nonzero" fill-opacity="1"></path><path clip-path="url(#clip170)" d="M1676.12 1479.7 L1681 1479.7 L1681 1485.58 L1676.12 1485.58 L1676.12 1479.7 Z" fill="#000000" fill-rule="nonzero" fill-opacity="1"></path><path clip-path="url(#clip170)" d="M1695.22 1481.64 L1711.54 1481.64 L1711.54 1485.58 L1689.59 1485.58 L1689.59 1481.64 Q1692.25 1478.89 1696.84 1474.26 Q1701.44 1469.61 1702.63 1468.27 Q1704.87 1465.74 1705.75 1464.01 Q1706.65 1462.25 1706.65 1460.56 Q1706.65 1457.8 1704.71 1456.07 Q1702.79 1454.33 1699.69 1454.33 Q1697.49 1454.33 1695.03 1455.09 Q1692.6 1455.86 1689.82 1457.41 L1689.82 1452.69 Q1692.65 1451.55 1695.1 1450.97 Q1697.56 1450.39 1699.59 1450.39 Q1704.96 1450.39 1708.16 1453.08 Q1711.35 1455.77 1711.35 1460.26 Q1711.35 1462.39 1710.54 1464.31 Q1709.75 1466.2 1707.65 1468.8 Q1707.07 1469.47 1703.97 1472.69 Q1700.87 1475.88 1695.22 1481.64 Z" fill="#000000" fill-rule="nonzero" fill-opacity="1"></path><path clip-path="url(#clip170)" d="M1720.17 1451.02 L1742.39 1451.02 L1742.39 1453.01 L1729.85 1485.58 L1724.96 1485.58 L1736.77 1454.96 L1720.17 1454.96 L1720.17 1451.02 Z" fill="#000000" fill-rule="nonzero" fill-opacity="1"></path><path clip-path="url(#clip170)" d="M1855.42 1454.1 Q1851.81 1454.1 1849.98 1457.66 Q1848.17 1461.2 1848.17 1468.33 Q1848.17 1475.44 1849.98 1479.01 Q1851.81 1482.55 1855.42 1482.55 Q1859.05 1482.55 1860.86 1479.01 Q1862.69 1475.44 1862.69 1468.33 Q1862.69 1461.2 1860.86 1457.66 Q1859.05 1454.1 1855.42 1454.1 M1855.42 1450.39 Q1861.23 1450.39 1864.28 1455 Q1867.36 1459.58 1867.36 1468.33 Q1867.36 1477.06 1864.28 1481.67 Q1861.23 1486.25 1855.42 1486.25 Q1849.61 1486.25 1846.53 1481.67 Q1843.47 1477.06 1843.47 1468.33 Q1843.47 1459.58 1846.53 1455 Q1849.61 1450.39 1855.42 1450.39 Z" fill="#000000" fill-rule="nonzero" fill-opacity="1"></path><path clip-path="url(#clip170)" d="M1875.58 1479.7 L1880.46 1479.7 L1880.46 1485.58 L1875.58 1485.58 L1875.58 1479.7 Z" fill="#000000" fill-rule="nonzero" fill-opacity="1"></path><path clip-path="url(#clip170)" d="M1894.68 1481.64 L1911 1481.64 L1911 1485.58 L1889.05 1485.58 L1889.05 1481.64 Q1891.71 1478.89 1896.3 1474.26 Q1900.9 1469.61 1902.08 1468.27 Q1904.33 1465.74 1905.21 1464.01 Q1906.11 1462.25 1906.11 1460.56 Q1906.11 1457.8 1904.17 1456.07 Q1902.25 1454.33 1899.14 1454.33 Q1896.95 1454.33 1894.49 1455.09 Q1892.06 1455.86 1889.28 1457.41 L1889.28 1452.69 Q1892.11 1451.55 1894.56 1450.97 Q1897.01 1450.39 1899.05 1450.39 Q1904.42 1450.39 1907.62 1453.08 Q1910.81 1455.77 1910.81 1460.26 Q1910.81 1462.39 1910 1464.31 Q1909.21 1466.2 1907.11 1468.8 Q1906.53 1469.47 1903.43 1472.69 Q1900.33 1475.88 1894.68 1481.64 Z" fill="#000000" fill-rule="nonzero" fill-opacity="1"></path><path clip-path="url(#clip170)" d="M1930.81 1469.17 Q1927.48 1469.17 1925.56 1470.95 Q1923.66 1472.73 1923.66 1475.86 Q1923.66 1478.98 1925.56 1480.77 Q1927.48 1482.55 1930.81 1482.55 Q1934.14 1482.55 1936.07 1480.77 Q1937.99 1478.96 1937.99 1475.86 Q1937.99 1472.73 1936.07 1470.95 Q1934.17 1469.17 1930.81 1469.17 M1926.14 1467.18 Q1923.13 1466.44 1921.44 1464.38 Q1919.77 1462.32 1919.77 1459.35 Q1919.77 1455.21 1922.71 1452.8 Q1925.67 1450.39 1930.81 1450.39 Q1935.97 1450.39 1938.91 1452.8 Q1941.85 1455.21 1941.85 1459.35 Q1941.85 1462.32 1940.16 1464.38 Q1938.5 1466.44 1935.51 1467.18 Q1938.89 1467.96 1940.76 1470.26 Q1942.66 1472.55 1942.66 1475.86 Q1942.66 1480.88 1939.58 1483.57 Q1936.53 1486.25 1930.81 1486.25 Q1925.09 1486.25 1922.01 1483.57 Q1918.96 1480.88 1918.96 1475.86 Q1918.96 1472.55 1920.86 1470.26 Q1922.76 1467.96 1926.14 1467.18 M1924.42 1459.79 Q1924.42 1462.48 1926.09 1463.98 Q1927.78 1465.49 1930.81 1465.49 Q1933.82 1465.49 1935.51 1463.98 Q1937.22 1462.48 1937.22 1459.79 Q1937.22 1457.11 1935.51 1455.6 Q1933.82 1454.1 1930.81 1454.1 Q1927.78 1454.1 1926.09 1455.6 Q1924.42 1457.11 1924.42 1459.79 Z" fill="#000000" fill-rule="nonzero" fill-opacity="1"></path><path clip-path="url(#clip170)" d="M2055.33 1454.1 Q2051.72 1454.1 2049.89 1457.66 Q2048.08 1461.2 2048.08 1468.33 Q2048.08 1475.44 2049.89 1479.01 Q2051.72 1482.55 2055.33 1482.55 Q2058.96 1482.55 2060.77 1479.01 Q2062.6 1475.44 2062.6 1468.33 Q2062.6 1461.2 2060.77 1457.66 Q2058.96 1454.1 2055.33 1454.1 M2055.33 1450.39 Q2061.14 1450.39 2064.19 1455 Q2067.27 1459.58 2067.27 1468.33 Q2067.27 1477.06 2064.19 1481.67 Q2061.14 1486.25 2055.33 1486.25 Q2049.52 1486.25 2046.44 1481.67 Q2043.38 1477.06 2043.38 1468.33 Q2043.38 1459.58 2046.44 1455 Q2049.52 1450.39 2055.33 1450.39 Z" fill="#000000" fill-rule="nonzero" fill-opacity="1"></path><path clip-path="url(#clip170)" d="M2075.49 1479.7 L2080.37 1479.7 L2080.37 1485.58 L2075.49 1485.58 L2075.49 1479.7 Z" fill="#000000" fill-rule="nonzero" fill-opacity="1"></path><path clip-path="url(#clip170)" d="M2094.59 1481.64 L2110.91 1481.64 L2110.91 1485.58 L2088.96 1485.58 L2088.96 1481.64 Q2091.62 1478.89 2096.21 1474.26 Q2100.81 1469.61 2101.99 1468.27 Q2104.24 1465.74 2105.12 1464.01 Q2106.02 1462.25 2106.02 1460.56 Q2106.02 1457.8 2104.08 1456.07 Q2102.16 1454.33 2099.06 1454.33 Q2096.86 1454.33 2094.4 1455.09 Q2091.97 1455.86 2089.19 1457.41 L2089.19 1452.69 Q2092.02 1451.55 2094.47 1450.97 Q2096.93 1450.39 2098.96 1450.39 Q2104.33 1450.39 2107.53 1453.08 Q2110.72 1455.77 2110.72 1460.26 Q2110.72 1462.39 2109.91 1464.31 Q2109.12 1466.2 2107.02 1468.8 Q2106.44 1469.47 2103.34 1472.69 Q2100.24 1475.88 2094.59 1481.64 Z" fill="#000000" fill-rule="nonzero" fill-opacity="1"></path><path clip-path="url(#clip170)" d="M2120.86 1484.86 L2120.86 1480.6 Q2122.62 1481.44 2124.43 1481.88 Q2126.23 1482.32 2127.97 1482.32 Q2132.6 1482.32 2135.03 1479.21 Q2137.48 1476.09 2137.83 1469.75 Q2136.49 1471.74 2134.43 1472.8 Q2132.37 1473.87 2129.87 1473.87 Q2124.68 1473.87 2121.65 1470.74 Q2118.64 1467.59 2118.64 1462.15 Q2118.64 1456.83 2121.79 1453.61 Q2124.93 1450.39 2130.17 1450.39 Q2136.16 1450.39 2139.31 1455 Q2142.48 1459.58 2142.48 1468.33 Q2142.48 1476.51 2138.59 1481.39 Q2134.73 1486.25 2128.18 1486.25 Q2126.42 1486.25 2124.61 1485.9 Q2122.8 1485.56 2120.86 1484.86 M2130.17 1470.21 Q2133.31 1470.21 2135.14 1468.06 Q2136.99 1465.9 2136.99 1462.15 Q2136.99 1458.43 2135.14 1456.27 Q2133.31 1454.1 2130.17 1454.1 Q2127.02 1454.1 2125.17 1456.27 Q2123.34 1458.43 2123.34 1462.15 Q2123.34 1465.9 2125.17 1468.06 Q2127.02 1470.21 2130.17 1470.21 Z" fill="#000000" fill-rule="nonzero" fill-opacity="1"></path><path clip-path="url(#clip170)" d="M2255.1 1454.1 Q2251.49 1454.1 2249.66 1457.66 Q2247.85 1461.2 2247.85 1468.33 Q2247.85 1475.44 2249.66 1479.01 Q2251.49 1482.55 2255.1 1482.55 Q2258.73 1482.55 2260.54 1479.01 Q2262.37 1475.44 2262.37 1468.33 Q2262.37 1461.2 2260.54 1457.66 Q2258.73 1454.1 2255.1 1454.1 M2255.1 1450.39 Q2260.91 1450.39 2263.97 1455 Q2267.04 1459.58 2267.04 1468.33 Q2267.04 1477.06 2263.97 1481.67 Q2260.91 1486.25 2255.1 1486.25 Q2249.29 1486.25 2246.21 1481.67 Q2243.16 1477.06 2243.16 1468.33 Q2243.16 1459.58 2246.21 1455 Q2249.29 1450.39 2255.1 1450.39 Z" fill="#000000" fill-rule="nonzero" fill-opacity="1"></path><path clip-path="url(#clip170)" d="M2275.26 1479.7 L2280.15 1479.7 L2280.15 1485.58 L2275.26 1485.58 L2275.26 1479.7 Z" fill="#000000" fill-rule="nonzero" fill-opacity="1"></path><path clip-path="url(#clip170)" d="M2304.5 1466.95 Q2307.85 1467.66 2309.73 1469.93 Q2311.63 1472.2 2311.63 1475.53 Q2311.63 1480.65 2308.11 1483.45 Q2304.59 1486.25 2298.11 1486.25 Q2295.93 1486.25 2293.62 1485.81 Q2291.33 1485.39 2288.87 1484.54 L2288.87 1480.02 Q2290.82 1481.16 2293.13 1481.74 Q2295.45 1482.32 2297.97 1482.32 Q2302.37 1482.32 2304.66 1480.58 Q2306.97 1478.84 2306.97 1475.53 Q2306.97 1472.48 2304.82 1470.77 Q2302.69 1469.03 2298.87 1469.03 L2294.85 1469.03 L2294.85 1465.19 L2299.06 1465.19 Q2302.51 1465.19 2304.34 1463.82 Q2306.16 1462.43 2306.16 1459.84 Q2306.16 1457.18 2304.27 1455.77 Q2302.39 1454.33 2298.87 1454.33 Q2296.95 1454.33 2294.75 1454.75 Q2292.55 1455.16 2289.91 1456.04 L2289.91 1451.88 Q2292.58 1451.14 2294.89 1450.77 Q2297.23 1450.39 2299.29 1450.39 Q2304.61 1450.39 2307.72 1452.83 Q2310.82 1455.23 2310.82 1459.35 Q2310.82 1462.22 2309.17 1464.21 Q2307.53 1466.18 2304.5 1466.95 Z" fill="#000000" fill-rule="nonzero" fill-opacity="1"></path><path clip-path="url(#clip170)" d="M2330.49 1454.1 Q2326.88 1454.1 2325.05 1457.66 Q2323.25 1461.2 2323.25 1468.33 Q2323.25 1475.44 2325.05 1479.01 Q2326.88 1482.55 2330.49 1482.55 Q2334.13 1482.55 2335.93 1479.01 Q2337.76 1475.44 2337.76 1468.33 Q2337.76 1461.2 2335.93 1457.66 Q2334.13 1454.1 2330.49 1454.1 M2330.49 1450.39 Q2336.3 1450.39 2339.36 1455 Q2342.44 1459.58 2342.44 1468.33 Q2342.44 1477.06 2339.36 1481.67 Q2336.3 1486.25 2330.49 1486.25 Q2324.68 1486.25 2321.6 1481.67 Q2318.55 1477.06 2318.55 1468.33 Q2318.55 1459.58 2321.6 1455 Q2324.68 1450.39 2330.49 1450.39 Z" fill="#000000" fill-rule="nonzero" fill-opacity="1"></path><path clip-path="url(#clip170)" d="M1091.21 1568.04 L1080.32 1532.4 L1086.62 1532.4 L1095.82 1562.31 Q1099.64 1558.37 1102.82 1552.89 Q1105.24 1548.79 1105.37 1545.22 Q1105.43 1543.54 1104.67 1540.35 Q1103.78 1536.57 1100.4 1532.4 L1106.32 1532.4 L1106.32 1532.4 Q1108.52 1535.23 1109.98 1539.18 Q1111.32 1542.8 1111.32 1545.29 Q1111.32 1551.52 1106.99 1557.09 Q1101.36 1564.35 1097.44 1568.04 L1091.21 1568.04 Z" fill="#000000" fill-rule="nonzero" fill-opacity="1"></path><path clip-path="url(#clip170)" d="M1146.01 1548.09 Q1146.24 1550.44 1148.24 1554.26 Q1150.6 1558.69 1155.05 1561.17 Q1159.41 1563.59 1164.12 1563.62 L1186.31 1563.62 L1186.31 1568.68 L1164.12 1568.68 Q1158.01 1568.68 1152.35 1565.53 Q1146.71 1562.38 1143.69 1556.78 Q1140.67 1551.17 1140.67 1545.22 Q1140.67 1539.33 1143.69 1533.73 Q1146.71 1528.13 1152.35 1524.95 Q1158.01 1521.77 1164.12 1521.77 L1186.31 1521.77 L1186.31 1526.83 L1164.12 1526.83 Q1159.41 1526.86 1155.05 1529.31 Q1150.63 1531.82 1148.24 1536.22 Q1146.2 1540.03 1145.92 1542.99 L1186.31 1542.99 L1186.31 1548.09 L1146.01 1548.09 Z" fill="#000000" fill-rule="nonzero" fill-opacity="1"></path><path clip-path="url(#clip170)" d="M1218.2 1518.52 L1231.7 1518.52 L1231.7 1523.07 L1224.06 1523.07 L1224.06 1572.09 L1231.7 1572.09 L1231.7 1576.64 L1218.2 1576.64 L1218.2 1518.52 Z" fill="#000000" fill-rule="nonzero" fill-opacity="1"></path><path clip-path="url(#clip170)" d="M1258.75 1524.76 Q1253.79 1524.76 1251.27 1529.66 Q1248.79 1534.53 1248.79 1544.33 Q1248.79 1554.1 1251.27 1559 Q1253.79 1563.87 1258.75 1563.87 Q1263.75 1563.87 1266.23 1559 Q1268.74 1554.1 1268.74 1544.33 Q1268.74 1534.53 1266.23 1529.66 Q1263.75 1524.76 1258.75 1524.76 M1258.75 1519.66 Q1266.74 1519.66 1270.94 1526 Q1275.17 1532.3 1275.17 1544.33 Q1275.17 1556.33 1270.94 1562.66 Q1266.74 1568.97 1258.75 1568.97 Q1250.76 1568.97 1246.53 1562.66 Q1242.33 1556.33 1242.33 1544.33 Q1242.33 1532.3 1246.53 1526 Q1250.76 1519.66 1258.75 1519.66 Z" fill="#000000" fill-rule="nonzero" fill-opacity="1"></path><path clip-path="url(#clip170)" d="M1286.47 1559.96 L1293.19 1559.96 L1293.19 1568.04 L1286.47 1568.04 L1286.47 1559.96 Z" fill="#000000" fill-rule="nonzero" fill-opacity="1"></path><path clip-path="url(#clip170)" d="M1312.73 1562.63 L1335.17 1562.63 L1335.17 1568.04 L1305 1568.04 L1305 1562.63 Q1308.66 1558.85 1314.96 1552.48 Q1321.29 1546.08 1322.92 1544.24 Q1326 1540.77 1327.21 1538.38 Q1328.45 1535.96 1328.45 1533.64 Q1328.45 1529.85 1325.78 1527.46 Q1323.14 1525.08 1318.87 1525.08 Q1315.85 1525.08 1312.48 1526.13 Q1309.14 1527.18 1305.32 1529.31 L1305.32 1522.82 Q1309.2 1521.26 1312.57 1520.46 Q1315.95 1519.66 1318.75 1519.66 Q1326.13 1519.66 1330.52 1523.36 Q1334.92 1527.05 1334.92 1533.22 Q1334.92 1536.15 1333.8 1538.79 Q1332.72 1541.4 1329.82 1544.97 Q1329.03 1545.89 1324.76 1550.32 Q1320.5 1554.71 1312.73 1562.63 Z" fill="#000000" fill-rule="nonzero" fill-opacity="1"></path><path clip-path="url(#clip170)" d="M1349.33 1559.96 L1356.05 1559.96 L1356.05 1565.43 L1350.83 1575.62 L1346.72 1575.62 L1349.33 1565.43 L1349.33 1559.96 Z" fill="#000000" fill-rule="nonzero" fill-opacity="1"></path><path clip-path="url(#clip170)" d="M1403.86 1524.76 Q1398.89 1524.76 1396.38 1529.66 Q1393.89 1534.53 1393.89 1544.33 Q1393.89 1554.1 1396.38 1559 Q1398.89 1563.87 1403.86 1563.87 Q1408.85 1563.87 1411.34 1559 Q1413.85 1554.1 1413.85 1544.33 Q1413.85 1534.53 1411.34 1529.66 Q1408.85 1524.76 1403.86 1524.76 M1403.86 1519.66 Q1411.85 1519.66 1416.05 1526 Q1420.28 1532.3 1420.28 1544.33 Q1420.28 1556.33 1416.05 1562.66 Q1411.85 1568.97 1403.86 1568.97 Q1395.87 1568.97 1391.63 1562.66 Q1387.43 1556.33 1387.43 1544.33 Q1387.43 1532.3 1391.63 1526 Q1395.87 1519.66 1403.86 1519.66 Z" fill="#000000" fill-rule="nonzero" fill-opacity="1"></path><path clip-path="url(#clip170)" d="M1431.58 1559.96 L1438.3 1559.96 L1438.3 1568.04 L1431.58 1568.04 L1431.58 1559.96 Z" fill="#000000" fill-rule="nonzero" fill-opacity="1"></path><path clip-path="url(#clip170)" d="M1471.78 1542.42 Q1476.39 1543.41 1478.97 1546.53 Q1481.58 1549.65 1481.58 1554.23 Q1481.58 1561.26 1476.74 1565.12 Q1471.91 1568.97 1462.99 1568.97 Q1460 1568.97 1456.82 1568.36 Q1453.67 1567.79 1450.29 1566.61 L1450.29 1560.4 Q1452.97 1561.96 1456.15 1562.76 Q1459.33 1563.56 1462.8 1563.56 Q1468.85 1563.56 1472 1561.17 Q1475.18 1558.78 1475.18 1554.23 Q1475.18 1550.03 1472.22 1547.67 Q1469.3 1545.29 1464.04 1545.29 L1458.51 1545.29 L1458.51 1540 L1464.3 1540 Q1469.04 1540 1471.56 1538.13 Q1474.07 1536.22 1474.07 1532.65 Q1474.07 1528.99 1471.46 1527.05 Q1468.88 1525.08 1464.04 1525.08 Q1461.4 1525.08 1458.38 1525.65 Q1455.36 1526.22 1451.73 1527.43 L1451.73 1521.7 Q1455.39 1520.68 1458.57 1520.17 Q1461.78 1519.66 1464.62 1519.66 Q1471.94 1519.66 1476.2 1523.01 Q1480.47 1526.32 1480.47 1531.98 Q1480.47 1535.93 1478.21 1538.67 Q1475.95 1541.37 1471.78 1542.42 Z" fill="#000000" fill-rule="nonzero" fill-opacity="1"></path><path clip-path="url(#clip170)" d="M1506.63 1518.52 L1506.63 1576.64 L1493.14 1576.64 L1493.14 1572.09 L1500.74 1572.09 L1500.74 1523.07 L1493.14 1523.07 L1493.14 1518.52 L1506.63 1518.52 Z" fill="#000000" fill-rule="nonzero" fill-opacity="1"></path><polyline clip-path="url(#clip172)" style="stroke:#000000; stroke-linecap:round; stroke-linejoin:round; stroke-width:2; stroke-opacity:0.1; fill:none" points="234.195,1376.5 2352.76,1376.5 "></polyline>
<polyline clip-path="url(#clip172)" style="stroke:#000000; stroke-linecap:round; stroke-linejoin:round; stroke-width:2; stroke-opacity:0.1; fill:none" points="234.195,1027.22 2352.76,1027.22 "></polyline>
<polyline clip-path="url(#clip172)" style="stroke:#000000; stroke-linecap:round; stroke-linejoin:round; stroke-width:2; stroke-opacity:0.1; fill:none" points="234.195,677.939 2352.76,677.939 "></polyline>
<polyline clip-path="url(#clip172)" style="stroke:#000000; stroke-linecap:round; stroke-linejoin:round; stroke-width:2; stroke-opacity:0.1; fill:none" points="234.195,328.657 2352.76,328.657 "></polyline>
<polyline clip-path="url(#clip170)" style="stroke:#000000; stroke-linecap:round; stroke-linejoin:round; stroke-width:4; stroke-opacity:1; fill:none" points="234.195,1423.18 234.195,47.2441 "></polyline>
<polyline clip-path="url(#clip170)" style="stroke:#000000; stroke-linecap:round; stroke-linejoin:round; stroke-width:4; stroke-opacity:1; fill:none" points="234.195,1376.5 253.093,1376.5 "></polyline>
<polyline clip-path="url(#clip170)" style="stroke:#000000; stroke-linecap:round; stroke-linejoin:round; stroke-width:4; stroke-opacity:1; fill:none" points="234.195,1027.22 253.093,1027.22 "></polyline>
<polyline clip-path="url(#clip170)" style="stroke:#000000; stroke-linecap:round; stroke-linejoin:round; stroke-width:4; stroke-opacity:1; fill:none" points="234.195,677.939 253.093,677.939 "></polyline>
<polyline clip-path="url(#clip170)" style="stroke:#000000; stroke-linecap:round; stroke-linejoin:round; stroke-width:4; stroke-opacity:1; fill:none" points="234.195,328.657 253.093,328.657 "></polyline>
<path clip-path="url(#clip170)" d="M114.839 1359.22 L137.061 1359.22 L137.061 1361.21 L124.515 1393.78 L119.63 1393.78 L131.436 1363.16 L114.839 1363.16 L114.839 1359.22 Z" fill="#000000" fill-rule="nonzero" fill-opacity="1"></path><path clip-path="url(#clip170)" d="M159.028 1363.3 L147.223 1381.75 L159.028 1381.75 L159.028 1363.3 M157.802 1359.22 L163.681 1359.22 L163.681 1381.75 L168.612 1381.75 L168.612 1385.63 L163.681 1385.63 L163.681 1393.78 L159.028 1393.78 L159.028 1385.63 L143.427 1385.63 L143.427 1381.12 L157.802 1359.22 Z" fill="#000000" fill-rule="nonzero" fill-opacity="1"></path><path clip-path="url(#clip170)" d="M186.343 1377.37 Q183.01 1377.37 181.089 1379.15 Q179.19 1380.94 179.19 1384.06 Q179.19 1387.19 181.089 1388.97 Q183.01 1390.75 186.343 1390.75 Q189.676 1390.75 191.598 1388.97 Q193.519 1387.16 193.519 1384.06 Q193.519 1380.94 191.598 1379.15 Q189.7 1377.37 186.343 1377.37 M181.667 1375.38 Q178.658 1374.64 176.968 1372.58 Q175.301 1370.52 175.301 1367.56 Q175.301 1363.41 178.241 1361.01 Q181.204 1358.6 186.343 1358.6 Q191.505 1358.6 194.445 1361.01 Q197.385 1363.41 197.385 1367.56 Q197.385 1370.52 195.695 1372.58 Q194.028 1374.64 191.042 1375.38 Q194.422 1376.17 196.297 1378.46 Q198.195 1380.75 198.195 1384.06 Q198.195 1389.08 195.116 1391.77 Q192.061 1394.45 186.343 1394.45 Q180.626 1394.45 177.547 1391.77 Q174.491 1389.08 174.491 1384.06 Q174.491 1380.75 176.389 1378.46 Q178.288 1376.17 181.667 1375.38 M179.954 1368 Q179.954 1370.68 181.621 1372.19 Q183.311 1373.69 186.343 1373.69 Q189.352 1373.69 191.042 1372.19 Q192.755 1370.68 192.755 1368 Q192.755 1365.31 191.042 1363.81 Q189.352 1362.3 186.343 1362.3 Q183.311 1362.3 181.621 1363.81 Q179.954 1365.31 179.954 1368 Z" fill="#000000" fill-rule="nonzero" fill-opacity="1"></path><path clip-path="url(#clip170)" d="M114.746 1009.94 L136.968 1009.94 L136.968 1011.93 L124.422 1044.5 L119.538 1044.5 L131.343 1013.88 L114.746 1013.88 L114.746 1009.94 Z" fill="#000000" fill-rule="nonzero" fill-opacity="1"></path><path clip-path="url(#clip170)" d="M146.135 1009.94 L164.491 1009.94 L164.491 1013.88 L150.417 1013.88 L150.417 1022.35 Q151.436 1022 152.454 1021.84 Q153.473 1021.65 154.491 1021.65 Q160.278 1021.65 163.658 1024.83 Q167.038 1028 167.038 1033.41 Q167.038 1038.99 163.565 1042.09 Q160.093 1045.17 153.774 1045.17 Q151.598 1045.17 149.329 1044.8 Q147.084 1044.43 144.677 1043.69 L144.677 1038.99 Q146.76 1040.13 148.982 1040.68 Q151.204 1041.24 153.681 1041.24 Q157.686 1041.24 160.024 1039.13 Q162.362 1037.02 162.362 1033.41 Q162.362 1029.8 160.024 1027.7 Q157.686 1025.59 153.681 1025.59 Q151.806 1025.59 149.931 1026.01 Q148.079 1026.42 146.135 1027.3 L146.135 1009.94 Z" fill="#000000" fill-rule="nonzero" fill-opacity="1"></path><path clip-path="url(#clip170)" d="M186.251 1013.02 Q182.639 1013.02 180.811 1016.58 Q179.005 1020.13 179.005 1027.26 Q179.005 1034.36 180.811 1037.93 Q182.639 1041.47 186.251 1041.47 Q189.885 1041.47 191.69 1037.93 Q193.519 1034.36 193.519 1027.26 Q193.519 1020.13 191.69 1016.58 Q189.885 1013.02 186.251 1013.02 M186.251 1009.32 Q192.061 1009.32 195.116 1013.92 Q198.195 1018.51 198.195 1027.26 Q198.195 1035.98 195.116 1040.59 Q192.061 1045.17 186.251 1045.17 Q180.44 1045.17 177.362 1040.59 Q174.306 1035.98 174.306 1027.26 Q174.306 1018.51 177.362 1013.92 Q180.44 1009.32 186.251 1009.32 Z" fill="#000000" fill-rule="nonzero" fill-opacity="1"></path><path clip-path="url(#clip170)" d="M116.343 660.659 L138.566 660.659 L138.566 662.65 L126.019 695.219 L121.135 695.219 L132.941 664.594 L116.343 664.594 L116.343 660.659 Z" fill="#000000" fill-rule="nonzero" fill-opacity="1"></path><path clip-path="url(#clip170)" d="M147.732 660.659 L166.089 660.659 L166.089 664.594 L152.015 664.594 L152.015 673.066 Q153.033 672.719 154.052 672.557 Q155.07 672.372 156.089 672.372 Q161.876 672.372 165.255 675.543 Q168.635 678.714 168.635 684.131 Q168.635 689.71 165.163 692.812 Q161.69 695.89 155.371 695.89 Q153.195 695.89 150.927 695.52 Q148.681 695.15 146.274 694.409 L146.274 689.71 Q148.357 690.844 150.579 691.4 Q152.802 691.955 155.278 691.955 Q159.283 691.955 161.621 689.849 Q163.959 687.742 163.959 684.131 Q163.959 680.52 161.621 678.414 Q159.283 676.307 155.278 676.307 Q153.403 676.307 151.528 676.724 Q149.677 677.14 147.732 678.02 L147.732 660.659 Z" fill="#000000" fill-rule="nonzero" fill-opacity="1"></path><path clip-path="url(#clip170)" d="M181.876 691.284 L198.195 691.284 L198.195 695.219 L176.251 695.219 L176.251 691.284 Q178.913 688.529 183.496 683.9 Q188.102 679.247 189.283 677.904 Q191.528 675.381 192.408 673.645 Q193.311 671.886 193.311 670.196 Q193.311 667.441 191.366 665.705 Q189.445 663.969 186.343 663.969 Q184.144 663.969 181.69 664.733 Q179.26 665.497 176.482 667.048 L176.482 662.326 Q179.306 661.191 181.76 660.613 Q184.213 660.034 186.251 660.034 Q191.621 660.034 194.815 662.719 Q198.01 665.404 198.01 669.895 Q198.01 672.025 197.2 673.946 Q196.412 675.844 194.306 678.437 Q193.727 679.108 190.625 682.326 Q187.524 685.52 181.876 691.284 Z" fill="#000000" fill-rule="nonzero" fill-opacity="1"></path><path clip-path="url(#clip170)" d="M114.26 311.377 L136.482 311.377 L136.482 313.368 L123.936 345.937 L119.052 345.937 L130.857 315.312 L114.26 315.312 L114.26 311.377 Z" fill="#000000" fill-rule="nonzero" fill-opacity="1"></path><path clip-path="url(#clip170)" d="M145.649 311.377 L164.005 311.377 L164.005 315.312 L149.931 315.312 L149.931 323.784 Q150.95 323.437 151.968 323.275 Q152.987 323.09 154.005 323.09 Q159.792 323.09 163.172 326.261 Q166.552 329.433 166.552 334.849 Q166.552 340.428 163.079 343.53 Q159.607 346.608 153.288 346.608 Q151.112 346.608 148.843 346.238 Q146.598 345.868 144.191 345.127 L144.191 340.428 Q146.274 341.562 148.496 342.118 Q150.718 342.673 153.195 342.673 Q157.2 342.673 159.538 340.567 Q161.876 338.46 161.876 334.849 Q161.876 331.238 159.538 329.132 Q157.2 327.025 153.195 327.025 Q151.32 327.025 149.445 327.442 Q147.593 327.859 145.649 328.738 L145.649 311.377 Z" fill="#000000" fill-rule="nonzero" fill-opacity="1"></path><path clip-path="url(#clip170)" d="M188.612 315.451 L176.806 333.9 L188.612 333.9 L188.612 315.451 M187.385 311.377 L193.264 311.377 L193.264 333.9 L198.195 333.9 L198.195 337.789 L193.264 337.789 L193.264 345.937 L188.612 345.937 L188.612 337.789 L173.01 337.789 L173.01 333.275 L187.385 311.377 Z" fill="#000000" fill-rule="nonzero" fill-opacity="1"></path><path clip-path="url(#clip170)" d="M18.0438 1003.8 L24.314 1003.8 Q22.5634 1007.46 21.704 1010.7 Q20.8447 1013.95 20.8447 1016.97 Q20.8447 1022.23 22.8817 1025.09 Q24.9187 1027.92 28.6745 1027.92 Q31.8255 1027.92 33.4488 1026.05 Q35.0402 1024.14 36.0269 1018.85 L36.8226 1014.97 Q38.1912 1007.78 41.6605 1004.37 Q45.098 1000.93 50.8908 1000.93 Q57.7976 1000.93 61.3624 1005.58 Q64.9272 1010.19 64.9272 1019.14 Q64.9272 1022.51 64.1633 1026.33 Q63.3994 1030.12 61.9035 1034.19 L55.2831 1034.19 Q57.4793 1030.28 58.5933 1026.52 Q59.7073 1022.77 59.7073 1019.14 Q59.7073 1013.63 57.543 1010.64 Q55.3786 1007.65 51.3682 1007.65 Q47.8671 1007.65 45.8937 1009.81 Q43.9204 1011.95 42.9337 1016.85 L42.1698 1020.76 Q40.7375 1027.95 37.682 1031.17 Q34.6264 1034.38 29.1837 1034.38 Q22.8817 1034.38 19.2532 1029.96 Q15.6248 1025.5 15.6248 1017.71 Q15.6248 1014.36 16.2295 1010.89 Q16.8343 1007.43 18.0438 1003.8 Z" fill="#000000" fill-rule="nonzero" fill-opacity="1"></path><path clip-path="url(#clip170)" d="M29.7248 965.507 L35.1993 965.507 Q33.8307 967.99 33.1623 970.504 Q32.4621 972.987 32.4621 975.533 Q32.4621 981.231 36.0905 984.382 Q39.6872 987.533 46.212 987.533 Q52.7369 987.533 56.3653 984.382 Q59.9619 981.231 59.9619 975.533 Q59.9619 972.987 59.2935 970.504 Q58.5933 967.99 57.2247 965.507 L62.6355 965.507 Q63.7814 967.958 64.3543 970.6 Q64.9272 973.21 64.9272 976.17 Q64.9272 984.222 59.8664 988.965 Q54.8057 993.707 46.212 993.707 Q37.491 993.707 32.4939 988.933 Q27.4968 984.127 27.4968 975.788 Q27.4968 973.083 28.0697 970.504 Q28.6108 967.926 29.7248 965.507 Z" fill="#000000" fill-rule="nonzero" fill-opacity="1"></path><path clip-path="url(#clip170)" d="M46.0847 939.121 Q46.0847 946.219 47.7079 948.956 Q49.3312 951.694 53.2461 951.694 Q56.3653 951.694 58.2114 949.657 Q60.0256 947.588 60.0256 944.055 Q60.0256 939.185 56.5881 936.257 Q53.1188 933.297 47.3897 933.297 L46.0847 933.297 L46.0847 939.121 M43.6657 927.44 L64.0042 927.44 L64.0042 933.297 L58.5933 933.297 Q61.8398 935.302 63.3994 938.294 Q64.9272 941.286 64.9272 945.614 Q64.9272 951.089 61.8716 954.336 Q58.7843 957.55 53.6281 957.55 Q47.6125 957.55 44.5569 953.54 Q41.5014 949.498 41.5014 941.509 L41.5014 933.297 L40.9285 933.297 Q36.8862 933.297 34.6901 935.97 Q32.4621 938.612 32.4621 943.418 Q32.4621 946.474 33.1941 949.37 Q33.9262 952.267 35.3903 954.94 L29.9795 954.94 Q28.7381 951.726 28.1334 948.702 Q27.4968 945.678 27.4968 942.814 Q27.4968 935.079 31.5072 931.26 Q35.5176 927.44 43.6657 927.44 Z" fill="#000000" fill-rule="nonzero" fill-opacity="1"></path><path clip-path="url(#clip170)" d="M42.4881 885.745 L64.0042 885.745 L64.0042 891.601 L42.679 891.601 Q37.6183 891.601 35.1038 893.575 Q32.5894 895.548 32.5894 899.495 Q32.5894 904.237 35.6131 906.975 Q38.6368 909.712 43.8567 909.712 L64.0042 909.712 L64.0042 915.6 L28.3562 915.6 L28.3562 909.712 L33.8944 909.712 Q30.6797 907.611 29.0883 904.778 Q27.4968 901.914 27.4968 898.19 Q27.4968 892.047 31.3163 888.896 Q35.1038 885.745 42.4881 885.745 Z" fill="#000000" fill-rule="nonzero" fill-opacity="1"></path><path clip-path="url(#clip170)" d="M42.4881 844.432 L64.0042 844.432 L64.0042 850.288 L42.679 850.288 Q37.6183 850.288 35.1038 852.261 Q32.5894 854.235 32.5894 858.182 Q32.5894 862.924 35.6131 865.661 Q38.6368 868.398 43.8567 868.398 L64.0042 868.398 L64.0042 874.287 L28.3562 874.287 L28.3562 868.398 L33.8944 868.398 Q30.6797 866.298 29.0883 863.465 Q27.4968 860.6 27.4968 856.877 Q27.4968 850.734 31.3163 847.583 Q35.1038 844.432 42.4881 844.432 Z" fill="#000000" fill-rule="nonzero" fill-opacity="1"></path><path clip-path="url(#clip170)" d="M44.7161 802.259 L47.5806 802.259 L47.5806 829.186 Q53.6281 828.804 56.8109 825.557 Q59.9619 822.279 59.9619 816.454 Q59.9619 813.08 59.1344 809.929 Q58.3069 806.747 56.6518 803.627 L62.1899 803.627 Q63.5267 806.778 64.227 810.089 Q64.9272 813.399 64.9272 816.804 Q64.9272 825.334 59.9619 830.332 Q54.9967 835.297 46.5303 835.297 Q37.7774 835.297 32.6531 830.586 Q27.4968 825.844 27.4968 817.823 Q27.4968 810.63 32.1438 806.46 Q36.7589 802.259 44.7161 802.259 M42.9973 808.115 Q38.1912 808.179 35.3266 810.821 Q32.4621 813.431 32.4621 817.759 Q32.4621 822.661 35.2312 825.621 Q38.0002 828.549 43.0292 828.995 L42.9973 808.115 Z" fill="#000000" fill-rule="nonzero" fill-opacity="1"></path><path clip-path="url(#clip170)" d="M33.7671 769.189 L14.479 769.189 L14.479 763.332 L64.0042 763.332 L64.0042 769.189 L58.657 769.189 Q61.8398 771.035 63.3994 773.868 Q64.9272 776.669 64.9272 780.615 Q64.9272 787.077 59.771 791.151 Q54.6147 795.193 46.212 795.193 Q37.8093 795.193 32.6531 791.151 Q27.4968 787.077 27.4968 780.615 Q27.4968 776.669 29.0564 773.868 Q30.5842 771.035 33.7671 769.189 M46.212 789.145 Q52.6732 789.145 56.3653 786.504 Q60.0256 783.83 60.0256 779.183 Q60.0256 774.536 56.3653 771.863 Q52.6732 769.189 46.212 769.189 Q39.7508 769.189 36.0905 771.863 Q32.3984 774.536 32.3984 779.183 Q32.3984 783.83 36.0905 786.504 Q39.7508 789.145 46.212 789.145 Z" fill="#000000" fill-rule="nonzero" fill-opacity="1"></path><path clip-path="url(#clip170)" d="M16.4842 730.294 L16.4842 700.248 L21.895 700.248 L21.895 723.865 L35.9632 723.865 L35.9632 701.235 L41.3741 701.235 L41.3741 723.865 L58.5933 723.865 L58.5933 699.675 L64.0042 699.675 L64.0042 730.294 L16.4842 730.294 Z" fill="#000000" fill-rule="nonzero" fill-opacity="1"></path><path clip-path="url(#clip170)" d="M14.479 689.363 L14.479 683.507 L64.0042 683.507 L64.0042 689.363 L14.479 689.363 Z" fill="#000000" fill-rule="nonzero" fill-opacity="1"></path><path clip-path="url(#clip170)" d="M44.7161 640.761 L47.5806 640.761 L47.5806 667.688 Q53.6281 667.306 56.8109 664.059 Q59.9619 660.781 59.9619 654.956 Q59.9619 651.582 59.1344 648.431 Q58.3069 645.249 56.6518 642.129 L62.1899 642.129 Q63.5267 645.28 64.227 648.591 Q64.9272 651.901 64.9272 655.306 Q64.9272 663.836 59.9619 668.834 Q54.9967 673.799 46.5303 673.799 Q37.7774 673.799 32.6531 669.088 Q27.4968 664.346 27.4968 656.325 Q27.4968 649.132 32.1438 644.962 Q36.7589 640.761 44.7161 640.761 M42.9973 646.617 Q38.1912 646.681 35.3266 649.323 Q32.4621 651.933 32.4621 656.261 Q32.4621 661.163 35.2312 664.123 Q38.0002 667.051 43.0292 667.497 L42.9973 646.617 Z" fill="#000000" fill-rule="nonzero" fill-opacity="1"></path><path clip-path="url(#clip170)" d="M35.1993 603.394 Q31.2526 601.198 29.3747 598.142 Q27.4968 595.087 27.4968 590.949 Q27.4968 585.379 31.4117 582.355 Q35.2948 579.332 42.4881 579.332 L64.0042 579.332 L64.0042 585.22 L42.679 585.22 Q37.5546 585.22 35.072 587.034 Q32.5894 588.848 32.5894 592.572 Q32.5894 597.124 35.6131 599.766 Q38.6368 602.407 43.8567 602.407 L64.0042 602.407 L64.0042 608.296 L42.679 608.296 Q37.5228 608.296 35.072 610.11 Q32.5894 611.924 32.5894 615.712 Q32.5894 620.2 35.6449 622.841 Q38.6686 625.483 43.8567 625.483 L64.0042 625.483 L64.0042 631.371 L28.3562 631.371 L28.3562 625.483 L33.8944 625.483 Q30.616 623.478 29.0564 620.677 Q27.4968 617.876 27.4968 614.025 Q27.4968 610.142 29.4702 607.436 Q31.4436 604.699 35.1993 603.394 Z" fill="#000000" fill-rule="nonzero" fill-opacity="1"></path><path clip-path="url(#clip170)" d="M44.7161 537.159 L47.5806 537.159 L47.5806 564.086 Q53.6281 563.704 56.8109 560.457 Q59.9619 557.179 59.9619 551.354 Q59.9619 547.981 59.1344 544.83 Q58.3069 541.647 56.6518 538.528 L62.1899 538.528 Q63.5267 541.679 64.227 544.989 Q64.9272 548.299 64.9272 551.705 Q64.9272 560.235 59.9619 565.232 Q54.9967 570.197 46.5303 570.197 Q37.7774 570.197 32.6531 565.486 Q27.4968 560.744 27.4968 552.723 Q27.4968 545.53 32.1438 541.36 Q36.7589 537.159 44.7161 537.159 M42.9973 543.015 Q38.1912 543.079 35.3266 545.721 Q32.4621 548.331 32.4621 552.659 Q32.4621 557.561 35.2312 560.521 Q38.0002 563.449 43.0292 563.895 L42.9973 543.015 Z" fill="#000000" fill-rule="nonzero" fill-opacity="1"></path><path clip-path="url(#clip170)" d="M42.4881 497.914 L64.0042 497.914 L64.0042 503.771 L42.679 503.771 Q37.6183 503.771 35.1038 505.744 Q32.5894 507.718 32.5894 511.664 Q32.5894 516.407 35.6131 519.144 Q38.6368 521.881 43.8567 521.881 L64.0042 521.881 L64.0042 527.77 L28.3562 527.77 L28.3562 521.881 L33.8944 521.881 Q30.6797 519.781 29.0883 516.948 Q27.4968 514.083 27.4968 510.359 Q27.4968 504.216 31.3163 501.065 Q35.1038 497.914 42.4881 497.914 Z" fill="#000000" fill-rule="nonzero" fill-opacity="1"></path><path clip-path="url(#clip170)" d="M18.2347 480.44 L28.3562 480.44 L28.3562 468.377 L32.9077 468.377 L32.9077 480.44 L52.2594 480.44 Q56.6199 480.44 57.8613 479.263 Q59.1026 478.053 59.1026 474.393 L59.1026 468.377 L64.0042 468.377 L64.0042 474.393 Q64.0042 481.173 61.4897 483.751 Q58.9434 486.329 52.2594 486.329 L32.9077 486.329 L32.9077 490.626 L28.3562 490.626 L28.3562 486.329 L18.2347 486.329 L18.2347 480.44 Z" fill="#000000" fill-rule="nonzero" fill-opacity="1"></path><path clip-path="url(#clip170)" d="M29.4065 437.949 L34.9447 437.949 Q33.6716 440.432 33.035 443.106 Q32.3984 445.779 32.3984 448.644 Q32.3984 453.004 33.7352 455.2 Q35.072 457.365 37.7456 457.365 Q39.7826 457.365 40.9603 455.805 Q42.1061 454.246 43.1565 449.535 L43.6021 447.53 Q44.9389 441.291 47.3897 438.681 Q49.8086 436.04 54.1691 436.04 Q59.1344 436.04 62.0308 439.986 Q64.9272 443.901 64.9272 450.776 Q64.9272 453.641 64.3543 456.76 Q63.8132 459.847 62.6992 463.285 L56.6518 463.285 Q58.3387 460.038 59.198 456.887 Q60.0256 453.736 60.0256 450.649 Q60.0256 446.511 58.6251 444.283 Q57.1929 442.055 54.6147 442.055 Q52.2276 442.055 50.9545 443.679 Q49.6813 445.27 48.5037 450.713 L48.0262 452.75 Q46.8804 458.192 44.5251 460.611 Q42.138 463.03 38.0002 463.03 Q32.9713 463.03 30.2341 459.465 Q27.4968 455.901 27.4968 449.344 Q27.4968 446.097 27.9743 443.233 Q28.4517 440.368 29.4065 437.949 Z" fill="#000000" fill-rule="nonzero" fill-opacity="1"></path><polyline clip-path="url(#clip172)" style="stroke:#009af9; stroke-linecap:round; stroke-linejoin:round; stroke-width:4; stroke-opacity:1; fill:none" points="294.154,123.445 314.342,839.071 334.531,396.543 354.719,490.271 374.907,554.053 395.096,567.472 415.284,608.217 435.472,503.384 455.661,176.412 475.849,462.825 496.037,1081.84 516.226,156.926 536.414,446.336 556.602,994.175 576.79,448.944 596.979,713.308 617.167,452.841 637.355,185.139 657.544,319.479 677.732,478.236 697.92,626.468 718.109,763.161 738.297,770.664 758.485,749.369 778.674,433.865 798.862,666.545 819.05,851.459 839.238,382.583 859.427,661.389 879.615,624.789 899.803,1066.97 919.992,421.647 940.18,734.307 960.368,814.441 980.557,402.989 1000.74,888.72 1020.93,829.23 1041.12,738.91 1061.31,86.1857 1081.5,1029.55 1101.69,953.67 1121.87,305.417 1142.06,753.811 1162.25,784.95 1182.44,1042.4 1202.63,631.605 1222.82,612.305 1243,941.18 1263.19,892.704 1283.38,770.568 1303.57,923.978 1323.76,1059.65 1343.95,1090.59 1364.13,489.614 1384.32,1181.62 1404.51,522.767 1424.7,862.344 1444.89,222.863 1465.08,1274.44 1485.26,1114.22 1505.45,574.324 1525.64,944.702 1545.83,622.384 1566.02,694.805 1586.21,1384.24 1606.39,1339.5 1626.58,1221.93 1646.77,856.326 1666.96,1151.88 1687.15,1090.17 1707.34,849.919 1727.52,1245.87 1747.71,802.417 1767.9,857.51 1788.09,676.631 1808.28,865.392 1828.47,1008.2 1848.65,1084.19 1868.84,989.372 1889.03,843.261 1909.22,906.513 1929.41,937.014 1949.6,820.81 1969.78,586.251 1989.97,745.924 2010.16,519.306 2030.35,1057.25 2050.54,787.485 2070.73,902.611 2090.91,1037.24 2111.1,608.895 2131.29,786.907 2151.48,952.112 2171.67,1019.88 2191.86,1017.71 2212.04,993.158 2232.23,936.995 2252.42,915.233 2272.61,587.25 2292.8,1031.85 "></polyline>
</svg>